<svg xmlns="http://www.w3.org/2000/svg" xmlns:xlink="http://www.w3.org/1999/xlink" width="2441" zoomAndPan="magnify" viewBox="0 0 1830.75 749.999995" height="1000" preserveAspectRatio="xMidYMid meet" version="1.0"><defs><g/><clipPath id="9aaa0b359c"><rect x="0" width="386" y="0" height="403"/></clipPath><clipPath id="3ea6f5a4d5"><path d="M 74.988281 154 L 536 154 L 536 726 L 74.988281 726 Z M 74.988281 154 " clip-rule="nonzero"/></clipPath><clipPath id="d555f1f5aa"><rect x="0" width="387" y="0" height="403"/></clipPath><clipPath id="1a83e48951"><rect x="0" width="131" y="0" height="403"/></clipPath></defs><g transform="matrix(1, 0, 0, 1, 1375, 262)"><g clip-path="url(#9aaa0b359c)"><g fill="#dc2626" fill-opacity="1"><g transform="translate(1.013076, 304.037221)"><g><path d="M 17.480469 -109.839844 C 17.480469 -46.839844 45.519531 3.957031 97.304688 3.957031 C 148.761719 3.957031 177.128906 -46.839844 177.128906 -109.839844 C 177.128906 -172.839844 148.761719 -223.636719 97.304688 -223.636719 C 45.519531 -223.636719 17.480469 -172.839844 17.480469 -109.839844 Z M 157.667969 -109.839844 C 157.667969 -56.402344 136.226562 -12.863281 97.304688 -12.863281 C 58.054688 -12.863281 36.613281 -56.402344 36.613281 -109.839844 C 36.613281 -163.933594 58.054688 -206.8125 97.304688 -206.8125 C 136.226562 -206.8125 157.667969 -163.933594 157.667969 -109.839844 Z M 157.667969 -109.839844 "/></g></g></g><g fill="#dc2626" fill-opacity="1"><g transform="translate(147.793684, 304.037221)"><g><path d="M 11.542969 -23.417969 C 25.398438 -6.925781 46.507812 3.957031 73.226562 3.957031 C 117.425781 3.957031 136.554688 -24.738281 136.554688 -54.753906 C 136.554688 -94.664062 107.199219 -109.839844 80.152344 -123.363281 C 57.722656 -134.90625 36.613281 -145.460938 36.613281 -169.210938 C 36.613281 -191.96875 54.425781 -206.8125 76.523438 -206.8125 C 94.335938 -206.8125 109.839844 -200.875 121.714844 -187.023438 L 131.9375 -200.875 C 118.746094 -215.390625 100.273438 -223.636719 76.855469 -223.636719 C 44.199219 -223.636719 17.8125 -201.867188 17.8125 -168.550781 C 17.8125 -132.269531 45.519531 -119.074219 71.578125 -106.210938 C 94.996094 -94.335938 117.753906 -82.460938 117.753906 -53.765625 C 117.753906 -32.65625 104.230469 -12.863281 73.226562 -12.863281 C 51.457031 -12.863281 33.316406 -23.75 22.757812 -37.601562 Z M 11.542969 -23.417969 "/></g></g></g><g fill="#dc2626" fill-opacity="1"><g transform="translate(251.364464, 304.037221)"><g><path d="M 132.269531 0 L 132.269531 -16.492188 L 43.210938 -16.492188 L 43.210938 -104.5625 L 129.960938 -104.5625 L 129.960938 -121.054688 L 43.210938 -121.054688 L 43.210938 -203.515625 L 132.269531 -203.515625 L 132.269531 -220.007812 L 24.738281 -220.007812 L 24.738281 0 Z M 132.269531 0 "/></g></g></g></g></g><g clip-path="url(#3ea6f5a4d5)"><path fill="#8c52ff" d="M 340.695312 154.757812 L 341.847656 154.746094 C 344.738281 154.722656 347.628906 154.710938 350.523438 154.703125 L 351.8125 154.699219 C 366.15625 154.667969 380.21875 155.304688 394.433594 157.375 C 395.539062 157.535156 396.644531 157.679688 397.753906 157.820312 C 407.214844 159.03125 416.410156 161.300781 425.65625 163.597656 L 427.449219 164.042969 C 434.589844 165.820312 441.601562 167.78125 448.539062 170.246094 L 450.285156 170.855469 C 451.746094 171.371094 453.203125 171.898438 454.65625 172.429688 L 456.085938 172.941406 C 458.710938 173.898438 461.289062 174.953125 463.832031 176.109375 C 466.0625 177.082031 468.382812 177.804688 470.6875 178.582031 C 472.347656 179.238281 472.347656 179.238281 473.359375 180.015625 C 474.515625 180.863281 475.539062 181.308594 476.882812 181.796875 C 479.890625 182.960938 482.683594 184.40625 485.507812 185.953125 L 487.171875 186.863281 C 497.664062 192.65625 507.71875 199.03125 517.652344 205.726562 L 518.925781 206.585938 C 532.203125 215.539062 532.203125 215.539062 534.792969 219.414062 C 535.363281 220.625 535.667969 221.554688 535.773438 222.890625 C 535.53125 224.097656 535.53125 224.097656 534.78125 225.269531 C 532.503906 226.820312 530.085938 227.890625 527.5625 228.96875 C 525.515625 229.847656 523.5 230.800781 521.488281 231.753906 L 520.226562 232.34375 C 507.960938 238.167969 496.542969 245.339844 485.574219 253.3125 L 484.679688 253.960938 C 478.46875 258.464844 472.722656 263.492188 467.054688 268.65625 L 465.558594 269.984375 C 454.816406 279.574219 447 290.8125 439.246094 302.847656 C 437.300781 305.875 435.316406 308.871094 433.292969 311.84375 L 432.601562 312.867188 C 429.265625 317.71875 429.265625 317.71875 427.375 319.449219 C 423.050781 320.316406 418.183594 318.300781 414.054688 316.960938 C 411.640625 316.140625 409.242188 315.28125 406.84375 314.414062 C 399.640625 311.820312 392.4375 309.289062 385.046875 307.28125 L 383.210938 306.78125 C 363.253906 301.589844 342.09375 302.476562 322.300781 307.832031 C 311.503906 310.875 301.347656 314.757812 291.398438 319.980469 L 290.035156 320.691406 C 277.9375 327.058594 265.652344 335.160156 257.007812 345.90625 L 255.828125 347.363281 C 252.050781 352.152344 248.652344 357.171875 245.367188 362.304688 L 244.664062 363.398438 C 236.710938 375.863281 231.917969 389.824219 228.433594 404.105469 L 227.972656 405.992188 C 225.859375 415.261719 224.679688 424.851562 224.605469 434.355469 L 224.589844 436.015625 C 224.453125 454.421875 225.480469 472.265625 231.609375 489.816406 L 232.253906 491.785156 C 234.605469 498.726562 237.558594 505.378906 240.605469 512.039062 L 241.117188 513.175781 C 246.855469 525.710938 255.582031 539.007812 266.5 547.667969 C 266.859375 547.957031 267.21875 548.25 267.585938 548.546875 L 267.585938 549.605469 C 267.878906 549.730469 268.167969 549.855469 268.464844 549.980469 C 270.035156 550.84375 271.261719 551.9375 272.613281 553.109375 C 275.714844 555.742188 278.953125 558.03125 282.402344 560.1875 L 283.519531 560.894531 C 290.070312 565.027344 296.8125 568.519531 303.851562 571.75 C 304.933594 572.253906 306.011719 572.777344 307.078125 573.3125 C 325.195312 582.257812 346.792969 582.902344 366.578125 581.652344 C 379.425781 580.707031 391.222656 577.128906 403.351562 573.039062 C 407.335938 571.710938 410.8125 570.652344 415.039062 570.871094 C 416.792969 571.300781 416.792969 571.300781 418.179688 572.09375 C 419.929688 573.933594 420.949219 575.917969 422.082031 578.175781 L 422.988281 579.941406 C 424.820312 583.550781 426.582031 587.195312 428.3125 590.855469 C 436.015625 607.117188 444.683594 622.605469 454.886719 637.4375 L 455.714844 638.640625 C 460.980469 646.277344 466.527344 653.683594 472.578125 660.714844 C 473.90625 662.269531 475.195312 663.851562 476.480469 665.445312 C 477.78125 667.050781 479.09375 668.570312 480.582031 670.007812 L 481.871094 671.296875 L 481.871094 672.355469 L 482.929688 672.355469 C 483.65625 673.078125 483.65625 673.078125 484.515625 674.109375 C 486.539062 676.5 488.65625 678.789062 490.792969 681.078125 C 491.777344 682.234375 492.464844 683.109375 492.980469 684.523438 C 492.890625 687.40625 492.890625 687.40625 492.453125 688.757812 C 490.960938 690.914062 489.511719 692.03125 487.207031 693.25 L 485.339844 694.242188 L 483.359375 695.273438 C 482.683594 695.628906 482.011719 695.984375 481.335938 696.339844 C 476.472656 698.898438 471.535156 701.308594 466.527344 703.574219 L 465.0625 704.28125 C 461.089844 706.1875 456.945312 707.570312 452.78125 708.996094 C 451.203125 709.539062 449.636719 710.101562 448.082031 710.714844 C 436.304688 715.371094 423.824219 718.226562 411.5 721.03125 L 410.066406 721.363281 C 404.277344 722.675781 398.4375 723.539062 392.554688 724.304688 L 390.507812 724.574219 C 381.824219 725.664062 373.230469 725.878906 364.488281 725.882812 L 361.003906 725.886719 C 358.582031 725.890625 356.15625 725.894531 353.730469 725.890625 C 350.65625 725.890625 347.578125 725.898438 344.503906 725.910156 C 342.105469 725.914062 339.710938 725.917969 337.3125 725.914062 C 336.179688 725.914062 335.046875 725.917969 333.914062 725.921875 C 326.726562 725.945312 319.695312 725.609375 312.5625 724.734375 L 311.421875 724.601562 C 283.457031 721.265625 256.265625 712.363281 231.082031 699.867188 C 230.414062 699.550781 229.746094 699.234375 229.078125 698.917969 C 218.871094 694.019531 209.421875 687.910156 200.238281 681.320312 C 199.214844 680.585938 198.1875 679.859375 197.15625 679.132812 L 195.539062 677.988281 L 194.058594 676.945312 L 192.984375 676.058594 L 192.984375 675 L 192.152344 674.644531 C 190.382812 673.675781 188.863281 672.421875 187.296875 671.164062 C 185.1875 669.480469 183.074219 667.820312 180.882812 666.238281 C 180.335938 665.8125 179.792969 665.386719 179.230469 664.949219 L 179.230469 663.890625 L 178.371094 663.523438 C 176.722656 662.617188 175.355469 661.441406 173.9375 660.21875 L 173.027344 659.441406 C 170.40625 657.191406 167.859375 654.863281 165.320312 652.515625 C 163.078125 650.453125 160.789062 648.441406 158.453125 646.476562 L 157.273438 645.472656 L 156.195312 644.566406 L 155.417969 643.785156 L 155.417969 642.726562 C 155.125 642.601562 154.828125 642.476562 154.519531 642.351562 C 150.863281 640.300781 147.96875 636.417969 145.265625 633.246094 C 144.589844 632.46875 143.894531 631.707031 143.183594 630.960938 C 138.707031 626.226562 134.910156 621.003906 131.082031 615.742188 L 130.148438 614.46875 C 122.546875 604.050781 115.621094 592.921875 109.917969 581.351562 L 109.375 580.261719 C 101.546875 564.410156 95.101562 547.953125 89.347656 531.253906 L 88.90625 529.96875 C 87.238281 525.140625 85.707031 520.320312 84.441406 515.371094 C 83.980469 513.589844 83.476562 511.824219 82.964844 510.054688 C 80.621094 501.179688 79.234375 492.070312 78.074219 482.972656 L 77.824219 481.070312 C 76.363281 469.09375 75.867188 457.101562 75.921875 445.042969 L 75.929688 443.082031 C 76.074219 398.757812 82.972656 354.441406 103.601562 314.59375 C 104.542969 312.761719 105.40625 310.902344 106.265625 309.03125 C 114.980469 290.128906 126.820312 272.980469 140.074219 257.015625 L 141.40625 255.40625 C 145.785156 250.132812 150.402344 245.082031 155.261719 240.246094 C 156.515625 239 157.714844 237.734375 158.859375 236.382812 C 161.5625 233.257812 164.480469 230.472656 167.613281 227.78125 C 168.585938 226.914062 169.492188 226.011719 170.398438 225.074219 C 172.332031 223.109375 174.441406 221.40625 176.585938 219.683594 C 177.925781 218.589844 179.246094 217.472656 180.546875 216.332031 C 184.632812 212.800781 188.964844 209.660156 193.375 206.542969 C 194.511719 205.738281 195.644531 204.925781 196.773438 204.105469 C 208.769531 195.46875 221.472656 187.722656 234.808594 181.324219 C 235.863281 180.8125 236.914062 180.296875 237.960938 179.773438 C 264.757812 166.59375 292.773438 159.542969 322.339844 155.949219 L 323.460938 155.8125 C 324.589844 155.679688 325.714844 155.554688 326.847656 155.429688 L 328.140625 155.285156 C 332.320312 154.859375 336.492188 154.789062 340.695312 154.757812 M 72.882812 425.796875 L 74.996094 425.796875 L 74.996094 428.972656 L 72.882812 428.972656 Z M 72.882812 425.796875 " fill-opacity="1" fill-rule="nonzero"/></g><g transform="matrix(1, 0, 0, 1, 436, 274)"><g clip-path="url(#d555f1f5aa)"><g fill="#8c52ff" fill-opacity="1"><g transform="translate(1.560504, 302.918109)"><g><path d="M 17.46875 -109.765625 C 17.46875 -46.808594 45.488281 3.957031 97.238281 3.957031 C 148.660156 3.957031 177.011719 -46.808594 177.011719 -109.765625 C 177.011719 -172.726562 148.660156 -223.488281 97.238281 -223.488281 C 45.488281 -223.488281 17.46875 -172.726562 17.46875 -109.765625 Z M 157.5625 -109.765625 C 157.5625 -56.367188 136.136719 -12.855469 97.238281 -12.855469 C 58.015625 -12.855469 36.589844 -56.367188 36.589844 -109.765625 C 36.589844 -163.824219 58.015625 -206.675781 97.238281 -206.675781 C 136.136719 -206.675781 157.5625 -163.824219 157.5625 -109.765625 Z M 157.5625 -109.765625 "/></g></g></g><g fill="#8c52ff" fill-opacity="1"><g transform="translate(148.243624, 302.918109)"><g><path d="M 11.535156 -23.402344 C 25.382812 -6.921875 46.476562 3.957031 73.175781 3.957031 C 117.347656 3.957031 136.464844 -24.722656 136.464844 -54.71875 C 136.464844 -94.601562 107.128906 -109.765625 80.097656 -123.28125 C 57.683594 -134.816406 36.589844 -145.367188 36.589844 -169.097656 C 36.589844 -191.84375 54.386719 -206.675781 76.472656 -206.675781 C 94.273438 -206.675781 109.765625 -200.742188 121.632812 -186.898438 L 131.851562 -200.742188 C 118.664062 -215.246094 100.207031 -223.488281 76.804688 -223.488281 C 44.171875 -223.488281 17.800781 -201.730469 17.800781 -168.441406 C 17.800781 -132.179688 45.488281 -118.996094 71.527344 -106.140625 C 94.933594 -94.273438 117.675781 -82.40625 117.675781 -53.730469 C 117.675781 -32.632812 104.164062 -12.855469 73.175781 -12.855469 C 51.421875 -12.855469 33.292969 -23.734375 22.746094 -37.578125 Z M 11.535156 -23.402344 "/></g></g></g><g fill="#8c52ff" fill-opacity="1"><g transform="translate(251.745613, 302.918109)"><g><path d="M 132.179688 0 L 132.179688 -16.480469 L 43.179688 -16.480469 L 43.179688 -104.492188 L 129.875 -104.492188 L 129.875 -120.972656 L 43.179688 -120.972656 L 43.179688 -203.378906 L 132.179688 -203.378906 L 132.179688 -219.863281 L 24.722656 -219.863281 L 24.722656 0 Z M 132.179688 0 "/></g></g></g></g></g><g transform="matrix(1, 0, 0, 1, 374, 276)"><g clip-path="url(#1a83e48951)"><g fill="#8c52ff" fill-opacity="1"><g transform="translate(0.953506, 303.153551)"><g><path d="M 125.257812 0 L 125.257812 -16.480469 L 43.179688 -16.480469 L 43.179688 -219.863281 L 24.722656 -219.863281 L 24.722656 0 Z M 125.257812 0 "/></g></g></g></g></g><path fill="#dc2626" d="M 984.183594 14.511719 L 985.558594 14.773438 C 991.582031 15.921875 997.53125 17.292969 1003.457031 18.871094 L 1005.09375 19.304688 C 1008.023438 20.101562 1010.816406 21.039062 1013.617188 22.203125 C 1014.945312 22.75 1016.300781 23.1875 1017.675781 23.609375 C 1021.0625 24.722656 1024.234375 26.183594 1027.4375 27.746094 L 1028.410156 28.214844 C 1034.703125 31.265625 1040.875 34.46875 1046.554688 38.574219 C 1047.894531 39.519531 1049.265625 40.390625 1050.65625 41.261719 C 1052.589844 42.480469 1054.441406 43.746094 1056.246094 45.140625 C 1057.289062 45.929688 1058.347656 46.703125 1059.410156 47.464844 L 1060.46875 48.222656 C 1061.171875 48.730469 1061.878906 49.234375 1062.589844 49.738281 C 1063.445312 50.355469 1064.273438 51.007812 1065.097656 51.664062 L 1065.097656 52.679688 L 1065.957031 53.070312 C 1070.863281 55.699219 1074.914062 60.300781 1078.804688 64.21875 C 1079.710938 65.132812 1080.621094 66.035156 1081.53125 66.941406 L 1083.265625 68.675781 L 1084.085938 69.492188 C 1084.730469 70.148438 1085.351562 70.824219 1085.960938 71.507812 L 1085.960938 72.527344 L 1086.980469 72.527344 C 1087.625 73.226562 1087.625 73.226562 1088.410156 74.277344 C 1089.613281 75.871094 1090.816406 77.464844 1092.050781 79.035156 C 1100.660156 90.039062 1107.621094 101.980469 1113.441406 114.675781 C 1113.863281 115.59375 1114.292969 116.503906 1114.722656 117.410156 C 1117.804688 123.949219 1119.984375 130.695312 1121.820312 137.671875 C 1122.085938 138.640625 1122.355469 139.609375 1122.636719 140.574219 C 1124.507812 147.175781 1124.234375 153.757812 1124.128906 160.566406 L 1128.199219 160.566406 L 1128.425781 159.105469 C 1131.148438 142.652344 1139.816406 130.105469 1150.082031 117.308594 L 1151.320312 115.757812 C 1155.703125 110.328125 1160.320312 105.074219 1165.039062 99.933594 C 1165.890625 99.03125 1165.890625 99.03125 1166.367188 97.972656 L 1167.382812 97.972656 L 1167.75 97.101562 C 1168.550781 95.671875 1169.542969 94.71875 1170.722656 93.582031 C 1172.316406 92.113281 1172.316406 92.113281 1173.492188 90.339844 L 1174.507812 90.339844 L 1175.019531 88.8125 L 1176.035156 88.8125 L 1176.035156 87.792969 C 1176.734375 86.96875 1176.734375 86.96875 1177.5625 86.265625 L 1178.582031 86.265625 L 1178.957031 85.375 C 1182.464844 79.117188 1192.035156 73.355469 1197.917969 69.472656 L 1199.292969 68.523438 C 1199.761719 68.207031 1200.234375 67.890625 1200.71875 67.566406 L 1201.972656 66.714844 C 1206.4375 64.390625 1210.859375 64.113281 1215.800781 64.128906 C 1216.898438 64.128906 1217.996094 64.109375 1219.097656 64.085938 C 1223.824219 64.046875 1227.734375 64.714844 1232.015625 66.929688 C 1233.214844 67.714844 1233.214844 67.714844 1234.050781 68.457031 L 1234.050781 69.472656 L 1235.578125 69.984375 L 1235.578125 71 L 1236.59375 71 C 1239.339844 74.125 1241.6875 77.625 1242.699219 81.6875 C 1243.363281 86.199219 1243.738281 91.1875 1242.320312 95.59375 C 1241.828125 96.769531 1241.273438 97.871094 1240.664062 98.988281 L 1240.011719 100.191406 C 1234.308594 110.144531 1225.824219 117.941406 1217.796875 125.992188 L 1216.820312 126.976562 C 1213.492188 130.3125 1210.164062 133.597656 1206.570312 136.648438 C 1205.664062 137.472656 1204.765625 138.300781 1203.867188 139.128906 C 1201.972656 140.859375 1200.042969 142.515625 1198.046875 144.121094 C 1183.199219 156.171875 1173.042969 175.699219 1166.257812 193.320312 C 1162.972656 202.085938 1160.046875 211.003906 1157.671875 220.058594 C 1156.960938 222.757812 1156.164062 225.375 1155.140625 227.980469 C 1154.652344 229.292969 1154.238281 230.617188 1153.839844 231.960938 L 1153.4375 233.328125 L 1153.136719 234.355469 C 1158.9375 233.140625 1164.703125 231.921875 1170.386719 230.234375 C 1183.164062 226.511719 1196.648438 225.515625 1209.894531 225.570312 C 1211.402344 225.578125 1212.914062 225.570312 1214.421875 225.566406 C 1226.589844 225.554688 1238.683594 226.683594 1250.464844 229.796875 C 1252.226562 230.25 1253.988281 230.628906 1255.773438 230.984375 C 1264.296875 232.792969 1272.351562 235.535156 1280.359375 238.9375 L 1282.628906 239.878906 C 1286.023438 241.3125 1289.273438 242.839844 1292.398438 244.808594 C 1293.664062 245.597656 1294.953125 246.308594 1296.261719 247.015625 C 1301.5 249.851562 1306.570312 252.742188 1311.402344 256.238281 C 1312.070312 256.707031 1312.738281 257.171875 1313.40625 257.640625 C 1317.472656 260.480469 1321.46875 263.378906 1325.375 266.4375 C 1326.292969 267.140625 1327.230469 267.8125 1328.195312 268.453125 L 1328.195312 269.46875 L 1329.085938 269.882812 C 1332.917969 271.90625 1336.1875 275.175781 1339.496094 277.953125 C 1340.4375 278.738281 1341.394531 279.503906 1342.371094 280.246094 L 1343.460938 281.175781 L 1343.460938 282.191406 L 1344.988281 282.699219 L 1344.988281 283.71875 L 1346.007812 283.71875 C 1346.6875 284.375 1346.6875 284.375 1347.5 285.339844 L 1348.460938 286.472656 L 1349.570312 287.789062 L 1350.851562 289.28125 C 1361.175781 301.320312 1370.492188 314.058594 1378.039062 328.019531 C 1378.496094 328.867188 1378.960938 329.707031 1379.429688 330.546875 C 1380.175781 331.890625 1380.90625 333.246094 1381.628906 334.609375 L 1382.523438 336.273438 C 1385.941406 342.796875 1388.613281 349.640625 1391.296875 356.492188 L 1391.972656 358.191406 C 1395.375 366.855469 1398.058594 375.621094 1400.457031 384.605469 C 1400.800781 385.890625 1401.148438 387.175781 1401.503906 388.457031 C 1402.636719 392.582031 1403.582031 396.746094 1404.339844 400.957031 L 1404.667969 402.773438 C 1405.480469 407.351562 1406.160156 411.90625 1406.566406 416.539062 L 1406.703125 417.953125 C 1408.367188 435.5 1408.207031 453.449219 1406.566406 470.992188 L 1406.40625 472.6875 C 1403.980469 497.832031 1398.1875 522.84375 1390.28125 546.816406 L 1389.75 548.445312 C 1388.84375 551.199219 1387.894531 553.902344 1386.78125 556.582031 C 1385.648438 559.339844 1384.632812 562.125 1383.664062 564.945312 C 1382.597656 568.03125 1381.359375 571.042969 1379.941406 573.984375 C 1379.078125 575.839844 1378.285156 577.714844 1377.496094 579.601562 C 1375.289062 584.878906 1372.800781 589.925781 1370.074219 594.949219 C 1369.40625 596.203125 1368.746094 597.464844 1368.101562 598.730469 C 1361.292969 611.984375 1353.558594 624.707031 1344.988281 636.890625 L 1344.359375 637.792969 C 1339.023438 645.414062 1333.304688 652.730469 1327.402344 659.914062 C 1326.746094 660.714844 1326.097656 661.523438 1325.449219 662.332031 C 1323.140625 665.207031 1320.707031 667.933594 1318.183594 670.621094 C 1316.351562 672.582031 1314.652344 674.65625 1313.082031 676.835938 C 1312.863281 677.089844 1312.644531 677.34375 1312.417969 677.601562 L 1311.402344 677.601562 L 1311.019531 678.492188 C 1310.292969 679.808594 1309.476562 680.6875 1308.347656 681.675781 L 1307.332031 681.675781 L 1307.332031 682.691406 C 1306.632812 683.519531 1306.632812 683.519531 1305.804688 684.21875 L 1304.785156 684.21875 L 1304.785156 685.238281 L 1303.769531 685.238281 L 1303.257812 686.761719 L 1302.242188 686.761719 L 1302.242188 687.78125 C 1301.460938 688.480469 1300.648438 689.140625 1299.824219 689.785156 C 1297.683594 691.492188 1295.617188 693.285156 1293.621094 695.160156 C 1290.726562 697.859375 1287.640625 700.222656 1284.429688 702.539062 L 1283.070312 703.550781 C 1276.816406 708.175781 1270.296875 712.375 1263.566406 716.28125 L 1262.21875 717.066406 C 1254.6875 721.304688 1246.699219 724.894531 1238.628906 727.984375 L 1236.738281 728.714844 C 1231.675781 730.535156 1226.644531 731.367188 1221.328125 732.054688 L 1220.183594 732.214844 C 1198.558594 735.261719 1176.542969 730.453125 1155.890625 724.226562 C 1138.988281 719.160156 1122.15625 718.667969 1104.789062 721.367188 L 1103.199219 721.609375 C 1097.78125 722.429688 1092.414062 723.363281 1087.09375 724.675781 C 1083.945312 725.453125 1080.777344 726.089844 1077.597656 726.710938 C 1075.546875 727.113281 1073.507812 727.523438 1071.472656 727.984375 C 1066.523438 729.101562 1061.566406 729.925781 1056.539062 730.625 L 1054.703125 730.882812 C 1042.90625 732.464844 1030.570312 733.007812 1018.789062 731.039062 L 1017.734375 730.863281 C 1006.804688 729.039062 1006.804688 729.039062 1002.027344 726.46875 C 1000.84375 725.882812 999.648438 725.457031 998.398438 725.027344 C 987.5 721.132812 976.9375 715.140625 967.390625 708.644531 L 965.929688 707.695312 C 959.867188 703.734375 954.019531 699.429688 948.242188 695.066406 L 946.632812 693.851562 L 945.507812 692.871094 L 945.507812 691.851562 L 944.59375 691.429688 C 943.519531 690.859375 942.714844 690.269531 941.804688 689.472656 L 940.882812 688.671875 L 939.941406 687.84375 L 938.082031 686.226562 L 937.191406 685.449219 C 936.429688 684.800781 935.640625 684.1875 934.847656 683.578125 L 933.800781 682.691406 L 933.800781 681.675781 L 932.273438 681.164062 L 932.273438 680.148438 L 931.257812 680.148438 L 931.257812 679.128906 L 930.421875 678.800781 C 928.789062 677.863281 927.589844 676.566406 926.296875 675.21875 C 924.640625 673.503906 922.972656 671.859375 921.167969 670.304688 C 918.832031 668.285156 916.644531 666.136719 914.464844 663.957031 L 913.269531 662.78125 L 912.140625 661.660156 L 911.121094 660.644531 L 910.390625 659.792969 L 910.390625 658.773438 L 909.375 658.773438 C 908.039062 657.3125 908.039062 657.3125 906.832031 655.722656 L 906.832031 654.703125 L 905.8125 654.703125 C 902.980469 651.964844 900.609375 648.636719 898.179688 645.542969 L 897.023438 644.070312 C 891.644531 637.148438 886.5625 630.0625 881.894531 622.644531 C 881.5 622.03125 881.101562 621.425781 880.703125 620.816406 C 878.699219 617.75 876.785156 614.664062 875.066406 611.421875 C 874.277344 609.960938 873.472656 608.511719 872.652344 607.070312 C 870.242188 602.828125 867.941406 598.539062 865.679688 594.222656 C 865.097656 593.121094 864.511719 592.023438 863.921875 590.925781 C 860.488281 584.535156 857.417969 578.074219 854.699219 571.347656 C 853.789062 569.113281 852.8125 566.902344 851.773438 564.722656 C 850.570312 562.164062 849.632812 559.597656 848.777344 556.902344 C 848.34375 555.582031 847.855469 554.304688 847.320312 553.019531 C 845.015625 547.371094 843.304688 541.5 841.691406 535.621094 L 841.238281 533.996094 C 840.019531 529.542969 838.929688 525.0625 837.84375 520.578125 L 837.390625 518.714844 C 835.746094 511.878906 834.328125 505.042969 833.261719 498.089844 L 833.097656 497.003906 C 832.261719 491.566406 831.476562 486.144531 831.003906 480.660156 L 830.867188 479.21875 C 828.007812 448.386719 830.085938 416.945312 837.082031 386.800781 L 837.59375 384.558594 C 837.9375 383.066406 838.285156 381.578125 838.632812 380.089844 C 838.976562 378.605469 839.316406 377.121094 839.644531 375.636719 C 840.6875 370.988281 842.007812 366.417969 843.601562 361.929688 L 844.277344 360 C 850.308594 342.90625 858.222656 326.984375 868.566406 312.078125 C 869.21875 311.128906 869.867188 310.175781 870.507812 309.21875 C 875.105469 302.425781 879.851562 295.828125 885.457031 289.824219 C 886.117188 289.085938 886.773438 288.34375 887.429688 287.597656 L 888.25 286.664062 C 889.054688 285.738281 889.054688 285.738281 889.816406 284.621094 L 890.546875 283.71875 L 891.5625 283.71875 L 891.9375 282.84375 C 892.707031 281.453125 893.636719 280.496094 894.761719 279.371094 L 896.058594 278.066406 L 897.414062 276.722656 L 898.773438 275.351562 L 900.070312 274.058594 L 901.261719 272.871094 L 902.25 272.015625 L 903.269531 272.015625 L 903.269531 270.996094 C 904.066406 270.265625 904.902344 269.570312 905.75 268.898438 L 907.316406 267.648438 L 908.867188 266.417969 L 910.066406 265.421875 C 917.769531 259.089844 926.148438 254.003906 934.820312 249.113281 L 935.914062 248.484375 C 948.5 241.25 962.691406 236.515625 976.863281 233.59375 C 978.039062 233.34375 979.207031 233.082031 980.378906 232.808594 C 996.636719 229.183594 1013.914062 228.972656 1030.492188 229.265625 L 1032.09375 229.292969 C 1039.480469 229.445312 1046.636719 229.960938 1053.902344 231.300781 L 1055.757812 231.640625 C 1057.832031 232.015625 1059.90625 232.40625 1061.980469 232.796875 L 1063.960938 233.167969 C 1067.75 233.90625 1071.496094 234.820312 1075.199219 235.917969 C 1077.257812 236.527344 1079.332031 237.066406 1081.414062 237.601562 C 1086.304688 238.871094 1091.160156 240.257812 1096.015625 241.660156 C 1097.582031 242.113281 1099.152344 242.558594 1100.71875 243.007812 C 1101.460938 241.523438 1101.429688 240.113281 1101.558594 238.460938 L 1101.738281 236.265625 L 1101.832031 235.097656 C 1102.558594 226.101562 1103.605469 217.261719 1105.527344 208.4375 C 1105.78125 207.019531 1105.828125 205.765625 1105.808594 204.332031 L 1104.640625 204.261719 C 1096.15625 203.746094 1087.75 203.085938 1079.347656 201.785156 L 1077.652344 201.527344 C 1070.515625 200.40625 1063.449219 199.058594 1056.414062 197.429688 C 1055.792969 197.285156 1055.175781 197.144531 1054.535156 196.996094 C 1051.15625 196.195312 1047.824219 195.226562 1044.539062 194.097656 C 1042.957031 193.558594 1041.359375 193.097656 1039.746094 192.660156 C 1034.742188 191.246094 1029.746094 189.75 1025.027344 187.542969 C 1023.675781 186.941406 1022.304688 186.429688 1020.917969 185.914062 C 1012.796875 182.816406 1005.03125 178.988281 997.414062 174.816406 L 995.753906 173.917969 C 989.398438 170.347656 983.476562 165.988281 977.945312 161.253906 C 976.601562 160.101562 975.230469 158.996094 973.84375 157.894531 C 965.9375 151.429688 958.449219 144.15625 952.121094 136.140625 C 951.371094 135.238281 950.617188 134.335938 949.863281 133.4375 C 947.230469 130.203125 944.785156 126.871094 942.453125 123.417969 L 941.773438 122.410156 C 935.820312 113.460938 931.792969 103.484375 928.203125 93.390625 C 927.953125 92.714844 927.703125 92.042969 927.449219 91.367188 C 921.46875 75.164062 917.957031 58.28125 917.875 41.011719 C 917.871094 40.140625 917.859375 39.265625 917.84375 38.394531 C 917.738281 32.207031 918.179688 27.015625 920.949219 21.347656 L 921.8125 20.046875 L 922.667969 18.707031 C 923.761719 17.402344 924.632812 16.777344 926.167969 16.039062 C 927.472656 15.648438 928.785156 15.296875 930.113281 14.992188 L 931.136719 14.742188 C 931.835938 14.574219 932.535156 14.410156 933.238281 14.253906 C 933.941406 14.089844 934.644531 13.917969 935.347656 13.738281 C 938.835938 12.871094 942.339844 12.648438 945.921875 12.414062 L 947.761719 12.28125 C 959.859375 11.449219 972.273438 12.195312 984.183594 14.511719 M 1016.242188 335.117188 C 1014.15625 336.882812 1012.316406 338.570312 1011.1875 341.097656 L 1010.644531 342.75 L 1010.3125 343.71875 C 1010.082031 345.105469 1010.375 345.890625 1010.867188 347.203125 C 1013.289062 353.4375 1016.4375 359.183594 1020.3125 364.632812 C 1020.703125 365.191406 1021.097656 365.75 1021.488281 366.308594 C 1024.480469 370.558594 1027.601562 374.71875 1030.734375 378.871094 C 1035.148438 384.722656 1039.542969 390.59375 1043.867188 396.515625 C 1044.441406 397.300781 1045.015625 398.085938 1045.59375 398.867188 C 1049.683594 404.425781 1053.917969 410.183594 1055.425781 417.050781 C 1055.566406 418.949219 1055.570312 420.835938 1055.554688 422.742188 L 1055.566406 424.261719 L 1055.5625 425.722656 L 1055.558594 427.042969 C 1055.414062 428.351562 1055.109375 429.171875 1054.410156 430.28125 C 1043.066406 435.953125 1022.503906 432.535156 1010.253906 432.523438 C 1006.660156 432.523438 1003.070312 432.527344 999.476562 432.535156 C 993.070312 432.550781 986.660156 432.5625 980.253906 432.566406 L 979.097656 432.566406 L 961.648438 432.574219 L 960.488281 432.578125 C 954.082031 432.582031 947.679688 432.589844 941.277344 432.605469 C 937.34375 432.617188 933.410156 432.617188 929.476562 432.613281 C 926.46875 432.613281 923.464844 432.617188 920.457031 432.625 C 919.226562 432.628906 917.996094 432.628906 916.765625 432.625 C 915.089844 432.621094 913.40625 432.625 911.726562 432.632812 L 910.261719 432.621094 C 907.183594 432.648438 904.578125 433.132812 901.742188 434.351562 C 898.25 436.488281 895.703125 440.074219 893.597656 443.511719 C 891.152344 448.753906 891.171875 455.042969 891.449219 460.726562 C 891.648438 462.679688 892.292969 464.167969 893.308594 465.824219 L 894.109375 466.921875 L 895.050781 468.222656 C 896.53125 470.1875 896.53125 470.1875 898.179688 472.007812 C 899.300781 472.058594 900.425781 472.074219 901.546875 472.074219 L 902.632812 472.074219 C 903.847656 472.074219 905.0625 472.074219 906.277344 472.070312 C 907.152344 472.070312 908.023438 472.070312 908.898438 472.074219 C 911.308594 472.074219 913.722656 472.070312 916.136719 472.070312 C 918.734375 472.066406 921.332031 472.066406 923.925781 472.066406 C 928.429688 472.066406 932.933594 472.066406 937.4375 472.0625 C 943.949219 472.058594 950.460938 472.058594 956.972656 472.058594 C 967.539062 472.054688 978.101562 472.054688 988.664062 472.046875 C 998.929688 472.042969 1009.195312 472.039062 1019.460938 472.039062 L 1021.375 472.039062 L 1030.890625 472.035156 C 1057.21875 472.03125 1083.550781 472.019531 1109.878906 472.011719 L 1109.882812 471.011719 C 1109.914062 463 1109.953125 454.984375 1110 446.96875 C 1110.023438 443.089844 1110.042969 439.214844 1110.054688 435.339844 C 1110.066406 431.957031 1110.085938 428.578125 1110.109375 425.199219 C 1110.121094 423.410156 1110.128906 421.621094 1110.132812 419.832031 C 1110.136719 417.832031 1110.152344 415.832031 1110.167969 413.832031 L 1110.164062 412.050781 C 1110.210938 408.09375 1110.851562 404.925781 1112.621094 401.386719 L 1113.28125 400.289062 C 1113.691406 399.609375 1114.082031 398.917969 1114.460938 398.21875 L 1114.460938 397.203125 C 1119.941406 396.808594 1125.304688 398.246094 1130.242188 400.578125 C 1134.839844 402.871094 1139.164062 405.605469 1143.464844 408.398438 L 1145.972656 410.015625 C 1150.816406 413.144531 1155.636719 416.320312 1160.425781 419.53125 C 1161.777344 420.4375 1163.136719 421.335938 1164.488281 422.234375 C 1166.332031 423.460938 1168.152344 424.707031 1169.960938 425.988281 C 1171.640625 427.171875 1173.339844 428.304688 1175.074219 429.402344 L 1176.558594 430.339844 L 1178.070312 431.296875 C 1179.960938 432.496094 1181.847656 433.695312 1183.734375 434.890625 L 1185.15625 435.796875 C 1187.730469 437.429688 1190.28125 439.09375 1192.8125 440.789062 C 1194.265625 441.753906 1195.742188 442.679688 1197.21875 443.605469 C 1202.660156 447.078125 1207.925781 450.835938 1212.675781 455.214844 L 1214.078125 456.445312 C 1216.855469 458.890625 1219.433594 461.429688 1221.835938 464.25 L 1222.523438 465.046875 C 1224.414062 467.328125 1225.984375 469.695312 1226.925781 472.519531 C 1227.292969 476.1875 1227.4375 480.195312 1226.519531 483.777344 C 1223.773438 489.660156 1218.335938 493.84375 1213.1875 497.527344 C 1211.5 498.703125 1209.800781 499.867188 1208.097656 501.015625 L 1207.1875 501.632812 C 1203.597656 504.070312 1199.957031 506.429688 1196.265625 508.714844 C 1193.492188 510.421875 1190.800781 512.25 1188.191406 514.191406 C 1186.433594 515.476562 1184.640625 516.710938 1182.84375 517.9375 C 1177.511719 521.585938 1172.214844 525.289062 1167.003906 529.101562 C 1164.574219 530.875 1162.109375 532.589844 1159.632812 534.292969 C 1158.195312 535.289062 1156.761719 536.289062 1155.335938 537.300781 C 1134.175781 552.238281 1134.175781 552.238281 1123.746094 554.324219 C 1119.824219 554.625 1116.613281 554.507812 1112.957031 553.03125 C 1111.851562 552.421875 1111.207031 551.855469 1110.386719 550.886719 C 1108.292969 545.5625 1108.714844 539.765625 1108.828125 534.160156 C 1108.855469 532.824219 1108.875 531.488281 1108.890625 530.15625 C 1108.902344 529.332031 1108.917969 528.507812 1108.9375 527.6875 C 1108.972656 525.207031 1108.671875 523.207031 1107.84375 520.863281 C 1106.453125 519.085938 1104.597656 517.980469 1102.628906 516.917969 C 1093.316406 513.816406 1082.71875 514.660156 1073.039062 514.601562 C 1071.210938 514.589844 1069.382812 514.578125 1067.554688 514.5625 C 1064.476562 514.542969 1061.398438 514.519531 1058.320312 514.5 C 1055.203125 514.480469 1052.089844 514.460938 1048.972656 514.4375 L 1047.816406 514.429688 L 1045.519531 514.414062 C 1038.539062 514.363281 1031.5625 514.316406 1024.585938 514.28125 C 1021.03125 514.261719 1017.476562 514.238281 1013.921875 514.210938 C 1012.078125 514.195312 1010.238281 514.183594 1008.394531 514.175781 C 1007.597656 514.171875 1006.800781 514.167969 1006.003906 514.160156 C 998.175781 514.078125 990.441406 514.722656 983.164062 517.808594 C 980.21875 519.621094 978.484375 521.851562 976.804688 524.839844 C 975.265625 527.867188 974.878906 530.167969 974.910156 533.546875 C 975.109375 536.316406 976.0625 538.320312 977.40625 540.710938 C 979.972656 544.039062 982.183594 546.28125 986.121094 547.960938 C 993.953125 550.964844 1002.316406 551.914062 1010.636719 552.160156 L 1012.566406 552.222656 C 1014.253906 552.277344 1015.945312 552.332031 1017.632812 552.382812 C 1022.523438 552.535156 1027.414062 552.695312 1032.304688 552.867188 C 1033.941406 552.921875 1035.578125 552.960938 1037.214844 552.996094 C 1038.136719 553.027344 1039.054688 553.054688 1039.976562 553.082031 L 1041.21875 553.097656 C 1042.347656 553.140625 1042.347656 553.140625 1044.230469 553.433594 C 1045.5 554.363281 1045.5 554.363281 1046.269531 555.46875 C 1046.71875 558.546875 1046.75 562.222656 1045.726562 565.203125 C 1045.414062 565.867188 1045.085938 566.523438 1044.742188 567.171875 L 1044.023438 568.636719 C 1040.523438 575.507812 1035.773438 582.402344 1030.238281 587.785156 L 1028.964844 589.054688 L 1028.964844 590.074219 L 1027.980469 590.488281 L 1026.929688 591.089844 L 1026.421875 592.617188 L 1025.402344 592.617188 C 1022.59375 595.519531 1020.390625 598.386719 1019.296875 602.285156 L 1019.019531 603.242188 C 1018.390625 606.148438 1018.429688 609.117188 1019.210938 611.984375 C 1020.261719 614.640625 1020.261719 614.640625 1022.183594 616.707031 C 1028.292969 620.765625 1036.144531 621.308594 1043.261719 621.945312 L 1044.355469 622.046875 C 1052.441406 622.765625 1060.496094 622.84375 1068.609375 622.777344 C 1070.160156 622.765625 1071.710938 622.761719 1073.257812 622.753906 C 1085.671875 622.707031 1098.085938 622.574219 1110.496094 622.179688 C 1111.464844 622.148438 1112.429688 622.117188 1113.398438 622.089844 C 1125.964844 621.707031 1138.398438 621.042969 1150.859375 619.324219 C 1152.4375 619.105469 1154.015625 618.90625 1155.597656 618.71875 C 1170.1875 616.898438 1184.605469 612.828125 1198.226562 607.355469 C 1199.378906 606.894531 1200.535156 606.441406 1201.691406 605.996094 C 1209.539062 602.921875 1217.015625 599.054688 1223.871094 594.144531 L 1225.324219 593.113281 C 1226.714844 592.113281 1228.097656 591.097656 1229.46875 590.074219 L 1230.605469 589.242188 C 1233.335938 587.183594 1235.835938 584.914062 1238.324219 582.574219 C 1239.5625 581.40625 1240.785156 580.308594 1242.136719 579.265625 L 1243.210938 578.367188 L 1243.210938 577.351562 L 1244.226562 577.351562 C 1244.960938 576.667969 1244.960938 576.667969 1245.722656 575.730469 C 1246.039062 575.355469 1246.355469 574.984375 1246.679688 574.597656 L 1247.789062 573.28125 L 1249.089844 571.785156 C 1254.34375 565.734375 1258.828125 559.214844 1263.058594 552.414062 L 1263.992188 550.914062 C 1266.5625 546.652344 1268.667969 542.199219 1270.691406 537.65625 C 1270.84375 537.316406 1270.996094 536.972656 1271.152344 536.621094 C 1275.570312 526.578125 1278.710938 516.3125 1280.613281 505.503906 C 1280.78125 504.554688 1280.957031 503.605469 1281.140625 502.65625 C 1281.773438 499.371094 1282.15625 496.113281 1282.425781 492.777344 C 1282.507812 491.828125 1282.585938 490.878906 1282.667969 489.925781 L 1282.769531 488.675781 C 1282.875 487.589844 1283.011719 486.507812 1283.167969 485.425781 C 1283.496094 482.824219 1283.503906 480.234375 1283.515625 477.613281 L 1283.527344 475.996094 C 1283.535156 474.277344 1283.539062 472.554688 1283.539062 470.832031 L 1283.539062 469.054688 C 1283.53125 460.441406 1283.335938 452.023438 1281.886719 443.511719 L 1281.613281 441.847656 C 1279.886719 431.535156 1277.390625 421.574219 1273.234375 411.960938 L 1272.488281 410.167969 C 1268.683594 401.550781 1262.792969 393.726562 1256.996094 386.359375 C 1256.097656 385.195312 1255.234375 384.007812 1254.40625 382.792969 L 1253.386719 381.425781 L 1252.371094 381.425781 L 1252.023438 380.578125 C 1249.746094 376.554688 1245.214844 373.167969 1241.683594 370.230469 L 1240.855469 369.535156 C 1219.839844 351.941406 1196.546875 340.578125 1169.535156 335.792969 C 1151.988281 332.824219 1134.105469 332.011719 1116.328125 331.957031 L 1113.238281 331.941406 C 1109.332031 331.925781 1105.421875 331.910156 1101.515625 331.902344 C 1096.125 331.886719 1090.738281 331.871094 1085.347656 331.863281 C 1078.492188 331.851562 1071.640625 331.832031 1064.785156 331.796875 C 1059.941406 331.773438 1055.097656 331.757812 1050.253906 331.753906 C 1047.367188 331.753906 1044.484375 331.746094 1041.597656 331.726562 C 1038.890625 331.707031 1036.183594 331.703125 1033.476562 331.707031 C 1032.488281 331.707031 1031.496094 331.703125 1030.507812 331.691406 C 1025.097656 331.636719 1020.710938 331.636719 1016.242188 335.117188 " fill-opacity="1" fill-rule="nonzero"/><path fill="#dc2626" d="M 962.808594 238.9375 C 963.996094 238.914062 965.183594 238.914062 966.371094 238.9375 C 965.464844 240.265625 964.53125 241.433594 963.316406 242.5 C 962.125 242.933594 961.035156 243.152344 959.78125 243.320312 C 958.585938 243.472656 958.585938 243.472656 957.210938 244.535156 C 954.902344 245.917969 952.585938 247.066406 950.109375 248.128906 C 949.007812 248.601562 949.007812 248.601562 947.859375 249.398438 C 946.070312 250.382812 944.214844 250.769531 942.246094 251.273438 C 940.78125 251.699219 939.644531 252.339844 938.382812 253.183594 L 937.332031 253.375 L 936.347656 253.695312 C 935.664062 254.539062 934.988281 255.386719 934.3125 256.238281 C 932.707031 257.613281 931.203125 258.632812 929.191406 259.292969 C 927.582031 259.738281 927.582031 259.738281 926.167969 261.074219 C 924.640625 262.34375 924.640625 262.34375 923.082031 262.855469 C 921.234375 263.484375 920.390625 264.527344 919.042969 265.90625 L 917.515625 265.90625 L 917.125 266.832031 C 916.425781 268.078125 915.785156 268.597656 914.621094 269.40625 C 911.605469 271.574219 908.9375 273.953125 906.320312 276.59375 L 901.234375 281.683594 L 899.949219 282.984375 C 898.40625 284.503906 896.769531 285.898438 895.121094 287.296875 C 894.128906 288.277344 893.683594 289.09375 893.089844 290.335938 C 892.007812 290.714844 892.007812 290.714844 891.054688 290.84375 L 890.925781 291.734375 C 890.308594 293.589844 888.863281 294.589844 887.445312 295.882812 C 886.410156 296.886719 886.410156 296.886719 886.007812 298.179688 C 885.277344 299.921875 884.058594 300.980469 882.6875 302.230469 C 880.445312 304.304688 879.410156 305.867188 878.332031 308.65625 C 877.679688 309.523438 877 310.371094 876.296875 311.199219 L 875.789062 312.214844 L 874.769531 312.214844 L 874.386719 313.332031 C 873.753906 314.761719 873.753906 314.761719 872.703125 316.066406 C 871.667969 317.179688 871.667969 317.179688 871.496094 318.292969 C 871.035156 319.972656 869.769531 321.070312 868.664062 322.394531 L 868.203125 323.644531 C 867.554688 325.148438 866.8125 325.816406 865.578125 326.878906 C 864.464844 327.894531 864.464844 327.894531 863.574219 329.011719 C 863.1875 330.390625 863.160156 331.636719 863.066406 333.082031 C 862.109375 334.355469 862.109375 334.355469 861.03125 335.117188 L 859.503906 335.117188 L 859.628906 336.992188 C 859.632812 338.121094 859.632812 338.121094 859.503906 339.1875 C 858.550781 340.554688 858.550781 340.554688 857.46875 341.734375 L 856.925781 343.132812 L 856.449219 344.277344 L 854.921875 344.785156 L 855.082031 346.410156 L 854.921875 348.347656 C 854.085938 349.207031 853.238281 350.054688 852.378906 350.894531 C 851.925781 352.070312 851.59375 353.234375 851.296875 354.460938 L 850.851562 355.472656 L 848.816406 356.492188 L 850.34375 349.875 L 848.816406 349.875 L 847.796875 351.910156 C 848.332031 348.824219 849.585938 346.105469 850.851562 343.257812 L 851.339844 342.152344 C 856.03125 331.59375 861.980469 321.566406 868.566406 312.078125 C 869.21875 311.128906 869.867188 310.175781 870.507812 309.21875 C 875.105469 302.425781 879.851562 295.828125 885.457031 289.824219 C 886.117188 289.085938 886.773438 288.34375 887.429688 287.597656 L 888.25 286.664062 C 889.054688 285.738281 889.054688 285.738281 889.816406 284.621094 L 890.546875 283.71875 L 891.5625 283.71875 L 891.9375 282.84375 C 892.707031 281.453125 893.636719 280.496094 894.761719 279.371094 L 896.058594 278.066406 L 897.414062 276.722656 L 898.773438 275.351562 L 900.070312 274.058594 L 901.261719 272.871094 L 902.25 272.015625 L 903.269531 272.015625 L 903.269531 270.996094 C 904.066406 270.265625 904.902344 269.570312 905.75 268.898438 L 907.316406 267.648438 L 908.867188 266.417969 L 910.066406 265.421875 C 915.324219 261.097656 920.949219 257.175781 926.742188 253.597656 L 927.652344 253.019531 C 929.703125 251.785156 931.441406 251.414062 933.800781 251.148438 C 935.085938 250.738281 935.085938 250.738281 936.21875 250.195312 L 937.355469 249.691406 C 938.402344 249.167969 938.402344 249.167969 939.136719 248.34375 C 940.089844 247.410156 940.949219 247.089844 942.199219 246.632812 C 944.136719 245.898438 946.015625 245.097656 947.890625 244.214844 C 949.953125 243.265625 951.964844 242.578125 954.15625 241.988281 L 955.875 241.226562 C 957.714844 240.464844 959.429688 240.039062 961.375 239.664062 L 962.300781 239.445312 Z M 962.808594 238.9375 " fill-opacity="1" fill-rule="nonzero"/><path fill="#dc2626" d="M 932.273438 252.167969 C 930.703125 253.929688 929.40625 254.921875 927.199219 255.753906 C 925.417969 256.589844 923.890625 257.804688 922.316406 258.976562 C 921.089844 259.792969 919.921875 260.324219 918.535156 260.816406 L 918.535156 261.835938 L 916.847656 262.757812 C 915.144531 263.730469 913.980469 264.769531 912.714844 266.257812 L 911.917969 266.925781 L 909.882812 266.925781 L 909.882812 268.453125 L 908.355469 268.453125 L 907.976562 269.34375 C 907.246094 270.65625 906.429688 271.535156 905.304688 272.523438 L 904.285156 272.523438 L 904.285156 273.539062 L 903.269531 273.539062 L 903.269531 274.558594 L 901.742188 274.558594 L 901.742188 276.085938 C 900.992188 276.871094 900.992188 276.871094 899.960938 277.707031 C 897.992188 279.347656 896.210938 281.097656 894.445312 282.953125 L 893.597656 283.71875 L 892.582031 283.71875 L 890.546875 287.789062 L 889.019531 287.789062 L 888.667969 288.648438 C 888 289.824219 888 289.824219 886.824219 290.96875 C 885.421875 292.40625 884.515625 293.808594 883.527344 295.539062 C 882.914062 296.441406 882.914062 296.441406 881.386719 297.457031 L 880.910156 298.699219 C 880.367188 300.003906 880.367188 300.003906 879.351562 300.925781 L 878.332031 301.53125 L 877.3125 301.53125 L 877.117188 302.421875 C 876.472656 304.78125 875.398438 306.96875 873.71875 308.75 L 872.734375 309.671875 L 871.90625 311.070312 L 871.207031 312.214844 L 870.191406 312.214844 L 870.03125 313.105469 C 869.503906 314.824219 868.402344 315.976562 867.277344 317.355469 L 866.628906 318.324219 L 866.628906 319.851562 L 865.609375 319.851562 L 865.609375 321.886719 L 864.59375 321.886719 L 864.175781 322.765625 C 863.351562 324.347656 862.324219 325.765625 861.300781 327.222656 C 860.546875 328.460938 859.996094 329.707031 859.441406 331.046875 C 858.347656 333.535156 856.976562 335.902344 855.683594 338.289062 L 855.015625 339.542969 L 854.40625 340.671875 C 853.921875 341.699219 853.628906 342.65625 853.394531 343.769531 L 852.378906 343.769531 L 852.378906 345.804688 L 851.359375 345.804688 L 851.425781 346.980469 L 851.359375 348.347656 L 850.34375 349.875 L 848.816406 349.875 L 847.796875 351.910156 C 848.332031 348.824219 849.585938 346.105469 850.851562 343.257812 L 851.339844 342.152344 C 856.03125 331.59375 861.980469 321.566406 868.566406 312.078125 C 869.21875 311.128906 869.867188 310.175781 870.507812 309.21875 C 875.105469 302.425781 879.851562 295.828125 885.457031 289.824219 C 886.117188 289.085938 886.773438 288.34375 887.429688 287.597656 L 888.25 286.664062 C 889.054688 285.738281 889.054688 285.738281 889.816406 284.621094 L 890.546875 283.71875 L 891.5625 283.71875 L 891.9375 282.84375 C 892.707031 281.453125 893.636719 280.496094 894.761719 279.371094 L 896.058594 278.066406 L 897.414062 276.722656 L 898.773438 275.351562 L 900.070312 274.058594 L 901.261719 272.871094 L 902.25 272.015625 L 903.269531 272.015625 L 903.269531 270.996094 C 904.066406 270.265625 904.902344 269.570312 905.75 268.898438 L 907.316406 267.648438 L 908.867188 266.417969 L 910.066406 265.421875 C 926.824219 251.640625 926.824219 251.640625 932.273438 252.167969 M 1163.824219 194.152344 L 1164.839844 194.152344 C 1164.675781 198.226562 1163.613281 201.671875 1162.199219 205.476562 C 1160.480469 210.257812 1158.984375 215.039062 1157.699219 219.953125 C 1156.976562 222.6875 1156.175781 225.34375 1155.140625 227.980469 C 1154.652344 229.292969 1154.238281 230.617188 1153.839844 231.960938 L 1153.4375 233.328125 L 1153.136719 234.355469 C 1158.9375 233.140625 1164.703125 231.921875 1170.386719 230.234375 C 1183.164062 226.511719 1196.648438 225.515625 1209.894531 225.570312 C 1211.402344 225.578125 1212.914062 225.570312 1214.421875 225.566406 C 1226.625 225.554688 1238.742188 226.699219 1250.558594 229.816406 C 1252.84375 230.40625 1255.140625 230.878906 1257.457031 231.300781 L 1257.457031 232.320312 C 1253.070312 232.597656 1248.984375 231.851562 1244.738281 230.792969 L 1244.226562 230.285156 C 1240.566406 229.242188 1236.824219 229.082031 1233.046875 228.933594 L 1231.503906 228.757812 L 1230.996094 227.738281 L 1190.285156 227.230469 L 1190.285156 228.757812 L 1180.617188 229.777344 L 1180.617188 230.792969 L 1172.472656 231.300781 L 1172.472656 232.320312 L 1170.5 232.511719 C 1169.40625 232.597656 1169.40625 232.597656 1168.402344 232.828125 L 1167.382812 233.847656 C 1166.078125 234.039062 1166.078125 234.039062 1164.554688 234.132812 C 1163.628906 234.191406 1162.707031 234.261719 1161.785156 234.355469 L 1161.277344 234.863281 C 1160.164062 234.898438 1159.050781 234.910156 1157.9375 234.898438 L 1156.089844 234.882812 L 1154.664062 234.863281 L 1154.664062 236.390625 L 1152.625 235.882812 C 1152.597656 234.652344 1152.578125 233.421875 1152.5625 232.191406 L 1152.539062 231.140625 C 1152.519531 229.152344 1152.746094 227.949219 1153.644531 226.214844 C 1153.871094 225.453125 1154.078125 224.6875 1154.265625 223.917969 L 1154.589844 222.621094 C 1154.808594 221.722656 1155.027344 220.824219 1155.246094 219.925781 L 1155.570312 218.636719 L 1155.855469 217.457031 L 1156.1875 216.542969 L 1157.207031 216.035156 C 1157.441406 215.070312 1157.441406 215.070312 1157.523438 213.96875 L 1157.714844 211.964844 L 1158.734375 211.964844 L 1159.242188 206.875 L 1160.261719 206.875 L 1160.261719 203.3125 L 1161.277344 203.3125 L 1161.4375 202.039062 C 1161.777344 200.304688 1162.289062 198.804688 1162.949219 197.171875 C 1163.320312 196.175781 1163.582031 195.1875 1163.824219 194.152344 M 1153.136719 619.082031 L 1153.644531 620.097656 L 1148.554688 620.097656 L 1148.554688 621.117188 C 1145.78125 621.757812 1142.992188 621.832031 1140.15625 621.992188 C 1138.492188 622.074219 1138.492188 622.074219 1137.367188 622.386719 C 1135.648438 622.816406 1133.878906 622.816406 1132.113281 622.898438 L 1130.875 622.960938 C 1129.570312 623.027344 1128.265625 623.089844 1126.957031 623.152344 C 1125.242188 623.234375 1123.527344 623.320312 1121.808594 623.40625 L 1120.621094 623.460938 C 1119.152344 623.535156 1117.734375 623.613281 1116.296875 623.917969 C 1114.871094 624.1875 1113.5625 624.238281 1112.113281 624.242188 L 1110.390625 624.25 L 1108.511719 624.25 L 1106.523438 624.257812 C 1104.722656 624.265625 1102.921875 624.269531 1101.121094 624.269531 L 1097.730469 624.277344 C 1094.175781 624.285156 1090.625 624.289062 1087.074219 624.289062 C 1083.003906 624.292969 1078.933594 624.300781 1074.863281 624.316406 C 1071.703125 624.328125 1068.539062 624.332031 1065.375 624.332031 C 1063.496094 624.332031 1061.617188 624.339844 1059.734375 624.347656 C 1051.0625 624.386719 1042.625 624.054688 1034.054688 622.644531 L 1034.054688 622.132812 C 1038.960938 621.511719 1043.785156 621.449219 1048.710938 621.878906 C 1052.46875 622.171875 1056.203125 622.207031 1059.972656 622.203125 C 1060.695312 622.203125 1061.417969 622.203125 1062.144531 622.203125 C 1064.066406 622.203125 1065.988281 622.203125 1067.910156 622.199219 C 1069.113281 622.199219 1070.316406 622.195312 1071.515625 622.195312 C 1084.988281 622.179688 1098.449219 622.066406 1111.914062 621.625 L 1113.417969 621.574219 C 1124.632812 621.207031 1135.792969 620.769531 1146.929688 619.378906 C 1149.023438 619.121094 1151.03125 619.015625 1153.136719 619.082031 M 899.707031 433.84375 L 902.757812 433.84375 L 901.710938 434.605469 C 899.804688 436.226562 898.238281 438.023438 896.652344 439.949219 L 895.914062 440.84375 C 893.773438 443.617188 892.816406 446.527344 892.296875 449.972656 C 891.800781 454.328125 891.332031 459.171875 892.515625 463.429688 C 893.082031 464.6875 893.082031 464.6875 893.824219 465.738281 C 894.617188 466.921875 894.617188 466.921875 895.246094 468.121094 C 896.101562 469.542969 896.863281 470.476562 898.179688 471.5 C 900.984375 472.191406 903.757812 472.113281 906.625 472.070312 C 907.5 472.074219 908.371094 472.082031 909.246094 472.089844 C 911.648438 472.105469 914.046875 472.09375 916.445312 472.074219 C 919.035156 472.0625 921.625 472.074219 924.214844 472.085938 C 928.699219 472.097656 933.183594 472.09375 937.667969 472.078125 C 944.152344 472.058594 950.636719 472.0625 957.117188 472.070312 C 967.636719 472.085938 978.15625 472.082031 988.679688 472.0625 C 998.898438 472.046875 1009.117188 472.039062 1019.335938 472.042969 L 1021.242188 472.042969 L 1030.722656 472.050781 C 1056.9375 472.066406 1083.15625 472.050781 1109.371094 472.007812 L 1109.371094 472.519531 L 897.160156 473.027344 L 897.160156 472.007812 L 895.125 471.5 L 894.617188 469.464844 L 893.597656 469.464844 L 893.597656 468.449219 L 892.070312 467.9375 L 892.070312 465.394531 L 891.054688 465.394531 L 890.546875 462.339844 L 889.527344 462.339844 C 889.496094 460.441406 889.480469 458.546875 889.464844 456.648438 C 889.453125 456.109375 889.445312 455.574219 889.4375 455.019531 L 889.429688 453.445312 L 889.410156 452 C 889.539062 450.519531 889.941406 449.441406 890.546875 448.089844 C 890.773438 447.277344 890.996094 446.460938 891.214844 445.644531 C 891.933594 443.203125 892.875 440.832031 894.617188 438.933594 L 896.144531 438.933594 L 896.144531 437.40625 L 897.160156 437.40625 L 897.574219 436.417969 L 898.179688 435.371094 L 899.707031 434.859375 Z M 1263.058594 551.398438 L 1264.074219 551.398438 L 1264.074219 554.449219 L 1263.058594 554.449219 L 1262.546875 556.996094 L 1261.53125 556.996094 L 1261.117188 558.109375 C 1260.511719 559.539062 1259.863281 560.804688 1258.984375 562.085938 L 1257.96875 562.085938 L 1257.457031 563.609375 L 1256.441406 563.609375 L 1256.25 564.535156 C 1255.933594 565.644531 1255.933594 565.644531 1254.914062 567.171875 L 1253.898438 567.171875 L 1253.386719 569.207031 L 1252.371094 569.207031 L 1251.988281 570.355469 C 1251.296875 571.871094 1250.582031 572.71875 1249.316406 573.789062 L 1248.300781 573.789062 L 1247.28125 576.332031 L 1246.261719 576.332031 L 1245.753906 577.859375 L 1244.738281 577.859375 L 1244.738281 578.878906 L 1243.71875 578.878906 L 1243.210938 580.40625 L 1242.191406 580.40625 L 1242.191406 581.421875 L 1240.664062 581.421875 L 1240.664062 582.949219 L 1239.648438 582.949219 L 1239.648438 583.964844 C 1238.535156 585.269531 1238.535156 585.269531 1237.101562 586.511719 C 1235.671875 586.925781 1235.671875 586.925781 1234.558594 587.019531 L 1234.558594 588.039062 L 1233.03125 588.039062 L 1233.03125 589.566406 L 1232.015625 589.566406 L 1232.015625 590.582031 L 1230.457031 591.441406 C 1228.496094 592.5625 1226.6875 593.796875 1224.890625 595.164062 L 1224.378906 596.179688 C 1223.457031 596.753906 1223.457031 596.753906 1222.34375 597.199219 L 1220.308594 597.199219 L 1219.960938 598.183594 L 1219.292969 599.234375 C 1217.957031 599.613281 1217.957031 599.613281 1216.746094 599.742188 L 1216.746094 600.761719 C 1215.488281 601.648438 1214.332031 602.246094 1212.859375 602.710938 C 1210.328125 603.589844 1207.964844 604.796875 1205.558594 605.976562 L 1204.433594 606.519531 L 1203.417969 607.019531 C 1202.5 607.375 1202.5 607.375 1200.972656 607.375 L 1200.972656 608.394531 L 1199.949219 608.671875 C 1197.128906 609.453125 1197.128906 609.453125 1194.546875 610.78125 C 1193.238281 611.503906 1192.609375 611.542969 1191.144531 611.542969 L 1189.265625 611.445312 L 1189.265625 612.464844 L 1185.703125 612.464844 L 1185.703125 611.445312 L 1187.5 610.847656 C 1200.242188 606.527344 1212.875 601.515625 1223.871094 593.636719 L 1225.324219 592.605469 C 1226.714844 591.601562 1228.097656 590.589844 1229.46875 589.566406 L 1230.605469 588.730469 C 1233.398438 586.632812 1235.9375 584.300781 1238.457031 581.886719 C 1239.175781 581.203125 1239.917969 580.546875 1240.664062 579.894531 L 1241.683594 579.894531 L 1242.191406 578.367188 L 1243.210938 578.367188 L 1243.210938 577.351562 L 1244.226562 577.351562 L 1244.738281 575.824219 L 1245.753906 575.824219 L 1246.136719 574.945312 C 1246.867188 573.617188 1247.730469 572.691406 1248.777344 571.59375 C 1254.101562 565.773438 1259.753906 558.589844 1263.058594 551.398438 M 1215.800781 64.128906 C 1216.898438 64.128906 1217.996094 64.109375 1219.097656 64.085938 C 1223.824219 64.046875 1227.734375 64.714844 1232.015625 66.929688 C 1233.214844 67.714844 1233.214844 67.714844 1234.050781 68.457031 L 1234.050781 69.472656 L 1235.578125 69.984375 L 1235.578125 71 L 1236.59375 71 L 1237.101562 73.546875 L 1236.59375 72.527344 L 1235.066406 72.527344 C 1234.207031 71.828125 1234.207031 71.828125 1233.539062 71 L 1233.539062 69.984375 L 1232.523438 69.984375 L 1232.523438 68.964844 L 1231.21875 68.550781 C 1229.46875 67.945312 1229.46875 67.945312 1227.65625 67.152344 C 1226.1875 66.539062 1224.925781 66.148438 1223.363281 65.910156 L 1223.363281 64.894531 L 1210.132812 64.894531 L 1210.132812 65.910156 L 1209.125 66.0625 C 1206.21875 66.558594 1204.339844 67.203125 1201.988281 68.964844 L 1200.972656 68.964844 L 1200.972656 69.984375 L 1199.445312 69.984375 L 1199.445312 71 C 1198.269531 71.828125 1198.269531 71.828125 1196.902344 72.527344 L 1195.375 72.527344 L 1195.375 73.546875 L 1194.417969 73.640625 L 1193.339844 74.054688 C 1192.679688 75.320312 1192.679688 75.320312 1192.320312 76.597656 L 1190.792969 76.597656 L 1190.792969 77.617188 L 1189.265625 77.617188 L 1188.757812 79.144531 L 1187.230469 80.160156 L 1185.703125 80.160156 L 1185.195312 81.6875 L 1184.179688 81.6875 L 1184.179688 82.703125 L 1183.160156 82.703125 L 1182.652344 84.230469 L 1181.632812 84.230469 L 1181.632812 85.25 L 1180.617188 85.25 L 1180.105469 86.777344 L 1179.089844 86.777344 L 1179.089844 87.792969 C 1178.390625 88.621094 1178.390625 88.621094 1177.5625 89.320312 L 1176.542969 89.320312 L 1176.542969 90.339844 C 1175.84375 91.164062 1175.84375 91.164062 1175.019531 91.863281 L 1174 91.863281 L 1174 93.390625 L 1172.472656 93.390625 L 1172.472656 94.410156 L 1171.457031 94.410156 L 1170.945312 95.9375 L 1169.929688 95.9375 L 1169.929688 96.953125 L 1168.910156 96.953125 L 1168.71875 97.875 C 1168.402344 98.988281 1168.402344 98.988281 1167.382812 100.515625 L 1166.367188 100.515625 L 1165.859375 102.042969 L 1164.839844 102.042969 L 1164.839844 103.0625 C 1164.140625 103.886719 1164.140625 103.886719 1163.3125 104.585938 L 1162.296875 104.585938 L 1162.296875 106.113281 L 1161.277344 106.113281 L 1160.769531 107.640625 L 1159.75 107.640625 L 1159.335938 108.46875 L 1157.207031 112.730469 L 1155.679688 112.730469 L 1155.679688 113.746094 L 1154.664062 113.746094 L 1153.644531 116.292969 L 1152.117188 116.292969 L 1151.957031 117.214844 C 1151.609375 118.328125 1151.609375 118.328125 1150.8125 119.21875 L 1150.082031 119.855469 C 1149.757812 118.933594 1149.757812 118.933594 1149.574219 117.820312 C 1150.414062 116.648438 1151.328125 115.535156 1152.308594 114.480469 C 1152.878906 113.839844 1153.449219 113.199219 1154.019531 112.558594 L 1154.878906 111.597656 C 1155.960938 110.375 1156.980469 109.109375 1158 107.832031 C 1159.929688 105.453125 1161.960938 103.195312 1164.054688 100.964844 C 1165.363281 99.582031 1165.363281 99.582031 1166.367188 97.972656 L 1167.382812 97.972656 L 1167.75 97.101562 C 1168.550781 95.671875 1169.542969 94.71875 1170.722656 93.582031 C 1172.316406 92.113281 1172.316406 92.113281 1173.492188 90.339844 L 1174.507812 90.339844 L 1175.019531 88.8125 L 1176.035156 88.8125 L 1176.035156 87.792969 C 1176.734375 86.96875 1176.734375 86.96875 1177.5625 86.265625 L 1178.582031 86.265625 L 1178.957031 85.375 C 1182.464844 79.117188 1192.035156 73.355469 1197.917969 69.472656 L 1199.292969 68.523438 L 1200.71875 67.566406 L 1201.972656 66.714844 C 1206.4375 64.390625 1210.859375 64.113281 1215.800781 64.128906 M 1030.492188 229.265625 L 1032.089844 229.292969 C 1039.480469 229.445312 1046.632812 229.972656 1053.902344 231.300781 L 1055.605469 231.605469 C 1057.4375 231.933594 1059.261719 232.265625 1061.089844 232.605469 L 1062.855469 232.929688 L 1064.496094 233.246094 L 1065.964844 233.523438 C 1067.132812 233.847656 1067.132812 233.847656 1068.148438 234.863281 C 1066.886719 234.878906 1065.625 234.890625 1064.367188 234.898438 L 1063.273438 234.910156 C 1062.355469 234.914062 1061.4375 234.890625 1060.515625 234.863281 L 1060.007812 234.355469 C 1058.40625 234.238281 1056.800781 234.152344 1055.195312 234.09375 C 1054.253906 234.042969 1053.3125 233.949219 1052.375 233.847656 L 1050.847656 232.828125 C 1049.382812 232.6875 1047.957031 232.59375 1046.492188 232.542969 C 1042.316406 232.378906 1042.316406 232.378906 1041.179688 231.8125 C 1037.71875 231.277344 1034.234375 231.222656 1030.738281 231.21875 L 1029.242188 231.210938 C 1028.203125 231.210938 1027.164062 231.207031 1026.125 231.207031 C 1024.558594 231.207031 1022.992188 231.199219 1021.425781 231.1875 C 1016.425781 231.175781 1011.617188 231.3125 1006.675781 232.082031 C 1004.289062 232.429688 1001.917969 232.488281 999.511719 232.542969 C 991.640625 232.683594 991.640625 232.683594 984.183594 234.863281 C 982.800781 234.902344 981.429688 234.910156 980.046875 234.898438 L 978.882812 234.890625 C 977.9375 234.882812 976.988281 234.875 976.039062 234.863281 C 976.964844 233.980469 977.832031 233.414062 979.058594 233.035156 C 995.746094 229.253906 1013.464844 228.964844 1030.492188 229.265625 M 903.777344 431.296875 L 1041.6875 431.296875 L 1041.6875 431.808594 C 1033.59375 432.226562 1025.515625 432.398438 1017.414062 432.414062 C 1016.203125 432.417969 1014.996094 432.421875 1013.785156 432.425781 C 1011.210938 432.433594 1008.636719 432.441406 1006.0625 432.449219 C 1002.339844 432.457031 998.617188 432.46875 994.894531 432.484375 C 988.484375 432.507812 982.078125 432.527344 975.664062 432.546875 L 958.074219 432.601562 C 952.035156 432.617188 945.992188 432.640625 939.953125 432.660156 C 935.90625 432.675781 931.859375 432.6875 927.808594 432.695312 C 925.304688 432.703125 922.796875 432.710938 920.289062 432.722656 C 919.125 432.726562 917.957031 432.730469 916.792969 432.730469 C 915.207031 432.734375 913.625 432.742188 912.039062 432.746094 L 910.625 432.746094 C 908.402344 432.691406 908.402344 432.691406 906.320312 433.332031 C 905.453125 433.367188 904.582031 433.378906 903.714844 433.367188 L 902.308594 433.351562 L 901.234375 433.332031 L 902.25 432.316406 L 903.777344 432.316406 Z M 995.886719 550.886719 C 996.945312 550.925781 998.003906 550.996094 999.058594 551.078125 C 1003.046875 551.363281 1007.039062 551.519531 1011.035156 551.652344 L 1012.957031 551.714844 C 1014.945312 551.78125 1016.929688 551.84375 1018.914062 551.90625 C 1022.789062 552.03125 1026.664062 552.15625 1030.539062 552.296875 C 1032.753906 552.375 1034.964844 552.433594 1037.179688 552.46875 L 1039.929688 552.542969 L 1041.160156 552.546875 C 1042.289062 552.582031 1042.289062 552.582031 1044.230469 552.925781 C 1045.753906 554.109375 1045.753906 554.109375 1046.777344 555.46875 C 1047.324219 558.679688 1047.214844 562.363281 1046.109375 565.457031 C 1044.488281 568.699219 1044.488281 568.699219 1043.722656 569.71875 L 1042.195312 569.71875 L 1041.6875 571.753906 L 1041.6875 568.191406 L 1042.707031 567.683594 C 1043.035156 566.652344 1043.035156 566.652344 1043.214844 565.644531 L 1044.742188 565.644531 C 1044.753906 564.449219 1044.765625 563.25 1044.773438 562.050781 L 1044.789062 560.03125 C 1044.742188 558.105469 1044.542969 556.34375 1044.230469 554.449219 C 1043.878906 554.457031 1043.527344 554.460938 1043.167969 554.46875 C 1033.292969 554.589844 1023.429688 554.410156 1013.558594 554.125 C 1012.1875 554.085938 1010.816406 554.050781 1009.445312 554.023438 C 1007.492188 553.976562 1005.542969 553.917969 1003.589844 553.855469 L 1001.792969 553.820312 L 1000.132812 553.757812 L 998.683594 553.714844 C 997.414062 553.433594 997.414062 553.433594 996.226562 552.394531 L 995.378906 551.398438 Z M 1118.371094 396.757812 C 1127.457031 397.558594 1134.976562 402.304688 1142.425781 407.207031 C 1143.585938 407.964844 1144.746094 408.722656 1145.910156 409.472656 C 1150.777344 412.617188 1155.613281 415.800781 1160.429688 419.027344 C 1161.253906 419.578125 1162.082031 420.121094 1162.90625 420.667969 C 1169.769531 425.199219 1169.769531 425.199219 1172.980469 427.734375 L 1172.980469 428.246094 L 1170.4375 428.246094 L 1170.4375 427.226562 L 1167.894531 427.226562 L 1167.894531 425.699219 L 1166.683594 425.222656 C 1165.347656 424.683594 1165.347656 424.683594 1164.332031 424.171875 L 1164.332031 423.15625 L 1162.804688 423.15625 L 1162.804688 422.136719 L 1160.769531 421.628906 L 1160.769531 420.613281 L 1158.734375 420.101562 L 1158.734375 419.085938 L 1156.1875 419.085938 L 1156.1875 418.066406 L 1155.074219 417.683594 C 1153.503906 416.988281 1152.367188 416.171875 1151.101562 415.011719 L 1151.101562 413.996094 L 1149.921875 413.804688 C 1148.554688 413.488281 1148.554688 413.488281 1147.027344 412.46875 L 1147.027344 411.453125 L 1144.484375 411.453125 L 1144.484375 410.433594 L 1142.449219 409.925781 L 1142.449219 408.90625 L 1141.621094 408.78125 C 1139.992188 408.265625 1138.773438 407.316406 1137.359375 406.363281 C 1136.523438 405.996094 1135.675781 405.648438 1134.816406 405.34375 L 1134.816406 403.816406 L 1133.988281 403.628906 C 1132.542969 403.246094 1131.140625 402.773438 1129.726562 402.292969 L 1129.726562 401.273438 L 1127.914062 401.113281 C 1126.351562 400.929688 1125.484375 400.679688 1124.03125 399.96875 C 1121.386719 398.695312 1118.335938 399.121094 1115.476562 399.238281 L 1114.460938 401.273438 L 1113.441406 401.273438 L 1113.25 402.386719 C 1112.9375 403.796875 1112.480469 405.039062 1111.914062 406.363281 L 1111.40625 406.363281 C 1111.226562 405.023438 1111.179688 404.121094 1111.40625 402.800781 C 1112.269531 400.839844 1113.269531 398.984375 1114.460938 397.203125 C 1115.84375 396.511719 1116.824219 396.667969 1118.371094 396.757812 M 1024.894531 330.535156 C 1100.753906 330.4375 1100.753906 330.4375 1123.449219 330.714844 C 1124.625 330.726562 1125.796875 330.738281 1126.96875 330.75 C 1135.058594 330.835938 1143.058594 331.109375 1151.101562 332.0625 C 1149.996094 332.703125 1149.167969 333.070312 1147.894531 333.203125 L 1146.617188 333.199219 L 1145.210938 333.195312 L 1143.753906 333.175781 L 1142.300781 333.175781 C 1140.066406 333.160156 1138.023438 333.0625 1135.832031 332.574219 L 1135.832031 332.0625 L 1134.222656 332.058594 C 1121.269531 332.003906 1108.320312 331.949219 1095.371094 331.890625 C 1089.105469 331.863281 1082.84375 331.835938 1076.582031 331.8125 C 1071.121094 331.789062 1065.660156 331.765625 1060.199219 331.738281 C 1057.308594 331.726562 1054.417969 331.714844 1051.53125 331.703125 C 1048.804688 331.691406 1046.082031 331.679688 1043.359375 331.667969 C 1042.363281 331.660156 1041.367188 331.65625 1040.371094 331.65625 C 1035.1875 331.640625 1030.058594 331.558594 1024.894531 331.046875 Z M 971.460938 13.496094 C 975.351562 13.386719 979.039062 13.65625 982.878906 14.289062 L 984.511719 14.554688 C 991.109375 15.683594 997.570312 17.367188 1004.027344 19.09375 L 1005.601562 19.507812 L 1007.089844 19.90625 L 1008.390625 20.25 C 1010.113281 20.765625 1011.746094 21.441406 1013.398438 22.132812 C 1014.808594 22.691406 1016.230469 23.152344 1017.675781 23.609375 C 1021.0625 24.722656 1024.234375 26.183594 1027.4375 27.746094 L 1028.484375 28.246094 C 1029.578125 28.777344 1030.671875 29.308594 1031.765625 29.84375 L 1032.796875 30.34375 C 1034.773438 31.324219 1036.445312 32.398438 1038.125 33.851562 L 1034.5625 33.851562 L 1034.054688 32.324219 L 1032.996094 32.136719 L 1031.605469 31.878906 L 1030.226562 31.628906 C 1028.964844 31.308594 1028.964844 31.308594 1027.4375 30.289062 L 1027.4375 28.761719 L 1024.894531 28.761719 L 1024.894531 27.746094 L 1020.824219 27.234375 L 1020.824219 26.21875 L 1019.804688 26.039062 C 1017.914062 25.628906 1016.082031 25.074219 1014.238281 24.5 L 1013.175781 24.179688 C 1011.023438 23.507812 1009.101562 22.652344 1007.082031 21.636719 C 1005.898438 21.457031 1004.710938 21.289062 1003.519531 21.128906 L 1002.503906 20.109375 C 1000.914062 19.875 1000.914062 19.875 999.132812 19.792969 L 997.296875 19.675781 L 995.886719 19.601562 L 995.886719 18.585938 L 994.746094 18.527344 C 991.582031 18.320312 988.757812 17.847656 985.722656 16.9375 C 982.714844 16.175781 979.625 15.882812 976.550781 15.53125 L 976.550781 15.023438 L 970.949219 14.511719 Z M 1040.160156 35.378906 C 1042.203125 35.660156 1043.414062 36.25 1045.058594 37.476562 C 1046.878906 38.804688 1048.746094 40.066406 1050.65625 41.261719 C 1052.589844 42.480469 1054.441406 43.746094 1056.246094 45.140625 C 1057.289062 45.929688 1058.347656 46.703125 1059.410156 47.464844 L 1060.46875 48.222656 C 1061.171875 48.730469 1061.878906 49.234375 1062.589844 49.738281 C 1063.445312 50.355469 1064.273438 51.007812 1065.097656 51.664062 L 1065.097656 52.679688 L 1065.957031 53.070312 C 1070.863281 55.699219 1074.914062 60.300781 1078.804688 64.21875 C 1079.710938 65.132812 1080.621094 66.035156 1081.53125 66.941406 L 1084.085938 69.496094 C 1084.730469 70.148438 1085.351562 70.824219 1085.960938 71.507812 L 1085.960938 72.527344 L 1086.980469 72.527344 L 1087.996094 75.070312 C 1086.882812 75.324219 1086.882812 75.324219 1085.453125 75.070312 C 1084.398438 73.824219 1083.605469 72.476562 1082.90625 71 L 1082.90625 69.984375 L 1081.382812 69.984375 L 1081 68.773438 L 1080.363281 67.4375 C 1079.335938 66.859375 1079.335938 66.859375 1078.328125 66.421875 L 1077.820312 64.894531 L 1076.292969 64.894531 L 1076.292969 63.367188 L 1075.273438 63.367188 L 1075.273438 62.347656 L 1073.746094 62.347656 L 1073.746094 60.824219 L 1072.730469 60.824219 L 1072.730469 59.804688 L 1071.203125 59.804688 L 1071.203125 58.277344 L 1069.167969 58.277344 C 1068.277344 57.578125 1068.277344 57.578125 1067.640625 56.75 L 1067.640625 55.734375 L 1066.113281 55.734375 L 1066.113281 54.714844 L 1064.585938 54.207031 L 1064.585938 53.1875 L 1063.570312 53.1875 L 1063.570312 52.171875 L 1062.042969 52.171875 L 1062.042969 50.644531 L 1060.007812 50.644531 C 1059.117188 49.945312 1059.117188 49.945312 1058.480469 49.117188 L 1058.480469 48.101562 L 1057.589844 47.910156 C 1056.433594 47.589844 1055.464844 47.140625 1054.410156 46.574219 L 1054.410156 45.554688 L 1053.582031 45.460938 C 1051.777344 44.84375 1050.714844 43.800781 1049.320312 42.503906 L 1049.320312 41.484375 L 1048.144531 41.292969 C 1046.777344 40.976562 1046.777344 40.976562 1045.25 39.957031 L 1045.25 38.941406 L 1044.421875 38.75 C 1042.976562 38.367188 1041.574219 37.894531 1040.160156 37.414062 Z M 1040.160156 35.378906 " fill-opacity="1" fill-rule="nonzero"/><path fill="#dc2626" d="M 848.816406 349.875 L 849.324219 349.875 C 849.527344 351.746094 849.511719 352.976562 848.792969 354.734375 C 848.148438 356.011719 847.476562 357.273438 846.78125 358.527344 C 845.949219 360.027344 845.566406 361.316406 845.285156 363.011719 C 844.988281 364.625 844.644531 366.039062 843.949219 367.527344 C 843.179688 369.300781 842.90625 370.859375 842.710938 372.773438 L 841.691406 372.773438 L 841.53125 374.652344 C 841.117188 378.386719 840.148438 382.011719 839.234375 385.652344 C 838.445312 388.882812 837.929688 391.964844 837.777344 395.292969 C 837.597656 396.890625 837.132812 398.230469 836.601562 399.746094 C 836.3125 400.910156 836.039062 402.074219 835.777344 403.246094 C 835.644531 403.832031 835.511719 404.417969 835.375 405.023438 C 835.277344 405.464844 835.175781 405.90625 835.074219 406.363281 L 834.058594 406.363281 C 834.152344 400.023438 835.210938 394.1875 836.734375 388.042969 C 837.128906 386.445312 837.511719 384.84375 837.886719 383.242188 C 838.523438 380.546875 839.167969 377.859375 839.828125 375.171875 C 840.03125 374.339844 840.234375 373.511719 840.433594 372.679688 C 841.460938 368.410156 842.789062 364.269531 844.203125 360.117188 L 844.703125 358.628906 C 845.765625 355.566406 847.136719 352.648438 848.816406 349.875 M 1119.039062 131.558594 L 1120.058594 131.558594 L 1122.09375 138.683594 L 1122.632812 140.542969 C 1124.488281 147.164062 1124.234375 153.742188 1124.128906 160.566406 L 1128.199219 160.566406 L 1128.425781 159.105469 C 1129.089844 155.097656 1130 151.257812 1131.285156 147.398438 C 1131.480469 146.804688 1131.480469 146.804688 1131.683594 146.199219 C 1132.644531 143.398438 1132.644531 143.398438 1133.796875 142.246094 C 1133.960938 145.679688 1133.507812 148.214844 1132.269531 151.40625 C 1131.640625 153.296875 1131.582031 155.128906 1131.476562 157.097656 L 1131.410156 158.253906 C 1131.355469 159.195312 1131.304688 160.136719 1131.253906 161.074219 L 1128.199219 161.582031 L 1128.199219 162.601562 L 1124.128906 162.601562 L 1124.128906 161.582031 L 1122.601562 161.582031 L 1122.601562 148.863281 L 1121.585938 148.863281 L 1121.507812 147.300781 L 1121.394531 145.234375 C 1121.378906 144.898438 1121.363281 144.558594 1121.34375 144.210938 C 1121.21875 142.035156 1120.828125 140.207031 1120.058594 138.175781 C 1119.320312 135.878906 1118.921875 133.976562 1119.039062 131.558594 M 1281.378906 437.914062 C 1282.394531 438.929688 1282.394531 438.929688 1282.9375 440.679688 C 1283.464844 442.925781 1283.640625 445.171875 1283.796875 447.46875 L 1283.921875 448.601562 L 1284.429688 449.109375 C 1285.035156 452.226562 1285.011719 455.316406 1285.007812 458.488281 L 1285.007812 460.183594 C 1285.007812 461.371094 1285.007812 462.558594 1285.003906 463.742188 C 1285.003906 465.527344 1285.003906 467.3125 1285.007812 469.097656 C 1285.011719 478.125 1284.769531 486.992188 1283.414062 495.929688 C 1282.394531 494.402344 1282.394531 494.402344 1282.277344 492.835938 L 1282.300781 491 L 1282.308594 489.179688 C 1282.394531 487.277344 1282.394531 487.277344 1282.648438 485.472656 C 1282.984375 482.855469 1282.996094 480.25 1283.007812 477.613281 L 1283.015625 475.996094 C 1283.027344 474.273438 1283.03125 472.554688 1283.03125 470.832031 L 1283.035156 469.0625 C 1283.039062 461.335938 1282.839844 453.804688 1281.710938 446.152344 C 1281.308594 443.398438 1281.304688 440.6875 1281.378906 437.914062 M 849.835938 556.488281 L 851.359375 556.996094 C 851.617188 557.832031 851.867188 558.667969 852.070312 559.519531 C 852.511719 561.011719 853.25 562.308594 854.003906 563.664062 C 854.414062 564.628906 854.414062 564.628906 854.414062 566.664062 L 855.433594 566.664062 C 855.691406 567.457031 855.945312 568.253906 856.195312 569.050781 L 856.625 570.390625 C 856.957031 571.75 857.019531 572.90625 856.957031 574.296875 L 857.976562 574.296875 C 858.804688 575.507812 858.804688 575.507812 859.503906 576.84375 L 859.503906 577.859375 L 860.519531 577.859375 L 860.929688 579.179688 L 861.476562 580.882812 L 862.011719 582.582031 L 862.554688 583.964844 L 863.574219 584.476562 C 864.246094 586.449219 864.59375 587.980469 864.59375 590.074219 L 865.609375 590.074219 L 866.113281 591.003906 L 866.785156 592.234375 L 867.449219 593.453125 C 868.121094 594.667969 868.121094 594.667969 869.003906 595.695312 L 869.679688 596.6875 L 869.679688 598.726562 L 870.699219 598.726562 C 871.65625 600.398438 872.210938 601.554688 872.320312 603.496094 L 872.226562 604.832031 C 870.097656 603.015625 869.046875 600.828125 867.804688 598.375 C 867.355469 597.5 866.902344 596.625 866.453125 595.753906 L 865.769531 594.417969 C 864.957031 592.855469 864.128906 591.296875 863.289062 589.746094 C 860.074219 583.753906 857.238281 577.660156 854.703125 571.351562 C 853.78125 569.070312 852.765625 566.867188 851.679688 564.660156 C 850.382812 561.925781 849.847656 559.503906 849.835938 556.488281 M 1038.125 430.789062 L 1053.390625 430.789062 L 1053.390625 431.296875 C 1039.074219 433.234375 1024.722656 433.027344 1010.304688 432.984375 C 1006.726562 432.972656 1003.148438 432.96875 999.570312 432.96875 C 993.191406 432.964844 986.8125 432.957031 980.4375 432.941406 C 971.941406 432.921875 963.449219 432.910156 954.953125 432.902344 C 939.082031 432.886719 923.210938 432.859375 907.339844 432.824219 L 907.339844 432.316406 L 909.230469 432.308594 C 925.917969 432.257812 942.605469 432.195312 959.289062 432.125 L 960.394531 432.121094 C 966.285156 432.101562 972.175781 432.078125 978.066406 432.058594 C 984.117188 432.039062 990.167969 432.015625 996.222656 431.992188 C 999.617188 431.976562 1003.011719 431.964844 1006.410156 431.957031 C 1009.609375 431.945312 1012.8125 431.933594 1016.011719 431.917969 C 1017.183594 431.914062 1018.351562 431.910156 1019.523438 431.90625 C 1025.742188 431.890625 1031.921875 431.792969 1038.125 431.296875 Z M 904.792969 651.648438 L 906.832031 652.160156 L 907.339844 654.195312 L 909.375 654.703125 L 909.882812 656.738281 L 910.902344 656.738281 L 910.902344 658.265625 L 911.917969 658.265625 L 911.917969 659.28125 L 913.445312 659.28125 L 913.445312 660.300781 L 914.972656 660.808594 L 914.972656 661.828125 L 915.957031 662.242188 L 917.007812 662.84375 L 917.515625 664.371094 L 918.535156 664.371094 C 919.363281 665.070312 919.363281 665.070312 920.0625 665.898438 L 920.0625 666.917969 L 921.589844 667.425781 L 921.589844 668.441406 L 922.605469 668.441406 L 922.605469 669.460938 L 924.132812 669.96875 L 924.132812 670.988281 L 925.152344 670.988281 L 925.152344 672.515625 L 926.167969 672.515625 L 926.167969 673.53125 L 927.695312 674.042969 L 927.695312 675.058594 L 929.222656 675.058594 L 929.222656 676.078125 L 931.257812 676.585938 L 931.382812 677.539062 L 931.765625 678.621094 C 932.777344 679.273438 932.777344 679.273438 933.800781 679.640625 L 933.800781 680.65625 L 931.257812 680.148438 L 931.257812 679.128906 L 930.421875 678.800781 C 928.789062 677.863281 927.589844 676.566406 926.296875 675.21875 C 924.640625 673.503906 922.972656 671.859375 921.167969 670.304688 C 918.832031 668.285156 916.644531 666.136719 914.464844 663.957031 L 913.269531 662.78125 L 912.140625 661.660156 L 911.121094 660.644531 L 910.390625 659.792969 L 910.390625 658.773438 L 909.375 658.773438 C 908.039062 657.3125 908.039062 657.3125 906.832031 655.722656 L 906.832031 654.703125 L 905.8125 654.703125 Z M 974.003906 235.375 L 974.003906 236.390625 L 972.566406 236.765625 C 968.78125 237.761719 965.027344 238.808594 961.292969 239.984375 C 959.421875 240.566406 957.535156 241.101562 955.648438 241.628906 C 954.566406 241.949219 954.566406 241.949219 953.648438 243.007812 C 952.664062 243.25 951.679688 243.496094 950.695312 243.722656 C 948.914062 244.203125 947.3125 244.996094 945.664062 245.804688 C 942.128906 247.515625 942.128906 247.515625 940.515625 248.144531 C 939.308594 248.578125 939.308594 248.578125 938.160156 249.621094 C 936.714844 250.75 935.574219 251.214844 933.800781 251.660156 C 932.339844 251.722656 932.339844 251.722656 931.257812 251.660156 C 940.804688 243.515625 956.496094 238.050781 968.613281 235.519531 C 970.429688 235.316406 972.179688 235.34375 974.003906 235.375 M 1102.246094 232.320312 L 1103.265625 232.828125 L 1103.265625 243.515625 C 1101.039062 244.257812 1098.976562 244.273438 1096.648438 244.023438 C 1095.355469 243.589844 1094.144531 243.058594 1092.898438 242.507812 C 1090.960938 241.757812 1089.019531 241.492188 1086.972656 241.195312 C 1084.75 240.867188 1082.558594 240.410156 1080.363281 239.953125 L 1080.363281 238.9375 L 1079.375 238.878906 C 1076.46875 238.65625 1074.332031 238.160156 1071.710938 236.898438 C 1070.699219 236.546875 1069.679688 236.207031 1068.660156 235.882812 L 1068.660156 235.375 C 1071.566406 235.269531 1073.984375 235.636719 1076.800781 236.390625 C 1077.515625 236.574219 1078.226562 236.757812 1078.9375 236.941406 C 1084.65625 238.429688 1090.339844 240.019531 1096.015625 241.660156 C 1097.582031 242.113281 1099.152344 242.558594 1100.71875 243.007812 C 1101.289062 241.867188 1101.375 241.039062 1101.5 239.773438 L 1101.636719 238.460938 L 1101.769531 237.089844 L 1101.910156 235.707031 C 1102.023438 234.578125 1102.136719 233.449219 1102.246094 232.320312 " fill-opacity="1" fill-rule="nonzero"/><path fill="#dc2626" d="M 1044.230469 397.710938 L 1045.25 397.710938 C 1046.335938 398.90625 1047.222656 400.269531 1048.144531 401.589844 L 1048.972656 402.773438 C 1052.128906 407.367188 1055.585938 412.660156 1056.039062 418.339844 C 1056.089844 419.796875 1056.101562 421.25 1056.09375 422.710938 L 1056.121094 424.214844 L 1056.121094 425.671875 L 1056.125 426.984375 C 1055.9375 428.246094 1055.9375 428.246094 1055.351562 429.660156 L 1054.410156 430.789062 C 1053.023438 431.078125 1053.023438 431.078125 1051.367188 431.039062 L 1049.574219 431.011719 L 1047.699219 430.949219 L 1045.808594 430.914062 C 1044.265625 430.882812 1042.722656 430.84375 1041.179688 430.789062 L 1041.179688 430.28125 L 1053.390625 429.769531 L 1053.390625 428.753906 L 1054.410156 428.753906 L 1054.410156 416.539062 L 1053.390625 416.539062 L 1053.203125 414.855469 C 1053.007812 412.941406 1053.007812 412.941406 1051.867188 411.453125 L 1051.867188 409.925781 L 1050.847656 409.925781 L 1050.339844 407.378906 L 1049.320312 407.378906 L 1049.320312 404.835938 L 1047.792969 404.835938 L 1047.792969 403.816406 L 1046.777344 403.816406 L 1046.777344 402.292969 L 1045.757812 402.292969 C 1044.933594 401.433594 1044.933594 401.433594 1044.230469 400.253906 C 1044.136719 398.855469 1044.136719 398.855469 1044.230469 397.710938 M 1103.265625 97.464844 L 1104.789062 97.972656 C 1108.585938 103.40625 1111.171875 109.792969 1113.949219 115.785156 L 1114.75 117.480469 C 1119.039062 126.691406 1119.039062 126.691406 1119.039062 130.03125 L 1117.511719 130.03125 L 1115.984375 125.453125 L 1114.96875 125.453125 L 1114.554688 123.957031 C 1114.132812 122.460938 1113.640625 121 1113.125 119.535156 C 1112.5625 117.886719 1112.253906 116.527344 1112.425781 114.765625 L 1111.40625 114.765625 C 1109.878906 111.902344 1109.878906 111.902344 1109.878906 110.183594 L 1108.863281 110.183594 C 1107.828125 108.289062 1107.335938 107.300781 1107.335938 105.097656 L 1105.808594 104.585938 C 1105.203125 102.773438 1105.203125 102.773438 1104.789062 101.023438 L 1103.773438 101.023438 Z M 987.234375 167.691406 C 989.378906 168.035156 991.015625 169.101562 992.832031 170.234375 L 993.34375 171.253906 L 995.886719 171.253906 L 995.886719 172.269531 L 997.414062 172.269531 L 997.414062 173.289062 L 1000.976562 173.796875 L 1000.976562 174.816406 L 1001.992188 175.195312 C 1003.199219 175.699219 1004.308594 176.242188 1005.460938 176.851562 C 1007.488281 177.886719 1009.441406 178.410156 1011.664062 178.886719 L 1011.664062 179.902344 L 1013.1875 179.902344 L 1013.699219 180.921875 L 1015.226562 181.429688 L 1016.75 181.941406 L 1017.261719 182.957031 L 1018.789062 183.464844 L 1018.789062 184.484375 L 1021.332031 184.484375 L 1021.332031 185.5 C 1018.90625 185.203125 1016.832031 184.492188 1014.621094 183.5 L 1013.558594 183.027344 C 1009.503906 181.195312 1005.589844 179.09375 1001.675781 176.984375 C 1000.484375 176.355469 999.292969 175.734375 998.089844 175.121094 C 990.292969 171.125 990.292969 171.125 987.234375 168.199219 Z M 1277.816406 517.808594 L 1278.324219 517.808594 C 1278.488281 521.230469 1278.058594 523.792969 1276.796875 526.96875 L 1275.777344 526.96875 L 1275.589844 528.625 C 1275.324219 530.214844 1275.066406 531.210938 1274.253906 532.566406 L 1273.234375 532.566406 L 1273.074219 534.128906 C 1272.714844 536.1875 1272.03125 537.785156 1271.199219 539.691406 C 1270.996094 540.703125 1270.816406 541.722656 1270.691406 542.746094 L 1269.164062 542.746094 L 1268.984375 543.585938 C 1268.59375 545 1268.046875 546.277344 1267.445312 547.613281 L 1266.796875 549.078125 C 1266.167969 550.273438 1265.597656 551.027344 1264.582031 551.90625 C 1264.4375 550.085938 1264.523438 548.984375 1265.292969 547.316406 L 1266.300781 545.609375 C 1270.976562 537.304688 1274.179688 528.238281 1277.003906 519.164062 C 1277.304688 518.320312 1277.304688 518.320312 1277.816406 517.808594 M 834.058594 497.453125 L 835.074219 497.453125 C 835.84375 499.582031 836.320312 501.605469 836.636719 503.847656 C 836.964844 506.171875 836.964844 506.171875 837.394531 508.480469 C 837.699219 510.070312 837.652344 511.613281 837.621094 513.230469 L 838.636719 513.230469 L 838.808594 514.203125 C 839.070312 515.667969 839.328125 517.136719 839.59375 518.605469 L 839.859375 520.132812 C 840.246094 522.273438 840.628906 524.390625 841.246094 526.476562 C 841.671875 527.921875 841.78125 529.039062 841.691406 530.53125 C 840.019531 528.667969 839.292969 527.195312 838.730469 524.761719 L 838.285156 522.867188 L 837.84375 520.894531 L 837.394531 518.976562 C 833.921875 504.019531 833.921875 504.019531 834.058594 497.453125 M 1268.65625 235.375 C 1272.066406 235.613281 1274.734375 236.308594 1277.847656 237.695312 L 1279.113281 238.246094 C 1285.628906 241.109375 1292.167969 244.25 1298.171875 248.097656 L 1298.679688 249.113281 L 1295.625 249.113281 L 1295.117188 248.097656 L 1293.589844 247.585938 L 1293.589844 246.570312 L 1290.539062 246.570312 L 1290.539062 245.550781 L 1289.011719 245.042969 L 1289.011719 244.023438 L 1286.464844 244.023438 L 1286.464844 243.007812 L 1285.328125 242.804688 C 1284.042969 242.523438 1282.96875 242.15625 1281.757812 241.640625 C 1278.921875 240.46875 1276.039062 239.46875 1273.132812 238.480469 C 1271.484375 237.910156 1270.117188 237.367188 1268.65625 236.390625 Z M 886.984375 628.242188 L 888 628.75 L 888 629.765625 L 888.921875 629.832031 L 890.035156 630.277344 C 890.578125 631.277344 891.089844 632.292969 891.5625 633.328125 L 893.089844 634.855469 L 893.089844 636.382812 L 894.109375 636.382812 C 894.933594 637.304688 894.933594 637.304688 895.632812 638.417969 L 895.632812 639.945312 L 896.652344 639.945312 L 896.652344 641.472656 L 897.671875 641.472656 L 897.671875 642.488281 L 899.195312 643 C 900.011719 643.792969 900.011719 643.792969 900.820312 644.75 L 901.636719 645.699219 L 902.25 646.5625 L 902.25 647.578125 L 903.269531 647.578125 L 903.269531 650.121094 L 902.25 649.613281 L 902.25 648.597656 L 901.390625 648.53125 C 900.214844 648.085938 900.214844 648.085938 899.023438 646.800781 C 898.578125 646.226562 898.136719 645.648438 897.703125 645.066406 L 896.984375 644.128906 C 893.539062 639.601562 890.136719 635.007812 886.984375 630.277344 Z M 1087.996094 75.582031 C 1089.578125 76.136719 1090.242188 76.832031 1091.386719 78.097656 C 1091.894531 78.730469 1092.398438 79.363281 1092.894531 80 L 1093.699219 81.023438 C 1097.230469 85.554688 1100.574219 90.34375 1103.265625 95.425781 L 1103.265625 96.953125 L 1102.246094 96.953125 C 1101.015625 95.925781 1100.304688 94.875 1099.703125 93.390625 L 1099.703125 91.863281 L 1098.683594 91.863281 L 1098.175781 89.320312 L 1097.15625 89.320312 C 1096.332031 88.113281 1096.332031 88.113281 1095.628906 86.777344 L 1095.628906 85.757812 L 1094.105469 85.25 L 1094.105469 84.230469 L 1093.085938 84.230469 L 1093.085938 82.707031 L 1090.542969 81.6875 L 1090.542969 79.144531 L 1089.015625 78.632812 L 1089.015625 77.617188 L 1087.996094 77.617188 Z M 1184.179688 612.972656 L 1183.667969 613.992188 C 1182.75 614.339844 1182.75 614.339844 1181.558594 614.648438 L 1180.261719 614.984375 L 1178.898438 615.328125 L 1177.546875 615.679688 C 1174.21875 616.535156 1174.21875 616.535156 1172.472656 616.535156 L 1172.472656 617.554688 L 1171.152344 617.628906 C 1167.554688 617.84375 1167.554688 617.84375 1164.042969 618.605469 C 1161.441406 619.3125 1158.871094 619.160156 1156.1875 619.082031 L 1156.699219 618.0625 C 1157.644531 617.792969 1157.644531 617.792969 1158.894531 617.589844 L 1160.285156 617.351562 L 1161.785156 617.109375 C 1167.125 616.191406 1172.382812 615.089844 1177.617188 613.707031 C 1179.921875 613.109375 1181.820312 612.875 1184.179688 612.972656 M 936.347656 15.023438 L 936.347656 15.53125 L 932.179688 16.515625 L 930.996094 16.796875 L 929.835938 17.070312 L 928.714844 17.339844 C 927.875 17.527344 927.027344 17.675781 926.175781 17.816406 L 925.152344 18.074219 C 924.566406 19.21875 924.566406 19.21875 924.132812 20.621094 L 923.148438 22.019531 C 922.039062 23.765625 921.515625 25.328125 920.980469 27.308594 L 920.570312 28.253906 L 919.042969 28.761719 C 919.28125 24.507812 920.972656 21.5 923.113281 17.882812 C 925.101562 16.144531 927.007812 15.523438 929.535156 14.824219 C 931.90625 14.394531 934 14.535156 936.347656 15.023438 M 962.679688 12.222656 L 964.230469 12.367188 L 965.351562 12.476562 L 965.351562 13.496094 L 963.679688 13.535156 C 961.621094 13.582031 959.5625 13.632812 957.503906 13.683594 C 956.613281 13.707031 955.726562 13.726562 954.835938 13.75 C 953.554688 13.777344 952.273438 13.808594 950.992188 13.84375 L 949.796875 13.867188 C 947.480469 13.929688 945.257812 14.167969 942.960938 14.511719 C 942.214844 14.546875 941.46875 14.570312 940.722656 14.5625 L 939.574219 14.558594 L 938.414062 14.542969 L 937.210938 14.539062 C 936.246094 14.53125 935.277344 14.523438 934.3125 14.511719 L 934.3125 14.003906 C 938.167969 13.015625 941.949219 12.671875 945.921875 12.414062 L 947.761719 12.28125 C 952.742188 11.941406 957.703125 11.75 962.679688 12.222656 M 841.691406 531.550781 L 842.710938 531.550781 L 843.125 533.363281 C 843.484375 534.832031 843.90625 536.03125 844.523438 537.433594 C 845.273438 539.234375 845.53125 540.820312 845.761719 542.746094 L 846.273438 543.253906 C 846.292969 544.101562 846.292969 544.953125 846.273438 545.800781 L 847.796875 546.308594 L 848.019531 548.214844 C 848.160156 549.355469 848.308594 550.390625 848.625 551.492188 C 848.882812 552.742188 848.613281 553.734375 848.308594 554.960938 C 847.601562 553.597656 846.992188 552.195312 846.484375 550.75 L 846.035156 549.488281 C 841.335938 535.984375 841.335938 535.984375 841.691406 531.550781 M 1283.921875 460.8125 L 1284.9375 461.324219 C 1285.066406 485.03125 1285.066406 485.03125 1283.414062 495.929688 C 1282.394531 494.402344 1282.394531 494.402344 1282.277344 492.730469 L 1282.300781 490.808594 L 1282.308594 488.878906 C 1282.394531 487.277344 1282.394531 487.277344 1282.902344 486.257812 L 1283.921875 486.257812 Z M 1126.671875 621.625 L 1126.671875 622.644531 C 1123.804688 623.128906 1121.027344 623.234375 1118.125 623.238281 L 1116.707031 623.242188 C 1115.726562 623.246094 1114.746094 623.246094 1113.765625 623.246094 C 1112.261719 623.246094 1110.753906 623.257812 1109.25 623.265625 C 1108.296875 623.269531 1107.339844 623.269531 1106.386719 623.269531 L 1105.019531 623.28125 C 1103.925781 623.277344 1102.832031 623.21875 1101.738281 623.152344 L 1100.71875 622.132812 C 1109.378906 621.632812 1118.003906 621.566406 1126.671875 621.625 M 956.703125 140.71875 L 958.230469 140.71875 L 958.230469 142.246094 L 959.246094 142.246094 L 959.246094 143.261719 L 960.265625 143.261719 C 961.089844 143.964844 961.089844 143.964844 961.789062 144.789062 L 961.789062 145.808594 L 962.808594 145.808594 C 963.636719 146.507812 963.636719 146.507812 964.335938 147.335938 L 964.335938 148.351562 L 966.371094 148.863281 L 965.863281 149.878906 L 966.878906 149.878906 L 967.613281 150.867188 L 968.40625 151.914062 L 969.933594 152.421875 C 971.125 153.550781 972.25 154.722656 973.363281 155.929688 L 974.289062 156.910156 L 975.152344 157.839844 L 976.039062 158.53125 L 978.074219 158.53125 L 978.074219 159.546875 L 980.109375 160.058594 L 980.109375 162.601562 C 976.527344 160.492188 973.597656 157.863281 970.597656 155.019531 C 969.40625 153.894531 968.1875 152.796875 966.945312 151.730469 C 964.714844 149.792969 962.609375 147.738281 960.519531 145.648438 L 959.398438 144.546875 L 958.339844 143.492188 L 957.386719 142.542969 L 956.703125 141.738281 Z M 956.703125 140.71875 " fill-opacity="1" fill-rule="nonzero"/><path fill="#dc2626" d="M 1281.886719 491.347656 L 1282.394531 491.347656 C 1283.609375 495.601562 1283.507812 499.6875 1283.414062 504.070312 L 1281.886719 504.578125 L 1281.886719 508.140625 L 1281.378906 508.140625 L 1280.867188 512.210938 L 1279.851562 511.703125 C 1279.773438 508.773438 1280.039062 506.117188 1280.582031 503.242188 C 1281.292969 499.277344 1281.699219 495.378906 1281.886719 491.347656 M 1123.109375 149.371094 L 1123.621094 149.371094 C 1123.703125 150.949219 1123.789062 152.53125 1123.875 154.109375 L 1123.949219 155.46875 L 1124.015625 156.773438 L 1124.082031 157.976562 C 1124.121094 158.839844 1124.128906 159.703125 1124.128906 160.566406 L 1128.199219 160.566406 L 1128.707031 156.496094 L 1130.234375 155.984375 L 1130.234375 161.582031 L 1128.199219 161.582031 L 1128.199219 162.601562 L 1124.128906 162.601562 L 1124.128906 161.582031 L 1122.601562 161.582031 C 1122.535156 157.503906 1122.707031 153.433594 1123.109375 149.371094 M 1240.15625 77.105469 C 1241.253906 78.007812 1241.695312 78.667969 1242.222656 80.007812 C 1243.550781 84.671875 1243.332031 89.644531 1242.699219 94.410156 L 1241.175781 94.917969 L 1241.175781 80.160156 L 1240.15625 80.160156 Z M 974.003906 235.375 L 974.003906 236.390625 L 972.476562 236.785156 C 971.800781 236.960938 971.121094 237.136719 970.441406 237.3125 L 969.378906 237.589844 C 967.574219 238.070312 965.835938 238.59375 964.113281 239.316406 C 961.976562 240.066406 960.46875 240.074219 958.230469 239.953125 L 959.246094 239.445312 L 959.246094 238.425781 C 960.453125 238.011719 961.664062 237.597656 962.871094 237.1875 L 963.898438 236.832031 C 967.3125 235.675781 970.414062 235.3125 974.003906 235.375 M 1142.449219 127.488281 C 1142.78125 128.355469 1142.78125 128.355469 1142.957031 129.523438 C 1142.449219 130.722656 1142.449219 130.722656 1141.71875 131.941406 L 1140.988281 133.171875 L 1140.414062 134.101562 L 1139.394531 134.101562 L 1139.222656 134.96875 C 1138.839844 136.300781 1138.269531 137.359375 1137.582031 138.554688 L 1136.882812 139.789062 C 1136.703125 140.09375 1136.523438 140.402344 1136.34375 140.71875 L 1135.324219 140.71875 L 1135.324219 142.246094 L 1134.304688 142.246094 C 1134.574219 140.015625 1135.078125 138.488281 1136.277344 136.59375 L 1137.160156 135.175781 L 1138.089844 133.722656 L 1139.015625 132.246094 C 1141.265625 128.671875 1141.265625 128.671875 1142.449219 127.488281 M 946.523438 691.851562 L 948.050781 691.851562 L 948.050781 692.871094 L 949.578125 692.871094 L 949.578125 693.886719 L 950.785156 693.792969 L 952.121094 693.886719 L 953.140625 695.414062 L 953.140625 696.941406 L 954.347656 697.324219 L 955.683594 697.960938 C 956.226562 698.945312 956.226562 698.945312 956.703125 699.996094 C 957.738281 700.878906 957.738281 700.878906 958.738281 701.519531 L 958.230469 702.539062 C 957.1875 701.746094 956.148438 700.949219 955.113281 700.152344 L 954.234375 699.484375 C 953.355469 698.808594 952.484375 698.132812 951.613281 697.449219 L 950.734375 696.761719 C 949.445312 695.726562 948.617188 695.035156 947.921875 693.507812 L 947.542969 692.359375 Z M 1225.90625 471.5 L 1226.417969 472.519531 L 1227.433594 472.519531 C 1227.449219 474.109375 1227.457031 475.699219 1227.464844 477.289062 L 1227.480469 478.660156 L 1227.484375 479.972656 L 1227.492188 481.183594 C 1227.433594 482.1875 1227.433594 482.1875 1226.925781 483.207031 L 1225.90625 483.207031 Z M 1080.363281 200.261719 C 1091.417969 200.671875 1091.417969 200.671875 1096.140625 201.785156 L 1096.140625 202.804688 C 1095.144531 202.816406 1094.144531 202.828125 1093.148438 202.835938 L 1091.46875 202.855469 C 1090.03125 202.804688 1090.03125 202.804688 1089.015625 202.296875 L 1089.015625 201.277344 L 1079.855469 201.277344 Z M 1148.554688 119.34375 L 1149.574219 119.34375 L 1149.0625 121.890625 L 1148.046875 121.890625 L 1147.632812 123.386719 L 1147.027344 124.941406 L 1145.503906 125.453125 L 1145.503906 126.46875 L 1144.484375 126.46875 L 1144.484375 127.996094 L 1143.464844 127.996094 C 1143.65625 126.359375 1144.007812 125.402344 1144.898438 123.996094 L 1146.011719 122.527344 L 1147.125 121.039062 C 1148.046875 119.855469 1148.046875 119.855469 1148.554688 119.34375 M 881.386719 619.589844 L 882.402344 619.589844 C 883.039062 620.488281 883.644531 621.414062 884.214844 622.355469 C 885.21875 624.121094 885.21875 624.121094 886.472656 625.695312 C 886.496094 626.542969 886.496094 627.394531 886.472656 628.242188 C 884.292969 626.300781 882.992188 624.332031 881.894531 621.625 C 881.710938 620.949219 881.539062 620.273438 881.386719 619.589844 M 840.164062 522.898438 L 841.183594 522.898438 L 841.183594 524.425781 L 842.199219 524.425781 C 842.652344 528.085938 842.84375 531.078125 841.691406 534.605469 L 841.183594 534.605469 L 840.164062 529.007812 L 841.183594 529.515625 Z M 1065.097656 197.714844 L 1071.710938 197.714844 L 1072.222656 199.242188 L 1078.328125 199.242188 L 1078.328125 199.75 L 1070.695312 199.75 L 1070.695312 198.734375 L 1065.097656 198.734375 Z M 1257.457031 232.828125 C 1261.496094 232.640625 1264.855469 232.945312 1268.65625 234.355469 L 1268.65625 234.863281 C 1267.816406 234.878906 1266.980469 234.886719 1266.140625 234.898438 L 1264.730469 234.914062 L 1263.566406 234.863281 L 1263.058594 234.355469 C 1262.117188 234.15625 1261.171875 233.976562 1260.226562 233.816406 L 1258.664062 233.542969 L 1257.457031 233.339844 Z M 1257.457031 232.828125 " fill-opacity="1" fill-rule="nonzero"/><path fill="#dc2626" d="M 978.488281 234.324219 L 979.996094 234.625 L 981.128906 234.863281 L 980.621094 235.882812 C 979.570312 235.894531 978.519531 235.90625 977.472656 235.914062 L 975.699219 235.933594 C 974.210938 235.886719 972.902344 235.71875 971.460938 235.375 C 973.902344 233.746094 975.660156 233.742188 978.488281 234.324219 M 977.566406 714.242188 C 980.347656 714.421875 980.347656 714.421875 981.636719 714.753906 C 982.402344 715.800781 982.402344 715.800781 982.65625 716.789062 L 984.691406 716.789062 L 984.691406 717.804688 L 986.21875 717.804688 L 986.21875 718.824219 C 984.195312 718.46875 982.519531 717.484375 980.746094 716.503906 L 979.820312 715.992188 C 979.066406 715.582031 978.316406 715.167969 977.566406 714.753906 Z M 1061.535156 196.699219 C 1062.90625 196.828125 1063.867188 197.101562 1065.097656 197.714844 L 1065.097656 198.734375 L 1070.695312 198.734375 L 1070.695312 199.75 C 1066.890625 199.503906 1063.21875 199.070312 1059.5 198.222656 C 1060.433594 197.453125 1060.433594 197.453125 1061.535156 196.699219 M 1039.144531 190.082031 L 1041.179688 190.589844 L 1041.179688 191.609375 L 1042.417969 192.054688 L 1043.722656 192.625 L 1044.230469 193.644531 C 1041.484375 193.058594 1038.78125 192.410156 1036.089844 191.609375 L 1036.089844 191.101562 L 1039.144531 190.589844 Z M 1176.542969 520.863281 L 1178.582031 521.371094 L 1171.964844 525.953125 L 1171.457031 524.933594 L 1172.472656 524.933594 L 1172.472656 523.40625 L 1174 522.898438 L 1174.507812 521.882812 L 1176.542969 521.882812 Z M 942.453125 122.90625 L 943.472656 122.90625 L 943.472656 123.925781 L 944.996094 123.925781 L 945.507812 126.46875 L 946.523438 126.46875 L 946.523438 127.996094 L 947.542969 127.996094 L 947.03125 129.523438 C 946.363281 128.710938 945.695312 127.894531 945.03125 127.074219 L 943.902344 125.695312 C 942.960938 124.433594 942.960938 124.433594 942.453125 122.90625 M 1040.667969 552.925781 C 1042.324219 552.828125 1042.324219 552.828125 1044.230469 552.925781 C 1045.472656 553.625 1045.472656 553.625 1046.265625 554.449219 L 1046.265625 555.46875 L 1044.742188 555.46875 L 1044.742188 553.941406 L 1041.179688 553.941406 Z M 952.628906 241.480469 L 952.628906 242.5 L 953.648438 243.007812 L 948.558594 243.007812 C 949.898438 241.667969 950.75 241.480469 952.628906 241.480469 M 1237.613281 73.035156 L 1240.15625 75.582031 L 1239.140625 77.617188 L 1238.628906 75.070312 L 1237.613281 75.070312 Z M 840.164062 529.007812 L 841.183594 529.515625 L 841.183594 530.53125 L 842.199219 530.53125 L 841.691406 534.605469 L 841.183594 534.605469 Z M 1055.425781 428.246094 L 1054.410156 430.789062 L 1053.390625 430.789062 L 1053.390625 428.753906 C 1054.410156 428.246094 1054.410156 428.246094 1055.425781 428.246094 M 954.15625 137.664062 L 955.683594 138.175781 L 955.683594 139.191406 L 956.703125 139.191406 L 956.191406 140.71875 C 955.492188 140.0625 954.816406 139.382812 954.15625 138.683594 Z M 1276.796875 519.847656 L 1277.816406 520.863281 L 1277.816406 522.898438 L 1276.289062 522.898438 Z M 951.613281 135.121094 L 954.15625 135.628906 L 953.648438 137.664062 Z M 951.613281 135.121094 " fill-opacity="1" fill-rule="nonzero"/></svg>