<?xml version="1.0" encoding="UTF-8"?>
<svg xmlns="http://www.w3.org/2000/svg" version="1.1" width="300" height="300" viewBox="0 0 300 300"><rect x="0" y="0" width="300" height="300" fill="#fafafa"/><g transform="scale(10.345)"><g transform="translate(0,0)"><path fill-rule="evenodd" d="M11 0L11 1L8 1L8 3L9 3L9 4L8 4L8 8L6 8L6 9L5 9L5 11L4 11L4 8L3 8L3 9L2 9L2 8L0 8L0 10L1 10L1 9L2 9L2 10L3 10L3 12L5 12L5 14L6 14L6 15L7 15L7 16L6 16L6 17L5 17L5 18L3 18L3 17L4 17L4 15L3 15L3 14L4 14L4 13L3 13L3 14L2 14L2 16L0 16L0 17L2 17L2 21L7 21L7 20L8 20L8 19L9 19L9 20L10 20L10 19L11 19L11 18L13 18L13 19L15 19L15 18L14 18L14 17L13 17L13 16L15 16L15 15L13 15L13 16L12 16L12 14L13 14L13 13L14 13L14 14L15 14L15 13L18 13L18 14L17 14L17 16L16 16L16 18L17 18L17 21L18 21L18 23L19 23L19 21L18 21L18 20L20 20L20 25L17 25L17 26L16 26L16 25L14 25L14 24L15 24L15 23L13 23L13 22L14 22L14 20L13 20L13 21L12 21L12 20L11 20L11 21L8 21L8 23L9 23L9 25L8 25L8 26L9 26L9 27L8 27L8 29L9 29L9 27L10 27L10 26L11 26L11 28L10 28L10 29L11 29L11 28L12 28L12 29L13 29L13 28L14 28L14 27L15 27L15 26L16 26L16 27L17 27L17 28L18 28L18 27L19 27L19 28L20 28L20 29L21 29L21 27L22 27L22 26L24 26L24 28L23 28L23 29L26 29L26 28L25 28L25 27L27 27L27 29L28 29L28 27L29 27L29 26L28 26L28 27L27 27L27 25L25 25L25 24L27 24L27 23L28 23L28 25L29 25L29 23L28 23L28 22L29 22L29 21L27 21L27 20L29 20L29 17L28 17L28 15L29 15L29 14L25 14L25 16L26 16L26 15L27 15L27 17L28 17L28 18L27 18L27 20L26 20L26 22L27 22L27 23L25 23L25 18L26 18L26 17L25 17L25 18L24 18L24 16L23 16L23 17L22 17L22 16L21 16L21 15L24 15L24 14L21 14L21 13L23 13L23 12L24 12L24 11L26 11L26 12L25 12L25 13L26 13L26 12L27 12L27 13L29 13L29 12L28 12L28 10L29 10L29 9L28 9L28 8L26 8L26 9L25 9L25 8L22 8L22 9L20 9L20 8L21 8L21 6L20 6L20 5L19 5L19 3L18 3L18 2L19 2L19 1L20 1L20 3L21 3L21 0L17 0L17 1L16 1L16 0L14 0L14 1L13 1L13 0ZM14 1L14 2L12 2L12 3L11 3L11 2L9 2L9 3L10 3L10 5L9 5L9 8L8 8L8 9L6 9L6 10L7 10L7 11L6 11L6 12L7 12L7 11L8 11L8 13L6 13L6 14L7 14L7 15L8 15L8 16L9 16L9 15L10 15L10 17L9 17L9 19L10 19L10 18L11 18L11 15L10 15L10 14L12 14L12 13L10 13L10 12L9 12L9 11L13 11L13 10L14 10L14 13L15 13L15 12L16 12L16 9L17 9L17 10L18 10L18 11L17 11L17 12L18 12L18 11L19 11L19 13L20 13L20 11L23 11L23 10L25 10L25 9L23 9L23 10L20 10L20 9L18 9L18 8L17 8L17 7L18 7L18 6L19 6L19 7L20 7L20 6L19 6L19 5L18 5L18 3L17 3L17 5L18 5L18 6L17 6L17 7L16 7L16 6L15 6L15 5L14 5L14 6L13 6L13 5L11 5L11 4L12 4L12 3L13 3L13 4L14 4L14 2L15 2L15 1ZM17 1L17 2L18 2L18 1ZM10 5L10 8L11 8L11 5ZM12 6L12 10L13 10L13 9L14 9L14 10L15 10L15 9L14 9L14 8L16 8L16 7L15 7L15 6L14 6L14 8L13 8L13 6ZM8 9L8 10L10 10L10 9ZM26 9L26 10L28 10L28 9ZM19 10L19 11L20 11L20 10ZM0 12L0 13L2 13L2 12ZM8 14L8 15L9 15L9 14ZM19 14L19 19L20 19L20 20L21 20L21 19L20 19L20 15L21 15L21 14ZM2 16L2 17L3 17L3 16ZM6 17L6 18L5 18L5 19L4 19L4 20L7 20L7 19L6 19L6 18L8 18L8 17ZM17 17L17 18L18 18L18 17ZM21 17L21 18L22 18L22 17ZM0 18L0 19L1 19L1 18ZM0 20L0 21L1 21L1 20ZM15 20L15 21L16 21L16 20ZM11 21L11 23L10 23L10 22L9 22L9 23L10 23L10 25L9 25L9 26L10 26L10 25L11 25L11 26L12 26L12 27L13 27L13 26L14 26L14 25L13 25L13 23L12 23L12 21ZM21 21L21 24L24 24L24 21ZM22 22L22 23L23 23L23 22ZM11 23L11 24L12 24L12 23ZM16 23L16 24L17 24L17 23ZM12 25L12 26L13 26L13 25ZM20 25L20 27L21 27L21 26L22 26L22 25ZM17 26L17 27L18 27L18 26ZM15 28L15 29L16 29L16 28ZM0 0L0 7L7 7L7 0ZM1 1L1 6L6 6L6 1ZM2 2L2 5L5 5L5 2ZM22 0L22 7L29 7L29 0ZM23 1L23 6L28 6L28 1ZM24 2L24 5L27 5L27 2ZM0 22L0 29L7 29L7 22ZM1 23L1 28L6 28L6 23ZM2 24L2 27L5 27L5 24Z" fill="#000000"/></g></g></svg>
