<svg xmlns="http://www.w3.org/2000/svg" xmlns:xlink="http://www.w3.org/1999/xlink" width="500" zoomAndPan="magnify" viewBox="0 0 375 374.999991" height="500" preserveAspectRatio="xMidYMid meet" version="1.0"><path fill="#000000" d="M 211.988281 78.6875 C 206.621094 79.242188 203.332031 79.945312 202.125 80.792969 C 201.128906 81.496094 199.609375 82.070312 198.746094 82.070312 C 197.882812 82.070312 196.390625 82.6875 195.429688 83.4375 C 194.46875 84.1875 192.996094 85.019531 192.152344 85.28125 C 190.371094 85.839844 182.332031 93.5 182.332031 94.636719 C 182.332031 95.058594 181.675781 96.246094 180.867188 97.269531 C 179.601562 98.882812 179.402344 100.246094 179.402344 107.382812 C 179.402344 115.015625 179.515625 115.660156 180.867188 116.015625 C 181.847656 116.273438 182.332031 117.015625 182.332031 118.257812 C 182.332031 120.902344 181.003906 121.382812 180.421875 118.949219 C 180.152344 117.824219 179.316406 116.3125 178.570312 115.589844 C 177.820312 114.871094 177.207031 114.035156 177.207031 113.734375 C 177.207031 112.992188 167.648438 103.066406 163.953125 99.976562 C 160.777344 97.320312 156.4375 96.5625 154.652344 98.351562 C 153.699219 99.304688 153.421875 104.804688 154.328125 104.804688 C 154.632812 104.804688 156.527344 106.285156 158.539062 108.089844 C 160.550781 109.898438 162.414062 111.386719 162.679688 111.390625 C 162.949219 111.398438 164.84375 113.464844 166.890625 115.984375 C 168.941406 118.507812 171.109375 121.09375 171.714844 121.730469 C 172.320312 122.371094 172.8125 123.378906 172.8125 123.972656 C 172.8125 124.566406 173.636719 126.167969 174.644531 127.535156 C 178.0625 132.175781 176.59375 134.527344 171.792969 132.105469 C 167.847656 130.113281 157.597656 127.976562 154.4375 128.480469 C 144.066406 130.148438 138.144531 132.832031 131.371094 138.9375 C 126.980469 142.890625 122.285156 148.714844 122.285156 150.207031 C 122.285156 150.535156 121.648438 151.617188 120.867188 152.609375 C 120.085938 153.601562 119.21875 155.378906 118.9375 156.558594 C 118.660156 157.738281 117.742188 160.183594 116.902344 162 C 115.507812 165.015625 115.382812 166.542969 115.457031 179.734375 C 115.527344 191.632812 115.753906 194.597656 116.761719 196.601562 C 117.433594 197.9375 118.296875 200.660156 118.675781 202.648438 C 119.058594 204.636719 119.835938 206.78125 120.40625 207.414062 C 120.972656 208.046875 121.679688 209.554688 121.976562 210.765625 C 122.269531 211.972656 123.117188 213.75 123.863281 214.714844 C 124.605469 215.675781 125.214844 216.84375 125.214844 217.3125 C 125.214844 217.78125 125.71875 218.808594 126.328125 219.597656 C 126.941406 220.386719 128.8125 223.175781 130.488281 225.796875 C 134.179688 231.578125 146.019531 243.613281 151.652344 247.304688 C 153.910156 248.785156 156 249.996094 156.296875 249.996094 C 156.59375 249.996094 157.675781 250.65625 158.699219 251.460938 C 161.414062 253.601562 173.207031 253.617188 175.914062 251.484375 C 176.921875 250.691406 179.1875 249.667969 180.953125 249.214844 C 184.261719 248.359375 185.589844 248.703125 191.121094 251.863281 C 193.605469 253.28125 204.035156 253.273438 206.5 251.847656 C 207.503906 251.269531 209.003906 250.480469 209.832031 250.101562 C 216.160156 247.1875 230.617188 233.644531 235.378906 226.164062 C 236.921875 223.742188 238.796875 220.871094 239.550781 219.777344 C 240.300781 218.683594 240.914062 217.324219 240.914062 216.757812 C 240.914062 216.191406 241.527344 214.941406 242.277344 213.980469 C 243.027344 213.019531 243.890625 211.40625 244.191406 210.398438 C 244.496094 209.390625 245.363281 207.535156 246.125 206.277344 C 246.882812 205.019531 247.503906 203.300781 247.503906 202.457031 C 247.503906 201.609375 248.195312 199.175781 249.035156 197.042969 C 250.398438 193.589844 250.566406 191.636719 250.570312 179.175781 C 250.574219 166.375 250.445312 164.945312 249.039062 162.324219 C 248.195312 160.746094 247.503906 158.753906 247.503906 157.894531 C 247.503906 157.035156 246.867188 155.519531 246.085938 154.523438 C 245.304688 153.53125 244.445312 151.835938 244.175781 150.757812 C 243.90625 149.683594 243.445312 148.800781 243.15625 148.800781 C 242.863281 148.800781 242.167969 147.894531 241.605469 146.785156 C 240.121094 143.855469 229.910156 134.15625 227.746094 133.617188 C 226.734375 133.367188 225.078125 132.585938 224.074219 131.882812 C 223.066406 131.179688 220.925781 130.390625 219.3125 130.125 C 217.703125 129.863281 215.394531 129.316406 214.1875 128.910156 C 211.472656 128 196.703125 130.386719 193.976562 132.179688 C 192.992188 132.824219 191.042969 133.445312 189.640625 133.558594 C 187.238281 133.757812 187.101562 133.648438 187.246094 131.628906 C 187.332031 130.453125 187.730469 129.285156 188.132812 129.039062 C 188.535156 128.789062 189.390625 127.328125 190.03125 125.796875 C 190.855469 123.820312 191.519531 123.132812 192.316406 123.4375 C 192.933594 123.675781 193.6875 123.871094 193.992188 123.871094 C 194.296875 123.871094 194.921875 124.695312 195.378906 125.703125 C 196.113281 127.308594 196.675781 127.535156 199.960938 127.535156 C 202.59375 127.535156 204.253906 127.101562 205.566406 126.070312 C 206.589844 125.261719 208.191406 124.601562 209.125 124.601562 C 211.054688 124.601562 221.875 114.269531 221.875 112.429688 C 221.875 111.824219 222.503906 110.105469 223.273438 108.617188 C 225.308594 104.667969 228.464844 94.234375 228.472656 91.441406 C 228.472656 90.121094 229.128906 88.046875 229.929688 86.839844 C 231.898438 83.863281 231.824219 80.910156 229.746094 79.597656 C 227.316406 78.066406 221.082031 77.746094 211.988281 78.6875 M 214.917969 87.03125 C 214.113281 87.183594 212.417969 87.777344 211.148438 88.355469 C 209.878906 88.933594 207.699219 89.40625 206.304688 89.40625 C 204.875 89.40625 202.953125 90.046875 201.90625 90.871094 C 200.878906 91.675781 199.523438 92.335938 198.886719 92.335938 C 197 92.335938 190.304688 99.171875 189.140625 102.285156 C 187.507812 106.648438 187.574219 108.066406 189.414062 108.328125 C 190.492188 108.484375 192.128906 107.480469 194.488281 105.214844 C 198.75 101.125 201.007812 100.835938 202.417969 104.195312 C 203.773438 107.417969 202.878906 109.890625 199.070312 113.457031 C 195.132812 117.144531 195.730469 118.316406 201.191406 117.589844 C 204.164062 117.195312 205.503906 116.511719 208.070312 114.070312 C 211.996094 110.335938 214.554688 107.015625 214.554688 105.660156 C 214.554688 105.097656 215.183594 103.4375 215.953125 101.96875 C 217.085938 99.816406 218.945312 91.171875 218.945312 88.066406 C 218.945312 87.207031 216.863281 86.671875 214.917969 87.03125 M 148.28125 139.269531 C 147.074219 140.070312 145.574219 140.726562 144.953125 140.730469 C 141.859375 140.742188 128.878906 154.304688 128.878906 157.523438 C 128.878906 158.042969 128.21875 159.308594 127.414062 160.332031 C 126.605469 161.359375 125.949219 163.238281 125.949219 164.511719 C 125.949219 165.785156 125.511719 168.628906 124.976562 170.828125 C 123.582031 176.59375 123.53125 181.621094 124.820312 186.574219 C 125.441406 188.957031 125.949219 192.007812 125.949219 193.347656 C 125.949219 194.691406 126.5625 197.015625 127.3125 198.511719 C 128.0625 200.007812 128.898438 202.4375 129.164062 203.90625 C 129.429688 205.378906 130.101562 206.960938 130.65625 207.421875 C 131.210938 207.882812 131.863281 209.0625 132.109375 210.042969 C 132.355469 211.023438 133.375 213.035156 134.378906 214.515625 C 135.378906 215.992188 136.199219 217.652344 136.199219 218.199219 C 136.199219 218.75 136.519531 219.195312 136.914062 219.195312 C 137.304688 219.195312 138.15625 220.222656 138.804688 221.480469 C 140.0625 223.910156 153.441406 237.566406 157.15625 240.203125 C 158.375 241.070312 161.386719 242.347656 163.851562 243.039062 L 168.335938 244.296875 L 173.867188 241.5625 C 178.890625 239.074219 179.832031 238.851562 184.117188 239.125 C 187.09375 239.316406 189.328125 239.867188 190.164062 240.621094 C 190.890625 241.277344 192.378906 242.039062 193.46875 242.308594 C 194.5625 242.582031 195.8125 243.242188 196.253906 243.773438 C 197.300781 245.035156 204.613281 242.660156 209.1875 239.566406 C 216.078125 234.910156 230.664062 218.761719 230.664062 215.789062 C 230.664062 215.367188 231.320312 214.425781 232.128906 213.699219 C 232.933594 212.96875 233.59375 211.910156 233.59375 211.351562 C 233.59375 210.789062 234.417969 208.78125 235.421875 206.886719 C 236.429688 204.992188 237.253906 202.863281 237.253906 202.152344 C 237.253906 201.441406 237.914062 199.628906 238.71875 198.125 C 239.523438 196.617188 240.183594 194.34375 240.183594 193.070312 C 240.183594 191.796875 240.699219 188.257812 241.328125 185.203125 C 242.414062 179.957031 242.390625 179.160156 240.957031 170.695312 C 240.121094 165.765625 238.988281 161.214844 238.445312 160.582031 C 237.898438 159.953125 237.214844 158.445312 236.925781 157.234375 C 236.25 154.402344 231.015625 148.046875 226.179688 144.191406 C 221.28125 140.285156 216.238281 138.410156 209.53125 138.007812 C 203.957031 137.667969 203.742188 137.730469 194.78125 142.207031 C 193.371094 142.914062 190.453125 143.730469 188.300781 144.023438 C 183.277344 144.710938 173.816406 143.832031 172.546875 142.5625 C 172.007812 142.023438 170.128906 141.195312 168.367188 140.722656 C 166.609375 140.246094 164.507812 139.394531 163.703125 138.828125 C 161.320312 137.160156 151.019531 137.453125 148.28125 139.269531 M 148.71875 145.203125 C 142.753906 148.0625 135.125 155.660156 134.414062 159.445312 C 133.710938 163.195312 135.242188 165.976562 138.171875 166.257812 C 139.984375 166.4375 140.691406 166.113281 141.386719 164.792969 C 144.304688 159.242188 150.070312 154.085938 154.09375 153.433594 C 155.96875 153.128906 157.027344 152.394531 157.996094 150.722656 C 159.191406 148.667969 159.21875 148.210938 158.265625 146.234375 C 156.332031 142.210938 155.207031 142.089844 148.71875 145.203125 M 94.527344 151.503906 C 92.351562 152.558594 89.714844 154.394531 88.671875 155.585938 C 87.585938 156.820312 86.484375 158.042969 85.375 159.257812 C 82.34375 162.527344 82.0625 167.257812 82.035156 215.550781 C 82.015625 255.796875 81.871094 261.601562 80.875 263.027344 C 79.875 264.457031 79.117188 264.644531 74.707031 264.578125 C 71.941406 264.535156 69.292969 264.742188 68.8125 265.039062 C 67.507812 265.847656 65.902344 270.171875 65.902344 272.886719 C 65.902344 277.585938 67.929688 285.070312 69.902344 287.660156 C 73.78125 292.75 76.414062 294.132812 83.632812 294.859375 C 87.300781 295.226562 133.703125 295.425781 188.464844 295.304688 L 286.714844 295.09375 L 290.488281 292.667969 C 297.199219 288.355469 299.320312 284.066406 299.804688 273.828125 C 299.976562 270.15625 298.757812 265.929688 297.253906 265 C 296.8125 264.726562 294.191406 264.535156 291.433594 264.578125 C 287.773438 264.632812 286.105469 264.34375 285.265625 263.503906 C 284.636719 262.875 284.117188 262.132812 284.113281 261.859375 C 284.113281 261.585938 284.097656 241.152344 284.078125 216.449219 C 284.039062 163.335938 283.992188 162.855469 278.660156 157.058594 C 273.773438 151.742188 268.777344 149.535156 261.648438 149.535156 C 254.675781 149.535156 253.363281 150.21875 253.363281 153.847656 C 253.363281 158.117188 255.136719 159.269531 262.472656 159.757812 C 269.320312 160.214844 270.433594 160.855469 273.496094 166.089844 L 275.332031 169.226562 L 275.320312 215.660156 C 275.3125 243.621094 275.03125 262.53125 274.617188 263.195312 C 274.019531 264.140625 268.664062 264.347656 236.230469 264.660156 L 198.539062 265.027344 L 196.4375 267.042969 L 194.335938 269.0625 L 183.023438 269.058594 L 171.714844 269.058594 L 166.621094 264.699219 L 129.414062 264.496094 C 97.289062 264.324219 92.113281 264.144531 91.515625 263.195312 C 91.097656 262.53125 90.816406 243.414062 90.808594 215.085938 L 90.796875 168.078125 L 93.386719 164.6875 C 96.710938 160.324219 97.785156 159.800781 103.402344 159.800781 C 109.644531 159.800781 112.734375 157.816406 112.757812 153.792969 C 112.773438 150.675781 110.398438 149.53125 104 149.5625 C 99.589844 149.582031 97.695312 149.972656 94.527344 151.503906 M 75.0625 274.894531 C 74.433594 277.765625 77.511719 283.085938 80.996094 285.144531 C 83.554688 286.65625 83.832031 286.660156 182.71875 286.660156 L 281.878906 286.660156 L 284.894531 285.085938 C 286.550781 284.21875 288.105469 282.984375 288.34375 282.335938 C 288.582031 281.691406 289.414062 280.289062 290.1875 279.226562 C 291.222656 277.804688 291.460938 276.6875 291.09375 275.011719 L 290.59375 272.726562 L 206.585938 272.726562 L 203.203125 275.660156 L 199.816406 278.59375 L 166.382812 278.59375 L 162.835938 275.660156 L 159.292969 272.726562 L 75.539062 272.726562 Z M 75.0625 274.894531 " fill-opacity="1" fill-rule="evenodd"/></svg>