<svg xmlns="http://www.w3.org/2000/svg" xmlns:xlink="http://www.w3.org/1999/xlink" width="245" zoomAndPan="magnify" viewBox="0 0 183.75 74.249996" height="99" preserveAspectRatio="xMidYMid meet" version="1.0"><defs><g/><clipPath id="0874e47d39"><path d="M 19.539062 36.484375 L 35.132812 36.484375 L 35.132812 52 L 19.539062 52 Z M 19.539062 36.484375 " clip-rule="nonzero"/></clipPath><clipPath id="170c779202"><path d="M 18.796875 40.941406 L 18.796875 47.648438 C 18.796875 50.519531 21.125 52.847656 23.992188 52.847656 L 30.703125 52.847656 C 33.574219 52.847656 35.902344 50.519531 35.902344 47.648438 L 35.902344 40.941406 C 35.902344 39.5625 35.351562 38.238281 34.378906 37.265625 C 33.402344 36.289062 32.082031 35.742188 30.703125 35.742188 L 23.992188 35.742188 C 21.125 35.742188 18.796875 38.070312 18.796875 40.941406 Z M 18.796875 40.941406 " clip-rule="nonzero"/></clipPath><clipPath id="6d2a21cb6b"><path d="M 24.882812 36.632812 L 29.8125 36.632812 C 32.683594 36.632812 35.007812 38.960938 35.007812 41.832031 L 35.007812 46.757812 C 35.007812 49.628906 32.683594 51.957031 29.8125 51.957031 L 24.882812 51.957031 C 22.015625 51.957031 19.6875 49.628906 19.6875 46.757812 L 19.6875 41.832031 C 19.6875 38.960938 22.015625 36.632812 24.882812 36.632812 Z M 24.882812 36.632812 " clip-rule="nonzero"/></clipPath><clipPath id="81903df6b5"><path d="M 18.796875 35.742188 L 35.875 35.742188 L 35.875 52.820312 L 18.796875 52.820312 Z M 18.796875 35.742188 " clip-rule="nonzero"/></clipPath><clipPath id="4b41f2f765"><path d="M 18.796875 40.941406 L 18.796875 47.648438 C 18.796875 50.519531 21.125 52.847656 23.992188 52.847656 L 30.703125 52.847656 C 33.574219 52.847656 35.902344 50.519531 35.902344 47.648438 L 35.902344 40.941406 C 35.902344 39.5625 35.351562 38.238281 34.378906 37.265625 C 33.402344 36.289062 32.082031 35.742188 30.703125 35.742188 L 23.992188 35.742188 C 21.125 35.742188 18.796875 38.070312 18.796875 40.941406 Z M 18.796875 40.941406 " clip-rule="nonzero"/></clipPath><clipPath id="6b8a69edf7"><path d="M 18.796875 40.9375 L 18.796875 47.648438 C 18.796875 50.515625 21.121094 52.84375 23.992188 52.84375 L 30.699219 52.84375 C 33.570312 52.84375 35.898438 50.515625 35.898438 47.648438 L 35.898438 40.9375 C 35.898438 39.558594 35.347656 38.238281 34.375 37.265625 C 33.402344 36.289062 32.078125 35.742188 30.699219 35.742188 L 23.992188 35.742188 C 21.121094 35.742188 18.796875 38.070312 18.796875 40.9375 Z M 18.796875 40.9375 " clip-rule="nonzero"/></clipPath><clipPath id="bb8ec4c638"><path d="M 15 30 L 38 30 L 38 30.121094 L 15 30.121094 Z M 32.816406 30.121094 L 38 30.121094 L 38 32 L 32.816406 32 Z M 15 30.121094 L 27.511719 30.121094 L 27.511719 32 L 15 32 Z M 15 30.121094 " clip-rule="nonzero"/></clipPath><clipPath id="0e7fc8fa95"><path d="M 19.539062 56.558594 L 35.132812 56.558594 L 35.132812 72.152344 L 19.539062 72.152344 Z M 19.539062 56.558594 " clip-rule="nonzero"/></clipPath><clipPath id="9b0cb4a5cf"><path d="M 18.796875 61.015625 L 18.796875 67.722656 C 18.796875 70.59375 21.125 72.921875 23.992188 72.921875 L 30.703125 72.921875 C 33.574219 72.921875 35.902344 70.59375 35.902344 67.722656 L 35.902344 61.015625 C 35.902344 59.636719 35.351562 58.3125 34.378906 57.339844 C 33.402344 56.363281 32.082031 55.816406 30.703125 55.816406 L 23.992188 55.816406 C 21.125 55.816406 18.796875 58.144531 18.796875 61.015625 Z M 18.796875 61.015625 " clip-rule="nonzero"/></clipPath><clipPath id="4d665428ed"><path d="M 24.882812 56.707031 L 29.8125 56.707031 C 32.683594 56.707031 35.007812 59.035156 35.007812 61.90625 L 35.007812 66.832031 C 35.007812 69.703125 32.683594 72.03125 29.8125 72.03125 L 24.882812 72.03125 C 22.015625 72.03125 19.6875 69.703125 19.6875 66.832031 L 19.6875 61.90625 C 19.6875 59.035156 22.015625 56.707031 24.882812 56.707031 Z M 24.882812 56.707031 " clip-rule="nonzero"/></clipPath><clipPath id="45411c7cf6"><path d="M 18.796875 55.816406 L 35.875 55.816406 L 35.875 72.894531 L 18.796875 72.894531 Z M 18.796875 55.816406 " clip-rule="nonzero"/></clipPath><clipPath id="aee536fcd5"><path d="M 18.796875 61.015625 L 18.796875 67.722656 C 18.796875 70.59375 21.125 72.921875 23.992188 72.921875 L 30.703125 72.921875 C 33.574219 72.921875 35.902344 70.59375 35.902344 67.722656 L 35.902344 61.015625 C 35.902344 59.636719 35.351562 58.3125 34.378906 57.339844 C 33.402344 56.363281 32.082031 55.816406 30.703125 55.816406 L 23.992188 55.816406 C 21.125 55.816406 18.796875 58.144531 18.796875 61.015625 Z M 18.796875 61.015625 " clip-rule="nonzero"/></clipPath><clipPath id="2fa917af37"><path d="M 18.796875 61.011719 L 18.796875 67.722656 C 18.796875 70.589844 21.121094 72.917969 23.992188 72.917969 L 30.699219 72.917969 C 33.570312 72.917969 35.898438 70.589844 35.898438 67.722656 L 35.898438 61.011719 C 35.898438 59.636719 35.347656 58.3125 34.375 57.339844 C 33.402344 56.363281 32.078125 55.816406 30.699219 55.816406 L 23.992188 55.816406 C 21.121094 55.816406 18.796875 58.144531 18.796875 61.011719 Z M 18.796875 61.011719 " clip-rule="nonzero"/></clipPath><clipPath id="81734ab8a1"><path d="M 51.703125 36.484375 L 67.292969 36.484375 L 67.292969 52 L 51.703125 52 Z M 51.703125 36.484375 " clip-rule="nonzero"/></clipPath><clipPath id="a71f297987"><path d="M 50.960938 40.941406 L 50.960938 47.648438 C 50.960938 50.519531 53.285156 52.847656 56.15625 52.847656 L 62.867188 52.847656 C 65.738281 52.847656 68.0625 50.519531 68.0625 47.648438 L 68.0625 40.941406 C 68.0625 39.5625 67.515625 38.238281 66.542969 37.265625 C 65.566406 36.289062 64.246094 35.742188 62.867188 35.742188 L 56.15625 35.742188 C 53.285156 35.742188 50.960938 38.070312 50.960938 40.941406 Z M 50.960938 40.941406 " clip-rule="nonzero"/></clipPath><clipPath id="37cc6df7e0"><path d="M 57.046875 36.632812 L 61.976562 36.632812 C 64.84375 36.632812 67.171875 38.960938 67.171875 41.832031 L 67.171875 46.757812 C 67.171875 49.628906 64.84375 51.957031 61.976562 51.957031 L 57.046875 51.957031 C 54.175781 51.957031 51.851562 49.628906 51.851562 46.757812 L 51.851562 41.832031 C 51.851562 38.960938 54.175781 36.632812 57.046875 36.632812 Z M 57.046875 36.632812 " clip-rule="nonzero"/></clipPath><clipPath id="a2b01d0d70"><path d="M 50.960938 35.742188 L 68.035156 35.742188 L 68.035156 52.820312 L 50.960938 52.820312 Z M 50.960938 35.742188 " clip-rule="nonzero"/></clipPath><clipPath id="4f85822df4"><path d="M 50.960938 40.941406 L 50.960938 47.648438 C 50.960938 50.519531 53.285156 52.847656 56.15625 52.847656 L 62.867188 52.847656 C 65.738281 52.847656 68.0625 50.519531 68.0625 47.648438 L 68.0625 40.941406 C 68.0625 39.5625 67.515625 38.238281 66.542969 37.265625 C 65.566406 36.289062 64.246094 35.742188 62.867188 35.742188 L 56.15625 35.742188 C 53.285156 35.742188 50.960938 38.070312 50.960938 40.941406 Z M 50.960938 40.941406 " clip-rule="nonzero"/></clipPath><clipPath id="076052b9b3"><path d="M 50.960938 40.9375 L 50.960938 47.648438 C 50.960938 50.515625 53.285156 52.84375 56.15625 52.84375 L 62.863281 52.84375 C 65.734375 52.84375 68.058594 50.515625 68.058594 47.648438 L 68.058594 40.9375 C 68.058594 39.558594 67.511719 38.238281 66.539062 37.265625 C 65.5625 36.289062 64.242188 35.742188 62.863281 35.742188 L 56.15625 35.742188 C 53.285156 35.742188 50.960938 38.070312 50.960938 40.9375 Z M 50.960938 40.9375 " clip-rule="nonzero"/></clipPath><clipPath id="11eff6729b"><path d="M 46 30 L 71 30 L 71 30.121094 L 46 30.121094 Z M 63.550781 30.121094 L 71 30.121094 L 71 32 L 63.550781 32 Z M 46 30.121094 L 58.246094 30.121094 L 58.246094 32 L 46 32 Z M 46 30.121094 " clip-rule="nonzero"/></clipPath><clipPath id="28b73f4d1a"><path d="M 51.703125 56.558594 L 67.292969 56.558594 L 67.292969 72.152344 L 51.703125 72.152344 Z M 51.703125 56.558594 " clip-rule="nonzero"/></clipPath><clipPath id="33d037b8ab"><path d="M 50.960938 61.015625 L 50.960938 67.722656 C 50.960938 70.59375 53.285156 72.921875 56.15625 72.921875 L 62.867188 72.921875 C 65.738281 72.921875 68.0625 70.59375 68.0625 67.722656 L 68.0625 61.015625 C 68.0625 59.636719 67.515625 58.3125 66.542969 57.339844 C 65.566406 56.363281 64.246094 55.816406 62.867188 55.816406 L 56.15625 55.816406 C 53.285156 55.816406 50.960938 58.144531 50.960938 61.015625 Z M 50.960938 61.015625 " clip-rule="nonzero"/></clipPath><clipPath id="b1385feea8"><path d="M 57.046875 56.707031 L 61.976562 56.707031 C 64.84375 56.707031 67.171875 59.035156 67.171875 61.90625 L 67.171875 66.832031 C 67.171875 69.703125 64.84375 72.03125 61.976562 72.03125 L 57.046875 72.03125 C 54.175781 72.03125 51.851562 69.703125 51.851562 66.832031 L 51.851562 61.90625 C 51.851562 59.035156 54.175781 56.707031 57.046875 56.707031 Z M 57.046875 56.707031 " clip-rule="nonzero"/></clipPath><clipPath id="f2501d0959"><path d="M 50.960938 55.816406 L 68.035156 55.816406 L 68.035156 72.894531 L 50.960938 72.894531 Z M 50.960938 55.816406 " clip-rule="nonzero"/></clipPath><clipPath id="8730d52b52"><path d="M 50.960938 61.015625 L 50.960938 67.722656 C 50.960938 70.59375 53.285156 72.921875 56.15625 72.921875 L 62.867188 72.921875 C 65.738281 72.921875 68.0625 70.59375 68.0625 67.722656 L 68.0625 61.015625 C 68.0625 59.636719 67.515625 58.3125 66.542969 57.339844 C 65.566406 56.363281 64.246094 55.816406 62.867188 55.816406 L 56.15625 55.816406 C 53.285156 55.816406 50.960938 58.144531 50.960938 61.015625 Z M 50.960938 61.015625 " clip-rule="nonzero"/></clipPath><clipPath id="5a74d73018"><path d="M 50.960938 61.011719 L 50.960938 67.722656 C 50.960938 70.589844 53.285156 72.917969 56.15625 72.917969 L 62.863281 72.917969 C 65.734375 72.917969 68.058594 70.589844 68.058594 67.722656 L 68.058594 61.011719 C 68.058594 59.636719 67.511719 58.3125 66.539062 57.339844 C 65.5625 56.363281 64.242188 55.816406 62.863281 55.816406 L 56.15625 55.816406 C 53.285156 55.816406 50.960938 58.144531 50.960938 61.011719 Z M 50.960938 61.011719 " clip-rule="nonzero"/></clipPath><clipPath id="377ce12fb8"><path d="M 84 36.484375 L 99.457031 36.484375 L 99.457031 52 L 84 52 Z M 84 36.484375 " clip-rule="nonzero"/></clipPath><clipPath id="e5790ced4a"><path d="M 83.121094 40.941406 L 83.121094 47.648438 C 83.121094 50.519531 85.449219 52.847656 88.320312 52.847656 L 95.027344 52.847656 C 97.898438 52.847656 100.226562 50.519531 100.226562 47.648438 L 100.226562 40.941406 C 100.226562 39.5625 99.679688 38.238281 98.703125 37.265625 C 97.730469 36.289062 96.40625 35.742188 95.027344 35.742188 L 88.320312 35.742188 C 85.449219 35.742188 83.121094 38.070312 83.121094 40.941406 Z M 83.121094 40.941406 " clip-rule="nonzero"/></clipPath><clipPath id="8c38320b0a"><path d="M 89.210938 36.632812 L 94.136719 36.632812 C 97.007812 36.632812 99.335938 38.960938 99.335938 41.832031 L 99.335938 46.757812 C 99.335938 49.628906 97.007812 51.957031 94.136719 51.957031 L 89.210938 51.957031 C 86.339844 51.957031 84.011719 49.628906 84.011719 46.757812 L 84.011719 41.832031 C 84.011719 38.960938 86.339844 36.632812 89.210938 36.632812 Z M 89.210938 36.632812 " clip-rule="nonzero"/></clipPath><clipPath id="09be5a4544"><path d="M 83.121094 35.742188 L 100.199219 35.742188 L 100.199219 52.820312 L 83.121094 52.820312 Z M 83.121094 35.742188 " clip-rule="nonzero"/></clipPath><clipPath id="d8daa40be1"><path d="M 83.121094 40.941406 L 83.121094 47.648438 C 83.121094 50.519531 85.449219 52.847656 88.320312 52.847656 L 95.027344 52.847656 C 97.898438 52.847656 100.226562 50.519531 100.226562 47.648438 L 100.226562 40.941406 C 100.226562 39.5625 99.679688 38.238281 98.703125 37.265625 C 97.730469 36.289062 96.40625 35.742188 95.027344 35.742188 L 88.320312 35.742188 C 85.449219 35.742188 83.121094 38.070312 83.121094 40.941406 Z M 83.121094 40.941406 " clip-rule="nonzero"/></clipPath><clipPath id="fa68a61e48"><path d="M 83.121094 40.9375 L 83.121094 47.648438 C 83.121094 50.515625 85.449219 52.84375 88.320312 52.84375 L 95.027344 52.84375 C 97.894531 52.84375 100.222656 50.515625 100.222656 47.648438 L 100.222656 40.9375 C 100.222656 39.558594 99.675781 38.238281 98.699219 37.265625 C 97.726562 36.289062 96.40625 35.742188 95.027344 35.742188 L 88.320312 35.742188 C 85.449219 35.742188 83.121094 38.070312 83.121094 40.9375 Z M 83.121094 40.9375 " clip-rule="nonzero"/></clipPath><clipPath id="f7627a633a"><path d="M 78 30 L 104 30 L 104 30.121094 L 78 30.121094 Z M 95.621094 30.121094 L 104 30.121094 L 104 32 L 95.621094 32 Z M 78 30.121094 L 90.316406 30.121094 L 90.316406 32 L 78 32 Z M 78 30.121094 " clip-rule="nonzero"/></clipPath><clipPath id="f4a3d6adc3"><path d="M 84 56.558594 L 99.457031 56.558594 L 99.457031 72.152344 L 84 72.152344 Z M 84 56.558594 " clip-rule="nonzero"/></clipPath><clipPath id="16cc862814"><path d="M 83.121094 61.015625 L 83.121094 67.722656 C 83.121094 70.59375 85.449219 72.921875 88.320312 72.921875 L 95.027344 72.921875 C 97.898438 72.921875 100.226562 70.59375 100.226562 67.722656 L 100.226562 61.015625 C 100.226562 59.636719 99.679688 58.3125 98.703125 57.339844 C 97.730469 56.363281 96.40625 55.816406 95.027344 55.816406 L 88.320312 55.816406 C 85.449219 55.816406 83.121094 58.144531 83.121094 61.015625 Z M 83.121094 61.015625 " clip-rule="nonzero"/></clipPath><clipPath id="b6b99b0129"><path d="M 89.210938 56.707031 L 94.136719 56.707031 C 97.007812 56.707031 99.335938 59.035156 99.335938 61.90625 L 99.335938 66.832031 C 99.335938 69.703125 97.007812 72.03125 94.136719 72.03125 L 89.210938 72.03125 C 86.339844 72.03125 84.011719 69.703125 84.011719 66.832031 L 84.011719 61.90625 C 84.011719 59.035156 86.339844 56.707031 89.210938 56.707031 Z M 89.210938 56.707031 " clip-rule="nonzero"/></clipPath><clipPath id="7c159a22d0"><path d="M 83.121094 55.816406 L 100.199219 55.816406 L 100.199219 72.894531 L 83.121094 72.894531 Z M 83.121094 55.816406 " clip-rule="nonzero"/></clipPath><clipPath id="027b3fdaeb"><path d="M 83.121094 61.015625 L 83.121094 67.722656 C 83.121094 70.59375 85.449219 72.921875 88.320312 72.921875 L 95.027344 72.921875 C 97.898438 72.921875 100.226562 70.59375 100.226562 67.722656 L 100.226562 61.015625 C 100.226562 59.636719 99.679688 58.3125 98.703125 57.339844 C 97.730469 56.363281 96.40625 55.816406 95.027344 55.816406 L 88.320312 55.816406 C 85.449219 55.816406 83.121094 58.144531 83.121094 61.015625 Z M 83.121094 61.015625 " clip-rule="nonzero"/></clipPath><clipPath id="c8657e4ec2"><path d="M 83.121094 61.011719 L 83.121094 67.722656 C 83.121094 70.589844 85.449219 72.917969 88.320312 72.917969 L 95.027344 72.917969 C 97.894531 72.917969 100.222656 70.589844 100.222656 67.722656 L 100.222656 61.011719 C 100.222656 59.636719 99.675781 58.3125 98.699219 57.339844 C 97.726562 56.363281 96.40625 55.816406 95.027344 55.816406 L 88.320312 55.816406 C 85.449219 55.816406 83.121094 58.144531 83.121094 61.011719 Z M 83.121094 61.011719 " clip-rule="nonzero"/></clipPath><clipPath id="2b9ff97f58"><path d="M 116.027344 36.484375 L 131.621094 36.484375 L 131.621094 52 L 116.027344 52 Z M 116.027344 36.484375 " clip-rule="nonzero"/></clipPath><clipPath id="c1999aff5c"><path d="M 115.285156 40.941406 L 115.285156 47.648438 C 115.285156 50.519531 117.613281 52.847656 120.484375 52.847656 L 127.191406 52.847656 C 130.0625 52.847656 132.390625 50.519531 132.390625 47.648438 L 132.390625 40.941406 C 132.390625 39.5625 131.839844 38.238281 130.867188 37.265625 C 129.890625 36.289062 128.570312 35.742188 127.191406 35.742188 L 120.484375 35.742188 C 117.613281 35.742188 115.285156 38.070312 115.285156 40.941406 Z M 115.285156 40.941406 " clip-rule="nonzero"/></clipPath><clipPath id="a499f1df25"><path d="M 121.375 36.632812 L 126.300781 36.632812 C 129.171875 36.632812 131.5 38.960938 131.5 41.832031 L 131.5 46.757812 C 131.5 49.628906 129.171875 51.957031 126.300781 51.957031 L 121.375 51.957031 C 118.503906 51.957031 116.175781 49.628906 116.175781 46.757812 L 116.175781 41.832031 C 116.175781 38.960938 118.503906 36.632812 121.375 36.632812 Z M 121.375 36.632812 " clip-rule="nonzero"/></clipPath><clipPath id="576bf3b8d5"><path d="M 115.285156 35.742188 L 132.363281 35.742188 L 132.363281 52.820312 L 115.285156 52.820312 Z M 115.285156 35.742188 " clip-rule="nonzero"/></clipPath><clipPath id="cd10c787ad"><path d="M 115.285156 40.941406 L 115.285156 47.648438 C 115.285156 50.519531 117.613281 52.847656 120.484375 52.847656 L 127.191406 52.847656 C 130.0625 52.847656 132.390625 50.519531 132.390625 47.648438 L 132.390625 40.941406 C 132.390625 39.5625 131.839844 38.238281 130.867188 37.265625 C 129.890625 36.289062 128.570312 35.742188 127.191406 35.742188 L 120.484375 35.742188 C 117.613281 35.742188 115.285156 38.070312 115.285156 40.941406 Z M 115.285156 40.941406 " clip-rule="nonzero"/></clipPath><clipPath id="02e246d9d4"><path d="M 115.285156 40.9375 L 115.285156 47.648438 C 115.285156 50.515625 117.613281 52.84375 120.480469 52.84375 L 127.1875 52.84375 C 130.058594 52.84375 132.386719 50.515625 132.386719 47.648438 L 132.386719 40.9375 C 132.386719 39.558594 131.839844 38.238281 130.863281 37.265625 C 129.890625 36.289062 128.566406 35.742188 127.1875 35.742188 L 120.480469 35.742188 C 117.613281 35.742188 115.285156 38.070312 115.285156 40.9375 Z M 115.285156 40.9375 " clip-rule="nonzero"/></clipPath><clipPath id="cb71249236"><path d="M 109 30 L 136 30 L 136 30.121094 L 109 30.121094 Z M 127.449219 30.121094 L 136 30.121094 L 136 32 L 127.449219 32 Z M 109 30.121094 L 122.144531 30.121094 L 122.144531 32 L 109 32 Z M 109 30.121094 " clip-rule="nonzero"/></clipPath><clipPath id="4e13918a11"><path d="M 116.027344 56.558594 L 131.621094 56.558594 L 131.621094 72.152344 L 116.027344 72.152344 Z M 116.027344 56.558594 " clip-rule="nonzero"/></clipPath><clipPath id="683fe1f2fd"><path d="M 115.285156 61.015625 L 115.285156 67.722656 C 115.285156 70.59375 117.613281 72.921875 120.484375 72.921875 L 127.191406 72.921875 C 130.0625 72.921875 132.390625 70.59375 132.390625 67.722656 L 132.390625 61.015625 C 132.390625 59.636719 131.839844 58.3125 130.867188 57.339844 C 129.890625 56.363281 128.570312 55.816406 127.191406 55.816406 L 120.484375 55.816406 C 117.613281 55.816406 115.285156 58.144531 115.285156 61.015625 Z M 115.285156 61.015625 " clip-rule="nonzero"/></clipPath><clipPath id="03930c7244"><path d="M 121.375 56.707031 L 126.300781 56.707031 C 129.171875 56.707031 131.5 59.035156 131.5 61.90625 L 131.5 66.832031 C 131.5 69.703125 129.171875 72.03125 126.300781 72.03125 L 121.375 72.03125 C 118.503906 72.03125 116.175781 69.703125 116.175781 66.832031 L 116.175781 61.90625 C 116.175781 59.035156 118.503906 56.707031 121.375 56.707031 Z M 121.375 56.707031 " clip-rule="nonzero"/></clipPath><clipPath id="c6f487f55d"><path d="M 115.285156 55.816406 L 132.363281 55.816406 L 132.363281 72.894531 L 115.285156 72.894531 Z M 115.285156 55.816406 " clip-rule="nonzero"/></clipPath><clipPath id="de1e1dbab8"><path d="M 115.285156 61.015625 L 115.285156 67.722656 C 115.285156 70.59375 117.613281 72.921875 120.484375 72.921875 L 127.191406 72.921875 C 130.0625 72.921875 132.390625 70.59375 132.390625 67.722656 L 132.390625 61.015625 C 132.390625 59.636719 131.839844 58.3125 130.867188 57.339844 C 129.890625 56.363281 128.570312 55.816406 127.191406 55.816406 L 120.484375 55.816406 C 117.613281 55.816406 115.285156 58.144531 115.285156 61.015625 Z M 115.285156 61.015625 " clip-rule="nonzero"/></clipPath><clipPath id="191d080110"><path d="M 115.285156 61.011719 L 115.285156 67.722656 C 115.285156 70.589844 117.613281 72.917969 120.480469 72.917969 L 127.1875 72.917969 C 130.058594 72.917969 132.386719 70.589844 132.386719 67.722656 L 132.386719 61.011719 C 132.386719 59.636719 131.839844 58.3125 130.863281 57.339844 C 129.890625 56.363281 128.566406 55.816406 127.1875 55.816406 L 120.480469 55.816406 C 117.613281 55.816406 115.285156 58.144531 115.285156 61.011719 Z M 115.285156 61.011719 " clip-rule="nonzero"/></clipPath><clipPath id="fe1d7d5e5d"><path d="M 148.132812 36.484375 L 163.722656 36.484375 L 163.722656 52 L 148.132812 52 Z M 148.132812 36.484375 " clip-rule="nonzero"/></clipPath><clipPath id="17b0b507f3"><path d="M 147.390625 40.941406 L 147.390625 47.648438 C 147.390625 50.519531 149.714844 52.847656 152.585938 52.847656 L 159.296875 52.847656 C 162.167969 52.847656 164.492188 50.519531 164.492188 47.648438 L 164.492188 40.941406 C 164.492188 39.5625 163.945312 38.238281 162.972656 37.265625 C 161.996094 36.289062 160.675781 35.742188 159.296875 35.742188 L 152.585938 35.742188 C 149.714844 35.742188 147.390625 38.070312 147.390625 40.941406 Z M 147.390625 40.941406 " clip-rule="nonzero"/></clipPath><clipPath id="6cc5db4688"><path d="M 153.476562 36.632812 L 158.40625 36.632812 C 161.277344 36.632812 163.601562 38.960938 163.601562 41.832031 L 163.601562 46.757812 C 163.601562 49.628906 161.277344 51.957031 158.40625 51.957031 L 153.476562 51.957031 C 150.605469 51.957031 148.28125 49.628906 148.28125 46.757812 L 148.28125 41.832031 C 148.28125 38.960938 150.605469 36.632812 153.476562 36.632812 Z M 153.476562 36.632812 " clip-rule="nonzero"/></clipPath><clipPath id="3e5671fb36"><path d="M 147.390625 35.742188 L 164.464844 35.742188 L 164.464844 52.820312 L 147.390625 52.820312 Z M 147.390625 35.742188 " clip-rule="nonzero"/></clipPath><clipPath id="cbe757cb79"><path d="M 147.390625 40.941406 L 147.390625 47.648438 C 147.390625 50.519531 149.714844 52.847656 152.585938 52.847656 L 159.296875 52.847656 C 162.167969 52.847656 164.492188 50.519531 164.492188 47.648438 L 164.492188 40.941406 C 164.492188 39.5625 163.945312 38.238281 162.972656 37.265625 C 161.996094 36.289062 160.675781 35.742188 159.296875 35.742188 L 152.585938 35.742188 C 149.714844 35.742188 147.390625 38.070312 147.390625 40.941406 Z M 147.390625 40.941406 " clip-rule="nonzero"/></clipPath><clipPath id="0a3a032dd1"><path d="M 147.390625 40.9375 L 147.390625 47.648438 C 147.390625 50.515625 149.714844 52.84375 152.585938 52.84375 L 159.292969 52.84375 C 162.164062 52.84375 164.488281 50.515625 164.488281 47.648438 L 164.488281 40.9375 C 164.488281 39.558594 163.941406 38.238281 162.96875 37.265625 C 161.992188 36.289062 160.671875 35.742188 159.292969 35.742188 L 152.585938 35.742188 C 149.714844 35.742188 147.390625 38.070312 147.390625 40.9375 Z M 147.390625 40.9375 " clip-rule="nonzero"/></clipPath><clipPath id="37131ed48c"><path d="M 142 30 L 168 30 L 168 30.121094 L 142 30.121094 Z M 159.902344 30.121094 L 168 30.121094 L 168 32 L 159.902344 32 Z M 142 30.121094 L 154.59375 30.121094 L 154.59375 32 L 142 32 Z M 142 30.121094 " clip-rule="nonzero"/></clipPath><clipPath id="36e13636fa"><path d="M 148.132812 56.558594 L 163.722656 56.558594 L 163.722656 72.152344 L 148.132812 72.152344 Z M 148.132812 56.558594 " clip-rule="nonzero"/></clipPath><clipPath id="9f87c1a6eb"><path d="M 147.390625 61.015625 L 147.390625 67.722656 C 147.390625 70.59375 149.714844 72.921875 152.585938 72.921875 L 159.296875 72.921875 C 162.167969 72.921875 164.492188 70.59375 164.492188 67.722656 L 164.492188 61.015625 C 164.492188 59.636719 163.945312 58.3125 162.972656 57.339844 C 161.996094 56.363281 160.675781 55.816406 159.296875 55.816406 L 152.585938 55.816406 C 149.714844 55.816406 147.390625 58.144531 147.390625 61.015625 Z M 147.390625 61.015625 " clip-rule="nonzero"/></clipPath><clipPath id="f8453e3ccb"><path d="M 153.476562 56.707031 L 158.40625 56.707031 C 161.277344 56.707031 163.601562 59.035156 163.601562 61.90625 L 163.601562 66.832031 C 163.601562 69.703125 161.277344 72.03125 158.40625 72.03125 L 153.476562 72.03125 C 150.605469 72.03125 148.28125 69.703125 148.28125 66.832031 L 148.28125 61.90625 C 148.28125 59.035156 150.605469 56.707031 153.476562 56.707031 Z M 153.476562 56.707031 " clip-rule="nonzero"/></clipPath><clipPath id="4c1758efc3"><path d="M 147.390625 55.816406 L 164.464844 55.816406 L 164.464844 72.894531 L 147.390625 72.894531 Z M 147.390625 55.816406 " clip-rule="nonzero"/></clipPath><clipPath id="b2e09c3d08"><path d="M 147.390625 61.015625 L 147.390625 67.722656 C 147.390625 70.59375 149.714844 72.921875 152.585938 72.921875 L 159.296875 72.921875 C 162.167969 72.921875 164.492188 70.59375 164.492188 67.722656 L 164.492188 61.015625 C 164.492188 59.636719 163.945312 58.3125 162.972656 57.339844 C 161.996094 56.363281 160.675781 55.816406 159.296875 55.816406 L 152.585938 55.816406 C 149.714844 55.816406 147.390625 58.144531 147.390625 61.015625 Z M 147.390625 61.015625 " clip-rule="nonzero"/></clipPath><clipPath id="614dd6a06e"><path d="M 147.390625 61.011719 L 147.390625 67.722656 C 147.390625 70.589844 149.714844 72.917969 152.585938 72.917969 L 159.292969 72.917969 C 162.164062 72.917969 164.488281 70.589844 164.488281 67.722656 L 164.488281 61.011719 C 164.488281 59.636719 163.941406 58.3125 162.96875 57.339844 C 161.992188 56.363281 160.671875 55.816406 159.292969 55.816406 L 152.585938 55.816406 C 149.714844 55.816406 147.390625 58.144531 147.390625 61.011719 Z M 147.390625 61.011719 " clip-rule="nonzero"/></clipPath></defs><path fill="#0d3b36" d="M 8.800781 18.777344 L 174.320312 18.777344 L 174.320312 19.519531 L 8.800781 19.519531 Z M 8.800781 18.777344 " fill-opacity="1" fill-rule="nonzero"/><g fill="#0d3b36" fill-opacity="1"><g transform="translate(8.801751, 18.033085)"><g><path d="M 0.09375 0 L 4.28125 -9.9375 L 6.921875 -9.9375 L 11.125 0 L 8.1875 0 L 7.484375 -1.78125 L 3.671875 -1.78125 L 2.953125 0 Z M 4.46875 -3.90625 L 6.6875 -3.90625 L 5.578125 -6.6875 Z M 4.46875 -3.90625 "/></g></g></g><g fill="#0d3b36" fill-opacity="1"><g transform="translate(19.773294, 18.033085)"><g><path d="M 0.875 0 L 0.875 -9.859375 L 3.421875 -9.859375 L 7.484375 -4.65625 L 7.484375 -9.859375 L 10.1875 -9.859375 L 10.1875 0 L 7.8125 0 L 3.578125 -5.40625 L 3.578125 0 Z M 0.875 0 "/></g></g></g><g fill="#0d3b36" fill-opacity="1"><g transform="translate(30.603986, 18.033085)"><g><path d="M 3.28125 0 L 3.28125 -7.46875 L 0.34375 -7.46875 L 0.34375 -9.859375 L 8.984375 -9.859375 L 8.984375 -7.46875 L 6.015625 -7.46875 L 6.015625 0 Z M 3.28125 0 "/></g></g></g><g fill="#0d3b36" fill-opacity="1"><g transform="translate(39.674141, 18.033085)"><g><path d="M 0.9375 0 L 0.9375 -9.859375 L 3.671875 -9.859375 L 3.671875 0 Z M 0.9375 0 "/></g></g></g><g fill="#0d3b36" fill-opacity="1"><g transform="translate(44.054206, 18.033085)"><g><path d="M 0.875 0 L 0.875 -9.859375 L 5.9375 -9.859375 C 6.550781 -9.859375 7.078125 -9.785156 7.515625 -9.640625 C 7.960938 -9.492188 8.332031 -9.273438 8.625 -8.984375 C 8.820312 -8.785156 8.976562 -8.550781 9.09375 -8.28125 C 9.207031 -8.019531 9.265625 -7.722656 9.265625 -7.390625 L 9.265625 -7.359375 C 9.265625 -6.796875 9.117188 -6.332031 8.828125 -5.96875 C 8.535156 -5.613281 8.171875 -5.34375 7.734375 -5.15625 C 8.328125 -4.957031 8.800781 -4.671875 9.15625 -4.296875 C 9.519531 -3.929688 9.703125 -3.414062 9.703125 -2.75 L 9.703125 -2.71875 C 9.703125 -1.875 9.367188 -1.207031 8.703125 -0.71875 C 8.046875 -0.238281 7.132812 0 5.96875 0 Z M 6.5625 -6.796875 L 6.5625 -6.828125 C 6.5625 -7.097656 6.457031 -7.304688 6.25 -7.453125 C 6.039062 -7.597656 5.734375 -7.671875 5.328125 -7.671875 L 3.53125 -7.671875 L 3.53125 -5.9375 L 5.25 -5.9375 C 5.664062 -5.9375 5.988281 -6.003906 6.21875 -6.140625 C 6.445312 -6.285156 6.5625 -6.503906 6.5625 -6.796875 Z M 6.96875 -3.125 C 6.96875 -3.382812 6.859375 -3.597656 6.640625 -3.765625 C 6.421875 -3.929688 6.082031 -4.015625 5.625 -4.015625 L 3.53125 -4.015625 L 3.53125 -2.203125 L 5.65625 -2.203125 C 6.070312 -2.203125 6.394531 -2.273438 6.625 -2.421875 C 6.851562 -2.578125 6.96875 -2.800781 6.96875 -3.09375 Z M 6.96875 -3.125 "/></g></g></g><g fill="#0d3b36" fill-opacity="1"><g transform="translate(53.899003, 18.033085)"><g><path d="M 0.9375 0 L 0.9375 -9.859375 L 3.671875 -9.859375 L 3.671875 0 Z M 0.9375 0 "/></g></g></g><g fill="#0d3b36" fill-opacity="1"><g transform="translate(58.279068, 18.033085)"><g><path d="M 5.84375 0.203125 C 5.082031 0.203125 4.378906 0.0664062 3.734375 -0.203125 C 3.085938 -0.472656 2.53125 -0.832031 2.0625 -1.28125 C 1.59375 -1.738281 1.222656 -2.28125 0.953125 -2.90625 C 0.679688 -3.53125 0.546875 -4.195312 0.546875 -4.90625 L 0.546875 -4.9375 C 0.546875 -5.632812 0.679688 -6.296875 0.953125 -6.921875 C 1.222656 -7.546875 1.59375 -8.09375 2.0625 -8.5625 C 2.539062 -9.03125 3.101562 -9.394531 3.75 -9.65625 C 4.40625 -9.925781 5.113281 -10.0625 5.875 -10.0625 C 6.632812 -10.0625 7.335938 -9.925781 7.984375 -9.65625 C 8.640625 -9.394531 9.203125 -9.035156 9.671875 -8.578125 C 10.140625 -8.117188 10.503906 -7.578125 10.765625 -6.953125 C 11.035156 -6.328125 11.171875 -5.664062 11.171875 -4.96875 L 11.171875 -4.9375 C 11.171875 -4.226562 11.035156 -3.5625 10.765625 -2.9375 C 10.492188 -2.3125 10.125 -1.765625 9.65625 -1.296875 C 9.1875 -0.835938 8.625 -0.472656 7.96875 -0.203125 C 7.3125 0.0664062 6.601562 0.203125 5.84375 0.203125 Z M 5.875 -2.265625 C 6.25 -2.265625 6.585938 -2.332031 6.890625 -2.46875 C 7.203125 -2.613281 7.460938 -2.804688 7.671875 -3.046875 C 7.890625 -3.285156 8.0625 -3.566406 8.1875 -3.890625 C 8.3125 -4.210938 8.375 -4.550781 8.375 -4.90625 L 8.375 -4.9375 C 8.375 -5.289062 8.3125 -5.628906 8.1875 -5.953125 C 8.0625 -6.273438 7.890625 -6.554688 7.671875 -6.796875 C 7.453125 -7.035156 7.1875 -7.226562 6.875 -7.375 C 6.5625 -7.519531 6.21875 -7.59375 5.84375 -7.59375 C 5.46875 -7.59375 5.125 -7.519531 4.8125 -7.375 C 4.507812 -7.238281 4.25 -7.050781 4.03125 -6.8125 C 3.8125 -6.570312 3.640625 -6.289062 3.515625 -5.96875 C 3.398438 -5.65625 3.34375 -5.320312 3.34375 -4.96875 L 3.34375 -4.9375 C 3.34375 -4.570312 3.398438 -4.226562 3.515625 -3.90625 C 3.640625 -3.582031 3.8125 -3.300781 4.03125 -3.0625 C 4.257812 -2.820312 4.53125 -2.628906 4.84375 -2.484375 C 5.15625 -2.335938 5.5 -2.265625 5.875 -2.265625 Z M 5.875 -2.265625 "/></g></g></g><g fill="#0d3b36" fill-opacity="1"><g transform="translate(69.757646, 18.033085)"><g><path d="M 3.28125 0 L 3.28125 -7.46875 L 0.34375 -7.46875 L 0.34375 -9.859375 L 8.984375 -9.859375 L 8.984375 -7.46875 L 6.015625 -7.46875 L 6.015625 0 Z M 3.28125 0 "/></g></g></g><g fill="#0d3b36" fill-opacity="1"><g transform="translate(78.827802, 18.033085)"><g><path d="M 0.9375 0 L 0.9375 -9.859375 L 3.671875 -9.859375 L 3.671875 0 Z M 0.9375 0 "/></g></g></g><g fill="#0d3b36" fill-opacity="1"><g transform="translate(83.207867, 18.033085)"><g><path d="M 5.640625 0.203125 C 4.929688 0.203125 4.265625 0.0703125 3.640625 -0.1875 C 3.023438 -0.445312 2.488281 -0.800781 2.03125 -1.25 C 1.582031 -1.707031 1.222656 -2.25 0.953125 -2.875 C 0.679688 -3.5 0.546875 -4.175781 0.546875 -4.90625 L 0.546875 -4.9375 C 0.546875 -5.644531 0.675781 -6.3125 0.9375 -6.9375 C 1.207031 -7.570312 1.566406 -8.117188 2.015625 -8.578125 C 2.472656 -9.035156 3.019531 -9.394531 3.65625 -9.65625 C 4.300781 -9.925781 4.992188 -10.0625 5.734375 -10.0625 C 6.742188 -10.0625 7.585938 -9.867188 8.265625 -9.484375 C 8.941406 -9.097656 9.492188 -8.609375 9.921875 -8.015625 L 7.859375 -6.421875 C 7.578125 -6.773438 7.265625 -7.054688 6.921875 -7.265625 C 6.578125 -7.472656 6.171875 -7.578125 5.703125 -7.578125 C 5.359375 -7.578125 5.039062 -7.503906 4.75 -7.359375 C 4.46875 -7.222656 4.222656 -7.035156 4.015625 -6.796875 C 3.804688 -6.566406 3.644531 -6.289062 3.53125 -5.96875 C 3.414062 -5.65625 3.359375 -5.320312 3.359375 -4.96875 L 3.359375 -4.9375 C 3.359375 -4.570312 3.414062 -4.222656 3.53125 -3.890625 C 3.644531 -3.566406 3.804688 -3.285156 4.015625 -3.046875 C 4.222656 -2.816406 4.46875 -2.632812 4.75 -2.5 C 5.039062 -2.363281 5.359375 -2.296875 5.703125 -2.296875 C 6.210938 -2.296875 6.640625 -2.40625 6.984375 -2.625 C 7.328125 -2.84375 7.644531 -3.132812 7.9375 -3.5 L 10 -2.03125 C 9.53125 -1.394531 8.957031 -0.863281 8.28125 -0.4375 C 7.601562 -0.0078125 6.722656 0.203125 5.640625 0.203125 Z M 5.640625 0.203125 "/></g></g></g><g fill="#0d3b36" fill-opacity="1"><g transform="translate(93.278011, 18.033085)"><g/></g></g><g fill="#0d3b36" fill-opacity="1"><g transform="translate(96.953859, 18.033085)"><g><path d="M 4.75 0.171875 C 3.875 0.171875 3.035156 0.0351562 2.234375 -0.234375 C 1.441406 -0.515625 0.738281 -0.925781 0.125 -1.46875 L 1.65625 -3.28125 C 2.132812 -2.894531 2.644531 -2.597656 3.1875 -2.390625 C 3.726562 -2.191406 4.28125 -2.09375 4.84375 -2.09375 C 5.21875 -2.09375 5.5 -2.15625 5.6875 -2.28125 C 5.882812 -2.40625 5.984375 -2.570312 5.984375 -2.78125 L 5.984375 -2.796875 C 5.984375 -3.003906 5.875 -3.175781 5.65625 -3.3125 C 5.4375 -3.445312 4.988281 -3.597656 4.3125 -3.765625 C 3.78125 -3.890625 3.285156 -4.023438 2.828125 -4.171875 C 2.378906 -4.316406 1.988281 -4.503906 1.65625 -4.734375 C 1.332031 -4.960938 1.070312 -5.25 0.875 -5.59375 C 0.6875 -5.9375 0.59375 -6.351562 0.59375 -6.84375 L 0.59375 -6.875 C 0.59375 -7.332031 0.679688 -7.753906 0.859375 -8.140625 C 1.035156 -8.523438 1.285156 -8.859375 1.609375 -9.140625 C 1.929688 -9.421875 2.328125 -9.640625 2.796875 -9.796875 C 3.273438 -9.953125 3.8125 -10.03125 4.40625 -10.03125 C 5.25 -10.03125 6.003906 -9.921875 6.671875 -9.703125 C 7.335938 -9.484375 7.9375 -9.15625 8.46875 -8.71875 L 7.109375 -6.796875 C 6.648438 -7.109375 6.179688 -7.347656 5.703125 -7.515625 C 5.222656 -7.679688 4.769531 -7.765625 4.34375 -7.765625 C 4.007812 -7.765625 3.757812 -7.703125 3.59375 -7.578125 C 3.4375 -7.460938 3.359375 -7.3125 3.359375 -7.125 L 3.359375 -7.109375 C 3.359375 -6.878906 3.472656 -6.695312 3.703125 -6.5625 C 3.929688 -6.4375 4.390625 -6.296875 5.078125 -6.140625 C 6.191406 -5.898438 7.078125 -5.554688 7.734375 -5.109375 C 8.398438 -4.671875 8.734375 -3.992188 8.734375 -3.078125 L 8.734375 -3.046875 C 8.734375 -2.546875 8.632812 -2.09375 8.4375 -1.6875 C 8.25 -1.289062 7.984375 -0.953125 7.640625 -0.671875 C 7.296875 -0.398438 6.875 -0.191406 6.375 -0.046875 C 5.882812 0.0976562 5.34375 0.171875 4.75 0.171875 Z M 4.75 0.171875 "/></g></g></g><g fill="#0d3b36" fill-opacity="1"><g transform="translate(105.911341, 18.033085)"><g><path d="M 5.640625 0.203125 C 4.929688 0.203125 4.265625 0.0703125 3.640625 -0.1875 C 3.023438 -0.445312 2.488281 -0.800781 2.03125 -1.25 C 1.582031 -1.707031 1.222656 -2.25 0.953125 -2.875 C 0.679688 -3.5 0.546875 -4.175781 0.546875 -4.90625 L 0.546875 -4.9375 C 0.546875 -5.644531 0.675781 -6.3125 0.9375 -6.9375 C 1.207031 -7.570312 1.566406 -8.117188 2.015625 -8.578125 C 2.472656 -9.035156 3.019531 -9.394531 3.65625 -9.65625 C 4.300781 -9.925781 4.992188 -10.0625 5.734375 -10.0625 C 6.742188 -10.0625 7.585938 -9.867188 8.265625 -9.484375 C 8.941406 -9.097656 9.492188 -8.609375 9.921875 -8.015625 L 7.859375 -6.421875 C 7.578125 -6.773438 7.265625 -7.054688 6.921875 -7.265625 C 6.578125 -7.472656 6.171875 -7.578125 5.703125 -7.578125 C 5.359375 -7.578125 5.039062 -7.503906 4.75 -7.359375 C 4.46875 -7.222656 4.222656 -7.035156 4.015625 -6.796875 C 3.804688 -6.566406 3.644531 -6.289062 3.53125 -5.96875 C 3.414062 -5.65625 3.359375 -5.320312 3.359375 -4.96875 L 3.359375 -4.9375 C 3.359375 -4.570312 3.414062 -4.222656 3.53125 -3.890625 C 3.644531 -3.566406 3.804688 -3.285156 4.015625 -3.046875 C 4.222656 -2.816406 4.46875 -2.632812 4.75 -2.5 C 5.039062 -2.363281 5.359375 -2.296875 5.703125 -2.296875 C 6.210938 -2.296875 6.640625 -2.40625 6.984375 -2.625 C 7.328125 -2.84375 7.644531 -3.132812 7.9375 -3.5 L 10 -2.03125 C 9.53125 -1.394531 8.957031 -0.863281 8.28125 -0.4375 C 7.601562 -0.0078125 6.722656 0.203125 5.640625 0.203125 Z M 5.640625 0.203125 "/></g></g></g><g fill="#0d3b36" fill-opacity="1"><g transform="translate(115.981485, 18.033085)"><g><path d="M 0.875 0 L 0.875 -9.859375 L 3.609375 -9.859375 L 3.609375 -6.171875 L 7.125 -6.171875 L 7.125 -9.859375 L 9.84375 -9.859375 L 9.84375 0 L 7.125 0 L 7.125 -3.75 L 3.609375 -3.75 L 3.609375 0 Z M 0.875 0 "/></g></g></g><g fill="#0d3b36" fill-opacity="1"><g transform="translate(126.474157, 18.033085)"><g><path d="M 0.875 0 L 0.875 -9.859375 L 8.8125 -9.859375 L 8.8125 -7.546875 L 3.578125 -7.546875 L 3.578125 -6.046875 L 8.3125 -6.046875 L 8.3125 -3.890625 L 3.578125 -3.890625 L 3.578125 -2.328125 L 8.875 -2.328125 L 8.875 0 Z M 0.875 0 "/></g></g></g><g fill="#0d3b36" fill-opacity="1"><g transform="translate(135.656985, 18.033085)"><g><path d="M 0.875 0 L 0.875 -9.859375 L 4.6875 -9.859375 C 5.5625 -9.859375 6.34375 -9.734375 7.03125 -9.484375 C 7.726562 -9.242188 8.3125 -8.910156 8.78125 -8.484375 C 9.257812 -8.054688 9.625 -7.539062 9.875 -6.9375 C 10.125 -6.34375 10.25 -5.691406 10.25 -4.984375 L 10.25 -4.96875 C 10.25 -4.257812 10.117188 -3.597656 9.859375 -2.984375 C 9.609375 -2.378906 9.242188 -1.851562 8.765625 -1.40625 C 8.285156 -0.96875 7.695312 -0.625 7 -0.375 C 6.3125 -0.125 5.523438 0 4.640625 0 Z M 4.71875 -7.453125 L 3.609375 -7.453125 L 3.609375 -2.421875 L 4.71875 -2.421875 C 5.539062 -2.421875 6.203125 -2.640625 6.703125 -3.078125 C 7.203125 -3.515625 7.453125 -4.128906 7.453125 -4.921875 L 7.453125 -4.953125 C 7.453125 -5.734375 7.203125 -6.34375 6.703125 -6.78125 C 6.203125 -7.226562 5.539062 -7.453125 4.71875 -7.453125 Z M 4.71875 -7.453125 "/></g></g></g><g fill="#0d3b36" fill-opacity="1"><g transform="translate(146.220082, 18.033085)"><g><path d="M 5.3125 0.1875 C 3.925781 0.1875 2.820312 -0.179688 2 -0.921875 C 1.175781 -1.660156 0.765625 -2.796875 0.765625 -4.328125 L 0.765625 -9.859375 L 3.515625 -9.859375 L 3.515625 -4.390625 C 3.515625 -3.679688 3.679688 -3.148438 4.015625 -2.796875 C 4.359375 -2.453125 4.800781 -2.28125 5.34375 -2.28125 C 5.894531 -2.28125 6.335938 -2.445312 6.671875 -2.78125 C 7.003906 -3.113281 7.171875 -3.625 7.171875 -4.3125 L 7.171875 -9.859375 L 9.9375 -9.859375 L 9.9375 -4.390625 C 9.9375 -3.609375 9.828125 -2.925781 9.609375 -2.34375 C 9.390625 -1.769531 9.078125 -1.296875 8.671875 -0.921875 C 8.273438 -0.546875 7.789062 -0.265625 7.21875 -0.078125 C 6.644531 0.0976562 6.007812 0.1875 5.3125 0.1875 Z M 5.3125 0.1875 "/></g></g></g><g fill="#0d3b36" fill-opacity="1"><g transform="translate(156.670506, 18.033085)"><g><path d="M 0.875 0 L 0.875 -9.859375 L 3.609375 -9.859375 L 3.609375 -2.390625 L 8.390625 -2.390625 L 8.390625 0 Z M 0.875 0 "/></g></g></g><g fill="#0d3b36" fill-opacity="1"><g transform="translate(165.135034, 18.033085)"><g><path d="M 0.875 0 L 0.875 -9.859375 L 8.8125 -9.859375 L 8.8125 -7.546875 L 3.578125 -7.546875 L 3.578125 -6.046875 L 8.3125 -6.046875 L 8.3125 -3.890625 L 3.578125 -3.890625 L 3.578125 -2.328125 L 8.875 -2.328125 L 8.875 0 Z M 0.875 0 "/></g></g></g><g clip-path="url(#0874e47d39)"><g clip-path="url(#170c779202)"><g clip-path="url(#6d2a21cb6b)"><path fill="#231f20" d="M 33.9375 52.820312 L 20.730469 52.820312 C 20.472656 52.820312 20.226562 52.769531 19.988281 52.671875 C 19.753906 52.574219 19.542969 52.433594 19.363281 52.25 C 19.179688 52.070312 19.042969 51.859375 18.941406 51.625 C 18.84375 51.386719 18.796875 51.140625 18.796875 50.882812 L 18.796875 37.675781 C 18.796875 37.417969 18.84375 37.171875 18.941406 36.933594 C 19.042969 36.699219 19.179688 36.488281 19.363281 36.308594 C 19.542969 36.128906 19.753906 35.988281 19.988281 35.890625 C 20.226562 35.789062 20.472656 35.742188 20.730469 35.742188 L 33.9375 35.742188 C 34.195312 35.742188 34.441406 35.789062 34.679688 35.890625 C 34.914062 35.988281 35.125 36.125 35.304688 36.308594 C 35.488281 36.488281 35.625 36.699219 35.726562 36.933594 C 35.824219 37.171875 35.871094 37.417969 35.871094 37.675781 L 35.871094 50.882812 C 35.871094 51.140625 35.824219 51.386719 35.726562 51.625 C 35.625 51.859375 35.488281 52.070312 35.304688 52.25 C 35.125 52.433594 34.914062 52.574219 34.679688 52.671875 C 34.441406 52.769531 34.195312 52.820312 33.9375 52.820312 Z M 20.730469 36.207031 C 20.535156 36.207031 20.347656 36.246094 20.167969 36.320312 C 19.988281 36.394531 19.828125 36.5 19.691406 36.636719 C 19.554688 36.777344 19.449219 36.933594 19.375 37.113281 C 19.300781 37.292969 19.261719 37.480469 19.261719 37.675781 L 19.261719 50.882812 C 19.261719 51.078125 19.300781 51.265625 19.375 51.445312 C 19.449219 51.625 19.554688 51.785156 19.691406 51.921875 C 19.828125 52.058594 19.988281 52.164062 20.167969 52.238281 C 20.347656 52.3125 20.535156 52.351562 20.730469 52.351562 L 33.9375 52.351562 C 34.132812 52.351562 34.320312 52.316406 34.5 52.238281 C 34.679688 52.164062 34.839844 52.058594 34.976562 51.921875 C 35.113281 51.785156 35.21875 51.625 35.292969 51.445312 C 35.367188 51.265625 35.40625 51.078125 35.40625 50.882812 L 35.40625 37.675781 C 35.40625 37.480469 35.367188 37.292969 35.292969 37.113281 C 35.21875 36.933594 35.113281 36.777344 34.976562 36.636719 C 34.835938 36.5 34.679688 36.394531 34.5 36.320312 C 34.320312 36.246094 34.132812 36.207031 33.9375 36.207031 Z M 20.730469 36.207031 " fill-opacity="1" fill-rule="nonzero"/></g></g></g><g clip-path="url(#81903df6b5)"><g clip-path="url(#4b41f2f765)"><g clip-path="url(#6b8a69edf7)"><path stroke-linecap="butt" transform="matrix(0.7425, 0, 0, 0.7425, 18.796261, 35.742299)" fill="none" stroke-linejoin="miter" d="M 0.000826483 6.996905 L 0.000826483 16.035205 C 0.000826483 19.896738 3.131088 23.03226 6.997881 23.03226 L 16.030921 23.03226 C 19.897714 23.03226 23.033236 19.896738 23.033236 16.035205 L 23.033236 6.996905 C 23.033236 5.139792 22.291443 3.361593 20.981468 2.051618 C 19.671493 0.736382 17.888034 -0.000149832 16.030921 -0.000149832 L 6.997881 -0.000149832 C 3.131088 -0.000149832 0.000826483 3.135372 0.000826483 6.996905 Z M 0.000826483 6.996905 " stroke="#000000" stroke-width="4" stroke-opacity="1" stroke-miterlimit="4"/></g></g></g><g clip-path="url(#bb8ec4c638)"><path fill="#0d3b36" d="M 15.09375 30.492188 L 37.972656 30.492188 L 37.972656 31.234375 L 15.09375 31.234375 Z M 15.09375 30.492188 " fill-opacity="1" fill-rule="nonzero"/></g><g fill="#0d3b36" fill-opacity="1"><g transform="translate(15.093772, 29.750139)"><g><path d="M 1.171875 -8.3125 L 4.0625 -8.3125 C 4.707031 -8.3125 5.300781 -8.207031 5.84375 -8 C 6.382812 -7.789062 6.851562 -7.5 7.25 -7.125 C 7.644531 -6.75 7.945312 -6.3125 8.15625 -5.8125 C 8.375 -5.3125 8.484375 -4.769531 8.484375 -4.1875 L 8.484375 -4.15625 C 8.484375 -3.570312 8.375 -3.023438 8.15625 -2.515625 C 7.945312 -2.003906 7.644531 -1.5625 7.25 -1.1875 C 6.851562 -0.820312 6.382812 -0.53125 5.84375 -0.3125 C 5.300781 -0.101562 4.707031 0 4.0625 0 L 1.171875 0 Z M 2.109375 -7.453125 L 2.109375 -0.859375 L 4.0625 -0.859375 C 4.582031 -0.859375 5.054688 -0.941406 5.484375 -1.109375 C 5.910156 -1.273438 6.269531 -1.503906 6.5625 -1.796875 C 6.863281 -2.097656 7.09375 -2.445312 7.25 -2.84375 C 7.414062 -3.238281 7.5 -3.664062 7.5 -4.125 L 7.5 -4.15625 C 7.5 -4.613281 7.414062 -5.039062 7.25 -5.4375 C 7.09375 -5.84375 6.863281 -6.191406 6.5625 -6.484375 C 6.269531 -6.785156 5.910156 -7.019531 5.484375 -7.1875 C 5.054688 -7.363281 4.582031 -7.453125 4.0625 -7.453125 Z M 2.109375 -7.453125 "/></g></g></g><g fill="#0d3b36" fill-opacity="1"><g transform="translate(22.7564, 29.750139)"><g><path d="M 2.84375 0.125 C 2.5625 0.125 2.285156 0.0820312 2.015625 0 C 1.742188 -0.0703125 1.5 -0.1875 1.28125 -0.34375 C 1.0625 -0.507812 0.882812 -0.710938 0.75 -0.953125 C 0.625 -1.191406 0.5625 -1.46875 0.5625 -1.78125 L 0.5625 -1.8125 C 0.5625 -2.132812 0.625 -2.414062 0.75 -2.65625 C 0.875 -2.90625 1.050781 -3.113281 1.28125 -3.28125 C 1.519531 -3.445312 1.796875 -3.570312 2.109375 -3.65625 C 2.429688 -3.738281 2.789062 -3.78125 3.1875 -3.78125 C 3.582031 -3.78125 3.925781 -3.753906 4.21875 -3.703125 C 4.507812 -3.660156 4.796875 -3.601562 5.078125 -3.53125 L 5.078125 -3.734375 C 5.078125 -4.296875 4.914062 -4.71875 4.59375 -5 C 4.269531 -5.28125 3.816406 -5.421875 3.234375 -5.421875 C 2.878906 -5.421875 2.550781 -5.378906 2.25 -5.296875 C 1.957031 -5.210938 1.664062 -5.101562 1.375 -4.96875 L 1.109375 -5.71875 C 1.441406 -5.875 1.78125 -5.992188 2.125 -6.078125 C 2.476562 -6.171875 2.882812 -6.21875 3.34375 -6.21875 C 4.207031 -6.21875 4.863281 -5.992188 5.3125 -5.546875 C 5.738281 -5.128906 5.953125 -4.53125 5.953125 -3.75 L 5.953125 0 L 5.078125 0 L 5.078125 -0.921875 C 4.859375 -0.648438 4.566406 -0.40625 4.203125 -0.1875 C 3.847656 0.0195312 3.394531 0.125 2.84375 0.125 Z M 3.03125 -0.59375 C 3.3125 -0.59375 3.578125 -0.632812 3.828125 -0.71875 C 4.078125 -0.800781 4.296875 -0.914062 4.484375 -1.0625 C 4.671875 -1.207031 4.816406 -1.378906 4.921875 -1.578125 C 5.023438 -1.785156 5.078125 -2.007812 5.078125 -2.25 L 5.078125 -2.84375 C 4.847656 -2.90625 4.582031 -2.960938 4.28125 -3.015625 C 3.988281 -3.078125 3.65625 -3.109375 3.28125 -3.109375 C 2.695312 -3.109375 2.25 -2.992188 1.9375 -2.765625 C 1.632812 -2.535156 1.484375 -2.226562 1.484375 -1.84375 L 1.484375 -1.8125 C 1.484375 -1.625 1.523438 -1.453125 1.609375 -1.296875 C 1.691406 -1.140625 1.800781 -1.007812 1.9375 -0.90625 C 2.082031 -0.8125 2.25 -0.734375 2.4375 -0.671875 C 2.625 -0.617188 2.820312 -0.59375 3.03125 -0.59375 Z M 3.03125 -0.59375 "/></g></g></g><g fill="#0d3b36" fill-opacity="1"><g transform="translate(28.007387, 29.750139)"><g><path d="M 5.609375 -6.140625 L 6.59375 -6.140625 L 4.015625 0.203125 C 3.753906 0.835938 3.460938 1.285156 3.140625 1.546875 C 2.816406 1.804688 2.425781 1.9375 1.96875 1.9375 C 1.71875 1.9375 1.488281 1.910156 1.28125 1.859375 C 1.070312 1.804688 0.867188 1.726562 0.671875 1.625 L 0.96875 0.90625 C 1.125 0.976562 1.273438 1.03125 1.421875 1.0625 C 1.566406 1.101562 1.738281 1.125 1.9375 1.125 C 2.207031 1.125 2.4375 1.039062 2.625 0.875 C 2.820312 0.707031 3.007812 0.40625 3.1875 -0.03125 L 0.40625 -6.140625 L 1.40625 -6.140625 L 3.640625 -1.015625 Z M 5.609375 -6.140625 "/></g></g></g><g fill="#0d3b36" fill-opacity="1"><g transform="translate(33.400934, 29.750139)"><g/></g></g><g fill="#0d3b36" fill-opacity="1"><g transform="translate(35.337387, 29.750139)"><g><path d="M 2.125 -7.390625 L 0.5625 -6.90625 L 0.328125 -7.671875 L 2.359375 -8.375 L 3.046875 -8.375 L 3.046875 0 L 2.125 0 Z M 2.125 -7.390625 "/></g></g></g><g clip-path="url(#0e7fc8fa95)"><g clip-path="url(#9b0cb4a5cf)"><g clip-path="url(#4d665428ed)"><path fill="#231f20" d="M 33.9375 72.894531 L 20.730469 72.894531 C 20.472656 72.894531 20.226562 72.84375 19.988281 72.746094 C 19.753906 72.648438 19.542969 72.507812 19.363281 72.324219 C 19.179688 72.144531 19.042969 71.933594 18.941406 71.699219 C 18.84375 71.460938 18.796875 71.214844 18.796875 70.957031 L 18.796875 57.75 C 18.796875 57.492188 18.84375 57.246094 18.941406 57.007812 C 19.042969 56.773438 19.179688 56.5625 19.363281 56.382812 C 19.542969 56.203125 19.753906 56.0625 19.988281 55.964844 C 20.226562 55.863281 20.472656 55.816406 20.730469 55.816406 L 33.9375 55.816406 C 34.195312 55.816406 34.441406 55.863281 34.679688 55.964844 C 34.914062 56.0625 35.125 56.199219 35.304688 56.382812 C 35.488281 56.5625 35.625 56.773438 35.726562 57.007812 C 35.824219 57.246094 35.871094 57.492188 35.871094 57.75 L 35.871094 70.957031 C 35.871094 71.214844 35.824219 71.460938 35.726562 71.699219 C 35.625 71.933594 35.488281 72.144531 35.304688 72.324219 C 35.125 72.507812 34.914062 72.648438 34.679688 72.746094 C 34.441406 72.84375 34.195312 72.894531 33.9375 72.894531 Z M 20.730469 56.28125 C 20.535156 56.28125 20.347656 56.320312 20.167969 56.394531 C 19.988281 56.46875 19.828125 56.574219 19.691406 56.710938 C 19.554688 56.851562 19.449219 57.007812 19.375 57.1875 C 19.300781 57.367188 19.261719 57.554688 19.261719 57.75 L 19.261719 70.957031 C 19.261719 71.152344 19.300781 71.339844 19.375 71.519531 C 19.449219 71.699219 19.554688 71.859375 19.691406 71.996094 C 19.828125 72.132812 19.988281 72.238281 20.167969 72.3125 C 20.347656 72.386719 20.535156 72.425781 20.730469 72.425781 L 33.9375 72.425781 C 34.132812 72.425781 34.320312 72.390625 34.5 72.3125 C 34.679688 72.238281 34.839844 72.132812 34.976562 71.996094 C 35.113281 71.859375 35.21875 71.699219 35.292969 71.519531 C 35.367188 71.339844 35.40625 71.152344 35.40625 70.957031 L 35.40625 57.75 C 35.40625 57.554688 35.367188 57.367188 35.292969 57.1875 C 35.21875 57.007812 35.113281 56.851562 34.976562 56.710938 C 34.835938 56.574219 34.679688 56.46875 34.5 56.394531 C 34.320312 56.320312 34.132812 56.28125 33.9375 56.28125 Z M 20.730469 56.28125 " fill-opacity="1" fill-rule="nonzero"/></g></g></g><g clip-path="url(#45411c7cf6)"><g clip-path="url(#aee536fcd5)"><g clip-path="url(#2fa917af37)"><path stroke-linecap="butt" transform="matrix(0.7425, 0, 0, 0.7425, 18.796261, 55.816567)" fill="none" stroke-linejoin="miter" d="M 0.000826483 6.996839 L 0.000826483 16.035139 C 0.000826483 19.896672 3.131088 23.032194 6.997881 23.032194 L 16.030921 23.032194 C 19.897714 23.032194 23.033236 19.896672 23.033236 16.035139 L 23.033236 6.996839 C 23.033236 5.144987 22.291443 3.361527 20.981468 2.051552 C 19.671493 0.736316 17.888034 -0.00021584 16.030921 -0.00021584 L 6.997881 -0.00021584 C 3.131088 -0.00021584 0.000826483 3.135306 0.000826483 6.996839 Z M 0.000826483 6.996839 " stroke="#000000" stroke-width="4" stroke-opacity="1" stroke-miterlimit="4"/></g></g></g><g clip-path="url(#81734ab8a1)"><g clip-path="url(#a71f297987)"><g clip-path="url(#37cc6df7e0)"><path fill="#231f20" d="M 66.101562 52.820312 L 52.890625 52.820312 C 52.636719 52.820312 52.390625 52.769531 52.152344 52.671875 C 51.914062 52.574219 51.707031 52.433594 51.523438 52.25 C 51.34375 52.070312 51.203125 51.859375 51.105469 51.625 C 51.007812 51.386719 50.957031 51.140625 50.957031 50.882812 L 50.957031 37.675781 C 50.957031 37.417969 51.007812 37.171875 51.105469 36.933594 C 51.203125 36.699219 51.34375 36.488281 51.523438 36.308594 C 51.707031 36.128906 51.914062 35.988281 52.152344 35.890625 C 52.390625 35.789062 52.636719 35.742188 52.890625 35.742188 L 66.101562 35.742188 C 66.355469 35.742188 66.605469 35.789062 66.839844 35.890625 C 67.078125 35.988281 67.285156 36.125 67.46875 36.308594 C 67.648438 36.488281 67.789062 36.699219 67.886719 36.933594 C 67.984375 37.171875 68.035156 37.417969 68.035156 37.675781 L 68.035156 50.882812 C 68.035156 51.140625 67.984375 51.386719 67.886719 51.625 C 67.789062 51.859375 67.648438 52.070312 67.46875 52.25 C 67.289062 52.433594 67.078125 52.574219 66.839844 52.671875 C 66.605469 52.769531 66.359375 52.820312 66.101562 52.820312 Z M 52.890625 36.207031 C 52.699219 36.207031 52.511719 36.246094 52.332031 36.320312 C 52.152344 36.394531 51.992188 36.5 51.855469 36.636719 C 51.71875 36.777344 51.613281 36.933594 51.539062 37.113281 C 51.460938 37.292969 51.425781 37.480469 51.425781 37.675781 L 51.425781 50.882812 C 51.425781 51.078125 51.460938 51.265625 51.535156 51.445312 C 51.613281 51.625 51.71875 51.785156 51.855469 51.921875 C 51.992188 52.058594 52.152344 52.164062 52.332031 52.238281 C 52.511719 52.3125 52.699219 52.351562 52.890625 52.351562 L 66.101562 52.351562 C 66.296875 52.351562 66.484375 52.316406 66.664062 52.238281 C 66.84375 52.164062 67 52.058594 67.136719 51.921875 C 67.277344 51.785156 67.382812 51.625 67.457031 51.445312 C 67.53125 51.265625 67.570312 51.078125 67.570312 50.882812 L 67.570312 37.675781 C 67.570312 37.480469 67.53125 37.292969 67.457031 37.113281 C 67.382812 36.933594 67.277344 36.777344 67.136719 36.636719 C 67 36.5 66.84375 36.394531 66.664062 36.320312 C 66.484375 36.246094 66.296875 36.207031 66.101562 36.207031 Z M 52.890625 36.207031 " fill-opacity="1" fill-rule="nonzero"/></g></g></g><g clip-path="url(#a2b01d0d70)"><g clip-path="url(#4f85822df4)"><g clip-path="url(#076052b9b3)"><path stroke-linecap="butt" transform="matrix(0.7425, 0, 0, 0.7425, 50.959191, 35.742299)" fill="none" stroke-linejoin="miter" d="M 0.00235204 6.996905 L 0.00235204 16.035205 C 0.00235204 19.896738 3.132613 23.03226 6.999407 23.03226 L 16.032446 23.03226 C 19.899239 23.03226 23.029501 19.896738 23.029501 16.035205 L 23.029501 6.996905 C 23.029501 5.139792 22.292969 3.361593 20.982994 2.051618 C 19.667758 0.736382 17.889559 -0.000149832 16.032446 -0.000149832 L 6.999407 -0.000149832 C 3.132613 -0.000149832 0.00235204 3.135372 0.00235204 6.996905 Z M 0.00235204 6.996905 " stroke="#000000" stroke-width="4" stroke-opacity="1" stroke-miterlimit="4"/></g></g></g><g clip-path="url(#11eff6729b)"><path fill="#0d3b36" d="M 46.515625 30.492188 L 70.53125 30.492188 L 70.53125 31.234375 L 46.515625 31.234375 Z M 46.515625 30.492188 " fill-opacity="1" fill-rule="nonzero"/></g><g fill="#0d3b36" fill-opacity="1"><g transform="translate(46.515972, 29.750139)"><g><path d="M 1.171875 -8.3125 L 4.0625 -8.3125 C 4.707031 -8.3125 5.300781 -8.207031 5.84375 -8 C 6.382812 -7.789062 6.851562 -7.5 7.25 -7.125 C 7.644531 -6.75 7.945312 -6.3125 8.15625 -5.8125 C 8.375 -5.3125 8.484375 -4.769531 8.484375 -4.1875 L 8.484375 -4.15625 C 8.484375 -3.570312 8.375 -3.023438 8.15625 -2.515625 C 7.945312 -2.003906 7.644531 -1.5625 7.25 -1.1875 C 6.851562 -0.820312 6.382812 -0.53125 5.84375 -0.3125 C 5.300781 -0.101562 4.707031 0 4.0625 0 L 1.171875 0 Z M 2.109375 -7.453125 L 2.109375 -0.859375 L 4.0625 -0.859375 C 4.582031 -0.859375 5.054688 -0.941406 5.484375 -1.109375 C 5.910156 -1.273438 6.269531 -1.503906 6.5625 -1.796875 C 6.863281 -2.097656 7.09375 -2.445312 7.25 -2.84375 C 7.414062 -3.238281 7.5 -3.664062 7.5 -4.125 L 7.5 -4.15625 C 7.5 -4.613281 7.414062 -5.039062 7.25 -5.4375 C 7.09375 -5.84375 6.863281 -6.191406 6.5625 -6.484375 C 6.269531 -6.785156 5.910156 -7.019531 5.484375 -7.1875 C 5.054688 -7.363281 4.582031 -7.453125 4.0625 -7.453125 Z M 2.109375 -7.453125 "/></g></g></g><g fill="#0d3b36" fill-opacity="1"><g transform="translate(53.834076, 29.750139)"><g><path d="M 2.84375 0.125 C 2.5625 0.125 2.285156 0.0820312 2.015625 0 C 1.742188 -0.0703125 1.5 -0.1875 1.28125 -0.34375 C 1.0625 -0.507812 0.882812 -0.710938 0.75 -0.953125 C 0.625 -1.191406 0.5625 -1.46875 0.5625 -1.78125 L 0.5625 -1.8125 C 0.5625 -2.132812 0.625 -2.414062 0.75 -2.65625 C 0.875 -2.90625 1.050781 -3.113281 1.28125 -3.28125 C 1.519531 -3.445312 1.796875 -3.570312 2.109375 -3.65625 C 2.429688 -3.738281 2.789062 -3.78125 3.1875 -3.78125 C 3.582031 -3.78125 3.925781 -3.753906 4.21875 -3.703125 C 4.507812 -3.660156 4.796875 -3.601562 5.078125 -3.53125 L 5.078125 -3.734375 C 5.078125 -4.296875 4.914062 -4.71875 4.59375 -5 C 4.269531 -5.28125 3.816406 -5.421875 3.234375 -5.421875 C 2.878906 -5.421875 2.550781 -5.378906 2.25 -5.296875 C 1.957031 -5.210938 1.664062 -5.101562 1.375 -4.96875 L 1.109375 -5.71875 C 1.441406 -5.875 1.78125 -5.992188 2.125 -6.078125 C 2.476562 -6.171875 2.882812 -6.21875 3.34375 -6.21875 C 4.207031 -6.21875 4.863281 -5.992188 5.3125 -5.546875 C 5.738281 -5.128906 5.953125 -4.53125 5.953125 -3.75 L 5.953125 0 L 5.078125 0 L 5.078125 -0.921875 C 4.859375 -0.648438 4.566406 -0.40625 4.203125 -0.1875 C 3.847656 0.0195312 3.394531 0.125 2.84375 0.125 Z M 3.03125 -0.59375 C 3.3125 -0.59375 3.578125 -0.632812 3.828125 -0.71875 C 4.078125 -0.800781 4.296875 -0.914062 4.484375 -1.0625 C 4.671875 -1.207031 4.816406 -1.378906 4.921875 -1.578125 C 5.023438 -1.785156 5.078125 -2.007812 5.078125 -2.25 L 5.078125 -2.84375 C 4.847656 -2.90625 4.582031 -2.960938 4.28125 -3.015625 C 3.988281 -3.078125 3.65625 -3.109375 3.28125 -3.109375 C 2.695312 -3.109375 2.25 -2.992188 1.9375 -2.765625 C 1.632812 -2.535156 1.484375 -2.226562 1.484375 -1.84375 L 1.484375 -1.8125 C 1.484375 -1.625 1.523438 -1.453125 1.609375 -1.296875 C 1.691406 -1.140625 1.800781 -1.007812 1.9375 -0.90625 C 2.082031 -0.8125 2.25 -0.734375 2.4375 -0.671875 C 2.625 -0.617188 2.820312 -0.59375 3.03125 -0.59375 Z M 3.03125 -0.59375 "/></g></g></g><g fill="#0d3b36" fill-opacity="1"><g transform="translate(58.74054, 29.750139)"><g><path d="M 5.609375 -6.140625 L 6.59375 -6.140625 L 4.015625 0.203125 C 3.753906 0.835938 3.460938 1.285156 3.140625 1.546875 C 2.816406 1.804688 2.425781 1.9375 1.96875 1.9375 C 1.71875 1.9375 1.488281 1.910156 1.28125 1.859375 C 1.070312 1.804688 0.867188 1.726562 0.671875 1.625 L 0.96875 0.90625 C 1.125 0.976562 1.273438 1.03125 1.421875 1.0625 C 1.566406 1.101562 1.738281 1.125 1.9375 1.125 C 2.207031 1.125 2.4375 1.039062 2.625 0.875 C 2.820312 0.707031 3.007812 0.40625 3.1875 -0.03125 L 0.40625 -6.140625 L 1.40625 -6.140625 L 3.640625 -1.015625 Z M 5.609375 -6.140625 "/></g></g></g><g fill="#0d3b36" fill-opacity="1"><g transform="translate(63.789564, 29.750139)"><g/></g></g><g fill="#0d3b36" fill-opacity="1"><g transform="translate(65.381493, 29.750139)"><g><path d="M 0.5625 -0.71875 L 3.59375 -3.390625 C 3.90625 -3.671875 4.171875 -3.925781 4.390625 -4.15625 C 4.609375 -4.382812 4.785156 -4.597656 4.921875 -4.796875 C 5.054688 -5.003906 5.15625 -5.203125 5.21875 -5.390625 C 5.28125 -5.585938 5.3125 -5.789062 5.3125 -6 C 5.3125 -6.238281 5.265625 -6.457031 5.171875 -6.65625 C 5.085938 -6.851562 4.96875 -7.019531 4.8125 -7.15625 C 4.664062 -7.289062 4.488281 -7.394531 4.28125 -7.46875 C 4.082031 -7.550781 3.867188 -7.59375 3.640625 -7.59375 C 3.171875 -7.59375 2.765625 -7.46875 2.421875 -7.21875 C 2.078125 -6.976562 1.738281 -6.625 1.40625 -6.15625 L 0.71875 -6.65625 C 0.914062 -6.9375 1.113281 -7.1875 1.3125 -7.40625 C 1.507812 -7.632812 1.722656 -7.820312 1.953125 -7.96875 C 2.179688 -8.113281 2.441406 -8.226562 2.734375 -8.3125 C 3.023438 -8.394531 3.351562 -8.4375 3.71875 -8.4375 C 4.09375 -8.4375 4.4375 -8.375 4.75 -8.25 C 5.0625 -8.132812 5.332031 -7.972656 5.5625 -7.765625 C 5.789062 -7.554688 5.96875 -7.304688 6.09375 -7.015625 C 6.226562 -6.734375 6.296875 -6.421875 6.296875 -6.078125 L 6.296875 -6.0625 C 6.296875 -5.757812 6.253906 -5.476562 6.171875 -5.21875 C 6.085938 -4.957031 5.957031 -4.703125 5.78125 -4.453125 C 5.613281 -4.203125 5.394531 -3.945312 5.125 -3.6875 C 4.863281 -3.425781 4.550781 -3.140625 4.1875 -2.828125 L 1.96875 -0.859375 L 6.375 -0.859375 L 6.375 0 L 0.5625 0 Z M 0.5625 -0.71875 "/></g></g></g><g clip-path="url(#28b73f4d1a)"><g clip-path="url(#33d037b8ab)"><g clip-path="url(#b1385feea8)"><path fill="#231f20" d="M 66.101562 72.894531 L 52.890625 72.894531 C 52.636719 72.894531 52.390625 72.84375 52.152344 72.746094 C 51.914062 72.648438 51.707031 72.507812 51.523438 72.324219 C 51.34375 72.144531 51.203125 71.933594 51.105469 71.699219 C 51.007812 71.460938 50.957031 71.214844 50.957031 70.957031 L 50.957031 57.75 C 50.957031 57.492188 51.007812 57.246094 51.105469 57.007812 C 51.203125 56.773438 51.34375 56.5625 51.523438 56.382812 C 51.707031 56.203125 51.914062 56.0625 52.152344 55.964844 C 52.390625 55.863281 52.636719 55.816406 52.890625 55.816406 L 66.101562 55.816406 C 66.355469 55.816406 66.605469 55.863281 66.839844 55.964844 C 67.078125 56.0625 67.285156 56.199219 67.46875 56.382812 C 67.648438 56.5625 67.789062 56.773438 67.886719 57.007812 C 67.984375 57.246094 68.035156 57.492188 68.035156 57.75 L 68.035156 70.957031 C 68.035156 71.214844 67.984375 71.460938 67.886719 71.699219 C 67.789062 71.933594 67.648438 72.144531 67.46875 72.324219 C 67.289062 72.507812 67.078125 72.648438 66.839844 72.746094 C 66.605469 72.84375 66.359375 72.894531 66.101562 72.894531 Z M 52.890625 56.28125 C 52.699219 56.28125 52.511719 56.320312 52.332031 56.394531 C 52.152344 56.46875 51.992188 56.574219 51.855469 56.710938 C 51.71875 56.851562 51.613281 57.007812 51.539062 57.1875 C 51.460938 57.367188 51.425781 57.554688 51.425781 57.75 L 51.425781 70.957031 C 51.425781 71.152344 51.460938 71.339844 51.535156 71.519531 C 51.613281 71.699219 51.71875 71.859375 51.855469 71.996094 C 51.992188 72.132812 52.152344 72.238281 52.332031 72.3125 C 52.511719 72.386719 52.699219 72.425781 52.890625 72.425781 L 66.101562 72.425781 C 66.296875 72.425781 66.484375 72.390625 66.664062 72.3125 C 66.84375 72.238281 67 72.132812 67.136719 71.996094 C 67.277344 71.859375 67.382812 71.699219 67.457031 71.519531 C 67.53125 71.339844 67.570312 71.152344 67.570312 70.957031 L 67.570312 57.75 C 67.570312 57.554688 67.53125 57.367188 67.457031 57.1875 C 67.382812 57.007812 67.277344 56.851562 67.136719 56.710938 C 67 56.574219 66.84375 56.46875 66.664062 56.394531 C 66.484375 56.320312 66.296875 56.28125 66.101562 56.28125 Z M 52.890625 56.28125 " fill-opacity="1" fill-rule="nonzero"/></g></g></g><g clip-path="url(#f2501d0959)"><g clip-path="url(#8730d52b52)"><g clip-path="url(#5a74d73018)"><path stroke-linecap="butt" transform="matrix(0.7425, 0, 0, 0.7425, 50.959191, 55.816567)" fill="none" stroke-linejoin="miter" d="M 0.00235204 6.996839 L 0.00235204 16.035139 C 0.00235204 19.896672 3.132613 23.032194 6.999407 23.032194 L 16.032446 23.032194 C 19.899239 23.032194 23.029501 19.896672 23.029501 16.035139 L 23.029501 6.996839 C 23.029501 5.144987 22.292969 3.361527 20.982994 2.051552 C 19.667758 0.736316 17.889559 -0.00021584 16.032446 -0.00021584 L 6.999407 -0.00021584 C 3.132613 -0.00021584 0.00235204 3.135306 0.00235204 6.996839 Z M 0.00235204 6.996839 " stroke="#000000" stroke-width="4" stroke-opacity="1" stroke-miterlimit="4"/></g></g></g><g clip-path="url(#377ce12fb8)"><g clip-path="url(#e5790ced4a)"><g clip-path="url(#8c38320b0a)"><path fill="#231f20" d="M 98.265625 52.820312 L 85.054688 52.820312 C 84.796875 52.820312 84.550781 52.769531 84.316406 52.671875 C 84.078125 52.574219 83.871094 52.433594 83.6875 52.25 C 83.507812 52.070312 83.367188 51.859375 83.269531 51.625 C 83.171875 51.386719 83.121094 51.140625 83.121094 50.882812 L 83.121094 37.675781 C 83.121094 37.417969 83.171875 37.171875 83.269531 36.933594 C 83.367188 36.699219 83.507812 36.488281 83.6875 36.308594 C 83.871094 36.128906 84.078125 35.988281 84.316406 35.890625 C 84.550781 35.789062 84.796875 35.742188 85.054688 35.742188 L 98.265625 35.742188 C 98.519531 35.742188 98.765625 35.789062 99.003906 35.890625 C 99.242188 35.988281 99.449219 36.125 99.632812 36.308594 C 99.8125 36.488281 99.953125 36.699219 100.050781 36.933594 C 100.148438 37.171875 100.199219 37.417969 100.199219 37.675781 L 100.199219 50.882812 C 100.199219 51.140625 100.148438 51.386719 100.050781 51.625 C 99.953125 51.859375 99.8125 52.070312 99.632812 52.25 C 99.449219 52.433594 99.242188 52.574219 99.003906 52.671875 C 98.765625 52.769531 98.519531 52.820312 98.265625 52.820312 Z M 85.054688 36.207031 C 84.859375 36.207031 84.671875 36.246094 84.492188 36.320312 C 84.3125 36.394531 84.15625 36.5 84.019531 36.636719 C 83.878906 36.777344 83.773438 36.933594 83.699219 37.113281 C 83.625 37.292969 83.589844 37.480469 83.585938 37.675781 L 83.585938 50.882812 C 83.589844 51.078125 83.625 51.265625 83.699219 51.445312 C 83.773438 51.625 83.878906 51.785156 84.019531 51.921875 C 84.15625 52.058594 84.3125 52.164062 84.492188 52.238281 C 84.671875 52.3125 84.859375 52.351562 85.054688 52.351562 L 98.265625 52.351562 C 98.457031 52.351562 98.644531 52.316406 98.824219 52.238281 C 99.003906 52.164062 99.164062 52.058594 99.300781 51.921875 C 99.4375 51.785156 99.546875 51.625 99.621094 51.445312 C 99.695312 51.265625 99.730469 51.078125 99.730469 50.882812 L 99.730469 37.675781 C 99.730469 37.480469 99.695312 37.292969 99.621094 37.113281 C 99.546875 36.933594 99.4375 36.777344 99.300781 36.636719 C 99.164062 36.5 99.003906 36.394531 98.824219 36.320312 C 98.644531 36.246094 98.457031 36.207031 98.265625 36.207031 Z M 85.054688 36.207031 " fill-opacity="1" fill-rule="nonzero"/></g></g></g><g clip-path="url(#09be5a4544)"><g clip-path="url(#d8daa40be1)"><g clip-path="url(#fa68a61e48)"><path stroke-linecap="butt" transform="matrix(0.7425, 0, 0, 0.7425, 83.122135, 35.742299)" fill="none" stroke-linejoin="miter" d="M -0.00140288 6.996905 L -0.00140288 16.035205 C -0.00140288 19.896738 3.134119 23.03226 7.000913 23.03226 L 16.033952 23.03226 C 19.895485 23.03226 23.031007 19.896738 23.031007 16.035205 L 23.031007 6.996905 C 23.031007 5.139792 22.294475 3.361593 20.979239 2.051618 C 19.669264 0.736382 17.891065 -0.000149832 16.033952 -0.000149832 L 7.000913 -0.000149832 C 3.134119 -0.000149832 -0.00140288 3.135372 -0.00140288 6.996905 Z M -0.00140288 6.996905 " stroke="#000000" stroke-width="4" stroke-opacity="1" stroke-miterlimit="4"/></g></g></g><g clip-path="url(#f7627a633a)"><path fill="#0d3b36" d="M 78.160156 30.492188 L 103.414062 30.492188 L 103.414062 31.234375 L 78.160156 31.234375 Z M 78.160156 30.492188 " fill-opacity="1" fill-rule="nonzero"/></g><g fill="#0d3b36" fill-opacity="1"><g transform="translate(78.159343, 29.750139)"><g><path d="M 1.171875 -8.3125 L 4.0625 -8.3125 C 4.707031 -8.3125 5.300781 -8.207031 5.84375 -8 C 6.382812 -7.789062 6.851562 -7.5 7.25 -7.125 C 7.644531 -6.75 7.945312 -6.3125 8.15625 -5.8125 C 8.375 -5.3125 8.484375 -4.769531 8.484375 -4.1875 L 8.484375 -4.15625 C 8.484375 -3.570312 8.375 -3.023438 8.15625 -2.515625 C 7.945312 -2.003906 7.644531 -1.5625 7.25 -1.1875 C 6.851562 -0.820312 6.382812 -0.53125 5.84375 -0.3125 C 5.300781 -0.101562 4.707031 0 4.0625 0 L 1.171875 0 Z M 2.109375 -7.453125 L 2.109375 -0.859375 L 4.0625 -0.859375 C 4.582031 -0.859375 5.054688 -0.941406 5.484375 -1.109375 C 5.910156 -1.273438 6.269531 -1.503906 6.5625 -1.796875 C 6.863281 -2.097656 7.09375 -2.445312 7.25 -2.84375 C 7.414062 -3.238281 7.5 -3.664062 7.5 -4.125 L 7.5 -4.15625 C 7.5 -4.613281 7.414062 -5.039062 7.25 -5.4375 C 7.09375 -5.84375 6.863281 -6.191406 6.5625 -6.484375 C 6.269531 -6.785156 5.910156 -7.019531 5.484375 -7.1875 C 5.054688 -7.363281 4.582031 -7.453125 4.0625 -7.453125 Z M 2.109375 -7.453125 "/></g></g></g><g fill="#0d3b36" fill-opacity="1"><g transform="translate(85.691282, 29.750139)"><g><path d="M 2.84375 0.125 C 2.5625 0.125 2.285156 0.0820312 2.015625 0 C 1.742188 -0.0703125 1.5 -0.1875 1.28125 -0.34375 C 1.0625 -0.507812 0.882812 -0.710938 0.75 -0.953125 C 0.625 -1.191406 0.5625 -1.46875 0.5625 -1.78125 L 0.5625 -1.8125 C 0.5625 -2.132812 0.625 -2.414062 0.75 -2.65625 C 0.875 -2.90625 1.050781 -3.113281 1.28125 -3.28125 C 1.519531 -3.445312 1.796875 -3.570312 2.109375 -3.65625 C 2.429688 -3.738281 2.789062 -3.78125 3.1875 -3.78125 C 3.582031 -3.78125 3.925781 -3.753906 4.21875 -3.703125 C 4.507812 -3.660156 4.796875 -3.601562 5.078125 -3.53125 L 5.078125 -3.734375 C 5.078125 -4.296875 4.914062 -4.71875 4.59375 -5 C 4.269531 -5.28125 3.816406 -5.421875 3.234375 -5.421875 C 2.878906 -5.421875 2.550781 -5.378906 2.25 -5.296875 C 1.957031 -5.210938 1.664062 -5.101562 1.375 -4.96875 L 1.109375 -5.71875 C 1.441406 -5.875 1.78125 -5.992188 2.125 -6.078125 C 2.476562 -6.171875 2.882812 -6.21875 3.34375 -6.21875 C 4.207031 -6.21875 4.863281 -5.992188 5.3125 -5.546875 C 5.738281 -5.128906 5.953125 -4.53125 5.953125 -3.75 L 5.953125 0 L 5.078125 0 L 5.078125 -0.921875 C 4.859375 -0.648438 4.566406 -0.40625 4.203125 -0.1875 C 3.847656 0.0195312 3.394531 0.125 2.84375 0.125 Z M 3.03125 -0.59375 C 3.3125 -0.59375 3.578125 -0.632812 3.828125 -0.71875 C 4.078125 -0.800781 4.296875 -0.914062 4.484375 -1.0625 C 4.671875 -1.207031 4.816406 -1.378906 4.921875 -1.578125 C 5.023438 -1.785156 5.078125 -2.007812 5.078125 -2.25 L 5.078125 -2.84375 C 4.847656 -2.90625 4.582031 -2.960938 4.28125 -3.015625 C 3.988281 -3.078125 3.65625 -3.109375 3.28125 -3.109375 C 2.695312 -3.109375 2.25 -2.992188 1.9375 -2.765625 C 1.632812 -2.535156 1.484375 -2.226562 1.484375 -1.84375 L 1.484375 -1.8125 C 1.484375 -1.625 1.523438 -1.453125 1.609375 -1.296875 C 1.691406 -1.140625 1.800781 -1.007812 1.9375 -0.90625 C 2.082031 -0.8125 2.25 -0.734375 2.4375 -0.671875 C 2.625 -0.617188 2.820312 -0.59375 3.03125 -0.59375 Z M 3.03125 -0.59375 "/></g></g></g><g fill="#0d3b36" fill-opacity="1"><g transform="translate(90.811582, 29.750139)"><g><path d="M 5.609375 -6.140625 L 6.59375 -6.140625 L 4.015625 0.203125 C 3.753906 0.835938 3.460938 1.285156 3.140625 1.546875 C 2.816406 1.804688 2.425781 1.9375 1.96875 1.9375 C 1.71875 1.9375 1.488281 1.910156 1.28125 1.859375 C 1.070312 1.804688 0.867188 1.726562 0.671875 1.625 L 0.96875 0.90625 C 1.125 0.976562 1.273438 1.03125 1.421875 1.0625 C 1.566406 1.101562 1.738281 1.125 1.9375 1.125 C 2.207031 1.125 2.4375 1.039062 2.625 0.875 C 2.820312 0.707031 3.007812 0.40625 3.1875 -0.03125 L 0.40625 -6.140625 L 1.40625 -6.140625 L 3.640625 -1.015625 Z M 5.609375 -6.140625 "/></g></g></g><g fill="#0d3b36" fill-opacity="1"><g transform="translate(96.074442, 29.750139)"><g/></g></g><g fill="#0d3b36" fill-opacity="1"><g transform="translate(97.880207, 29.750139)"><g><path d="M 3.6875 0.140625 C 2.988281 0.140625 2.382812 0.00390625 1.875 -0.265625 C 1.363281 -0.535156 0.9375 -0.894531 0.59375 -1.34375 L 1.265625 -1.953125 C 1.585938 -1.554688 1.945312 -1.25 2.34375 -1.03125 C 2.738281 -0.820312 3.191406 -0.71875 3.703125 -0.71875 C 3.953125 -0.71875 4.1875 -0.753906 4.40625 -0.828125 C 4.632812 -0.898438 4.828125 -1.003906 4.984375 -1.140625 C 5.148438 -1.285156 5.28125 -1.457031 5.375 -1.65625 C 5.46875 -1.851562 5.515625 -2.078125 5.515625 -2.328125 L 5.515625 -2.34375 C 5.515625 -2.613281 5.457031 -2.847656 5.34375 -3.046875 C 5.226562 -3.242188 5.066406 -3.40625 4.859375 -3.53125 C 4.660156 -3.664062 4.414062 -3.769531 4.125 -3.84375 C 3.84375 -3.914062 3.53125 -3.953125 3.1875 -3.953125 L 2.65625 -3.953125 L 2.46875 -4.515625 L 5.09375 -7.46875 L 1.03125 -7.46875 L 1.03125 -8.3125 L 6.34375 -8.3125 L 6.34375 -7.625 L 3.734375 -4.71875 C 4.097656 -4.6875 4.441406 -4.617188 4.765625 -4.515625 C 5.097656 -4.421875 5.390625 -4.273438 5.640625 -4.078125 C 5.890625 -3.890625 6.085938 -3.65625 6.234375 -3.375 C 6.390625 -3.09375 6.46875 -2.765625 6.46875 -2.390625 L 6.46875 -2.359375 C 6.46875 -1.992188 6.394531 -1.65625 6.25 -1.34375 C 6.101562 -1.03125 5.90625 -0.765625 5.65625 -0.546875 C 5.40625 -0.328125 5.113281 -0.15625 4.78125 -0.03125 C 4.445312 0.0820312 4.082031 0.140625 3.6875 0.140625 Z M 3.6875 0.140625 "/></g></g></g><g clip-path="url(#f4a3d6adc3)"><g clip-path="url(#16cc862814)"><g clip-path="url(#b6b99b0129)"><path fill="#231f20" d="M 98.265625 72.894531 L 85.054688 72.894531 C 84.796875 72.894531 84.550781 72.84375 84.316406 72.746094 C 84.078125 72.648438 83.871094 72.507812 83.6875 72.324219 C 83.507812 72.144531 83.367188 71.933594 83.269531 71.699219 C 83.171875 71.460938 83.121094 71.214844 83.121094 70.957031 L 83.121094 57.75 C 83.121094 57.492188 83.171875 57.246094 83.269531 57.007812 C 83.367188 56.773438 83.507812 56.5625 83.6875 56.382812 C 83.871094 56.203125 84.078125 56.0625 84.316406 55.964844 C 84.550781 55.863281 84.796875 55.816406 85.054688 55.816406 L 98.265625 55.816406 C 98.519531 55.816406 98.765625 55.863281 99.003906 55.964844 C 99.242188 56.0625 99.449219 56.199219 99.632812 56.382812 C 99.8125 56.5625 99.953125 56.773438 100.050781 57.007812 C 100.148438 57.246094 100.199219 57.492188 100.199219 57.75 L 100.199219 70.957031 C 100.199219 71.214844 100.148438 71.460938 100.050781 71.699219 C 99.953125 71.933594 99.8125 72.144531 99.632812 72.324219 C 99.449219 72.507812 99.242188 72.648438 99.003906 72.746094 C 98.765625 72.84375 98.519531 72.894531 98.265625 72.894531 Z M 85.054688 56.28125 C 84.859375 56.28125 84.671875 56.320312 84.492188 56.394531 C 84.3125 56.46875 84.15625 56.574219 84.019531 56.710938 C 83.878906 56.851562 83.773438 57.007812 83.699219 57.1875 C 83.625 57.367188 83.589844 57.554688 83.585938 57.75 L 83.585938 70.957031 C 83.589844 71.152344 83.625 71.339844 83.699219 71.519531 C 83.773438 71.699219 83.878906 71.859375 84.019531 71.996094 C 84.15625 72.132812 84.3125 72.238281 84.492188 72.3125 C 84.671875 72.386719 84.859375 72.425781 85.054688 72.425781 L 98.265625 72.425781 C 98.457031 72.425781 98.644531 72.390625 98.824219 72.3125 C 99.003906 72.238281 99.164062 72.132812 99.300781 71.996094 C 99.4375 71.859375 99.546875 71.699219 99.621094 71.519531 C 99.695312 71.339844 99.730469 71.152344 99.730469 70.957031 L 99.730469 57.75 C 99.730469 57.554688 99.695312 57.367188 99.621094 57.1875 C 99.546875 57.007812 99.4375 56.851562 99.300781 56.710938 C 99.164062 56.574219 99.003906 56.46875 98.824219 56.394531 C 98.644531 56.320312 98.457031 56.28125 98.265625 56.28125 Z M 85.054688 56.28125 " fill-opacity="1" fill-rule="nonzero"/></g></g></g><g clip-path="url(#7c159a22d0)"><g clip-path="url(#027b3fdaeb)"><g clip-path="url(#c8657e4ec2)"><path stroke-linecap="butt" transform="matrix(0.7425, 0, 0, 0.7425, 83.122135, 55.816567)" fill="none" stroke-linejoin="miter" d="M -0.00140288 6.996839 L -0.00140288 16.035139 C -0.00140288 19.896672 3.134119 23.032194 7.000913 23.032194 L 16.033952 23.032194 C 19.895485 23.032194 23.031007 19.896672 23.031007 16.035139 L 23.031007 6.996839 C 23.031007 5.144987 22.294475 3.361527 20.979239 2.051552 C 19.669264 0.736316 17.891065 -0.00021584 16.033952 -0.00021584 L 7.000913 -0.00021584 C 3.134119 -0.00021584 -0.00140288 3.135306 -0.00140288 6.996839 Z M -0.00140288 6.996839 " stroke="#000000" stroke-width="4" stroke-opacity="1" stroke-miterlimit="4"/></g></g></g><g clip-path="url(#2b9ff97f58)"><g clip-path="url(#c1999aff5c)"><g clip-path="url(#a499f1df25)"><path fill="#231f20" d="M 130.425781 52.820312 L 117.21875 52.820312 C 116.960938 52.820312 116.714844 52.769531 116.476562 52.671875 C 116.242188 52.574219 116.03125 52.433594 115.851562 52.25 C 115.667969 52.070312 115.53125 51.859375 115.433594 51.625 C 115.332031 51.386719 115.285156 51.140625 115.285156 50.882812 L 115.285156 37.675781 C 115.285156 37.417969 115.332031 37.171875 115.433594 36.933594 C 115.53125 36.699219 115.671875 36.488281 115.851562 36.308594 C 116.03125 36.128906 116.242188 35.988281 116.476562 35.890625 C 116.714844 35.789062 116.960938 35.742188 117.21875 35.742188 L 130.425781 35.742188 C 130.683594 35.742188 130.929688 35.789062 131.167969 35.890625 C 131.402344 35.988281 131.613281 36.125 131.792969 36.308594 C 131.976562 36.488281 132.117188 36.699219 132.214844 36.933594 C 132.3125 37.171875 132.359375 37.417969 132.363281 37.675781 L 132.363281 50.882812 C 132.359375 51.140625 132.3125 51.386719 132.214844 51.625 C 132.117188 51.859375 131.976562 52.070312 131.792969 52.25 C 131.613281 52.433594 131.402344 52.574219 131.167969 52.671875 C 130.929688 52.769531 130.683594 52.820312 130.425781 52.820312 Z M 117.21875 36.207031 C 117.023438 36.207031 116.835938 36.246094 116.65625 36.320312 C 116.476562 36.394531 116.320312 36.5 116.179688 36.636719 C 116.042969 36.777344 115.9375 36.933594 115.863281 37.113281 C 115.789062 37.292969 115.75 37.480469 115.75 37.675781 L 115.75 50.882812 C 115.75 51.078125 115.789062 51.265625 115.863281 51.445312 C 115.9375 51.625 116.042969 51.785156 116.179688 51.921875 C 116.316406 52.058594 116.476562 52.164062 116.65625 52.238281 C 116.835938 52.3125 117.023438 52.351562 117.21875 52.351562 L 130.425781 52.351562 C 130.621094 52.351562 130.808594 52.316406 130.988281 52.238281 C 131.167969 52.164062 131.328125 52.058594 131.464844 51.921875 C 131.601562 51.785156 131.707031 51.625 131.78125 51.445312 C 131.855469 51.265625 131.894531 51.078125 131.894531 50.882812 L 131.894531 37.675781 C 131.894531 37.480469 131.855469 37.292969 131.78125 37.113281 C 131.707031 36.933594 131.601562 36.777344 131.464844 36.636719 C 131.328125 36.5 131.167969 36.394531 130.988281 36.320312 C 130.808594 36.246094 130.621094 36.207031 130.425781 36.207031 Z M 117.21875 36.207031 " fill-opacity="1" fill-rule="nonzero"/></g></g></g><g clip-path="url(#576bf3b8d5)"><g clip-path="url(#cd10c787ad)"><g clip-path="url(#02e246d9d4)"><path stroke-linecap="butt" transform="matrix(0.7425, 0, 0, 0.7425, 115.285056, 35.742299)" fill="none" stroke-linejoin="miter" d="M 0.000135156 6.996905 L 0.000135156 16.035205 C 0.000135156 19.896738 3.135657 23.03226 6.99719 23.03226 L 16.030229 23.03226 C 19.897023 23.03226 23.032545 19.896738 23.032545 16.035205 L 23.032545 6.996905 C 23.032545 5.139792 22.296013 3.361593 20.980777 2.051618 C 19.670802 0.736382 17.887342 -0.000149832 16.030229 -0.000149832 L 6.99719 -0.000149832 C 3.135657 -0.000149832 0.000135156 3.135372 0.000135156 6.996905 Z M 0.000135156 6.996905 " stroke="#000000" stroke-width="4" stroke-opacity="1" stroke-miterlimit="4"/></g></g></g><g clip-path="url(#cb71249236)"><path fill="#0d3b36" d="M 109.984375 30.492188 L 135.925781 30.492188 L 135.925781 31.234375 L 109.984375 31.234375 Z M 109.984375 30.492188 " fill-opacity="1" fill-rule="nonzero"/></g><g fill="#0d3b36" fill-opacity="1"><g transform="translate(109.98582, 29.750139)"><g><path d="M 1.171875 -8.3125 L 4.0625 -8.3125 C 4.707031 -8.3125 5.300781 -8.207031 5.84375 -8 C 6.382812 -7.789062 6.851562 -7.5 7.25 -7.125 C 7.644531 -6.75 7.945312 -6.3125 8.15625 -5.8125 C 8.375 -5.3125 8.484375 -4.769531 8.484375 -4.1875 L 8.484375 -4.15625 C 8.484375 -3.570312 8.375 -3.023438 8.15625 -2.515625 C 7.945312 -2.003906 7.644531 -1.5625 7.25 -1.1875 C 6.851562 -0.820312 6.382812 -0.53125 5.84375 -0.3125 C 5.300781 -0.101562 4.707031 0 4.0625 0 L 1.171875 0 Z M 2.109375 -7.453125 L 2.109375 -0.859375 L 4.0625 -0.859375 C 4.582031 -0.859375 5.054688 -0.941406 5.484375 -1.109375 C 5.910156 -1.273438 6.269531 -1.503906 6.5625 -1.796875 C 6.863281 -2.097656 7.09375 -2.445312 7.25 -2.84375 C 7.414062 -3.238281 7.5 -3.664062 7.5 -4.125 L 7.5 -4.15625 C 7.5 -4.613281 7.414062 -5.039062 7.25 -5.4375 C 7.09375 -5.84375 6.863281 -6.191406 6.5625 -6.484375 C 6.269531 -6.785156 5.910156 -7.019531 5.484375 -7.1875 C 5.054688 -7.363281 4.582031 -7.453125 4.0625 -7.453125 Z M 2.109375 -7.453125 "/></g></g></g><g fill="#0d3b36" fill-opacity="1"><g transform="translate(117.51776, 29.750139)"><g><path d="M 2.84375 0.125 C 2.5625 0.125 2.285156 0.0820312 2.015625 0 C 1.742188 -0.0703125 1.5 -0.1875 1.28125 -0.34375 C 1.0625 -0.507812 0.882812 -0.710938 0.75 -0.953125 C 0.625 -1.191406 0.5625 -1.46875 0.5625 -1.78125 L 0.5625 -1.8125 C 0.5625 -2.132812 0.625 -2.414062 0.75 -2.65625 C 0.875 -2.90625 1.050781 -3.113281 1.28125 -3.28125 C 1.519531 -3.445312 1.796875 -3.570312 2.109375 -3.65625 C 2.429688 -3.738281 2.789062 -3.78125 3.1875 -3.78125 C 3.582031 -3.78125 3.925781 -3.753906 4.21875 -3.703125 C 4.507812 -3.660156 4.796875 -3.601562 5.078125 -3.53125 L 5.078125 -3.734375 C 5.078125 -4.296875 4.914062 -4.71875 4.59375 -5 C 4.269531 -5.28125 3.816406 -5.421875 3.234375 -5.421875 C 2.878906 -5.421875 2.550781 -5.378906 2.25 -5.296875 C 1.957031 -5.210938 1.664062 -5.101562 1.375 -4.96875 L 1.109375 -5.71875 C 1.441406 -5.875 1.78125 -5.992188 2.125 -6.078125 C 2.476562 -6.171875 2.882812 -6.21875 3.34375 -6.21875 C 4.207031 -6.21875 4.863281 -5.992188 5.3125 -5.546875 C 5.738281 -5.128906 5.953125 -4.53125 5.953125 -3.75 L 5.953125 0 L 5.078125 0 L 5.078125 -0.921875 C 4.859375 -0.648438 4.566406 -0.40625 4.203125 -0.1875 C 3.847656 0.0195312 3.394531 0.125 2.84375 0.125 Z M 3.03125 -0.59375 C 3.3125 -0.59375 3.578125 -0.632812 3.828125 -0.71875 C 4.078125 -0.800781 4.296875 -0.914062 4.484375 -1.0625 C 4.671875 -1.207031 4.816406 -1.378906 4.921875 -1.578125 C 5.023438 -1.785156 5.078125 -2.007812 5.078125 -2.25 L 5.078125 -2.84375 C 4.847656 -2.90625 4.582031 -2.960938 4.28125 -3.015625 C 3.988281 -3.078125 3.65625 -3.109375 3.28125 -3.109375 C 2.695312 -3.109375 2.25 -2.992188 1.9375 -2.765625 C 1.632812 -2.535156 1.484375 -2.226562 1.484375 -1.84375 L 1.484375 -1.8125 C 1.484375 -1.625 1.523438 -1.453125 1.609375 -1.296875 C 1.691406 -1.140625 1.800781 -1.007812 1.9375 -0.90625 C 2.082031 -0.8125 2.25 -0.734375 2.4375 -0.671875 C 2.625 -0.617188 2.820312 -0.59375 3.03125 -0.59375 Z M 3.03125 -0.59375 "/></g></g></g><g fill="#0d3b36" fill-opacity="1"><g transform="translate(122.638059, 29.750139)"><g><path d="M 5.609375 -6.140625 L 6.59375 -6.140625 L 4.015625 0.203125 C 3.753906 0.835938 3.460938 1.285156 3.140625 1.546875 C 2.816406 1.804688 2.425781 1.9375 1.96875 1.9375 C 1.71875 1.9375 1.488281 1.910156 1.28125 1.859375 C 1.070312 1.804688 0.867188 1.726562 0.671875 1.625 L 0.96875 0.90625 C 1.125 0.976562 1.273438 1.03125 1.421875 1.0625 C 1.566406 1.101562 1.738281 1.125 1.9375 1.125 C 2.207031 1.125 2.4375 1.039062 2.625 0.875 C 2.820312 0.707031 3.007812 0.40625 3.1875 -0.03125 L 0.40625 -6.140625 L 1.40625 -6.140625 L 3.640625 -1.015625 Z M 5.609375 -6.140625 "/></g></g></g><g fill="#0d3b36" fill-opacity="1"><g transform="translate(127.90092, 29.750139)"><g/></g></g><g fill="#0d3b36" fill-opacity="1"><g transform="translate(129.706685, 29.750139)"><g><path d="M 5.125 -1.96875 L 0.75 -1.96875 L 0.515625 -2.640625 L 5.21875 -8.375 L 6.03125 -8.375 L 6.03125 -2.75 L 7.328125 -2.75 L 7.328125 -1.96875 L 6.03125 -1.96875 L 6.03125 0 L 5.125 0 Z M 5.125 -2.75 L 5.125 -7.046875 L 1.640625 -2.75 Z M 5.125 -2.75 "/></g></g></g><g clip-path="url(#4e13918a11)"><g clip-path="url(#683fe1f2fd)"><g clip-path="url(#03930c7244)"><path fill="#231f20" d="M 130.425781 72.894531 L 117.21875 72.894531 C 116.960938 72.894531 116.714844 72.84375 116.476562 72.746094 C 116.242188 72.648438 116.03125 72.507812 115.851562 72.324219 C 115.667969 72.144531 115.53125 71.933594 115.433594 71.699219 C 115.332031 71.460938 115.285156 71.214844 115.285156 70.957031 L 115.285156 57.75 C 115.285156 57.492188 115.332031 57.246094 115.433594 57.007812 C 115.53125 56.773438 115.671875 56.5625 115.851562 56.382812 C 116.03125 56.203125 116.242188 56.0625 116.476562 55.964844 C 116.714844 55.863281 116.960938 55.816406 117.21875 55.816406 L 130.425781 55.816406 C 130.683594 55.816406 130.929688 55.863281 131.167969 55.964844 C 131.402344 56.0625 131.613281 56.199219 131.792969 56.382812 C 131.976562 56.5625 132.117188 56.773438 132.214844 57.007812 C 132.3125 57.246094 132.359375 57.492188 132.363281 57.75 L 132.363281 70.957031 C 132.359375 71.214844 132.3125 71.460938 132.214844 71.699219 C 132.117188 71.933594 131.976562 72.144531 131.792969 72.324219 C 131.613281 72.507812 131.402344 72.648438 131.167969 72.746094 C 130.929688 72.84375 130.683594 72.894531 130.425781 72.894531 Z M 117.21875 56.28125 C 117.023438 56.28125 116.835938 56.320312 116.65625 56.394531 C 116.476562 56.46875 116.320312 56.574219 116.179688 56.710938 C 116.042969 56.851562 115.9375 57.007812 115.863281 57.1875 C 115.789062 57.367188 115.75 57.554688 115.75 57.75 L 115.75 70.957031 C 115.75 71.152344 115.789062 71.339844 115.863281 71.519531 C 115.9375 71.699219 116.042969 71.859375 116.179688 71.996094 C 116.316406 72.132812 116.476562 72.238281 116.65625 72.3125 C 116.835938 72.386719 117.023438 72.425781 117.21875 72.425781 L 130.425781 72.425781 C 130.621094 72.425781 130.808594 72.390625 130.988281 72.3125 C 131.167969 72.238281 131.328125 72.132812 131.464844 71.996094 C 131.601562 71.859375 131.707031 71.699219 131.78125 71.519531 C 131.855469 71.339844 131.894531 71.152344 131.894531 70.957031 L 131.894531 57.75 C 131.894531 57.554688 131.855469 57.367188 131.78125 57.1875 C 131.707031 57.007812 131.601562 56.851562 131.464844 56.710938 C 131.328125 56.574219 131.167969 56.46875 130.988281 56.394531 C 130.808594 56.320312 130.621094 56.28125 130.425781 56.28125 Z M 117.21875 56.28125 " fill-opacity="1" fill-rule="nonzero"/></g></g></g><g clip-path="url(#c6f487f55d)"><g clip-path="url(#de1e1dbab8)"><g clip-path="url(#191d080110)"><path stroke-linecap="butt" transform="matrix(0.7425, 0, 0, 0.7425, 115.285056, 55.816567)" fill="none" stroke-linejoin="miter" d="M 0.000135156 6.996839 L 0.000135156 16.035139 C 0.000135156 19.896672 3.135657 23.032194 6.99719 23.032194 L 16.030229 23.032194 C 19.897023 23.032194 23.032545 19.896672 23.032545 16.035139 L 23.032545 6.996839 C 23.032545 5.144987 22.296013 3.361527 20.980777 2.051552 C 19.670802 0.736316 17.887342 -0.00021584 16.030229 -0.00021584 L 6.99719 -0.00021584 C 3.135657 -0.00021584 0.000135156 3.135306 0.000135156 6.996839 Z M 0.000135156 6.996839 " stroke="#000000" stroke-width="4" stroke-opacity="1" stroke-miterlimit="4"/></g></g></g><g clip-path="url(#fe1d7d5e5d)"><g clip-path="url(#17b0b507f3)"><g clip-path="url(#6cc5db4688)"><path fill="#231f20" d="M 162.53125 52.820312 L 149.320312 52.820312 C 149.066406 52.820312 148.820312 52.769531 148.582031 52.671875 C 148.34375 52.574219 148.136719 52.433594 147.953125 52.25 C 147.773438 52.070312 147.632812 51.859375 147.535156 51.625 C 147.4375 51.386719 147.386719 51.140625 147.386719 50.882812 L 147.386719 37.675781 C 147.386719 37.417969 147.4375 37.171875 147.535156 36.933594 C 147.632812 36.699219 147.773438 36.488281 147.957031 36.308594 C 148.136719 36.128906 148.34375 35.988281 148.582031 35.890625 C 148.820312 35.789062 149.066406 35.742188 149.320312 35.742188 L 162.53125 35.742188 C 162.789062 35.742188 163.035156 35.789062 163.269531 35.890625 C 163.507812 35.988281 163.714844 36.125 163.898438 36.308594 C 164.078125 36.488281 164.21875 36.699219 164.316406 36.933594 C 164.414062 37.171875 164.464844 37.417969 164.464844 37.675781 L 164.464844 50.882812 C 164.464844 51.140625 164.417969 51.386719 164.316406 51.625 C 164.21875 51.859375 164.078125 52.070312 163.898438 52.25 C 163.71875 52.433594 163.507812 52.574219 163.269531 52.671875 C 163.035156 52.769531 162.789062 52.820312 162.53125 52.820312 Z M 149.320312 36.207031 C 149.128906 36.207031 148.941406 36.246094 148.761719 36.320312 C 148.582031 36.394531 148.421875 36.5 148.285156 36.636719 C 148.148438 36.777344 148.042969 36.933594 147.96875 37.113281 C 147.890625 37.292969 147.855469 37.480469 147.855469 37.675781 L 147.855469 50.882812 C 147.855469 51.078125 147.890625 51.265625 147.96875 51.445312 C 148.042969 51.625 148.148438 51.785156 148.285156 51.921875 C 148.421875 52.058594 148.582031 52.164062 148.761719 52.238281 C 148.941406 52.3125 149.128906 52.351562 149.320312 52.351562 L 162.53125 52.351562 C 162.726562 52.351562 162.914062 52.316406 163.09375 52.238281 C 163.273438 52.164062 163.429688 52.058594 163.570312 51.921875 C 163.707031 51.785156 163.8125 51.625 163.886719 51.445312 C 163.960938 51.265625 164 51.078125 164 50.882812 L 164 37.675781 C 164 37.480469 163.960938 37.292969 163.886719 37.113281 C 163.8125 36.933594 163.707031 36.777344 163.566406 36.636719 C 163.429688 36.5 163.273438 36.394531 163.09375 36.320312 C 162.914062 36.246094 162.726562 36.207031 162.53125 36.207031 Z M 149.320312 36.207031 " fill-opacity="1" fill-rule="nonzero"/></g></g></g><g clip-path="url(#3e5671fb36)"><g clip-path="url(#cbe757cb79)"><g clip-path="url(#0a3a032dd1)"><path stroke-linecap="butt" transform="matrix(0.7425, 0, 0, 0.7425, 147.38913, 35.742299)" fill="none" stroke-linejoin="miter" d="M 0.00201344 6.996905 L 0.00201344 16.035205 C 0.00201344 19.896738 3.132275 23.03226 6.999068 23.03226 L 16.032108 23.03226 C 19.898901 23.03226 23.029162 19.896738 23.029162 16.035205 L 23.029162 6.996905 C 23.029162 5.139792 22.29263 3.361593 20.982655 2.051618 C 19.667419 0.736382 17.889221 -0.000149832 16.032108 -0.000149832 L 6.999068 -0.000149832 C 3.132275 -0.000149832 0.00201344 3.135372 0.00201344 6.996905 Z M 0.00201344 6.996905 " stroke="#000000" stroke-width="4" stroke-opacity="1" stroke-miterlimit="4"/></g></g></g><g clip-path="url(#37131ed48c)"><path fill="#0d3b36" d="M 142.4375 30.492188 L 167.671875 30.492188 L 167.671875 31.234375 L 142.4375 31.234375 Z M 142.4375 30.492188 " fill-opacity="1" fill-rule="nonzero"/></g><g fill="#0d3b36" fill-opacity="1"><g transform="translate(142.437932, 29.750139)"><g><path d="M 1.171875 -8.3125 L 4.0625 -8.3125 C 4.707031 -8.3125 5.300781 -8.207031 5.84375 -8 C 6.382812 -7.789062 6.851562 -7.5 7.25 -7.125 C 7.644531 -6.75 7.945312 -6.3125 8.15625 -5.8125 C 8.375 -5.3125 8.484375 -4.769531 8.484375 -4.1875 L 8.484375 -4.15625 C 8.484375 -3.570312 8.375 -3.023438 8.15625 -2.515625 C 7.945312 -2.003906 7.644531 -1.5625 7.25 -1.1875 C 6.851562 -0.820312 6.382812 -0.53125 5.84375 -0.3125 C 5.300781 -0.101562 4.707031 0 4.0625 0 L 1.171875 0 Z M 2.109375 -7.453125 L 2.109375 -0.859375 L 4.0625 -0.859375 C 4.582031 -0.859375 5.054688 -0.941406 5.484375 -1.109375 C 5.910156 -1.273438 6.269531 -1.503906 6.5625 -1.796875 C 6.863281 -2.097656 7.09375 -2.445312 7.25 -2.84375 C 7.414062 -3.238281 7.5 -3.664062 7.5 -4.125 L 7.5 -4.15625 C 7.5 -4.613281 7.414062 -5.039062 7.25 -5.4375 C 7.09375 -5.84375 6.863281 -6.191406 6.5625 -6.484375 C 6.269531 -6.785156 5.910156 -7.019531 5.484375 -7.1875 C 5.054688 -7.363281 4.582031 -7.453125 4.0625 -7.453125 Z M 2.109375 -7.453125 "/></g></g></g><g fill="#0d3b36" fill-opacity="1"><g transform="translate(149.969872, 29.750139)"><g><path d="M 2.84375 0.125 C 2.5625 0.125 2.285156 0.0820312 2.015625 0 C 1.742188 -0.0703125 1.5 -0.1875 1.28125 -0.34375 C 1.0625 -0.507812 0.882812 -0.710938 0.75 -0.953125 C 0.625 -1.191406 0.5625 -1.46875 0.5625 -1.78125 L 0.5625 -1.8125 C 0.5625 -2.132812 0.625 -2.414062 0.75 -2.65625 C 0.875 -2.90625 1.050781 -3.113281 1.28125 -3.28125 C 1.519531 -3.445312 1.796875 -3.570312 2.109375 -3.65625 C 2.429688 -3.738281 2.789062 -3.78125 3.1875 -3.78125 C 3.582031 -3.78125 3.925781 -3.753906 4.21875 -3.703125 C 4.507812 -3.660156 4.796875 -3.601562 5.078125 -3.53125 L 5.078125 -3.734375 C 5.078125 -4.296875 4.914062 -4.71875 4.59375 -5 C 4.269531 -5.28125 3.816406 -5.421875 3.234375 -5.421875 C 2.878906 -5.421875 2.550781 -5.378906 2.25 -5.296875 C 1.957031 -5.210938 1.664062 -5.101562 1.375 -4.96875 L 1.109375 -5.71875 C 1.441406 -5.875 1.78125 -5.992188 2.125 -6.078125 C 2.476562 -6.171875 2.882812 -6.21875 3.34375 -6.21875 C 4.207031 -6.21875 4.863281 -5.992188 5.3125 -5.546875 C 5.738281 -5.128906 5.953125 -4.53125 5.953125 -3.75 L 5.953125 0 L 5.078125 0 L 5.078125 -0.921875 C 4.859375 -0.648438 4.566406 -0.40625 4.203125 -0.1875 C 3.847656 0.0195312 3.394531 0.125 2.84375 0.125 Z M 3.03125 -0.59375 C 3.3125 -0.59375 3.578125 -0.632812 3.828125 -0.71875 C 4.078125 -0.800781 4.296875 -0.914062 4.484375 -1.0625 C 4.671875 -1.207031 4.816406 -1.378906 4.921875 -1.578125 C 5.023438 -1.785156 5.078125 -2.007812 5.078125 -2.25 L 5.078125 -2.84375 C 4.847656 -2.90625 4.582031 -2.960938 4.28125 -3.015625 C 3.988281 -3.078125 3.65625 -3.109375 3.28125 -3.109375 C 2.695312 -3.109375 2.25 -2.992188 1.9375 -2.765625 C 1.632812 -2.535156 1.484375 -2.226562 1.484375 -1.84375 L 1.484375 -1.8125 C 1.484375 -1.625 1.523438 -1.453125 1.609375 -1.296875 C 1.691406 -1.140625 1.800781 -1.007812 1.9375 -0.90625 C 2.082031 -0.8125 2.25 -0.734375 2.4375 -0.671875 C 2.625 -0.617188 2.820312 -0.59375 3.03125 -0.59375 Z M 3.03125 -0.59375 "/></g></g></g><g fill="#0d3b36" fill-opacity="1"><g transform="translate(155.090171, 29.750139)"><g><path d="M 5.609375 -6.140625 L 6.59375 -6.140625 L 4.015625 0.203125 C 3.753906 0.835938 3.460938 1.285156 3.140625 1.546875 C 2.816406 1.804688 2.425781 1.9375 1.96875 1.9375 C 1.71875 1.9375 1.488281 1.910156 1.28125 1.859375 C 1.070312 1.804688 0.867188 1.726562 0.671875 1.625 L 0.96875 0.90625 C 1.125 0.976562 1.273438 1.03125 1.421875 1.0625 C 1.566406 1.101562 1.738281 1.125 1.9375 1.125 C 2.207031 1.125 2.4375 1.039062 2.625 0.875 C 2.820312 0.707031 3.007812 0.40625 3.1875 -0.03125 L 0.40625 -6.140625 L 1.40625 -6.140625 L 3.640625 -1.015625 Z M 5.609375 -6.140625 "/></g></g></g><g fill="#0d3b36" fill-opacity="1"><g transform="translate(160.353031, 29.750139)"><g/></g></g><g fill="#0d3b36" fill-opacity="1"><g transform="translate(162.158796, 29.750139)"><g><path d="M 3.59375 0.140625 C 3 0.140625 2.453125 0.015625 1.953125 -0.234375 C 1.453125 -0.484375 1.007812 -0.796875 0.625 -1.171875 L 1.25 -1.859375 C 1.613281 -1.492188 1.988281 -1.210938 2.375 -1.015625 C 2.769531 -0.816406 3.179688 -0.71875 3.609375 -0.71875 C 3.898438 -0.71875 4.171875 -0.757812 4.421875 -0.84375 C 4.671875 -0.9375 4.878906 -1.066406 5.046875 -1.234375 C 5.222656 -1.398438 5.359375 -1.59375 5.453125 -1.8125 C 5.554688 -2.039062 5.609375 -2.285156 5.609375 -2.546875 L 5.609375 -2.578125 C 5.609375 -2.835938 5.554688 -3.070312 5.453125 -3.28125 C 5.359375 -3.5 5.21875 -3.6875 5.03125 -3.84375 C 4.851562 -4 4.632812 -4.117188 4.375 -4.203125 C 4.125 -4.285156 3.847656 -4.328125 3.546875 -4.328125 C 3.191406 -4.328125 2.875 -4.28125 2.59375 -4.1875 C 2.3125 -4.09375 2.050781 -3.976562 1.8125 -3.84375 L 1.171875 -4.265625 L 1.40625 -8.3125 L 6.203125 -8.3125 L 6.203125 -7.453125 L 2.234375 -7.453125 L 2.046875 -4.78125 C 2.296875 -4.894531 2.546875 -4.984375 2.796875 -5.046875 C 3.046875 -5.117188 3.34375 -5.15625 3.6875 -5.15625 C 4.09375 -5.15625 4.46875 -5.097656 4.8125 -4.984375 C 5.164062 -4.867188 5.472656 -4.695312 5.734375 -4.46875 C 5.992188 -4.25 6.195312 -3.984375 6.34375 -3.671875 C 6.488281 -3.359375 6.5625 -3.003906 6.5625 -2.609375 L 6.5625 -2.59375 C 6.5625 -2.1875 6.488281 -1.8125 6.34375 -1.46875 C 6.195312 -1.132812 5.992188 -0.847656 5.734375 -0.609375 C 5.472656 -0.367188 5.160156 -0.179688 4.796875 -0.046875 C 4.429688 0.078125 4.03125 0.140625 3.59375 0.140625 Z M 3.59375 0.140625 "/></g></g></g><g clip-path="url(#36e13636fa)"><g clip-path="url(#9f87c1a6eb)"><g clip-path="url(#f8453e3ccb)"><path fill="#231f20" d="M 162.53125 72.894531 L 149.320312 72.894531 C 149.066406 72.894531 148.820312 72.84375 148.582031 72.746094 C 148.34375 72.648438 148.136719 72.507812 147.953125 72.324219 C 147.773438 72.144531 147.632812 71.933594 147.535156 71.699219 C 147.4375 71.460938 147.386719 71.214844 147.386719 70.957031 L 147.386719 57.75 C 147.386719 57.492188 147.4375 57.246094 147.535156 57.007812 C 147.632812 56.773438 147.773438 56.5625 147.957031 56.382812 C 148.136719 56.203125 148.34375 56.0625 148.582031 55.964844 C 148.820312 55.863281 149.066406 55.816406 149.320312 55.816406 L 162.53125 55.816406 C 162.789062 55.816406 163.035156 55.863281 163.269531 55.964844 C 163.507812 56.0625 163.714844 56.199219 163.898438 56.382812 C 164.078125 56.5625 164.21875 56.773438 164.316406 57.007812 C 164.414062 57.246094 164.464844 57.492188 164.464844 57.75 L 164.464844 70.957031 C 164.464844 71.214844 164.417969 71.460938 164.316406 71.699219 C 164.21875 71.933594 164.078125 72.144531 163.898438 72.324219 C 163.71875 72.507812 163.507812 72.648438 163.269531 72.746094 C 163.035156 72.84375 162.789062 72.894531 162.53125 72.894531 Z M 149.320312 56.28125 C 149.128906 56.28125 148.941406 56.320312 148.761719 56.394531 C 148.582031 56.46875 148.421875 56.574219 148.285156 56.710938 C 148.148438 56.851562 148.042969 57.007812 147.96875 57.1875 C 147.890625 57.367188 147.855469 57.554688 147.855469 57.75 L 147.855469 70.957031 C 147.855469 71.152344 147.890625 71.339844 147.96875 71.519531 C 148.042969 71.699219 148.148438 71.859375 148.285156 71.996094 C 148.421875 72.132812 148.582031 72.238281 148.761719 72.3125 C 148.941406 72.386719 149.128906 72.425781 149.320312 72.425781 L 162.53125 72.425781 C 162.726562 72.425781 162.914062 72.390625 163.09375 72.3125 C 163.273438 72.238281 163.429688 72.132812 163.570312 71.996094 C 163.707031 71.859375 163.8125 71.699219 163.886719 71.519531 C 163.960938 71.339844 164 71.152344 164 70.957031 L 164 57.75 C 164 57.554688 163.960938 57.367188 163.886719 57.1875 C 163.8125 57.007812 163.707031 56.851562 163.566406 56.710938 C 163.429688 56.574219 163.273438 56.46875 163.09375 56.394531 C 162.914062 56.320312 162.726562 56.28125 162.53125 56.28125 Z M 149.320312 56.28125 " fill-opacity="1" fill-rule="nonzero"/></g></g></g><g clip-path="url(#4c1758efc3)"><g clip-path="url(#b2e09c3d08)"><g clip-path="url(#614dd6a06e)"><path stroke-linecap="butt" transform="matrix(0.7425, 0, 0, 0.7425, 147.38913, 55.816567)" fill="none" stroke-linejoin="miter" d="M 0.00201344 6.996839 L 0.00201344 16.035139 C 0.00201344 19.896672 3.132275 23.032194 6.999068 23.032194 L 16.032108 23.032194 C 19.898901 23.032194 23.029162 19.896672 23.029162 16.035139 L 23.029162 6.996839 C 23.029162 5.144987 22.29263 3.361527 20.982655 2.051552 C 19.667419 0.736316 17.889221 -0.00021584 16.032108 -0.00021584 L 6.999068 -0.00021584 C 3.132275 -0.00021584 0.00201344 3.135306 0.00201344 6.996839 Z M 0.00201344 6.996839 " stroke="#000000" stroke-width="4" stroke-opacity="1" stroke-miterlimit="4"/></g></g></g></svg>