<svg xmlns="http://www.w3.org/2000/svg" viewBox="0 0 500 500" role="img" aria-labelledby="title desc">
  <title id="title">Pink piggy bank receiving gold coins</title>
  <desc id="desc">A cheerful pink piggy bank with golden coins dropping into its slot.</desc>
  <defs>
    <linearGradient id="pigBody" x1="0%" y1="0%" x2="100%" y2="100%">
      <stop offset="0%" stop-color="#ffd4e5" />
      <stop offset="100%" stop-color="#f38ac4" />
    </linearGradient>
    <linearGradient id="pigBelly" x1="0%" y1="0%" x2="0%" y2="100%">
      <stop offset="0%" stop-color="#ffb6db" />
      <stop offset="100%" stop-color="#ff8fca" />
    </linearGradient>
    <linearGradient id="coin" x1="0%" y1="0%" x2="100%" y2="100%">
      <stop offset="0%" stop-color="#ffe066" />
      <stop offset="50%" stop-color="#f6c53b" />
      <stop offset="100%" stop-color="#d49f1e" />
    </linearGradient>
    <radialGradient id="eyeShine" cx="30%" cy="30%" r="70%">
      <stop offset="0%" stop-color="#ffffff" stop-opacity="0.8" />
      <stop offset="100%" stop-color="#1b1b1b" />
    </radialGradient>
    <filter id="shadow" x="-50%" y="-50%" width="200%" height="200%">
      <feDropShadow dx="0" dy="8" stdDeviation="6" flood-color="#f1a5c7" flood-opacity="0.35" />
    </filter>
    <filter id="coinGlow" x="-50%" y="-50%" width="200%" height="200%">
      <feDropShadow dx="0" dy="4" stdDeviation="4" flood-color="#f4c542" flood-opacity="0.6" />
    </filter>
  </defs>
  <g transform="translate(20 30)">
    <ellipse cx="230" cy="360" rx="180" ry="28" fill="#e4b5c8" opacity="0.35" />
    <g filter="url(#shadow)">
      <path d="M368 182c30 9 56 45 56 79 0 28-17 48-45 60-4 18-14 35-28 49-22 22-57 35-89 35h-8c-31-1-63-10-89-29-27 15-50 13-66-8-15-18-13-42-4-60-22-21-31-45-29-71 4-52 56-96 122-101 39-3 77 7 108 27a103 103 0 0 1 72-14z" fill="url(#pigBody)" />
      <path d="M94 248c10 29 37 51 74 62 43 13 94 7 129-12 12-6 23-14 31-23 7 35-6 70-35 95-25 21-59 32-95 30-53-4-94-37-104-84-4-19-3-43 0-68z" fill="url(#pigBelly)" opacity="0.65" />
      <path d="M168 177c1-25 18-49 39-58 28-12 64 6 81 33l-10 8c-12-19-39-30-58-22-15 7-27 25-28 44l-24-5z" fill="#f8a4cd" />
      <path d="M336 176c17-12 43-14 64-5 15 6 28 18 36 33l-20 10c-9-16-27-26-45-24-9 1-18 5-26 11l-9-25z" fill="#f8a4cd" />
      <path d="M165 212c-16-21-43-34-74-33-18 1-36 9-49 22l14 13c9-8 22-14 35-15 23-1 44 11 55 29l19-16z" fill="#f8a4cd" />
      <path d="M116 334c-7 18 5 36 22 40 15 4 33-4 41-19l-63-21z" fill="#f27bba" />
      <path d="M335 339c-6 16 4 32 20 36 15 4 31-5 37-20l-57-16z" fill="#f27bba" />
      <path d="M356 221c13-8 27-12 41-12 19 0 37 8 52 20l-16 17c-11-9-24-14-37-14-11 0-22 3-32 9l-8-20z" fill="#f8a4cd" />
      <path d="M313 247c8-5 20-8 32-7 16 2 30 9 40 20l-15 17c-7-8-18-13-29-14-7 0-14 1-20 4l-8-20z" fill="#f27bba" opacity="0.85" />
      <path d="M142 310c-3 17 8 33 24 36 17 3 34-8 37-26l-61-10z" fill="#f27bba" opacity="0.85" />
      <ellipse cx="348" cy="216" rx="36" ry="18" fill="#f47fbc" />
      <rect x="258" y="160" width="88" height="16" rx="8" fill="#2f2d52" />
      <ellipse cx="229" cy="240" rx="48" ry="36" fill="#fca3c9" />
      <ellipse cx="248" cy="240" rx="32" ry="24" fill="#fdd1e8" />
      <circle cx="182" cy="240" r="10" fill="#c2538d" />
      <circle cx="211" cy="240" r="10" fill="#c2538d" />
      <ellipse cx="296" cy="236" rx="18" ry="20" fill="url(#eyeShine)" />
      <circle cx="291" cy="229" r="4" fill="#ffffff" />
      <path d="M112 198c-18-35-52-39-74-23 13-27 47-38 75-29 25 8 39 27 44 52l-45 0z" fill="#f9bad8" />
      <path d="M82 309c-16 0-30 11-33 27-3 16 8 32 24 36 18 4 37-9 39-28l-30-35z" fill="#f27bba" />
      <path d="M376 314c18 4 31 21 29 39-1 15-12 28-27 31-19 3-35-12-33-32l31-38z" fill="#f27bba" />
      <path d="M58 244c-14-11-34-9-45 4 3-19 21-32 41-30 16 1 30 12 35 26l-31 0z" fill="#f9bad8" />
      <path d="M360 308c10-10 26-17 40-15 14 2 27 12 34 26l-16 12c-6-11-16-17-27-19-10-1-22 3-31 11l-10-15z" fill="#f37eb9" />
      <path d="M94 305c-12-11-30-15-45-10-16 5-29 19-32 37 16-10 35-11 50-3l27-24z" fill="#f37eb9" />
      <path d="M116 211c-9-14-27-20-43-15-13 4-24 15-27 28 12-9 27-10 40-4l30-9z" fill="#f799c9" />
      <path d="M361 170c-7-12-21-19-36-17-12 2-24 9-31 19 12-7 26-7 38-1 9 5 16 13 19 22l10-23z" fill="#f799c9" />
      <path d="M377 176c12-12 30-16 46-10 14 5 24 16 29 29-11-9-25-12-38-8-10 3-18 9-24 17l-13-28z" fill="#f799c9" />
      <path d="M122 178c4-19 19-35 37-41 17-6 36-2 49 9-16-3-33 2-45 13-10 9-17 22-19 35l-22-16z" fill="#f799c9" />
      <path d="M90 339c-10 10-11 27-3 39 9 13 28 17 41 9 14-9 18-28 9-42l-47-6z" fill="#f37eb9" opacity="0.7" />
      <path d="M344 337c-10 12-8 31 5 41 12 10 31 9 42-4 10-12 9-31-4-41l-43 4z" fill="#f37eb9" opacity="0.7" />
      <path d="M410 239c16 1 29 13 32 29 3 16-5 31-19 38-16 7-33-1-40-16l27-51z" fill="#f47fbc" opacity="0.7" />
      <path d="M104 223c-19 5-30 23-26 42 4 19 22 31 42 27l-16-69z" fill="#f47fbc" opacity="0.7" />
      <path d="M322 308c-24 20-57 30-94 28-29-1-56-9-80-24 8 20 26 37 48 46 33 15 72 14 105-2 30-15 51-42 58-74l-37 26z" fill="#f47fbc" opacity="0.55" />
      <path d="M386 198c-6-7-16-11-25-11-11 0-22 5-28 13l11 9c4-5 10-7 17-7 7 1 13 5 16 11l9-15z" fill="#fdd1e8" />
      <path d="M112 181c-7-6-17-9-26-7-10 2-18 9-22 18 8-4 17-5 25-2 6 2 12 6 15 11l8-20z" fill="#fdd1e8" />
      <path d="M315 265c6 5 10 12 10 20 0 16-14 28-33 28-14 0-26-8-31-20 6 5 14 8 22 8 11 0 20-5 25-12 3-5 5-11 7-16z" fill="#c85692" />
      <path d="M254 296c-6 4-14 6-22 6-11 0-20-4-27-11 10 3 21 1 30-4 6-4 11-9 15-15l4 24z" fill="#c85692" opacity="0.8" />
      <path d="M196 278c-8 2-16 1-22-3-8-6-12-16-9-26 2 8 7 14 13 17 6 2 12 2 18-1l0 13z" fill="#c85692" opacity="0.7" />
      <path d="M322 212c-5-6-13-10-21-10-10 1-18 8-21 17 5-4 11-5 17-5 8 1 14 5 17 10l8-12z" fill="#fdd1e8" />
    </g>
    <g filter="url(#coinGlow)">
      <path d="M288 96c0-18 14-32 32-32s32 14 32 32-14 32-32 32-32-14-32-32z" fill="url(#coin)" />
      <path d="M308 40c0-18 14-32 32-32s32 14 32 32-14 32-32 32-32-14-32-32z" fill="url(#coin)" opacity="0.85" />
      <path d="M336 140c0-18 14-32 32-32s32 14 32 32-14 32-32 32-32-14-32-32z" fill="url(#coin)" opacity="0.9" />
      <rect x="304" y="116" width="88" height="18" rx="9" fill="#f7d352" opacity="0.3" />
      <path d="M320 44l36 0c3 0 6 2 6 5l0 26c0 3-3 5-6 5l-36 0c-3 0-6-2-6-5l0-26c0-3 3-5 6-5z" fill="#f9e17a" opacity="0.6" />
    </g>
    <path d="M304 128c6 0 12 5 12 12 0 6-6 12-12 12-7 0-12-6-12-12 0-7 5-12 12-12z" fill="#fff1a8" opacity="0.8" />
    <path d="M332 76c6 0 12 6 12 12 0 7-6 12-12 12-7 0-12-5-12-12 0-6 5-12 12-12z" fill="#fff1a8" opacity="0.7" />
  </g>
</svg>
