<svg xmlns="http://www.w3.org/2000/svg" xmlns:xlink="http://www.w3.org/1999/xlink" width="500" zoomAndPan="magnify" viewBox="0 0 375 374.999991" height="500" preserveAspectRatio="xMidYMid meet" version="1.0"><metadata><ContainsAiGeneratedContent>Yes</ContainsAiGeneratedContent></metadata><rect x="-37.5" width="450" fill="#ffffff" y="-37.499999" height="449.999989" fill-opacity="1"/><rect x="-37.5" width="450" fill="#ffffff" y="-37.499999" height="449.999989" fill-opacity="1"/><path fill="#000000" d="M 184.847656 41.097656 C 182.214844 42.164062 182.105469 42.820312 181.933594 58.523438 L 181.765625 73.644531 L 173.386719 74.707031 C 159.835938 76.429688 149.035156 79.640625 137.070312 85.507812 C 103.011719 102.210938 79.132812 135.808594 75.335938 172.375 C 74.914062 176.46875 74.46875 180.148438 74.351562 180.546875 C 74.199219 181.066406 69.933594 181.332031 59.265625 181.476562 C 45.679688 181.664062 44.28125 181.785156 43.089844 182.863281 C 41.09375 184.667969 41.339844 187.667969 43.585938 188.996094 C 45.144531 189.917969 47.277344 190.058594 59.378906 190.058594 C 68.3125 190.058594 73.511719 190.292969 73.765625 190.699219 C 73.980469 191.050781 74.675781 194.890625 75.304688 199.234375 C 77.554688 214.738281 80.917969 225.390625 87.644531 238.328125 C 95.898438 254.210938 108.9375 268.683594 123.867188 278.535156 C 127.191406 280.726562 130.058594 282.523438 130.242188 282.523438 C 130.425781 282.523438 131.71875 283.242188 133.109375 284.121094 C 136.371094 286.179688 144.253906 289.539062 151.347656 291.890625 C 158.789062 294.363281 166.777344 295.980469 174.207031 296.527344 C 178.148438 296.8125 180.617188 297.285156 181.191406 297.859375 C 181.910156 298.578125 182.078125 301.542969 182.078125 313.558594 C 182.078125 328.164062 182.097656 328.386719 183.457031 329.339844 C 185.574219 330.820312 188 330.550781 189.480469 328.667969 C 190.699219 327.125 190.769531 326.253906 190.777344 312.691406 C 190.78125 304.800781 190.992188 298.035156 191.242188 297.65625 C 191.492188 297.277344 194.074219 296.773438 196.976562 296.539062 C 218.992188 294.75 238.816406 286.554688 257.433594 271.546875 C 262.589844 267.386719 270.808594 258.808594 275.445312 252.734375 C 282.335938 243.722656 291.101562 225.847656 293.714844 215.503906 C 295.746094 207.449219 296.835938 201.632812 297.191406 196.921875 C 297.410156 194.039062 297.890625 191.316406 298.261719 190.871094 C 298.777344 190.246094 302.1875 190.058594 312.980469 190.058594 C 325.886719 190.054688 327.191406 189.957031 329.042969 188.824219 C 331.421875 187.378906 331.730469 185.144531 329.820312 183.234375 C 328.691406 182.109375 327.671875 181.984375 318.800781 181.890625 C 313.421875 181.832031 307.035156 181.859375 304.601562 181.953125 C 298.082031 182.199219 297.808594 181.933594 297.332031 175.042969 C 296.445312 162.242188 291.4375 145.351562 285.097656 133.757812 C 276.257812 117.605469 264.324219 104.386719 248.609375 93.347656 C 235.53125 84.160156 213.828125 76.171875 198.015625 74.730469 C 194.660156 74.425781 191.644531 73.902344 191.308594 73.566406 C 190.957031 73.210938 190.652344 66.835938 190.578125 58.230469 L 190.457031 43.503906 L 188.714844 42.003906 C 186.816406 40.371094 186.703125 40.347656 184.847656 41.097656 M 157.289062 59.152344 C 129.332031 66.292969 106.539062 80.03125 88.308594 100.734375 C 82.765625 107.03125 81.039062 109.332031 76.609375 116.371094 C 68.730469 128.878906 63.628906 140.644531 60.085938 154.460938 C 57.644531 163.984375 57.453125 166.417969 59.007812 168.21875 C 61.636719 171.253906 65.601562 169.710938 66.335938 165.367188 C 67.125 160.695312 70.523438 148.203125 71.859375 145.070312 C 72.296875 144.046875 73.316406 141.535156 74.128906 139.484375 C 78.296875 128.972656 82.390625 121.699219 89.347656 112.4375 C 98.398438 100.398438 106.609375 92.546875 117.660156 85.375 C 134.171875 74.660156 146.054688 69.773438 163.585938 66.488281 C 166.871094 65.875 170.28125 63.675781 170.28125 62.171875 C 170.28125 60.8125 168.742188 58.566406 167.390625 57.953125 C 165.425781 57.054688 165.5625 57.039062 157.289062 59.152344 M 204.199219 58.550781 C 200.972656 61.085938 202.742188 65.414062 207.324219 66.203125 C 213.675781 67.296875 222.890625 69.675781 227.082031 71.304688 C 232.40625 73.375 233.523438 73.882812 240.679688 77.457031 C 255.347656 84.796875 268.96875 95.472656 278.515625 107.117188 C 279.628906 108.472656 280.753906 109.816406 281.890625 111.152344 C 284.71875 114.441406 290.195312 123.109375 293.867188 130.121094 C 299.214844 140.339844 302.621094 150.066406 305.371094 162.972656 C 306.410156 167.867188 306.734375 168.570312 308.332031 169.394531 C 310.601562 170.570312 312.804688 169.707031 313.726562 167.289062 C 314.5625 165.085938 313.566406 159.117188 310.804688 149.800781 C 304.3125 127.882812 294.546875 111.453125 278.296875 95.097656 C 260.332031 77.015625 239.734375 65.453125 213.625 58.796875 C 206.351562 56.941406 206.246094 56.9375 204.199219 58.550781 M 173.074219 83.074219 C 158.140625 85.738281 153.410156 87.054688 144.210938 91.09375 C 118.152344 102.539062 97.964844 124.359375 88.988281 150.773438 C 86.207031 158.960938 85.433594 162.222656 84.007812 171.820312 C 83.070312 178.136719 82.925781 180.472656 83.453125 180.800781 C 84.433594 181.40625 93.359375 182.066406 98.386719 181.90625 C 103.359375 181.746094 104.480469 182.449219 104.480469 185.722656 C 104.480469 189.527344 103.042969 190.058594 92.785156 190.058594 C 85.964844 190.058594 83.988281 190.25 83.394531 190.96875 C 81.992188 192.65625 85.640625 211.492188 89.394531 221.953125 C 96.820312 242.644531 110.949219 260.605469 129 272.308594 C 137.507812 277.824219 146.671875 282.332031 152.246094 283.753906 C 153.460938 284.0625 156.828125 285 159.730469 285.84375 C 162.632812 286.683594 166.820312 287.554688 169.039062 287.78125 C 171.261719 288.003906 174.703125 288.464844 176.695312 288.804688 C 182.0625 289.71875 182.078125 289.695312 182.078125 278.722656 C 182.078125 270.316406 182.1875 269.378906 183.320312 268.25 C 185.296875 266.273438 188.0625 266.617188 189.53125 269.023438 C 190.601562 270.773438 190.761719 272.164062 190.765625 279.5 C 190.769531 288.425781 191.207031 289.867188 193.6875 289.109375 C 194.300781 288.921875 197.457031 288.453125 200.699219 288.066406 C 211.492188 286.78125 222.15625 283.296875 235.0625 276.84375 C 250.609375 269.070312 265.023438 255.328125 274.683594 239.082031 C 282.054688 226.679688 287.480469 209.761719 288.535156 195.878906 C 288.867188 191.558594 288.777344 190.785156 287.902344 190.449219 C 287.34375 190.234375 283.199219 190.058594 278.695312 190.058594 C 270.070312 190.058594 268.246094 189.570312 267.589844 187.0625 C 267.070312 185.078125 268.738281 181.996094 270.351562 181.964844 C 282.699219 181.738281 287.507812 181.507812 288.144531 181.113281 C 289.210938 180.457031 288.519531 170.347656 286.910156 163.066406 C 285.167969 155.171875 282.234375 146.726562 279.476562 141.65625 C 279.195312 141.144531 278.21875 139.199219 277.304688 137.328125 C 274.953125 132.515625 268.433594 122.773438 264.636719 118.386719 C 250.933594 102.570312 229.929688 89.632812 210.941406 85.316406 C 203.363281 83.59375 196.851562 82.511719 193.699219 82.445312 L 191.078125 82.394531 L 190.769531 92.105469 C 190.417969 103.046875 189.898438 104.425781 186.113281 104.425781 C 182.5 104.425781 182.078125 103.253906 182.066406 93.207031 C 182.0625 88.285156 181.851562 83.929688 181.597656 83.53125 C 180.804688 82.289062 178.234375 82.152344 173.074219 83.074219 M 124.097656 141.453125 C 120.09375 142.128906 114.878906 146.804688 112.816406 151.566406 C 111.109375 155.515625 111.109375 166.269531 112.816406 170.222656 C 116.460938 178.660156 125.351562 182.597656 134.488281 179.828125 C 137.136719 179.023438 137.703125 179.027344 139.269531 179.835938 C 141.757812 181.121094 143.253906 180.980469 145.226562 179.285156 L 146.933594 177.816406 L 145.160156 174.429688 L 143.382812 171.039062 L 144.574219 168.605469 C 145.226562 167.265625 146.042969 166.21875 146.382812 166.277344 C 146.722656 166.339844 147.328125 167.507812 147.726562 168.875 C 151.105469 180.460938 163.640625 184.46875 171.78125 176.566406 C 175.960938 172.511719 176.414062 170.640625 176.527344 156.972656 C 176.632812 144.523438 176.375 142.921875 174.035156 141.671875 C 172.3125 140.75 171.230469 140.882812 169.574219 142.222656 C 168.121094 143.398438 168.109375 143.511719 168.109375 156.089844 C 168.109375 169.984375 168.042969 170.265625 164.3125 171.824219 C 162.875 172.425781 161.789062 172.46875 160.074219 171.996094 C 156.449219 170.992188 156.007812 169.21875 155.984375 155.484375 C 155.960938 142.085938 155.746094 141.375 151.660156 141.375 C 150.3125 141.375 148.867188 141.71875 148.449219 142.136719 C 147.992188 142.59375 147.550781 145.550781 147.34375 149.519531 C 147.140625 153.492188 146.730469 156.230469 146.320312 156.367188 C 145.945312 156.492188 144.867188 154.835938 143.917969 152.691406 C 141.96875 148.273438 138.78125 144.597656 135.371094 142.835938 C 132.996094 141.609375 127.308594 140.914062 124.097656 141.453125 M 181.457031 141.488281 C 180.089844 142.007812 179.613281 142.964844 179.601562 145.21875 C 179.59375 146.914062 180.007812 147.484375 182.230469 148.878906 C 183.683594 149.789062 185.066406 150.832031 185.304688 151.203125 C 185.546875 151.570312 185.734375 156.132812 185.726562 161.335938 C 185.714844 170.699219 185.699219 170.8125 184.15625 172.027344 C 183.296875 172.703125 182.082031 173.417969 181.457031 173.617188 C 180.832031 173.8125 180.035156 174.792969 179.683594 175.792969 C 179.167969 177.269531 179.265625 177.875 180.199219 179.023438 C 181.292969 180.375 181.746094 180.441406 189.832031 180.441406 C 197.515625 180.441406 198.398438 180.328125 199.199219 179.238281 C 200.921875 176.878906 200.511719 176.003906 195.8125 171.972656 C 194.824219 171.128906 194.550781 169.75 194.195312 163.90625 C 193.957031 160.03125 194.003906 155.472656 194.296875 153.773438 C 194.757812 151.085938 195.164062 150.460938 197.453125 148.921875 C 199.542969 147.519531 200.078125 146.789062 200.078125 145.339844 C 200.078125 144.339844 199.519531 142.960938 198.835938 142.277344 C 197.726562 141.164062 196.804688 141.042969 189.992188 141.085938 C 185.808594 141.113281 181.96875 141.292969 181.457031 141.488281 M 212.546875 141.449219 C 210.582031 141.871094 206.792969 144.285156 204.0625 146.859375 C 201.042969 149.707031 198.214844 156.792969 198.214844 161.519531 C 198.214844 165.90625 201.023438 172.703125 203.941406 175.375 C 208.617188 179.664062 210.53125 180.445312 216.21875 180.394531 C 222.242188 180.339844 225.035156 179.246094 228.585938 175.546875 C 230.921875 173.117188 232.359375 173.367188 232.359375 176.203125 C 232.359375 178.3125 234.988281 180.753906 237.261719 180.753906 C 240 180.753906 241.050781 178.839844 241.050781 173.863281 C 241.050781 167.066406 242.386719 167.046875 248.648438 173.769531 C 254.640625 180.203125 255.308594 180.753906 257.113281 180.753906 C 259.257812 180.753906 260.914062 179.039062 260.914062 176.820312 C 260.914062 175.273438 256.402344 169.433594 250.847656 163.792969 C 247.527344 160.421875 247.742188 159.816406 254.660156 153.050781 C 259.882812 147.941406 260.917969 146.621094 260.914062 145.039062 C 260.914062 142.5 259.914062 141.65625 256.90625 141.65625 C 254.609375 141.65625 253.917969 142.097656 249.113281 146.625 C 242.421875 152.9375 241.484375 152.984375 241.050781 147.035156 C 240.8125 143.792969 240.457031 142.589844 239.535156 141.917969 C 237.738281 140.605469 235.59375 140.847656 233.882812 142.558594 C 232.140625 144.300781 232.148438 144.246094 232.347656 159.148438 C 232.464844 167.859375 232.324219 169.730469 231.476562 170.9375 C 230.5 172.324219 230.457031 172.332031 230.128906 171.132812 C 229.632812 169.320312 226.949219 167.539062 225.335938 167.957031 C 224.589844 168.152344 223.171875 169.007812 222.191406 169.863281 C 218.785156 172.820312 212.691406 172.769531 210.230469 169.757812 C 206.703125 165.445312 205.941406 160.289062 208.125 155.476562 C 210.210938 150.886719 211.410156 150.035156 215.789062 150.039062 C 218.976562 150.042969 220.046875 150.335938 222.046875 151.746094 C 225.875 154.445312 228.753906 153.769531 229.53125 149.992188 C 230.035156 147.5625 228.453125 145.460938 224.449219 143.222656 C 221.503906 141.574219 215.882812 140.738281 212.546875 141.449219 M 124.34375 150.160156 C 123.832031 150.347656 122.804688 151.183594 122.0625 152.019531 C 119.660156 154.71875 119.351562 165.964844 121.585938 169.402344 C 122.84375 171.332031 127.1875 172.589844 128.40625 171.375 C 129.132812 170.648438 129.167969 170.109375 128.597656 168.59375 C 128.007812 167.03125 128.070312 166.433594 128.980469 165.046875 C 129.875 163.683594 130.546875 163.375 132.640625 163.367188 C 136.75 163.351562 137.070312 162.902344 136.296875 158.21875 C 135.542969 153.679688 134.140625 151.117188 131.957031 150.289062 C 130.359375 149.683594 125.867188 149.605469 124.34375 150.160156 M 131.328125 191.097656 C 130.371094 191.765625 129.933594 192.703125 129.933594 194.074219 C 129.933594 197.164062 131.589844 198.210938 137.199219 198.664062 L 142.039062 199.058594 L 142.203125 213.097656 C 142.367188 227.003906 142.386719 227.152344 143.882812 228.765625 C 145.871094 230.914062 148.195312 230.898438 149.621094 228.730469 C 150.554688 227.304688 150.757812 225.027344 151.03125 213.058594 L 151.347656 199.058594 L 153.832031 198.902344 C 159.105469 198.574219 161.519531 198.023438 162.875 196.847656 C 164.363281 195.558594 166.054688 195.703125 167.847656 197.269531 C 168.386719 197.742188 169.238281 198.128906 169.742188 198.128906 C 171.882812 198.128906 172.144531 199.460938 172.144531 210.300781 L 172.144531 220.984375 L 169.820312 222.121094 C 167.28125 223.367188 165.902344 225.476562 166.398438 227.371094 C 166.988281 229.621094 169.726562 230.394531 177.109375 230.394531 C 183.640625 230.394531 184.078125 230.316406 185.558594 228.832031 C 187.839844 226.554688 187.378906 224.398438 184.253906 222.726562 C 182.890625 221.996094 181.5625 221.117188 181.304688 220.777344 C 181.050781 220.4375 180.90625 215.433594 180.992188 209.664062 L 181.144531 199.167969 L 183.039062 198.492188 C 184.082031 198.121094 185.808594 197.183594 186.875 196.410156 C 188.183594 195.460938 188.957031 195.226562 189.242188 195.691406 C 189.476562 196.066406 189.625 203.28125 189.570312 211.71875 C 189.476562 226.476562 189.523438 227.121094 190.785156 228.726562 C 192.703125 231.164062 195.375 231.015625 196.980469 228.378906 C 197.921875 226.839844 198.210938 225.253906 198.214844 221.671875 C 198.214844 218.855469 198.527344 216.589844 198.992188 216.007812 C 199.480469 215.394531 201.253906 214.886719 203.746094 214.644531 C 208.5 214.183594 211.015625 212.53125 213.566406 208.191406 C 215.875 204.265625 215.832031 200.6875 213.4375 196.886719 C 210.246094 191.828125 206.550781 190.144531 198.511719 190.09375 C 193.144531 190.0625 192.816406 190.140625 190.582031 191.980469 L 188.253906 193.898438 L 186.289062 191.980469 C 184.324219 190.0625 184.316406 190.058594 177.277344 190.058594 C 171.457031 190.058594 169.808594 190.277344 167.800781 191.300781 C 164.800781 192.832031 164.167969 192.832031 162.210938 191.300781 C 160.773438 190.175781 159.628906 190.089844 146.691406 190.105469 C 135.03125 190.121094 132.496094 190.285156 131.328125 191.097656 M 224.5 191.945312 C 219.394531 194.421875 217.84375 196.886719 217.800781 202.597656 C 217.773438 206.625 217.851562 206.835938 220.253906 209.320312 C 222.878906 212.035156 226.300781 213.890625 229.835938 214.519531 C 236.191406 215.648438 235.351562 221.707031 228.839844 221.707031 C 227.0625 221.707031 225.515625 221.328125 224.851562 220.726562 C 224.253906 220.183594 222.582031 219.582031 221.140625 219.390625 C 219.039062 219.109375 218.347656 219.265625 217.675781 220.179688 C 214.664062 224.300781 220.992188 230.394531 228.28125 230.394531 C 232.417969 230.394531 235.890625 228.75 239.613281 225.035156 C 245.5 219.160156 243 211.261719 233.917969 207.035156 C 232.207031 206.238281 230.195312 205.582031 229.445312 205.582031 C 228.125 205.574219 226.152344 203.511719 226.152344 202.140625 C 226.152344 201.769531 226.722656 200.851562 227.417969 200.105469 C 229.007812 198.398438 231.632812 198.355469 234.679688 199.988281 C 237.464844 201.480469 239.070312 201.550781 240.910156 200.265625 C 244.285156 197.902344 241.640625 193.261719 235.71875 191.144531 C 231.460938 189.621094 228.917969 189.804688 224.5 191.945312 M 200.699219 198.5625 C 196.976562 199.871094 197.699219 206.816406 201.554688 206.816406 C 202.144531 206.816406 203.449219 206.390625 204.457031 205.867188 C 205.925781 205.109375 206.285156 204.515625 206.285156 202.863281 C 206.285156 199.96875 203.28125 197.660156 200.699219 198.5625 M 59.160156 203.550781 C 57.457031 205.714844 57.726562 207.949219 61.34375 221.65625 C 62.75 227 69.570312 243.234375 72.832031 249.011719 C 86.5 273.230469 106.058594 291.34375 131.484375 303.339844 C 139.621094 307.179688 153.558594 311.847656 161.183594 313.289062 C 166.53125 314.300781 166.714844 314.296875 168.324219 313.101562 C 170.679688 311.347656 170.769531 309.105469 168.554688 307.242188 C 167.265625 306.160156 165.109375 305.425781 160.917969 304.648438 C 151.230469 302.851562 137.039062 297.804688 129.75 293.5625 C 128.113281 292.609375 126.617188 291.832031 126.425781 291.832031 C 126.238281 291.832031 123.246094 289.964844 119.78125 287.6875 C 105.894531 278.558594 94.519531 267.273438 84.980469 253.167969 C 76.84375 241.132812 71.289062 227.71875 67.84375 211.78125 C 66.089844 203.671875 65.113281 201.851562 62.527344 201.851562 C 61.054688 201.851562 60.128906 202.316406 59.160156 203.550781 M 307.261719 202.980469 C 306.703125 203.601562 305.964844 205.484375 305.625 207.167969 C 305.003906 210.246094 303.832031 215.289062 302.53125 220.46875 C 301.542969 224.417969 299.359375 230.597656 298.710938 231.296875 C 298.40625 231.621094 298.160156 232.292969 298.160156 232.789062 C 298.160156 233.285156 296.785156 236.414062 295.101562 239.738281 C 282.277344 265.0625 264.59375 282.554688 239.148438 295.074219 C 234.519531 297.355469 229.632812 299.496094 228.285156 299.832031 C 226.941406 300.171875 223.757812 301.160156 221.207031 302.035156 C 218.65625 302.90625 216.179688 303.621094 215.695312 303.621094 C 215.214844 303.621094 212.335938 304.203125 209.300781 304.917969 C 204.382812 306.070312 203.675781 306.414062 202.820312 308.066406 C 201.949219 309.75 201.953125 310.0625 202.867188 311.457031 C 203.421875 312.304688 204.3125 313.164062 204.847656 313.367188 C 207.777344 314.492188 226.011719 309.652344 237.035156 304.824219 C 248.839844 299.65625 260.597656 292.480469 270.507812 284.390625 C 277.546875 278.640625 289.503906 264.679688 295.484375 255.21875 C 298.554688 250.363281 304.988281 238.507812 304.988281 237.707031 C 304.988281 237.394531 305.820312 235.128906 306.835938 232.679688 C 309.078125 227.273438 312.644531 215.4375 313.699219 209.898438 C 314.378906 206.34375 314.347656 205.601562 313.441406 203.847656 C 312.589844 202.207031 312.039062 201.851562 310.347656 201.851562 C 309.140625 201.851562 307.859375 202.320312 307.261719 202.980469 " fill-opacity="1" fill-rule="evenodd"/></svg>