<svg xmlns="http://www.w3.org/2000/svg" xmlns:xlink="http://www.w3.org/1999/xlink" width="500" zoomAndPan="magnify" viewBox="0 0 375 374.999991" height="500" preserveAspectRatio="xMidYMid meet" version="1.0"><metadata><ContainsAiGeneratedContent>Yes</ContainsAiGeneratedContent></metadata><rect x="-37.5" width="450" fill="#ffffff" y="-37.499999" height="449.999989" fill-opacity="1"/><rect x="-37.5" width="450" fill="#ffffff" y="-37.499999" height="449.999989" fill-opacity="1"/><path fill="#000000" d="M 174.945312 61.640625 C 173.347656 62.285156 171.171875 63.410156 170.109375 64.144531 C 169.046875 64.878906 167.855469 65.476562 167.460938 65.476562 C 166.183594 65.476562 158.601562 74.21875 156.851562 77.707031 C 153.066406 85.261719 152.40625 88.472656 152.464844 99.046875 C 152.5 104.527344 152.886719 110.246094 153.328125 111.757812 C 156.601562 122.929688 157.742188 125.953125 160.28125 130.121094 C 161.863281 132.71875 164.253906 136.183594 165.597656 137.820312 C 167.027344 139.566406 168.039062 141.613281 168.039062 142.761719 C 168.039062 144.910156 166.375 148.539062 164.511719 150.460938 C 162.484375 152.542969 153.386719 158.054688 148.410156 160.214844 C 145.613281 161.429688 142.828125 162.664062 140.050781 163.914062 C 137.699219 164.976562 135.339844 166.019531 132.96875 167.042969 C 125.367188 170.3125 118.703125 175.691406 115.265625 181.328125 C 111.128906 188.109375 110.042969 191.839844 106.605469 211.105469 C 105.960938 214.699219 104.984375 219.765625 104.429688 222.363281 C 103.878906 224.960938 103.230469 228.554688 102.996094 230.351562 C 102.351562 235.261719 100.445312 245.449219 99.328125 249.964844 C 98.785156 252.160156 98.121094 256.425781 97.855469 259.4375 C 97.449219 264.085938 97.5625 265.074219 98.605469 265.941406 C 99.664062 266.820312 100.105469 266.8125 101.765625 265.882812 C 103.792969 264.75 104.617188 262.117188 106.265625 251.515625 C 106.664062 248.972656 107.183594 246.574219 107.421875 246.1875 C 107.660156 245.800781 108.285156 242.488281 108.804688 238.828125 C 109.328125 235.164062 110.464844 228.246094 111.332031 223.453125 C 112.199219 218.660156 113.195312 212.9375 113.546875 210.742188 C 116.308594 193.460938 117.570312 189.175781 121.523438 183.65625 C 125.785156 177.710938 129.894531 175.210938 147.320312 167.953125 C 161.8125 161.917969 169.820312 156.199219 173.019531 149.597656 C 173.917969 147.746094 175.054688 146.074219 175.546875 145.886719 C 176.039062 145.695312 178.347656 145.839844 180.679688 146.207031 C 183.394531 146.632812 186.371094 146.601562 188.953125 146.125 C 193.558594 145.273438 194.289062 145.625 196.386719 149.683594 C 197.777344 152.371094 202.167969 156.820312 206.574219 160.019531 C 209.21875 161.9375 221.960938 168.238281 227.65625 170.445312 C 241.347656 175.742188 248.011719 181.121094 251.195312 189.4375 C 252.242188 192.183594 253.105469 195.425781 253.105469 196.644531 C 253.105469 197.863281 253.566406 200.46875 254.132812 202.4375 C 254.699219 204.410156 255.367188 207.492188 255.617188 209.289062 C 255.871094 211.085938 256.527344 214.683594 257.074219 217.277344 C 257.625 219.875 258.621094 225.269531 259.285156 229.261719 C 259.953125 233.257812 260.9375 238.816406 261.476562 241.609375 C 262.335938 246.089844 263.1875 250.566406 264.03125 255.046875 C 265.734375 264.050781 266.875 266.667969 269.097656 266.667969 C 270.894531 266.667969 273.058594 263.472656 272.40625 261.78125 C 272.140625 261.082031 271.449219 257.566406 270.875 253.964844 C 270.300781 250.367188 269.152344 243.988281 268.320312 239.796875 C 267.460938 235.441406 266.625 231.085938 265.8125 226.722656 C 262.757812 210.035156 261.582031 203.472656 261.066406 200.210938 C 258.417969 183.519531 251.816406 174.53125 236.871094 167.257812 C 232.660156 165.207031 228.898438 163.53125 228.511719 163.53125 C 227.339844 163.53125 212.996094 156.253906 209.691406 153.984375 C 205.011719 150.769531 202.339844 147.558594 201.832031 144.550781 C 201.308594 141.472656 201.789062 140.371094 206.175781 134.574219 C 214.464844 123.617188 218.921875 105.042969 216.789062 90.332031 C 216.257812 86.65625 215.195312 83.507812 213.296875 79.980469 C 212.097656 77.75 210.898438 75.515625 209.707031 73.28125 C 208.1875 70.421875 202.121094 65.621094 196.675781 62.964844 C 191.753906 60.566406 190.9375 60.394531 184.625 60.429688 C 180.160156 60.457031 176.863281 60.867188 174.945312 61.640625 M 178.082031 67.953125 C 166.347656 71.335938 159.347656 82.625 159.34375 98.164062 C 159.34375 114.839844 165.738281 130.417969 175.304688 137.019531 C 178.03125 138.90625 179.203125 139.226562 183.972656 139.390625 C 191.15625 139.636719 194.675781 137.953125 199.550781 131.9375 C 206.285156 123.628906 210.148438 111.449219 210.261719 98.164062 C 210.359375 86.789062 206.894531 78.445312 199.621094 72.550781 C 197.273438 70.648438 194.199219 68.761719 192.785156 68.355469 C 188.390625 67.097656 181.6875 66.914062 178.082031 67.953125 M 80.917969 94.964844 C 78.796875 96.445312 79.097656 98.65625 81.683594 100.574219 C 85.980469 103.769531 89.636719 98.621094 85.421875 95.308594 C 83.121094 93.5 83.015625 93.492188 80.917969 94.964844 M 100.03125 95.585938 C 97.15625 98.457031 98.03125 101.792969 101.660156 101.792969 C 105.304688 101.792969 107.648438 96.847656 104.96875 94.816406 C 103.121094 93.414062 102.035156 93.582031 100.03125 95.585938 M 81.773438 113.753906 C 79.570312 115.300781 79.179688 117.613281 80.847656 119.28125 C 82.609375 121.039062 83.0625 121.027344 85.421875 119.171875 C 89.691406 115.820312 86.210938 110.652344 81.773438 113.753906 M 99.308594 113.707031 C 96.175781 115.996094 101.277344 121.828125 104.773438 119.960938 C 106.738281 118.910156 106.636719 116.214844 104.558594 114.269531 C 102.605469 112.433594 101.25 112.289062 99.308594 113.707031 M 254.375 116.382812 C 253.621094 116.820312 253.105469 117.984375 253.105469 119.242188 C 253.105469 120.882812 253.617188 121.632812 255.351562 122.527344 C 257.433594 123.601562 257.703125 123.597656 258.988281 122.433594 C 259.75 121.742188 260.375 120.640625 260.375 119.976562 C 260.375 117.175781 256.757812 115.007812 254.375 116.382812 M 273.644531 116.480469 C 271.445312 117.539062 271.179688 120.796875 273.128906 122.804688 C 274.480469 124.199219 277.53125 122.835938 278.675781 120.328125 C 279.367188 118.816406 279.28125 118.253906 278.191406 117.050781 C 276.71875 115.425781 276.015625 115.335938 273.644531 116.480469 M 254.308594 135.808594 C 252.625 137.664062 252.765625 140.785156 254.578125 141.75 C 256.53125 142.796875 260.375 140.203125 260.375 137.84375 C 260.375 134.546875 256.597656 133.277344 254.308594 135.808594 M 272.917969 134.945312 C 271.667969 135.46875 271.769531 139.914062 273.054688 140.980469 C 274.488281 142.167969 277.867188 141.65625 278.839844 140.101562 C 280.617188 137.265625 276.3125 133.515625 272.917969 134.945312 M 307.800781 197.34375 C 305.101562 199.230469 304.40625 201.199219 305.871094 202.8125 C 307.460938 204.570312 309.957031 204.597656 311.519531 202.878906 C 313.097656 201.132812 313.046875 198.914062 311.390625 197.417969 C 309.769531 195.949219 309.789062 195.949219 307.800781 197.34375 M 290.328125 197.8125 C 288.992188 199.148438 289.285156 200.882812 291.136719 202.625 C 293.347656 204.699219 295.113281 204.625 296.117188 202.417969 C 297.726562 198.894531 293.007812 195.140625 290.328125 197.8125 M 140.453125 201.261719 C 139.671875 202.039062 138.671875 204.082031 138.230469 205.800781 C 137.769531 207.574219 137.292969 209.34375 136.796875 211.105469 C 136.453125 212.304688 135.96875 214.59375 135.71875 216.191406 C 135.46875 217.789062 134.976562 219.914062 134.625 220.910156 C 133.898438 222.976562 132.457031 228.082031 130.21875 236.527344 C 129.371094 239.722656 127.734375 245.769531 126.578125 249.964844 C 123.207031 262.203125 122.734375 264.886719 123.65625 266.609375 C 124.558594 268.292969 127.453125 268.644531 128.605469 267.214844 C 129.007812 266.714844 130.527344 262.058594 131.980469 256.863281 C 133.433594 251.671875 135.085938 245.789062 135.648438 243.789062 C 136.210938 241.792969 137.222656 237.871094 137.890625 235.074219 C 139.929688 226.566406 140.519531 225.269531 142.332031 225.269531 C 143.707031 225.269531 144.046875 225.804688 144.539062 228.71875 C 145.441406 234.082031 145.117188 257.808594 144.082031 262.328125 C 140.925781 276.054688 138.3125 281.015625 134.914062 279.726562 C 131.507812 278.429688 110.445312 275.996094 102.605469 275.988281 C 93.296875 275.980469 89.28125 277.082031 82.75 281.414062 C 78.1875 284.445312 73.3125 291.710938 71.722656 297.847656 C 70.714844 301.730469 70.648438 303.3125 71.316406 307.289062 C 73.066406 317.683594 80.363281 327.507812 88.628906 330.597656 C 95.5625 333.1875 99.101562 333.492188 122.539062 333.492188 C 141.851562 333.492188 145.414062 333.324219 146.792969 332.359375 C 148.785156 330.96875 148.886719 328.710938 147.003906 327.707031 C 146.117188 327.230469 136.925781 326.953125 122.15625 326.953125 C 106.984375 326.953125 97.796875 326.667969 96.113281 326.144531 C 88.757812 323.855469 83.882812 320.121094 80.40625 314.117188 C 78.644531 311.070312 78.371094 309.804688 78.316406 304.425781 C 78.222656 295.445312 80.464844 290.757812 86.976562 286.324219 C 90.464844 283.953125 97.429688 281.921875 102.085938 281.921875 C 107.785156 281.921875 130.648438 285.339844 138.59375 287.375 C 140.59375 287.890625 143.539062 288.53125 145.136719 288.804688 C 146.738281 289.074219 149.519531 289.730469 151.320312 290.261719 C 158.972656 292.515625 162.847656 293.078125 164.015625 292.113281 C 166.8125 289.792969 164.121094 285.554688 159.859375 285.554688 C 158.734375 285.554688 156.761719 285.113281 155.476562 284.578125 C 154.1875 284.042969 151.914062 283.375 150.417969 283.09375 C 147.113281 282.476562 145.773438 280.492188 147.054688 278.109375 C 149.070312 274.359375 152.746094 253.363281 152.746094 245.605469 C 152.742188 239.253906 151.042969 222.4375 149.984375 218.308594 C 149.582031 216.746094 149.027344 213.699219 148.75 211.539062 C 147.941406 205.253906 145.210938 199.847656 142.84375 199.847656 C 142.308594 199.847656 141.230469 200.484375 140.453125 201.261719 M 223.933594 201.84375 C 222.039062 205.1875 218.578125 220.527344 217.828125 228.902344 C 217.179688 236.113281 217.359375 252.507812 218.164062 259.769531 C 218.820312 265.707031 219.824219 270.140625 221.53125 274.660156 C 222.058594 276.058594 222.6875 278.222656 222.929688 279.46875 C 223.421875 282 222.90625 282.398438 217.84375 283.441406 C 213.25 284.386719 206.648438 286.085938 201.121094 287.738281 C 198.320312 288.574219 194.757812 289.582031 193.199219 289.976562 C 188.492188 291.167969 177.367188 296.921875 173.367188 300.234375 C 164.621094 307.480469 159.042969 318.25 159.460938 327.074219 C 159.652344 331.101562 159.894531 331.75 161.496094 332.570312 C 162.941406 333.308594 174.796875 333.460938 218.933594 333.304688 C 274.300781 333.105469 274.570312 333.097656 278.789062 331.5 C 290.394531 327.109375 298.160156 316.234375 298.371094 304.074219 C 298.488281 297.414062 296.839844 292.695312 292.519531 287.34375 C 285.710938 278.898438 279.121094 276.113281 265.96875 276.113281 C 257.757812 276.113281 238.910156 278.296875 234.664062 279.742188 C 233.515625 280.132812 232.289062 280.273438 231.929688 280.050781 C 228.546875 277.960938 224.011719 257.402344 224.039062 244.246094 C 224.058594 232.070312 225.484375 224.542969 227.769531 224.542969 C 228.558594 224.542969 228.363281 223.964844 231.683594 236.164062 C 233.152344 241.558594 235.449219 249.726562 236.789062 254.320312 C 238.132812 258.914062 239.410156 263.570312 239.632812 264.664062 C 239.859375 265.753906 240.863281 267.1875 241.867188 267.84375 C 243.570312 268.960938 243.785156 268.953125 245.125 267.742188 C 245.914062 267.027344 246.5625 265.875 246.5625 265.183594 C 246.5625 263.828125 242.332031 247.136719 241.75 246.195312 C 241.558594 245.886719 240.9375 243.582031 240.371094 241.078125 C 239.246094 236.109375 238.445312 232.964844 234.953125 219.820312 C 233.675781 215.027344 232.136719 209.144531 231.527344 206.746094 C 230.914062 204.351562 229.90625 201.816406 229.289062 201.117188 C 227.601562 199.21875 225.238281 199.539062 223.933594 201.84375 M 290.601562 214.316406 C 289.105469 215.964844 289.324219 218.636719 291.042969 219.714844 C 292.707031 220.753906 295.898438 219.019531 296.464844 216.773438 C 297.335938 213.300781 293.121094 211.535156 290.601562 214.316406 M 305.945312 214.230469 C 304.847656 215.441406 304.875 215.703125 306.378906 217.847656 C 308.789062 221.292969 312.722656 220.691406 312.722656 216.882812 C 312.722656 213.488281 308.214844 211.722656 305.945312 214.230469 M 58.074219 218.0625 C 56.292969 219.101562 56.488281 222.230469 58.4375 223.855469 C 60.507812 225.582031 61.367188 225.597656 62.871094 223.941406 C 64.511719 222.125 64.382812 220.726562 62.390625 218.859375 C 60.515625 217.097656 59.921875 216.988281 58.074219 218.0625 M 74.980469 218.214844 C 71.863281 219.78125 72.359375 225.3125 75.613281 225.246094 C 77.402344 225.207031 80.070312 222.683594 80.070312 221.027344 C 80.070312 219.621094 78.320312 217.269531 77.289062 217.289062 C 77.019531 217.296875 75.980469 217.710938 74.980469 218.214844 M 57.53125 235.800781 C 55.65625 237.796875 55.921875 239.214844 58.480469 240.828125 C 60.558594 242.136719 63.710938 239.683594 63.710938 236.753906 C 63.710938 234.605469 63.472656 234.324219 61.507812 234.132812 C 59.898438 233.972656 58.824219 234.425781 57.53125 235.800781 M 73.28125 234.46875 C 71.722656 236.027344 74.519531 241.246094 76.914062 241.246094 C 77.996094 241.246094 80.070312 238.78125 80.070312 237.488281 C 80.070312 235.070312 74.957031 232.796875 73.28125 234.46875 M 253.429688 283.324219 C 236.972656 285.832031 214.65625 290.75 198.941406 295.335938 C 182.320312 300.183594 173.320312 306.296875 169.25 315.503906 C 166.902344 320.8125 166.46875 322.925781 167.292969 325.089844 L 168.003906 326.953125 L 218.371094 326.953125 C 273.472656 326.953125 275.671875 326.8125 281.550781 322.847656 C 286.265625 319.667969 289.949219 313.722656 290.902344 307.757812 C 291.339844 305.023438 291.492188 301.425781 291.242188 299.757812 C 290.511719 294.894531 287.355469 289.84375 283.382812 287.195312 C 276.007812 282.269531 267.542969 281.175781 253.429688 283.324219 " fill-opacity="1" fill-rule="evenodd"/></svg>