<svg xmlns="http://www.w3.org/2000/svg" xmlns:xlink="http://www.w3.org/1999/xlink" width="500" zoomAndPan="magnify" viewBox="0 0 375 374.999991" height="500" preserveAspectRatio="xMidYMid meet" version="1.0"><metadata><ContainsAiGeneratedContent>Yes</ContainsAiGeneratedContent></metadata><rect x="-37.5" width="450" fill="#ffffff" y="-37.499999" height="449.999989" fill-opacity="1"/><rect x="-37.5" width="450" fill="#ffffff" y="-37.499999" height="449.999989" fill-opacity="1"/><path fill="#000000" d="M 185.617188 56.496094 C 182.097656 56.992188 180.066406 57.992188 176.703125 60.886719 C 173.402344 63.730469 171.535156 66.765625 170.425781 71.097656 C 169.601562 74.300781 169.605469 75.039062 170.46875 79.292969 C 171.332031 83.550781 171.335938 84.089844 170.5 85.367188 C 169.988281 86.144531 169.007812 86.765625 168.285156 86.769531 C 166.015625 86.777344 154.324219 92.867188 149.902344 96.34375 C 142.644531 102.050781 135.453125 111.5 131.714844 120.246094 C 128.472656 127.820312 128.105469 130.941406 127.644531 154.601562 C 127.160156 179.234375 126.96875 180.625 122.625 190.722656 C 120.460938 195.757812 118.390625 198.882812 113.785156 204.066406 C 110.816406 207.40625 108.988281 210.71875 108.988281 212.757812 C 108.988281 216.855469 113.019531 222.054688 116.726562 222.738281 C 117.761719 222.925781 127.347656 223.132812 138.039062 223.199219 L 157.472656 223.3125 L 158.585938 224.6875 C 159.199219 225.441406 159.699219 226.570312 159.699219 227.195312 C 159.699219 227.820312 160.625 230.230469 161.757812 232.550781 C 163.84375 236.820312 166.515625 240.027344 171.527344 244.273438 C 174.203125 246.542969 174.285156 246.707031 174.65625 250.679688 C 174.898438 253.265625 175.644531 256.070312 176.699219 258.347656 L 178.359375 261.945312 L 177.53125 267.667969 C 175.835938 279.410156 174.859375 286.953125 174.273438 292.894531 C 173.941406 296.257812 173.457031 299.792969 173.199219 300.753906 L 172.730469 302.503906 L 158.144531 302.792969 C 150.117188 302.953125 143.15625 303.007812 142.671875 302.910156 C 141.984375 302.777344 141.667969 301.222656 141.234375 295.796875 C 140.617188 288.167969 139.851562 286.488281 136.988281 286.488281 C 133.742188 286.488281 133.308594 287.421875 133.046875 294.992188 C 132.914062 298.800781 132.59375 302.136719 132.335938 302.402344 C 131.976562 302.769531 113.476562 303.132812 109.761719 302.847656 C 108.542969 302.753906 108.351562 299.703125 108.945312 289.953125 C 109.777344 276.347656 112.039062 268.839844 117.855469 260.398438 C 121.5625 255.015625 129.949219 248.175781 136.449219 245.238281 C 142.160156 242.652344 144.742188 241.652344 145.707031 241.652344 C 146.925781 241.652344 149.566406 239.664062 150.394531 238.117188 C 151.148438 236.707031 149.640625 233.53125 148.171875 233.4375 C 144.628906 233.210938 140.515625 234.554688 132.800781 238.46875 C 123.960938 242.953125 118.148438 247.402344 113.589844 253.175781 C 104.996094 264.0625 101.789062 273.859375 100.863281 292.019531 C 100.632812 296.503906 100.128906 300.761719 99.742188 301.484375 C 99.074219 302.726562 98.6875 302.792969 92.351562 302.792969 C 86.382812 302.792969 85.542969 302.921875 84.46875 303.992188 C 82.863281 305.597656 83.203125 307.894531 85.277344 309.433594 L 86.921875 310.65625 L 291.539062 310.65625 L 292.945312 309.019531 C 294.550781 307.15625 294.710938 305.835938 293.527344 304.214844 C 292.796875 303.222656 291.832031 303.0625 285.511719 302.902344 C 279.699219 302.757812 278.183594 302.539062 277.59375 301.773438 C 277.078125 301.101562 276.863281 298.023438 276.863281 291.296875 C 276.863281 275.722656 274.113281 266.550781 266.054688 255.273438 C 263.207031 251.285156 257.734375 246.097656 253.265625 243.148438 C 249.878906 240.917969 239.824219 235.78125 236.195312 234.429688 C 231.429688 232.652344 227.316406 233.734375 227.316406 236.765625 C 227.316406 238.476562 229.78125 240.960938 231.933594 241.417969 C 234 241.859375 242.050781 245.542969 246.125 247.917969 C 257 254.246094 263.890625 263.621094 267.617188 277.152344 C 269.207031 282.921875 269.910156 300.96875 268.589844 302.066406 C 267.703125 302.800781 247.117188 303.210938 245.992188 302.515625 C 245.660156 302.308594 245.386719 300.230469 245.386719 297.890625 C 245.386719 290.511719 244.867188 288.257812 242.890625 287.058594 C 241.078125 285.957031 239.960938 286.070312 238.246094 287.542969 C 237.394531 288.273438 237.226562 289.4375 237.226562 294.683594 C 237.226562 298.132812 237.066406 301.367188 236.871094 301.871094 C 236.5625 302.679688 234.652344 302.792969 221.441406 302.792969 L 206.363281 302.792969 L 205.550781 301.191406 C 205.101562 300.3125 204.429688 296.96875 204.050781 293.769531 C 203.675781 290.566406 203.085938 286.507812 202.742188 284.753906 C 202.394531 282.996094 201.910156 279.589844 201.660156 277.183594 C 201.410156 274.777344 200.882812 270.296875 200.492188 267.230469 L 199.78125 261.652344 L 201.597656 257.726562 C 202.855469 255.011719 203.429688 252.867188 203.457031 250.785156 C 203.480469 249.125 203.679688 247.347656 203.894531 246.832031 C 204.113281 246.316406 206.03125 244.429688 208.152344 242.636719 C 212.707031 238.792969 215.875 234.253906 217.96875 228.59375 C 219.035156 225.707031 219.910156 224.277344 220.921875 223.765625 C 222.003906 223.21875 227.160156 223.074219 241.597656 223.175781 C 259.015625 223.296875 261.011719 223.214844 262.710938 222.285156 C 267.082031 219.898438 269.164062 215.875 268.457031 211.175781 C 268.144531 209.105469 267.3125 207.640625 264.621094 204.429688 C 257.855469 196.359375 255.152344 191.523438 252.242188 182.257812 C 251.175781 178.859375 251.011719 176.257812 250.625 156.636719 C 250.164062 133.320312 249.882812 130.777344 246.828125 122.285156 C 243.125 111.984375 234.066406 100.347656 225.277344 94.597656 C 220.886719 91.722656 212.535156 87.496094 209.785156 86.753906 C 207.160156 86.046875 205.742188 83.808594 206.972656 82.328125 C 207.550781 81.632812 207.789062 79.695312 207.785156 75.757812 C 207.78125 70.511719 207.660156 69.945312 205.800781 66.507812 C 201.675781 58.898438 194.347656 55.261719 185.617188 56.496094 M 184.183594 65.289062 C 180.710938 66.671875 177.769531 71.164062 177.769531 75.082031 C 177.769531 77.980469 179.304688 81.949219 180.714844 82.703125 C 181.296875 83.015625 185.160156 83.269531 189.300781 83.269531 C 197.957031 83.269531 198.261719 83.121094 199.339844 78.3125 C 200.371094 73.71875 199.59375 69.964844 197.128906 67.644531 C 195.996094 66.574219 194.4375 65.460938 193.667969 65.167969 C 191.839844 64.476562 186.042969 64.550781 184.183594 65.289062 M 297.960938 90.28125 C 296.09375 92.015625 296.367188 94.058594 299.246094 99.96875 C 305.800781 113.421875 309.074219 124.199219 310.917969 138.394531 C 312.871094 153.441406 311.328125 174.136719 307.40625 185.480469 C 306.957031 186.773438 306.59375 188.160156 306.59375 188.5625 C 306.59375 189.835938 302.480469 200.363281 299.589844 206.480469 C 295.851562 214.398438 295.621094 215.605469 297.488281 217.472656 C 298.300781 218.28125 299.476562 218.945312 300.109375 218.945312 C 301.140625 218.945312 305.425781 214.683594 305.425781 213.65625 C 305.425781 213.425781 306.445312 211.046875 307.6875 208.375 C 315.820312 190.898438 318.753906 178.421875 319.792969 156.929688 C 320.15625 149.382812 318.882812 134.339844 317.300781 127.523438 C 314.84375 116.9375 313.96875 113.886719 311.601562 107.726562 C 305.375 91.503906 301.695312 86.800781 297.960938 90.28125 M 74.5625 90.871094 C 73.492188 91.941406 71.644531 95.566406 67.617188 104.496094 C 64.679688 111.015625 61.132812 123.609375 59.445312 133.539062 C 58.515625 138.992188 58.273438 143.078125 58.273438 153.175781 C 58.273438 166.496094 59.164062 174.589844 61.777344 185.03125 C 64.605469 196.339844 71.960938 213.984375 75.191406 217.210938 C 76.765625 218.78125 79.53125 218.707031 80.683594 217.066406 C 82.007812 215.179688 81.84375 214.269531 79.1875 208.617188 C 76.933594 203.824219 74.132812 196.59375 71.6875 189.246094 C 69.960938 184.066406 68.863281 178.804688 67 166.828125 C 66.703125 164.90625 66.453125 158.515625 66.445312 152.621094 C 66.4375 143.804688 66.6875 140.453125 67.871094 133.695312 C 70.003906 121.503906 73.578125 110.085938 78.597656 99.394531 C 81.339844 93.554688 81.554688 91.871094 79.710938 90.582031 C 77.933594 89.335938 75.992188 89.445312 74.5625 90.871094 M 180.078125 91.632812 C 179.929688 91.78125 177.710938 92.324219 175.148438 92.847656 C 161.273438 95.660156 146.128906 107.730469 140.222656 120.679688 C 136.507812 128.828125 135.9375 133.042969 135.53125 155.472656 C 135.332031 166.523438 134.898438 177.527344 134.570312 179.929688 C 133.359375 188.800781 129.160156 197.316406 120.9375 207.582031 C 118.347656 210.8125 117.710938 212.007812 117.847656 213.402344 L 118.023438 215.160156 L 152.703125 215.449219 C 171.78125 215.609375 187.847656 215.964844 188.414062 216.242188 C 189.882812 216.960938 190.351562 219.449219 189.351562 221.234375 C 188.515625 222.71875 188.457031 222.730469 178.6875 223.117188 C 168.445312 223.523438 167.882812 223.6875 167.875 226.222656 C 167.871094 228.085938 171.003906 233.027344 173.863281 235.660156 C 175.3125 236.996094 177.898438 238.8125 179.613281 239.703125 C 182.4375 241.167969 183.289062 241.316406 188.84375 241.316406 C 194.441406 241.3125 195.25 241.167969 198.300781 239.625 C 205.117188 236.167969 209.242188 230.523438 210.730469 222.605469 C 212.164062 214.984375 210.46875 215.453125 236.53125 215.429688 C 260.105469 215.410156 261.125 215.289062 260.265625 212.582031 C 260.054688 211.921875 258.0625 209.085938 255.835938 206.28125 C 250.625 199.714844 245.863281 190.230469 243.933594 182.5625 C 242.523438 176.953125 242.472656 176.109375 242.472656 157.714844 C 242.472656 141.15625 242.324219 137.925781 241.332031 132.953125 C 239.238281 122.445312 236.117188 116.273438 229.125 108.804688 C 221.570312 100.738281 212.113281 94.988281 202.789062 92.789062 C 198.777344 91.839844 180.796875 90.929688 180.078125 91.632812 M 88.9375 107.902344 C 87.425781 109.414062 83.355469 119.492188 81.945312 125.21875 C 79.507812 135.101562 79.199219 137.527344 78.863281 149.359375 C 78.484375 162.875 78.847656 166.902344 81.546875 178.957031 C 84.425781 191.828125 87.929688 200.238281 90.921875 201.476562 C 92.535156 202.144531 92.914062 202.097656 94.304688 201.050781 C 96.390625 199.480469 96.273438 198.070312 93.363281 189.71875 C 92.058594 185.976562 90.136719 179.558594 89.09375 175.453125 C 87.214844 168.042969 87.199219 167.894531 87.167969 153.4375 C 87.140625 140.425781 87.273438 138.261719 88.4375 133.054688 C 89.875 126.628906 90.671875 123.976562 92.992188 117.917969 C 95.078125 112.464844 95.433594 109.171875 94.09375 107.695312 C 92.71875 106.175781 90.578125 106.265625 88.9375 107.902344 M 283.320312 108.097656 C 281.757812 110.078125 281.78125 110.378906 283.859375 115.003906 C 284.820312 117.148438 285.609375 119.160156 285.609375 119.484375 C 285.609375 119.804688 285.984375 120.894531 286.441406 121.90625 C 287.460938 124.140625 289.308594 131.035156 290.363281 136.550781 C 290.871094 139.183594 291.140625 145.050781 291.136719 153.144531 C 291.125 164.78125 291.011719 166.144531 289.507812 172.484375 C 287.75 179.902344 285.359375 188.269531 284.46875 190.121094 C 281.636719 196.019531 281.332031 199.667969 283.546875 201.117188 C 285.550781 202.429688 286.5 202.300781 288.445312 200.457031 C 291.464844 197.589844 297.121094 180.773438 298.695312 169.957031 C 299.882812 161.804688 299.882812 145.542969 298.695312 137.785156 C 297.113281 127.460938 293.6875 115.511719 290.605469 109.554688 C 288.886719 106.234375 285.34375 105.523438 283.320312 108.097656 M 205.894531 108.699219 C 205 109.324219 204.582031 110.207031 204.582031 111.472656 C 204.582031 113.707031 205.238281 114.554688 208.664062 116.738281 C 212.546875 119.210938 217.214844 124.273438 218.910156 127.855469 C 219.730469 129.589844 220.96875 131.402344 221.65625 131.886719 C 225.65625 134.683594 229.148438 130.554688 226.976562 125.59375 C 223.859375 118.476562 212.476562 107.632812 208.25 107.757812 C 207.675781 107.773438 206.617188 108.199219 205.894531 108.699219 M 104.761719 124.660156 C 103.183594 125.574219 101.957031 128.421875 100.652344 134.1875 C 99.640625 138.652344 99.449219 141.558594 99.414062 153.144531 C 99.375 165.351562 99.511719 167.480469 100.703125 172.867188 C 102.203125 179.664062 103.144531 181.84375 105.148438 183.152344 C 106.902344 184.304688 109.328125 183.753906 110.519531 181.933594 C 111.328125 180.699219 111.25 180.015625 109.589844 173.796875 C 106.402344 161.871094 106.1875 146.007812 109.066406 134.925781 C 110.722656 128.539062 110.71875 126.476562 109.039062 125.121094 C 107.539062 123.90625 106.285156 123.773438 104.761719 124.660156 M 268.503906 125.09375 C 267.300781 126.421875 267.101562 128.53125 267.96875 130.757812 C 270.421875 137.0625 271.71875 153.78125 270.527344 163.667969 C 270.160156 166.6875 269.308594 171.253906 268.628906 173.816406 C 266.707031 181.078125 266.6875 181.410156 268.125 182.84375 C 269.605469 184.324219 272.410156 184.109375 274 182.390625 C 275.242188 181.050781 276.6875 176.9375 277.425781 172.652344 C 277.753906 170.730469 278.320312 167.453125 278.683594 165.371094 C 279.492188 160.722656 279.046875 140.726562 278.042969 136.550781 C 275.972656 127.941406 275.515625 126.542969 274.390625 125.339844 C 272.875 123.722656 269.859375 123.59375 268.503906 125.09375 M 186.664062 249.640625 C 184.035156 249.835938 183.558594 250.058594 183.265625 251.226562 C 182.667969 253.597656 185.039062 257.136719 187.386719 257.386719 C 190.160156 257.679688 191.410156 257.257812 193.273438 255.394531 C 195.128906 253.542969 195.929688 250.851562 194.820312 250.199219 C 193.992188 249.707031 189.710938 249.414062 186.664062 249.640625 M 186.3125 267.417969 C 185.429688 268.851562 183.558594 280.308594 182.085938 293.34375 C 181.328125 300.023438 181.289062 301.824219 181.875 302.53125 C 182.464844 303.238281 183.871094 303.378906 189.078125 303.25 L 195.546875 303.085938 L 195.71875 297.84375 C 195.8125 294.960938 195.503906 289.984375 195.03125 286.78125 C 194.558594 283.578125 194.011719 278.859375 193.8125 276.300781 C 193.175781 268.027344 192.195312 266.109375 188.605469 266.109375 C 187.695312 266.109375 186.808594 266.617188 186.3125 267.417969 M 105.242188 321.175781 C 103.613281 322.800781 103.453125 324.890625 104.847656 326.285156 L 106.105469 327.539062 L 162.773438 327.699219 C 204.210938 327.8125 219.875 327.675781 221.046875 327.191406 C 222.347656 326.652344 222.652344 326.15625 222.652344 324.582031 C 222.652344 323.332031 222.199219 322.210938 221.378906 321.449219 C 220.113281 320.269531 219.660156 320.261719 163.128906 320.261719 C 112.136719 320.261719 106.058594 320.359375 105.242188 321.175781 M 239.019531 321.796875 C 237.652344 323.53125 237.574219 323.976562 238.378906 325.480469 C 239.453125 327.488281 242.191406 327.832031 257.003906 327.832031 C 273.222656 327.832031 273.949219 327.667969 273.949219 324.027344 C 273.949219 320.503906 272.75 320.261719 255.367188 320.261719 L 240.226562 320.261719 Z M 239.019531 321.796875 " fill-opacity="1" fill-rule="evenodd"/></svg>