<svg xmlns="http://www.w3.org/2000/svg" xmlns:xlink="http://www.w3.org/1999/xlink" width="500" zoomAndPan="magnify" viewBox="0 0 375 374.999991" height="500" preserveAspectRatio="xMidYMid meet" version="1.0"><metadata><ContainsAiGeneratedContent>Yes</ContainsAiGeneratedContent></metadata><rect x="-37.5" width="450" fill="#ffffff" y="-37.499999" height="449.999989" fill-opacity="1"/><rect x="-37.5" width="450" fill="#ffffff" y="-37.499999" height="449.999989" fill-opacity="1"/><path fill="#000000" d="M 160.5625 26.507812 C 160.21875 26.542969 159.132812 26.738281 158.148438 26.9375 C 153.082031 27.980469 149.777344 29.570312 145.128906 33.203125 C 141.445312 36.082031 137.835938 41.433594 136.324219 46.257812 C 135.457031 49.023438 135.003906 49.84375 134.015625 50.417969 C 133.75 50.570312 130.078125 50.628906 120.070312 50.628906 C 109.808594 50.628906 106.003906 50.6875 104.523438 50.867188 C 99.246094 51.515625 96.679688 52.859375 93.8125 56.484375 C 92.484375 58.164062 91.160156 61.753906 90.832031 64.582031 C 90.609375 66.480469 90.621094 95.855469 90.84375 97.574219 C 91.050781 99.167969 91.34375 99.667969 92.328125 100.09375 C 93.042969 100.40625 95.894531 100.421875 159.578125 100.5 C 196.15625 100.542969 228.097656 100.53125 230.554688 100.46875 C 235.554688 100.347656 235.894531 100.265625 236.628906 99.015625 C 236.984375 98.402344 236.992188 98.171875 236.992188 81.132812 C 236.992188 63.871094 236.992188 63.867188 236.59375 62.304688 C 236.164062 60.628906 235.171875 58.5 234.160156 57.085938 C 232.847656 55.257812 230.355469 53 228.742188 52.179688 C 227.714844 51.65625 225.523438 51.125 223.402344 50.882812 C 220.820312 50.585938 202.214844 50.453125 197.753906 50.699219 C 193.636719 50.925781 193.449219 50.886719 192.800781 49.734375 C 192.578125 49.339844 192.109375 48.171875 191.753906 47.136719 C 188.488281 37.640625 182.085938 30.871094 173.613281 27.96875 C 170.089844 26.761719 167.601562 26.371094 163.691406 26.414062 C 162.316406 26.429688 160.90625 26.472656 160.5625 26.507812 M 160.550781 34.96875 C 158.261719 35.265625 154.933594 36.625 152.316406 38.335938 C 150.378906 39.605469 148.511719 41.441406 147.363281 43.203125 C 146.320312 44.804688 144.582031 48.109375 144.304688 49.015625 C 143.765625 50.796875 142.484375 54.03125 141.925781 55.027344 C 141.199219 56.332031 139.898438 57.644531 138.761719 58.226562 C 136.960938 59.144531 136.539062 59.167969 120.835938 59.226562 C 105.65625 59.28125 103.613281 59.367188 101.808594 60.046875 C 100.492188 60.539062 99.882812 61.300781 99.515625 62.914062 C 99.261719 64.023438 99.191406 66.035156 99.066406 76.121094 C 98.875 91.21875 98.871094 91.035156 99.351562 91.519531 L 99.730469 91.898438 L 163.175781 91.875 C 198.070312 91.863281 226.945312 91.804688 227.335938 91.746094 C 228.375 91.589844 228.648438 91.394531 228.761719 90.746094 C 228.816406 90.425781 228.785156 84.449219 228.695312 77.464844 C 228.554688 66.664062 228.484375 64.589844 228.234375 63.617188 C 227.574219 61.027344 226.757812 60.175781 224.417969 59.628906 C 223.875 59.503906 218.074219 59.390625 207.761719 59.308594 C 190.570312 59.167969 190.265625 59.148438 188.53125 58.140625 C 186.84375 57.160156 185.515625 55.007812 184.167969 51.074219 C 182.488281 46.171875 181.070312 43.589844 178.648438 41.015625 C 176.292969 38.511719 172.855469 36.414062 169.679688 35.535156 C 167.34375 34.890625 163.167969 34.632812 160.550781 34.96875 M 163.78125 53.519531 C 162.460938 53.753906 161.613281 54.175781 160.941406 54.9375 C 159.464844 56.617188 159.160156 58.089844 159.96875 59.652344 C 160.246094 60.1875 160.78125 60.875 161.160156 61.171875 C 161.835938 61.710938 161.882812 61.71875 163.875 61.71875 C 166.207031 61.71875 166.578125 61.554688 167.355469 60.183594 C 167.742188 59.503906 167.804688 59.171875 167.804688 57.785156 C 167.804688 56.332031 167.75 56.078125 167.265625 55.195312 C 166.96875 54.652344 166.492188 54.085938 166.195312 53.917969 C 165.605469 53.582031 164.476562 53.398438 163.78125 53.519531 M 69.921875 68.359375 C 67.011719 68.542969 64.355469 68.855469 64.097656 69.042969 C 63.941406 69.15625 63.730469 69.652344 63.636719 70.136719 C 63.394531 71.378906 63.417969 285.847656 63.664062 287.625 C 63.886719 289.238281 64.273438 290.160156 64.871094 290.480469 C 65.253906 290.683594 72.484375 290.722656 109.324219 290.722656 C 151.335938 290.722656 153.347656 290.710938 153.910156 290.402344 C 154.765625 289.933594 154.902344 289.417969 154.917969 286.609375 C 154.933594 283.828125 154.753906 283.089844 153.957031 282.679688 C 153.558594 282.472656 147.332031 282.421875 115.589844 282.378906 C 94.75 282.347656 76.683594 282.390625 75.445312 282.472656 L 73.191406 282.625 L 72.582031 282.082031 L 71.976562 281.539062 L 71.976562 179.742188 C 71.976562 81.5 71.988281 77.9375 72.304688 77.589844 C 72.605469 77.253906 72.890625 77.222656 76.058594 77.164062 C 78.339844 77.125 79.617188 77.027344 79.875 76.882812 C 80.429688 76.566406 80.613281 75.820312 80.8125 73.0625 C 81.042969 69.957031 80.914062 68.945312 80.242188 68.578125 C 79.855469 68.363281 72.355469 68.203125 69.921875 68.359375 M 248.472656 68.5 C 248.011719 68.964844 247.929688 69.855469 248.027344 73.195312 C 248.105469 75.714844 248.179688 76.386719 248.429688 76.765625 L 248.734375 77.234375 L 252.332031 77.167969 L 255.933594 77.105469 L 256.1875 77.632812 C 256.402344 78.078125 256.433594 83.015625 256.410156 111.445312 C 256.394531 130.265625 256.449219 144.835938 256.535156 144.96875 C 256.808594 145.378906 257.992188 145.53125 260.972656 145.535156 C 263.550781 145.539062 263.902344 145.503906 264.28125 145.195312 L 264.703125 144.855469 L 264.671875 109.371094 C 264.65625 89.851562 264.585938 72.960938 264.515625 71.835938 C 264.398438 69.84375 264.375 69.765625 263.832031 69.222656 C 263.117188 68.503906 262.824219 68.476562 254.859375 68.324219 C 249.335938 68.214844 248.742188 68.234375 248.472656 68.5 M 92.535156 120.113281 C 91.191406 120.285156 90.546875 120.695312 90.292969 121.539062 C 89.800781 123.164062 89.800781 146.148438 90.289062 147.722656 C 90.554688 148.578125 91.167969 149.046875 92.332031 149.289062 C 93.519531 149.535156 115.941406 149.574219 117.171875 149.328125 C 117.640625 149.238281 118.179688 149.019531 118.371094 148.847656 C 119.160156 148.132812 119.175781 147.894531 119.175781 134.894531 C 119.175781 122.902344 119.164062 122.527344 118.816406 121.84375 C 118.355469 120.9375 117.710938 120.472656 116.640625 120.289062 C 115.507812 120.09375 93.921875 119.933594 92.535156 120.113281 M 99.460938 128.507812 C 99.066406 128.546875 98.777344 128.71875 98.566406 129.039062 C 98.292969 129.460938 98.257812 130.089844 98.257812 134.914062 L 98.257812 140.320312 L 98.695312 140.785156 L 99.128906 141.25 L 104.496094 141.203125 L 109.859375 141.15625 L 110.226562 140.527344 C 110.566406 139.949219 110.597656 139.5625 110.652344 135.171875 C 110.714844 130.125 110.667969 129.484375 110.1875 128.929688 C 109.894531 128.59375 109.601562 128.570312 104.960938 128.511719 C 102.257812 128.476562 99.78125 128.476562 99.460938 128.507812 M 132.140625 130.808594 C 131.691406 131.191406 131.691406 131.21875 131.632812 134.535156 C 131.566406 138.507812 131.601562 138.601562 133.109375 138.917969 C 133.839844 139.066406 139.511719 139.082031 154.972656 138.976562 C 166.453125 138.894531 188.035156 138.894531 202.933594 138.96875 C 217.832031 139.046875 230.453125 139.058594 230.980469 139 C 231.652344 138.921875 232.070312 138.757812 232.367188 138.464844 C 232.78125 138.046875 232.789062 137.976562 232.789062 134.652344 C 232.789062 131.652344 232.753906 131.21875 232.464844 130.867188 L 232.144531 130.46875 L 132.589844 130.421875 Z M 288.570312 149.148438 C 287.691406 149.398438 285.46875 151.039062 284.074219 152.472656 C 282.769531 153.804688 281.019531 155.949219 279.324219 158.292969 C 278.210938 159.832031 276.28125 161.640625 275.753906 161.640625 C 275.601562 161.640625 274.742188 161.3125 273.851562 160.90625 C 272.957031 160.503906 271.839844 160.113281 271.371094 160.039062 C 269.242188 159.703125 266.816406 160.648438 264.425781 162.75 C 261.414062 165.398438 253.8125 174.371094 246.421875 184.003906 C 244.597656 186.386719 242.882812 188.578125 239.492188 192.863281 C 237.460938 195.433594 230.980469 204.023438 228.308594 207.679688 C 227.675781 208.546875 226.070312 210.722656 224.746094 212.515625 C 223.417969 214.308594 221.496094 216.9375 220.472656 218.363281 C 219.449219 219.785156 218.316406 221.351562 217.957031 221.84375 C 217.5 222.464844 217.050781 223.089844 216.605469 223.722656 C 216.226562 224.261719 215.386719 225.429688 214.734375 226.316406 C 214.085938 227.203125 212.277344 229.777344 210.714844 232.042969 C 209.15625 234.304688 207.109375 237.242188 206.171875 238.570312 C 204.398438 241.082031 195.984375 253.695312 194.886719 255.492188 C 194.542969 256.054688 193.707031 257.371094 193.027344 258.414062 C 190.511719 262.277344 185.195312 271.304688 182.691406 275.964844 C 179.257812 282.351562 176.308594 289.164062 174.597656 294.644531 C 173.96875 296.664062 172.71875 302.039062 172.347656 304.320312 C 172.078125 305.96875 171.503906 308.585938 170.933594 310.761719 C 169.9375 314.558594 169.445312 317.589844 169.558594 319.207031 C 169.773438 322.25 170.707031 324.128906 172.789062 325.699219 C 175.277344 327.582031 178.554688 327.78125 181.914062 326.257812 C 182.550781 325.96875 184.453125 324.949219 186.144531 323.992188 C 187.835938 323.035156 189.910156 321.949219 190.757812 321.582031 C 191.605469 321.214844 193.222656 320.515625 194.351562 320.023438 C 199.492188 317.792969 202.496094 316.03125 208.234375 311.878906 C 215.859375 306.363281 227.25 295.867188 235.46875 286.789062 C 236.089844 286.097656 238.058594 284.046875 239.839844 282.226562 C 243.507812 278.476562 244.558594 277.273438 245.101562 276.195312 C 245.75 274.914062 245.703125 274.828125 243.070312 272.246094 C 239.9375 269.179688 240.214844 269.191406 237.445312 271.984375 C 236.300781 273.140625 234.910156 274.695312 234.355469 275.445312 C 233.347656 276.808594 232.214844 277.871094 230.945312 278.636719 C 230.054688 279.175781 229.984375 279.136719 227.425781 276.765625 C 226.296875 275.714844 224.765625 274.429688 224.027344 273.910156 C 223.292969 273.386719 221.644531 272.183594 220.363281 271.242188 C 216.542969 268.417969 211.871094 265.007812 210.777344 264.246094 C 210.214844 263.851562 208.507812 262.660156 206.984375 261.597656 C 204.15625 259.628906 203.828125 259.265625 203.828125 258.15625 C 203.828125 257.464844 204.300781 256.652344 206.949219 252.792969 C 208.367188 250.726562 210.195312 248.042969 211.011719 246.832031 C 213.84375 242.621094 216.257812 239.191406 223.761719 228.722656 C 226.316406 225.15625 228.851562 221.609375 229.394531 220.847656 C 230.550781 219.210938 232.738281 216.203125 234.800781 213.402344 C 236.933594 210.507812 247.683594 196.285156 249.503906 193.949219 C 252.808594 189.710938 256.820312 184.671875 258.441406 182.730469 C 259.230469 181.78125 261.203125 179.417969 262.824219 177.476562 C 264.445312 175.53125 266.238281 173.367188 266.808594 172.667969 C 269.328125 169.5625 269.734375 169.105469 270.191406 168.871094 C 271.339844 168.269531 272.382812 168.761719 274.808594 171.035156 C 275.839844 171.996094 277.082031 173.09375 277.574219 173.46875 C 278.066406 173.84375 279.835938 175.207031 281.507812 176.496094 C 283.179688 177.785156 284.988281 179.175781 285.527344 179.585938 C 289.121094 182.3125 294.550781 186.539062 295.453125 187.304688 C 296.042969 187.804688 297.085938 188.667969 297.777344 189.222656 C 299.730469 190.796875 300.109375 191.207031 300.453125 192.109375 C 300.757812 192.902344 300.757812 192.992188 300.472656 193.738281 C 300.304688 194.175781 299.222656 195.804688 298.066406 197.363281 C 296.277344 199.769531 294.492188 202.171875 292.707031 204.578125 C 290.917969 206.988281 288.9375 209.644531 288.300781 210.484375 C 287.664062 211.320312 286.246094 213.210938 285.148438 214.6875 C 284.046875 216.164062 282.660156 217.960938 282.058594 218.679688 C 279.496094 221.761719 279.4375 222.128906 281.203125 223.867188 C 282.308594 224.953125 283.289062 225.769531 284.847656 226.898438 C 285.957031 227.703125 286.671875 227.296875 288.332031 224.917969 C 288.890625 224.113281 290.527344 221.925781 291.960938 220.054688 C 293.394531 218.183594 295.769531 215.046875 297.230469 213.078125 C 298.695312 211.109375 300.410156 208.8125 301.039062 207.976562 C 307.917969 198.863281 309.207031 196.761719 309.683594 193.878906 C 309.878906 192.695312 309.859375 192.515625 309.429688 191.125 C 309.171875 190.308594 308.714844 189.246094 308.410156 188.765625 C 307.507812 187.347656 307.28125 186.609375 307.394531 185.488281 C 307.527344 184.222656 308.128906 183.226562 311.082031 179.378906 C 314.203125 175.320312 314.816406 174.398438 315.144531 173.285156 C 315.765625 171.164062 315.042969 168.058594 313.453125 166.015625 C 312.621094 164.945312 310.03125 162.707031 304.570312 158.339844 C 296.46875 151.863281 293.539062 149.90625 290.894531 149.203125 C 289.773438 148.90625 289.445312 148.898438 288.570312 149.148438 M 248.773438 155.53125 C 246.941406 156.871094 235.902344 168.769531 232.070312 173.539062 C 231.125 174.710938 230.171875 175.878906 229.21875 177.042969 C 228.28125 178.183594 226.832031 179.988281 225.996094 181.058594 C 224.777344 182.613281 223.554688 184.160156 222.332031 185.710938 C 219.011719 189.898438 217.882812 191.359375 215.351562 194.738281 C 212.703125 198.277344 208.09375 204.9375 206.253906 207.886719 C 205.578125 208.972656 204.765625 210.265625 204.445312 210.765625 C 203.234375 212.65625 202.519531 214.429688 202.433594 215.738281 L 202.355469 216.96875 L 203.542969 218.089844 C 204.542969 219.035156 204.914062 219.261719 205.875 219.523438 C 206.523438 219.699219 207.222656 219.78125 207.488281 219.714844 C 208.203125 219.535156 209.476562 218.261719 210.640625 216.566406 C 211.304688 215.605469 211.972656 214.652344 212.652344 213.703125 C 213.621094 212.359375 214.234375 211.480469 216.664062 207.980469 C 219.921875 203.28125 231.164062 188.199219 234.601562 183.914062 C 238.03125 179.636719 239.945312 177.421875 246.085938 170.605469 C 252.757812 163.203125 252.535156 163.476562 253.40625 161.640625 C 254.175781 160.023438 254.25 159.511719 253.898438 158.257812 C 253.605469 157.214844 251.957031 155.542969 250.914062 155.238281 C 249.84375 154.921875 249.546875 154.964844 248.773438 155.53125 M 290.03125 159.144531 C 289.160156 159.496094 284.890625 164.46875 284.253906 165.878906 C 283.722656 167.046875 284.078125 167.710938 286.121094 169.359375 C 287.023438 170.089844 288.003906 170.839844 288.300781 171.023438 C 289.710938 171.914062 293.109375 174.59375 294.605469 176 C 296.523438 177.800781 298.644531 179.351562 299.1875 179.351562 C 300.089844 179.351562 302.15625 177.40625 303.757812 175.058594 C 304.808594 173.511719 305.730469 171.65625 305.730469 171.078125 C 305.730469 170.21875 304.015625 168.453125 300.992188 166.207031 C 299.519531 165.113281 297.75 163.734375 297.058594 163.144531 C 295.179688 161.539062 293.210938 159.957031 292.429688 159.429688 C 291.707031 158.9375 290.816406 158.832031 290.03125 159.144531 M 95.121094 172.566406 C 92.527344 172.648438 91.863281 172.726562 91.277344 173.011719 C 89.996094 173.640625 90.035156 173.207031 90.035156 187.222656 C 90.035156 199.304688 90.042969 199.679688 90.390625 200.363281 C 91.308594 202.164062 92.308594 202.300781 104.785156 202.324219 C 116.789062 202.347656 118.046875 202.199219 118.835938 200.671875 C 119.160156 200.050781 119.179688 199.394531 119.222656 187.671875 C 119.277344 174.21875 119.257812 173.898438 118.328125 173.207031 C 117.917969 172.902344 117.441406 172.824219 115.378906 172.710938 C 112.082031 172.53125 99.035156 172.4375 95.121094 172.566406 M 99.777344 181.125 C 98.015625 181.378906 98.007812 181.398438 98.179688 187.671875 C 98.257812 190.527344 98.375 192.996094 98.441406 193.167969 C 98.503906 193.335938 98.734375 193.53125 98.945312 193.601562 C 99.367188 193.742188 109.15625 193.707031 109.636719 193.5625 C 109.800781 193.511719 110.082031 193.175781 110.265625 192.808594 C 110.554688 192.222656 110.601562 191.582031 110.648438 187.402344 C 110.679688 184.796875 110.65625 182.402344 110.597656 182.085938 C 110.386719 180.953125 110.425781 180.960938 105.261719 180.988281 C 102.6875 181 100.21875 181.0625 99.777344 181.125 M 132.101562 182.957031 C 131.839844 183.167969 131.792969 183.675781 131.75 186.777344 C 131.722656 188.746094 131.765625 190.542969 131.84375 190.773438 C 132.195312 191.769531 130.359375 191.71875 167.152344 191.6875 C 185.800781 191.671875 201.5 191.605469 202.039062 191.542969 L 203.023438 191.429688 L 203.316406 190.539062 C 203.519531 189.933594 203.65625 188.640625 203.742188 186.539062 C 203.894531 182.882812 203.875 182.828125 202.347656 182.859375 C 198.515625 182.941406 135.117188 182.90625 133.925781 182.824219 C 132.792969 182.746094 132.328125 182.78125 132.101562 182.957031 M 95.578125 225.175781 C 93.511719 225.238281 91.585938 225.363281 91.296875 225.453125 C 91.007812 225.546875 90.617188 225.828125 90.425781 226.085938 C 90.101562 226.519531 90.070312 227.050781 89.921875 234.125 C 89.832031 238.371094 89.824219 244.164062 89.910156 247.296875 C 90.074219 253.511719 90.0625 253.441406 91.371094 254.210938 C 92.261719 254.734375 96.308594 254.886719 106.839844 254.800781 C 116.640625 254.71875 117.351562 254.65625 118.296875 253.761719 C 119.171875 252.941406 119.175781 252.902344 119.175781 239.734375 C 119.175781 228.582031 119.148438 227.324219 118.875 226.730469 C 118.492188 225.882812 117.816406 225.542969 116.09375 225.335938 C 114.382812 225.128906 100.6875 225.023438 95.578125 225.175781 M 98.769531 234 C 98.445312 234.230469 98.386719 234.507812 98.296875 236.191406 C 98.238281 237.253906 98.246094 239.800781 98.316406 241.851562 C 98.433594 245.523438 98.445312 245.585938 98.875 245.933594 C 99.289062 246.273438 99.550781 246.285156 104.445312 246.230469 C 109.578125 246.175781 109.582031 246.175781 110.035156 245.75 C 110.328125 245.476562 110.523438 245.054688 110.582031 244.585938 C 110.75 243.292969 110.804688 236.21875 110.65625 235.277344 C 110.410156 233.707031 110.554688 233.742188 104.445312 233.742188 C 100.09375 233.742188 99.074219 233.789062 98.769531 234 M 266.546875 234.726562 C 262.273438 235.445312 257.238281 238.132812 254.441406 241.1875 C 251.476562 244.425781 248.964844 249.386719 248.074219 253.777344 C 247.707031 255.589844 247.660156 258.691406 247.972656 260.578125 C 248.8125 265.652344 251.800781 271.503906 256.664062 277.59375 C 259.929688 281.683594 266.691406 288.203125 271.304688 291.707031 C 272.210938 292.394531 273.113281 293.085938 274.015625 293.773438 C 274.792969 294.371094 276.273438 295.503906 277.304688 296.292969 C 281.726562 299.675781 284.621094 301.367188 285.988281 301.367188 C 287.214844 301.367188 289.539062 299.914062 295.746094 295.261719 C 302.539062 290.167969 305.640625 287.503906 310.128906 282.898438 C 320.035156 272.722656 324.144531 265.179688 324.144531 257.171875 C 324.144531 248.886719 318.140625 239.410156 311.011719 236.4375 C 305.742188 234.242188 299.566406 233.839844 294.429688 235.359375 C 292.582031 235.90625 290.121094 237.128906 288.65625 238.226562 C 286.214844 240.058594 285.425781 240.199219 284.121094 239.039062 C 282.226562 237.355469 279.808594 236.058594 277.273438 235.375 C 274.144531 234.527344 269.421875 234.242188 266.546875 234.726562 M 132.953125 235.726562 C 131.734375 235.925781 131.695312 236.039062 131.632812 239.792969 C 131.578125 242.925781 131.597656 243.179688 131.929688 243.589844 L 132.285156 244.027344 L 158.023438 244.074219 C 183.167969 244.121094 183.769531 244.113281 184.183594 243.777344 C 184.59375 243.445312 184.613281 243.324219 184.707031 240.332031 C 184.816406 236.78125 184.726562 236.195312 184.023438 235.910156 C 183.5 235.695312 134.226562 235.519531 132.953125 235.726562 M 268.632812 242.976562 C 267.667969 243.128906 265.265625 243.976562 263.738281 244.703125 C 261.121094 245.949219 258.808594 248.472656 257.207031 251.820312 C 256.125 254.085938 255.757812 255.933594 256.019531 257.800781 C 256.539062 261.542969 257.558594 263.980469 260.382812 268.242188 C 262.992188 272.179688 267.378906 277.078125 271.957031 281.175781 C 274.574219 283.519531 279.996094 288 282.714844 290.066406 C 284.535156 291.449219 284.691406 291.527344 285.539062 291.527344 C 286.621094 291.527344 287.382812 291.160156 288.835938 289.9375 C 289.425781 289.441406 290.59375 288.492188 291.429688 287.824219 L 295.628906 284.484375 C 302.632812 278.914062 306.488281 274.929688 311.074219 268.539062 C 311.929688 267.347656 313.152344 265.226562 313.914062 263.617188 C 315.097656 261.117188 315.414062 259.875 315.515625 257.335938 C 315.625 254.699219 315.523438 254.273438 314.007812 251.09375 C 313.09375 249.175781 312.90625 248.917969 311.210938 247.25 C 309.550781 245.613281 309.203125 245.363281 307.160156 244.347656 C 304.730469 243.136719 303.648438 242.875 301.03125 242.867188 C 298.527344 242.863281 295.203125 243.800781 293.289062 245.054688 C 292.804688 245.371094 291.367188 246.691406 290.089844 247.992188 C 288.628906 249.476562 287.578125 250.402344 287.265625 250.480469 C 286.988281 250.546875 286.328125 250.566406 285.796875 250.519531 C 284.59375 250.421875 283.121094 249.5 282.257812 248.308594 C 281.496094 247.257812 278.289062 244.796875 276.679688 244.027344 C 275.992188 243.699219 274.945312 243.339844 274.355469 243.234375 C 273.152344 243.015625 269.457031 242.847656 268.632812 242.976562 M 197.945312 266.015625 C 197.832031 266.152344 197.136719 267.445312 196.402344 268.886719 C 195.667969 270.332031 194.691406 272.132812 194.230469 272.890625 C 191.835938 276.816406 189.3125 281.511719 187.335938 285.714844 C 183.113281 294.699219 181.742188 298.777344 180.84375 305.011719 C 180.40625 308.050781 179.625 311.625 179.058594 313.175781 C 178.570312 314.515625 177.910156 316.992188 177.90625 317.492188 C 177.90625 317.753906 178.023438 318.0625 178.171875 318.183594 C 178.769531 318.683594 180.96875 317.808594 183.089844 316.234375 C 184.53125 315.160156 185.820312 314.484375 193.996094 310.53125 C 197.21875 308.972656 198.753906 308.109375 201.144531 306.507812 C 205.507812 303.589844 210.015625 299.875 215.625 294.570312 C 217.347656 292.945312 219.238281 291.1875 219.828125 290.660156 C 221.84375 288.867188 224.371094 285.980469 224.492188 285.328125 C 224.636719 284.5625 224.535156 284.449219 222.734375 283.347656 C 221.273438 282.453125 218.410156 280.410156 210.621094 274.691406 C 204.894531 270.488281 204.492188 270.183594 201.929688 268.074219 C 200.664062 267.03125 199.449219 266.085938 199.234375 265.972656 C 198.710938 265.695312 198.195312 265.710938 197.945312 266.015625 " fill-opacity="1" fill-rule="evenodd"/></svg>