<svg xmlns="http://www.w3.org/2000/svg" xmlns:xlink="http://www.w3.org/1999/xlink" width="500" zoomAndPan="magnify" viewBox="0 0 375 374.999991" height="500" preserveAspectRatio="xMidYMid meet" version="1.0"><metadata><ContainsAiGeneratedContent>Yes</ContainsAiGeneratedContent></metadata><rect x="-37.5" width="450" fill="#ffffff" y="-37.499999" height="449.999989" fill-opacity="1"/><rect x="-37.5" width="450" fill="#ffffff" y="-37.499999" height="449.999989" fill-opacity="1"/><path fill="#000000" d="M 133.5 99.472656 C 128.296875 100.929688 123.867188 104.066406 121.136719 108.242188 C 117.328125 114.058594 117.359375 113.746094 117.296875 145.613281 C 117.261719 164.835938 117.050781 174.53125 116.65625 175.007812 C 116.195312 175.558594 111.1875 175.71875 94.097656 175.71875 L 72.132812 175.71875 L 68.5625 177.148438 C 64.316406 178.847656 60.585938 182.214844 58.847656 185.914062 L 57.609375 188.546875 L 57.609375 235.675781 C 57.609375 281.175781 57.648438 282.894531 58.699219 285.347656 C 60.058594 288.519531 63.824219 292.660156 66.792969 294.25 L 69.050781 295.460938 L 116.777344 295.460938 C 162.691406 295.460938 164.601562 295.417969 167 294.382812 C 170.550781 292.847656 173.558594 289.84375 175.417969 285.96875 C 176.972656 282.734375 177.027344 282.335938 177.027344 274.144531 C 177.027344 269.480469 177.273438 265.023438 177.570312 264.234375 L 178.113281 262.804688 L 219.90625 262.804688 C 259.648438 262.804688 261.863281 262.75 265.066406 261.726562 C 270.867188 259.871094 275.214844 256.546875 277.882812 251.917969 C 280.996094 246.519531 281.097656 245.539062 281.097656 221.027344 L 281.097656 198.507812 L 279.777344 197.441406 C 278.214844 196.175781 276.421875 196.070312 274.925781 197.164062 C 273.890625 197.921875 273.828125 199.007812 273.5625 221.308594 C 273.292969 243.910156 273.246094 244.734375 272.078125 246.894531 C 270.546875 249.726562 267.84375 252.296875 264.636719 253.960938 L 262.125 255.265625 L 220.355469 255.25 C 179.890625 255.234375 178.5625 255.199219 177.804688 254.167969 C 176.808594 252.804688 176.800781 249.371094 177.789062 248.019531 C 178.519531 247.015625 180.164062 246.972656 218.664062 246.933594 L 258.777344 246.894531 L 260.921875 245.558594 C 264.75 243.175781 265.191406 241.238281 265.191406 226.847656 C 265.191406 214.589844 265.175781 214.414062 263.902344 213.21875 C 262.308594 211.722656 260.703125 211.671875 258.976562 213.070312 C 257.679688 214.117188 257.65625 214.332031 257.382812 226.605469 L 257.101562 239.078125 L 217.609375 239.222656 L 178.117188 239.363281 L 177.574219 237.929688 C 177.246094 237.074219 177.027344 226.882812 177.027344 212.785156 L 177.027344 189.078125 L 175.558594 186.167969 C 172.988281 181.078125 170.636719 178.898438 165.597656 176.9375 C 163.953125 176.296875 160.378906 175.980469 152.195312 175.75 L 141.035156 175.4375 L 140.878906 150.039062 C 140.792969 136.070312 140.863281 124.074219 141.03125 123.378906 L 141.335938 122.121094 L 199.21875 122.265625 L 257.101562 122.40625 L 257.382812 129.441406 C 257.699219 137.476562 258.074219 138.316406 261.324219 138.316406 C 264.71875 138.316406 265.191406 137.148438 265.191406 128.769531 C 265.191406 119.097656 263.859375 116.308594 258.5625 114.890625 C 257.320312 114.558594 234.179688 114.371094 198.363281 114.394531 L 140.179688 114.4375 L 137.832031 115.628906 C 136.480469 116.316406 135 117.65625 134.351562 118.777344 C 133.265625 120.65625 133.214844 121.800781 133.0625 147.785156 C 132.941406 168.234375 132.738281 174.945312 132.226562 175.269531 C 131.851562 175.507812 130.109375 175.703125 128.351562 175.710938 C 125.496094 175.71875 125.117188 175.582031 124.835938 174.460938 C 124.664062 173.769531 124.597656 160.644531 124.6875 145.292969 C 124.847656 118.160156 124.886719 117.3125 126.039062 114.839844 C 127.554688 111.605469 130.289062 108.867188 133.496094 107.382812 C 136 106.222656 136.292969 106.21875 198.867188 106.230469 L 261.722656 106.242188 L 265.496094 108.183594 C 270.476562 110.746094 272.183594 113.617188 273.828125 122.195312 C 274.1875 124.078125 276.652344 125.203125 278.707031 124.417969 C 280.988281 123.550781 281.652344 120.722656 280.566406 116.484375 C 278.660156 109.03125 273.949219 103.492188 267.042969 100.570312 L 263.238281 98.960938 L 199.625 98.867188 C 150.003906 98.792969 135.460938 98.925781 133.5 99.472656 M 294.476562 118.796875 C 293.394531 119.121094 289.0625 123.050781 282.367188 129.785156 C 250.800781 161.539062 232.992188 179.066406 232.292969 179.066406 C 231.859375 179.066406 227.347656 174.964844 222.261719 169.949219 C 207.667969 155.554688 206.46875 154.550781 203.8125 154.535156 C 200.851562 154.519531 197.855469 156.691406 190.601562 164.101562 C 182.714844 172.160156 182.039062 173.355469 182.875 177.8125 C 183.203125 179.558594 184.847656 181.507812 192.839844 189.601562 C 211.882812 208.890625 224.332031 221.042969 226.976562 222.921875 C 230.191406 225.207031 232.816406 225.421875 236.339844 223.683594 C 238.351562 222.691406 270.277344 191.035156 312.363281 148.304688 C 317.523438 143.0625 317.648438 142.875 317.648438 140.320312 C 317.648438 138.878906 317.289062 137.023438 316.855469 136.195312 C 315.789062 134.164062 300.191406 118.78125 299.1875 118.769531 C 298.753906 118.765625 297.894531 118.65625 297.277344 118.527344 C 296.664062 118.398438 295.402344 118.519531 294.476562 118.796875 M 265.75 157.078125 C 249.636719 173.21875 235.875 186.65625 235.164062 186.933594 C 232.875 187.832031 229.730469 187.515625 228.019531 186.214844 C 227.136719 185.542969 221.523438 180.140625 215.546875 174.214844 C 208.390625 167.113281 204.285156 163.4375 203.515625 163.4375 C 202.066406 163.4375 190.976562 174.550781 190.976562 176.007812 C 190.976562 177.570312 230.566406 217.023438 232.136719 217.027344 C 233.855469 217.027344 309.277344 141.566406 309.277344 139.84375 C 309.277344 139.109375 307.230469 136.652344 303.734375 133.195312 C 299.335938 128.839844 297.871094 127.710938 296.621094 127.71875 C 295.289062 127.726562 290.503906 132.28125 265.75 157.078125 M 68.304688 186.234375 C 65.667969 188.804688 65.511719 189.121094 65.125 192.730469 C 64.902344 194.8125 64.871094 215.796875 65.058594 239.363281 L 65.398438 282.203125 L 66.886719 284.480469 C 67.707031 285.730469 69.15625 287.082031 70.109375 287.480469 C 72.4375 288.453125 157.175781 288.765625 162.128906 287.820312 C 164.921875 287.285156 165.632812 286.875 167.292969 284.851562 L 169.214844 282.503906 L 169.214844 189.199219 L 167.75 187.460938 C 166.941406 186.5 165.320312 185.226562 164.144531 184.625 C 162.074219 183.566406 160.5625 183.535156 116.539062 183.535156 L 71.078125 183.535156 Z M 138.882812 209.152344 C 138.003906 209.734375 133.484375 214.09375 128.839844 218.847656 C 119.707031 228.179688 117.652344 229.960938 116.503906 229.519531 C 116.09375 229.363281 111.148438 224.601562 105.515625 218.945312 C 96.640625 210.03125 95.039062 208.652344 93.546875 208.652344 C 91.449219 208.652344 89.976562 210.144531 89.976562 212.265625 C 89.976562 213.558594 91.855469 215.734375 100.578125 224.535156 C 106.410156 230.417969 111.179688 235.597656 111.179688 236.042969 C 111.179688 236.492188 106.410156 241.625 100.578125 247.453125 C 89.402344 258.621094 88.910156 259.359375 90.84375 262.121094 C 91.425781 262.949219 92.289062 263.363281 93.449219 263.363281 C 94.957031 263.363281 96.597656 261.960938 105.878906 252.753906 C 111.761719 246.921875 116.910156 242.148438 117.320312 242.148438 C 117.730469 242.148438 122.875 246.921875 128.757812 252.753906 C 139.984375 263.886719 140.726562 264.382812 143.421875 262.492188 C 144.257812 261.90625 144.660156 261.050781 144.660156 259.863281 C 144.660156 258.332031 143.402344 256.84375 134.855469 248.277344 C 129.460938 242.871094 124.816406 238.085938 124.539062 237.648438 C 123.089844 235.351562 124.707031 233.320312 138.941406 219.574219 C 143.898438 214.789062 144.660156 213.804688 144.660156 212.230469 C 144.660156 210.929688 144.242188 210.078125 143.191406 209.253906 C 141.386719 207.832031 140.902344 207.824219 138.882812 209.152344 " fill-opacity="1" fill-rule="evenodd"/></svg>