<svg xmlns="http://www.w3.org/2000/svg" xmlns:xlink="http://www.w3.org/1999/xlink" width="500" zoomAndPan="magnify" viewBox="0 0 375 374.999991" height="500" preserveAspectRatio="xMidYMid meet" version="1.0"><metadata><ContainsAiGeneratedContent>Yes</ContainsAiGeneratedContent></metadata><rect x="-37.5" width="450" fill="#ffffff" y="-37.499999" height="449.999989" fill-opacity="1"/><rect x="-37.5" width="450" fill="#ffffff" y="-37.499999" height="449.999989" fill-opacity="1"/><path fill="#000000" d="M 246.617188 76.484375 C 232.398438 90.613281 220.476562 103.066406 219.910156 104.382812 C 219.097656 106.253906 218.894531 111.9375 218.949219 131.070312 C 218.988281 144.4375 218.902344 155.5 218.757812 155.652344 C 218.609375 155.804688 207.160156 167.3125 193.3125 181.222656 C 177.023438 197.582031 168.132812 207.039062 168.132812 208.007812 C 168.132812 208.828125 168.636719 209.917969 169.253906 210.429688 C 172.324219 212.976562 173.328125 212.175781 198.664062 186.953125 C 212.148438 173.53125 223.636719 162.261719 224.195312 161.910156 C 224.75 161.558594 236.179688 161.265625 249.589844 161.257812 C 263 161.25 274.75 160.941406 275.699219 160.570312 C 277.902344 159.710938 328.671875 108.882812 329.460938 106.742188 C 329.851562 105.691406 329.660156 104.542969 328.902344 103.386719 L 327.75 101.632812 L 304.320312 101.632812 C 284.285156 101.632812 280.726562 101.46875 279.75 100.492188 C 278.773438 99.515625 278.621094 96.15625 278.695312 77.070312 C 278.773438 57.351562 278.640625 54.566406 277.527344 52.875 C 274.753906 48.644531 274.203125 49.066406 246.617188 76.484375 M 247.875 86.542969 C 237.46875 96.78125 228.671875 106.054688 228.101562 107.382812 C 227.335938 109.164062 227.070312 113.707031 227.070312 124.988281 C 227.070312 140.90625 227.429688 144.851562 228.871094 144.851562 C 229.351562 144.851562 238.859375 135.703125 250.007812 124.523438 L 270.269531 104.195312 L 270.492188 91.179688 C 270.613281 84.019531 270.613281 75.898438 270.492188 73.128906 C 270.128906 64.863281 269.566406 65.199219 247.875 86.542969 M 153.027344 87.988281 C 150.308594 88.699219 150.5 94.4375 153.265625 95.316406 C 157.894531 96.78125 161.996094 92.953125 159.640625 89.367188 C 158.425781 87.511719 156.4375 87.097656 153.027344 87.988281 M 176.835938 89.011719 C 174.640625 92.148438 177.261719 95.222656 181.757812 94.785156 C 183.410156 94.625 184.464844 93.949219 185.242188 92.554688 C 186.265625 90.730469 186.238281 90.421875 184.964844 89.015625 C 183.042969 86.894531 178.324219 86.894531 176.835938 89.011719 M 202.207031 93.039062 C 199.445312 95.800781 201.433594 99.496094 205.75 99.617188 C 208.535156 99.695312 210.65625 98.152344 210.65625 96.042969 C 210.65625 92.914062 204.515625 90.734375 202.207031 93.039062 M 129.203125 93.835938 C 126.960938 95.050781 126.019531 97.167969 126.726562 99.394531 C 127.738281 102.582031 134.425781 101.851562 135.632812 98.421875 C 136.210938 96.785156 136.023438 96.109375 134.570312 94.566406 C 132.550781 92.417969 131.964844 92.339844 129.203125 93.835938 M 105.652344 105.445312 C 101.761719 107.933594 102.964844 112.808594 107.46875 112.808594 C 109.914062 112.808594 112.925781 110.1875 112.925781 108.054688 C 112.925781 103.921875 109.792969 102.796875 105.652344 105.445312 M 276.5625 110.566406 C 274.808594 111.28125 238.914062 146.375 237.058594 149.1875 C 236.171875 150.539062 236.117188 151.144531 236.808594 151.980469 C 237.535156 152.851562 240.90625 153.050781 255.140625 153.050781 L 272.585938 153.050781 L 292.734375 132.742188 C 304.074219 121.3125 312.792969 111.949219 312.675781 111.320312 C 312.503906 110.371094 309.898438 110.179688 295.324219 110.054688 C 285.890625 109.976562 277.449219 110.207031 276.5625 110.566406 M 154.332031 118.765625 C 144.078125 120.8125 139.28125 122.320312 131.949219 125.804688 C 112.226562 135.175781 97.375 149.714844 87.75 169.070312 C 81.351562 181.941406 78.960938 193.257812 79.023438 210.429688 C 79.070312 223.378906 79.871094 228.453125 83.507812 238.863281 C 91.710938 262.351562 110.234375 283.039062 131.578125 292.558594 C 136.773438 294.875 146.152344 297.941406 152.621094 299.4375 C 160.460938 301.25 182.53125 301.046875 190.191406 299.089844 C 210.96875 293.78125 222.527344 287.421875 236.070312 273.84375 C 246.359375 263.53125 252.621094 254.007812 257.195312 241.726562 C 260.34375 233.277344 260.433594 232.945312 261.769531 225.15625 C 263.253906 216.496094 262.960938 198.402344 261.191406 189.5625 C 259.609375 181.664062 255.242188 170.882812 252.921875 169.144531 C 251.132812 167.804688 250.921875 167.796875 249.121094 168.972656 C 246.640625 170.597656 246.699219 172.226562 249.511719 179.917969 C 253.238281 190.109375 254.648438 198.289062 254.660156 209.773438 C 254.675781 220.800781 253.195312 228.609375 249.089844 239.171875 C 239.140625 264.78125 217.300781 284.144531 190.828125 290.820312 C 179.03125 293.796875 161.898438 293.652344 149.472656 290.472656 C 118.492188 282.542969 93.253906 255.15625 88.28125 224.0625 C 86.246094 211.339844 87.625 192.976562 91.457031 181.738281 C 99.121094 159.257812 118.226562 139.339844 140.679688 130.425781 C 157.941406 123.570312 183.902344 123.757812 201.910156 130.863281 C 208.75 133.566406 211.605469 133.261719 212.007812 129.789062 C 212.199219 128.160156 211.710938 127.464844 209.398438 126.046875 C 196.914062 118.382812 172.460938 115.152344 154.332031 118.765625 M 85.453125 121.242188 C 82.421875 124.464844 83.898438 128.457031 88.128906 128.457031 C 89.976562 128.457031 92.78125 125.433594 92.78125 123.433594 C 92.78125 119.644531 88.234375 118.285156 85.453125 121.242188 M 68.699219 141.054688 C 67.992188 142.246094 67.417969 143.703125 67.417969 144.292969 C 67.417969 145.824219 69.867188 147.832031 71.738281 147.832031 C 75.15625 147.832031 77.808594 142.117188 75.472656 139.785156 C 74.980469 139.292969 73.542969 138.890625 72.277344 138.890625 C 70.53125 138.890625 69.667969 139.410156 68.699219 141.054688 M 159.871094 147.476562 C 152.644531 148.695312 148.296875 150.1875 141.300781 153.84375 C 127.363281 161.128906 115.316406 175.347656 111.035156 189.5625 C 110.355469 191.816406 109.464844 194.667969 109.058594 195.898438 C 108.648438 197.125 108.128906 201.867188 107.90625 206.433594 C 107.367188 217.488281 109.453125 227.132812 114.546875 237.128906 C 125.523438 258.679688 146.71875 271.53125 171.285156 271.53125 C 179.464844 271.53125 180.933594 271.265625 192.378906 267.707031 C 208.273438 262.769531 223.171875 248.296875 229.582031 231.5625 C 233.929688 220.222656 234.789062 211.109375 232.703125 198.410156 C 231.363281 190.246094 227.441406 180.152344 224.984375 178.546875 C 223.367188 177.488281 222.949219 177.476562 221.203125 178.453125 C 218.484375 179.972656 218.449219 181.726562 221.011719 187.742188 C 227.167969 202.191406 226.820312 217.746094 220.019531 232.410156 C 213.769531 245.875 202.308594 255.976562 187.335938 261.210938 C 181.859375 263.125 180.304688 263.335938 171.574219 263.335938 C 160.261719 263.335938 154.371094 262 145.660156 257.460938 C 139.84375 254.433594 131.292969 247.210938 127.234375 241.90625 C 123.75 237.351562 119.277344 227.992188 117.867188 222.304688 C 117.085938 219.148438 116.65625 214.210938 116.65625 208.398438 C 116.65625 200.40625 116.910156 198.609375 118.886719 192.566406 C 120.113281 188.820312 122.441406 183.484375 124.0625 180.710938 C 128.800781 172.609375 141.269531 161.960938 150.601562 158.050781 C 155.050781 156.183594 164.101562 154.542969 169.921875 154.539062 C 178.308594 154.539062 191.984375 157.671875 195.105469 160.308594 C 196.820312 161.753906 200.949219 161.210938 202.109375 159.382812 C 203.714844 156.851562 202.210938 154.761719 197.066406 152.390625 C 184.808594 146.738281 173.277344 145.214844 159.871094 147.476562 M 58.503906 161.84375 C 56.152344 163.792969 55.734375 167.460938 57.640625 169.367188 C 59.589844 171.3125 60.019531 171.3125 62.46875 169.390625 C 63.882812 168.277344 64.433594 167.15625 64.433594 165.382812 C 64.433594 161.664062 61.109375 159.679688 58.503906 161.84375 M 280.1875 168.101562 C 278.828125 169.460938 279.109375 173.515625 280.65625 174.917969 C 283.515625 177.5 287.5 175.652344 287.5 171.742188 C 287.5 168.105469 282.617188 165.675781 280.1875 168.101562 M 160.40625 180.679688 C 152.386719 183.929688 146.972656 189.066406 143.21875 196.980469 C 141.128906 201.378906 140.910156 202.527344 140.964844 208.660156 C 141.011719 213.792969 141.441406 216.578125 142.714844 219.980469 C 144.945312 225.929688 150.851562 232.445312 157.066406 235.8125 C 161.714844 238.328125 161.941406 238.371094 170.742188 238.347656 C 178.429688 238.328125 180.121094 238.097656 182.679688 236.730469 C 188.429688 233.667969 192.894531 229.945312 195.550781 226.003906 C 202.121094 216.257812 202.875 202.230469 196.828125 202.230469 C 194.292969 202.230469 193.007812 204.703125 192.4375 210.695312 C 191.445312 221.070312 186.0625 227.625 176.339844 230.300781 C 171.890625 231.527344 169.777344 231.507812 164.722656 230.191406 C 160.339844 229.050781 155.253906 225.519531 152.558594 221.738281 C 151.75 220.601562 150.488281 217.429688 149.757812 214.683594 C 148.632812 210.464844 148.558594 209.058594 149.285156 205.605469 C 150.421875 200.183594 152.035156 196.941406 155.21875 193.667969 C 159.21875 189.554688 164.746094 187.328125 170.953125 187.328125 C 175 187.328125 176.375 187.035156 177.34375 185.964844 C 179.0625 184.066406 178.882812 181.664062 176.917969 180.289062 C 174.46875 178.578125 165.046875 178.800781 160.40625 180.679688 M 51.03125 187.09375 C 49.566406 188.949219 49.453125 191.996094 50.761719 194.21875 C 51.390625 195.285156 55.253906 194.773438 56.394531 193.476562 C 58.609375 190.957031 58.695312 188.980469 56.679688 186.96875 C 54.28125 184.574219 52.988281 184.601562 51.03125 187.09375 M 285.289062 192.496094 C 283.320312 196.167969 285.273438 200.742188 288.808594 200.742188 C 292.347656 200.742188 293.9375 196.101562 291.558594 192.710938 C 290.070312 190.582031 286.378906 190.457031 285.289062 192.496094 M 49.074219 212.285156 C 47.527344 214.644531 48.179688 217.460938 50.644531 219.074219 C 52.355469 220.195312 52.636719 220.195312 54.363281 219.066406 C 55.730469 218.167969 56.226562 217.1875 56.226562 215.371094 C 56.226562 210.78125 51.421875 208.707031 49.074219 212.285156 M 285.675781 218.046875 C 283.292969 221.445312 284.902344 226.078125 288.472656 226.078125 C 292.171875 226.078125 294.183594 220.179688 291.355469 217.621094 C 289.457031 215.90625 287.050781 216.085938 285.675781 218.046875 M 53.390625 236.65625 C 52.40625 237.640625 52.199219 241.628906 53.066406 242.90625 C 53.976562 244.25 56.359375 245.277344 57.730469 244.917969 C 58.445312 244.734375 59.46875 243.75 60.011719 242.738281 C 61.433594 240.082031 59.109375 235.761719 56.257812 235.761719 C 55.175781 235.761719 53.882812 236.167969 53.390625 236.65625 M 281.257812 242.523438 C 277.539062 245.445312 279.042969 250.667969 283.605469 250.667969 C 286.96875 250.667969 288.878906 244.699219 286.328125 242.152344 C 284.765625 240.589844 283.613281 240.675781 281.257812 242.523438 M 62.222656 260.304688 C 61.328125 261.972656 61.226562 264.832031 62.019531 266.019531 C 62.320312 266.46875 63.347656 267.246094 64.296875 267.746094 C 66.730469 269.027344 69.65625 267.09375 69.65625 264.203125 C 69.65625 259.953125 64 256.988281 62.222656 260.304688 M 270.394531 266.042969 C 268.554688 268.382812 268.40625 270.984375 270.019531 272.597656 C 271.707031 274.28125 273.863281 274.039062 275.96875 271.9375 C 278.140625 269.769531 278.332031 267.027344 276.4375 265.3125 C 274.453125 263.523438 272.164062 263.800781 270.394531 266.042969 M 75.632812 281.582031 C 74.472656 282.976562 75.1875 285.996094 77.132812 287.945312 C 81.117188 291.921875 85.964844 286.828125 82.667969 282.128906 C 81.296875 280.175781 77.074219 279.847656 75.632812 281.582031 M 254.671875 287.363281 C 253.191406 289.792969 253.3125 292.230469 254.960938 293.316406 C 256.609375 294.402344 259.859375 293.863281 261.359375 292.253906 C 264.304688 289.097656 262.816406 284.945312 258.738281 284.945312 C 256.609375 284.945312 255.878906 285.378906 254.671875 287.363281 M 94.414062 299.132812 C 93.515625 299.96875 92.78125 301.097656 92.78125 301.640625 C 92.78125 303.085938 95.578125 306.394531 97.25 306.925781 C 101.578125 308.296875 103.574219 302.144531 99.769531 299.15625 C 97.3125 297.226562 96.464844 297.222656 94.414062 299.132812 M 235.542969 304.003906 C 233.648438 306.890625 234.890625 309.832031 238.136719 310.144531 C 242.125 310.53125 245.199219 306.597656 243.292969 303.550781 C 241.863281 301.257812 237.164062 301.53125 235.542969 304.003906 M 115.3125 312.664062 C 114.078125 313.898438 114.191406 316.335938 115.578125 318.3125 C 118.15625 321.988281 124.773438 319.285156 123.65625 315.011719 C 122.941406 312.292969 117.28125 310.699219 115.3125 312.664062 M 213.769531 315.730469 C 210.867188 318.816406 212.441406 322.203125 216.777344 322.203125 C 219.84375 322.203125 221.847656 320.347656 221.847656 317.511719 C 221.847656 313.898438 216.585938 312.738281 213.769531 315.730469 M 138.253906 322.675781 C 137.265625 325.273438 138.925781 327.859375 142.027344 328.539062 C 145.925781 329.394531 148.960938 325.65625 146.90625 322.527344 C 145.9375 321.050781 145.09375 320.714844 142.359375 320.714844 C 139.417969 320.714844 138.90625 320.957031 138.253906 322.675781 M 189.933594 322.617188 C 188.144531 323.871094 187.820312 325.921875 189.046875 328.214844 C 190.703125 331.300781 197.972656 329.195312 197.972656 325.628906 C 197.972656 322 193.3125 320.253906 189.933594 322.617188 M 164.175781 325.019531 C 162.503906 326.867188 162.578125 328.578125 164.402344 330.402344 C 166.316406 332.308594 169.757812 332.3125 171.484375 330.40625 C 172.566406 329.210938 172.695312 328.449219 172.136719 326.496094 C 171.519531 324.332031 171.117188 324.042969 168.441406 323.84375 C 166.257812 323.683594 165.101562 324 164.175781 325.019531 " fill-opacity="1" fill-rule="evenodd"/></svg>