<svg xmlns="http://www.w3.org/2000/svg" xmlns:xlink="http://www.w3.org/1999/xlink" width="500" zoomAndPan="magnify" viewBox="0 0 375 374.999991" height="500" preserveAspectRatio="xMidYMid meet" version="1.0"><metadata><ContainsAiGeneratedContent>Yes</ContainsAiGeneratedContent></metadata><rect x="-37.5" width="450" fill="#ffffff" y="-37.499999" height="449.999989" fill-opacity="1"/><rect x="-37.5" width="450" fill="#ffffff" y="-37.499999" height="449.999989" fill-opacity="1"/><path fill="#000000" d="M 169.675781 43.980469 C 149.695312 46.507812 124.4375 56.007812 107.410156 67.40625 C 72.890625 90.503906 50.546875 125.207031 44.136719 165.675781 C 42.429688 176.425781 42.308594 196.757812 43.875 208.25 C 45.988281 223.734375 49 233.390625 57.472656 251.8125 C 60.824219 259.101562 68.277344 270.976562 73.835938 277.886719 C 77.875 282.90625 89.851562 294.96875 95.070312 299.277344 C 107.707031 309.703125 128.527344 321.085938 142.277344 325.089844 C 144.453125 325.726562 147.277344 326.625 148.546875 327.09375 C 150.878906 327.949219 157.421875 329.199219 169.097656 331.019531 C 178.375 332.464844 195.875 332.324219 206.421875 330.71875 C 227.566406 327.5 235.695312 324.648438 235.695312 320.457031 C 235.695312 316.449219 232.109375 315.996094 222.160156 318.746094 C 210.28125 322.03125 204.117188 322.894531 190.0625 323.25 C 179.320312 323.515625 174.941406 323.359375 169.269531 322.488281 C 150.804688 319.660156 139.792969 316.191406 124.863281 308.503906 C 110.367188 301.042969 99.570312 293.019531 88.742188 281.660156 C 75.855469 268.144531 66.605469 252.980469 59.074219 233 C 57.375 228.496094 54.789062 218.039062 53.363281 209.898438 C 51.597656 199.8125 51.265625 178.269531 52.730469 168.644531 C 54.808594 155.003906 56.769531 148.039062 62.390625 134.324219 C 67.496094 121.867188 74.242188 111.035156 84.378906 99.011719 C 89.753906 92.636719 90.304688 92.085938 99.03125 84.398438 C 107.886719 76.601562 122.402344 67.609375 134.375 62.503906 C 141.457031 59.480469 156.550781 55.164062 164.824219 53.792969 C 174.527344 52.183594 205.664062 52.710938 213.910156 54.621094 C 225.539062 57.320312 232.226562 59.542969 241.496094 63.800781 C 244.144531 65.011719 246.421875 66.007812 246.5625 66.007812 C 247.769531 66.007812 266.660156 77.625 268.046875 79.21875 C 268.226562 79.429688 270.179688 80.972656 272.382812 82.652344 C 277.191406 86.3125 287 95.84375 291.601562 101.320312 C 301.003906 112.515625 311.855469 132.433594 315.871094 145.875 C 318.839844 155.8125 319.667969 159.078125 320.203125 162.976562 C 320.535156 165.367188 321.109375 169.257812 321.480469 171.617188 C 322.539062 178.351562 322.339844 200.804688 321.171875 206.269531 C 319.835938 212.523438 319.710938 219.746094 320.925781 220.515625 C 322.886719 221.753906 326.0625 221.195312 327.242188 219.398438 C 329.410156 216.085938 330.734375 204.195312 330.75 187.871094 C 330.765625 170.511719 329.332031 159.003906 325.808594 148.183594 C 325.332031 146.730469 324.34375 143.613281 323.613281 141.253906 C 322.878906 138.894531 321.796875 135.773438 321.210938 134.324219 L 319.609375 130.363281 C 318.5 127.628906 313.261719 117.667969 310.835938 113.683594 C 309.453125 111.410156 308.316406 109.382812 308.316406 109.179688 C 308.316406 108.121094 297.199219 94.539062 291.269531 88.347656 C 276.597656 73.039062 255.996094 59.269531 238.664062 53.183594 C 215.535156 45.0625 210.820312 44.183594 188.820312 43.902344 C 179.5625 43.785156 170.945312 43.816406 169.675781 43.980469 M 166.703125 66.023438 C 155.960938 67.796875 143.871094 71.851562 130.722656 78.09375 C 117.351562 84.441406 98.351562 100.273438 88.984375 112.871094 C 77.691406 128.0625 69.476562 145.960938 66.421875 162.046875 C 62.289062 183.785156 62.402344 194.808594 66.980469 216.292969 C 70.121094 231.03125 79.300781 249.902344 90.527344 264.683594 C 97.351562 273.671875 109.355469 284.527344 119.59375 290.972656 C 136.695312 301.742188 153.863281 307.824219 172.976562 309.886719 C 177.878906 310.417969 184.265625 310.855469 187.167969 310.863281 C 197.183594 310.886719 214.730469 308.328125 219.519531 306.148438 C 220.84375 305.542969 221.171875 304.917969 221.171875 302.964844 C 221.171875 300.207031 219.59375 298.347656 217.253906 298.347656 C 216.425781 298.347656 214.074219 298.769531 212.023438 299.285156 C 207.398438 300.453125 191.117188 302.308594 185.519531 302.308594 C 178.613281 302.308594 163.816406 300.375 156.800781 298.554688 C 150.277344 296.863281 142.363281 293.796875 134.023438 289.734375 C 119.886719 282.847656 101.789062 266.992188 92.621094 253.460938 C 90.761719 250.710938 89.886719 249.25 86.605469 243.398438 C 85.945312 242.21875 84.289062 238.578125 82.929688 235.3125 C 81.566406 232.042969 80.183594 228.777344 79.859375 228.050781 C 76.121094 219.746094 72.625 199.972656 72.625 187.140625 C 72.625 175.652344 74.667969 162.433594 77.988281 152.476562 C 80.414062 145.195312 81.167969 143.390625 84.746094 136.28125 C 95.007812 115.894531 109.4375 100.339844 128.726562 88.871094 C 133.683594 85.921875 146.675781 79.867188 148.046875 79.867188 C 148.394531 79.867188 149.613281 79.46875 150.757812 78.980469 C 161.121094 74.558594 184.71875 72.058594 198.722656 73.898438 C 210.003906 75.382812 219.375 77.433594 222.28125 79.0625 C 223.074219 79.503906 224.152344 79.867188 224.671875 79.867188 C 225.851562 79.867188 237.351562 84.9375 242.648438 87.792969 C 248.65625 91.03125 257.90625 97.691406 263.5 102.804688 C 266.261719 105.335938 269.339844 107.605469 270.335938 107.855469 C 272.984375 108.523438 275.308594 106.800781 275.308594 104.175781 C 275.308594 102.054688 273.09375 99.519531 265.320312 92.738281 C 254.253906 83.085938 233.660156 72.691406 216.832031 68.265625 C 202.703125 64.554688 181.40625 63.601562 166.703125 66.023438 M 185.105469 93.066406 C 182.308594 94.183594 182.21875 95.753906 182.21875 142.707031 C 182.21875 180.257812 182.371094 187.8125 183.160156 189.304688 C 183.679688 190.285156 192.53125 199.480469 202.828125 209.734375 C 219.164062 226 221.8125 228.382812 223.570312 228.382812 C 225.804688 228.382812 227.773438 226.652344 227.769531 224.699219 C 227.761719 222.4375 225.53125 219.917969 209.503906 204.0625 C 200.820312 195.476562 193.285156 187.882812 192.753906 187.191406 C 191.941406 186.128906 191.742188 178.933594 191.460938 140.515625 C 191.175781 101.296875 190.996094 94.96875 190.140625 94.152344 C 188.757812 92.835938 186.761719 92.40625 185.105469 93.066406 M 120.578125 120.179688 C 118.171875 122.074219 118.246094 124.921875 120.769531 127.445312 C 123.058594 129.734375 124.019531 129.832031 126.339844 128.003906 C 128.867188 126.019531 128.742188 122.785156 126.050781 120.519531 C 123.59375 118.453125 122.832031 118.40625 120.578125 120.179688 M 248.75 119.839844 C 245.207031 121.761719 244.511719 125.78125 247.335938 128.003906 C 249.445312 129.660156 250.761719 129.703125 252.597656 128.167969 C 255.792969 125.496094 256.242188 122.792969 253.878906 120.433594 C 252.019531 118.574219 251.25 118.484375 248.75 119.839844 M 287.183594 122.242188 C 283.429688 123.632812 283.679688 126.367188 288.394531 135.476562 C 290.507812 139.5625 292.566406 143.796875 292.964844 144.882812 C 293.367188 145.972656 294.308594 148.480469 295.054688 150.453125 C 298.9375 160.730469 301.054688 173.785156 301.046875 187.457031 C 301.039062 197.855469 300.777344 200.226562 297.988281 215.003906 C 297.402344 218.101562 299.117188 220.460938 301.957031 220.460938 C 305.84375 220.460938 306.554688 218.867188 308.933594 204.84375 C 311.46875 189.929688 310.507812 172.289062 306.335938 157.09375 C 305.585938 154.371094 304.730469 151.253906 304.433594 150.164062 C 302.957031 144.769531 295.273438 128.066406 292.402344 124.007812 C 290.953125 121.957031 289.390625 121.429688 287.183594 122.242188 M 94.574219 184.148438 C 92.832031 185.210938 92.429688 185.878906 92.429688 187.699219 C 92.429688 190.488281 93.839844 191.71875 97.050781 191.71875 C 100.238281 191.71875 101.671875 190.488281 101.671875 187.753906 C 101.671875 186.183594 101.1875 185.191406 99.933594 184.207031 C 97.785156 182.515625 97.265625 182.511719 94.574219 184.148438 M 273.820312 184.234375 C 269.0625 187.785156 274.128906 194.132812 279.476562 191.320312 C 282.417969 189.773438 282.753906 186.921875 280.289062 184.457031 C 278.328125 182.496094 276.25 182.421875 273.820312 184.234375 M 251.210938 235.617188 C 247.054688 236.871094 245.683594 237.527344 241.226562 240.398438 C 229.355469 248.046875 223.992188 264.523438 228.796875 278.570312 C 229.726562 281.277344 230.671875 284.089844 230.898438 284.816406 C 231.125 285.542969 232.3125 287.847656 233.539062 289.9375 C 240.789062 302.3125 255.527344 317.585938 270.023438 327.746094 C 281.089844 335.503906 282.921875 336.625 284.542969 336.628906 C 286 336.628906 291.953125 333.121094 294.339844 330.855469 C 294.820312 330.398438 296.601562 329.085938 298.300781 327.933594 C 310.15625 319.910156 324.933594 305.746094 330.550781 297.03125 C 331.839844 295.03125 333.394531 292.652344 334.007812 291.746094 C 335.273438 289.867188 338.710938 282.648438 339.976562 279.207031 C 342.09375 273.449219 342.058594 262.339844 339.90625 256.761719 C 338.300781 252.59375 334.8125 247 332.21875 244.429688 C 326.535156 238.808594 316.417969 234.351562 309.308594 234.339844 C 305.316406 234.335938 296.777344 236.636719 293.363281 238.636719 C 291.691406 239.613281 289.214844 241.417969 287.855469 242.648438 C 284.847656 245.363281 283.898438 245.417969 281.105469 243.023438 C 272.414062 235.578125 260.84375 232.710938 251.210938 235.617188 M 250.21875 245.21875 C 248.585938 246.082031 246.644531 247.074219 245.902344 247.417969 C 243.667969 248.457031 239.613281 253.402344 237.765625 257.34375 C 236.261719 260.546875 236.027344 261.914062 236.039062 267.324219 C 236.0625 279.585938 241.476562 289.492188 256.730469 305.1875 C 261.496094 310.089844 275.699219 321.675781 280.636719 324.683594 C 284.078125 326.78125 285.691406 326.433594 291.488281 322.351562 C 309.550781 309.617188 324.136719 293.816406 330.09375 280.527344 C 332.199219 275.828125 332.316406 275.167969 332.363281 267.65625 C 332.410156 260.558594 332.253906 259.433594 330.867188 256.835938 C 328.449219 252.296875 323.902344 247.902344 319.285156 245.628906 C 315.519531 243.773438 314.472656 243.5625 309.105469 243.5625 C 302.601562 243.5625 300.78125 244.03125 296.765625 246.734375 C 293.433594 248.976562 292.59375 249.796875 289.847656 253.464844 C 285.269531 259.574219 283.902344 259.628906 279.367188 253.855469 C 273.132812 245.925781 268.457031 243.542969 259.242188 243.601562 C 254.179688 243.632812 252.707031 243.898438 250.21875 245.21875 M 120.644531 248.019531 C 117.753906 251.222656 119.050781 256.101562 122.789062 256.101562 C 126.792969 256.101562 129.628906 250.449219 126.875 247.953125 C 125.292969 246.523438 121.957031 246.558594 120.644531 248.019531 M 306.335938 253.464844 C 304.839844 254.960938 304.621094 257.335938 305.84375 258.859375 C 306.296875 259.425781 308.269531 260.449219 310.226562 261.128906 C 314.105469 262.484375 315.207031 263.722656 315.863281 267.480469 C 316.644531 271.929688 321.433594 272.695312 323.734375 268.742188 C 324.964844 266.628906 324.972656 266.378906 323.941406 263.105469 C 322.539062 258.652344 318.164062 253.875 314.578125 252.878906 C 310.597656 251.777344 307.828125 251.972656 306.335938 253.464844 M 183.5625 274.542969 C 182.46875 276.582031 182.746094 280.199219 184.085938 281.414062 C 184.75 282.015625 186.25 282.503906 187.421875 282.503906 C 189.25 282.503906 189.691406 282.164062 190.566406 280.070312 C 191.488281 277.867188 191.484375 277.421875 190.542969 275.449219 C 189.621094 273.515625 189.199219 273.265625 186.875 273.265625 C 184.949219 273.265625 184.0625 273.609375 183.5625 274.542969 " fill-opacity="1" fill-rule="evenodd"/></svg>