<svg xmlns="http://www.w3.org/2000/svg" xmlns:xlink="http://www.w3.org/1999/xlink" width="500" zoomAndPan="magnify" viewBox="0 0 375 374.999991" height="500" preserveAspectRatio="xMidYMid meet" version="1.0"><metadata><ContainsAiGeneratedContent>Yes</ContainsAiGeneratedContent></metadata><rect x="-37.5" width="450" fill="#ffffff" y="-37.499999" height="449.999989" fill-opacity="1"/><rect x="-37.5" width="450" fill="#ffffff" y="-37.499999" height="449.999989" fill-opacity="1"/><path fill="#000000" d="M 108.222656 83.160156 C 99.722656 86.074219 92.722656 91.945312 89.125 99.167969 C 87.183594 103.0625 87.171875 103.15625 87.171875 114.589844 L 87.171875 126.097656 L 89.410156 130.558594 C 94.296875 140.28125 104.644531 146.804688 115.191406 146.804688 C 123.648438 146.804688 132 143.15625 137.125 137.222656 C 140.996094 132.742188 143.105469 128.59375 144.382812 122.933594 C 149.242188 101.4375 135.394531 82.265625 115.132812 82.441406 C 112.417969 82.464844 109.308594 82.785156 108.222656 83.160156 M 253.617188 83.382812 C 252.171875 83.90625 250.613281 84.335938 250.15625 84.339844 C 248.75 84.359375 242.582031 88.898438 239.582031 92.128906 C 236.027344 95.953125 234.339844 99.171875 232.804688 105.058594 C 228.277344 122.390625 236.40625 139.621094 251.761719 145.242188 C 257.488281 147.339844 265.886719 147.585938 270.394531 145.785156 C 278.140625 142.695312 284.539062 136.996094 287.65625 130.414062 C 289.359375 126.816406 289.78125 124.941406 290.179688 119.195312 C 290.859375 109.402344 290.050781 103.253906 287.457031 98.4375 C 281.992188 88.296875 272.261719 82.34375 261.246094 82.40625 C 258.496094 82.421875 255.066406 82.863281 253.617188 83.382812 M 108.375 90.851562 C 103.34375 92.515625 100.378906 94.878906 97.378906 99.617188 C 94.007812 104.945312 92.9375 111.074219 93.949219 119.265625 C 94.539062 124.078125 95.09375 125.855469 96.957031 128.917969 C 99.792969 133.582031 101.335938 135.039062 105.921875 137.371094 C 108.800781 138.835938 110.644531 139.261719 114.9375 139.457031 C 119.910156 139.6875 120.695312 139.535156 124.988281 137.5625 C 130.382812 135.078125 133.574219 131.890625 136.070312 126.507812 C 137.621094 123.160156 137.785156 122.03125 137.804688 114.589844 C 137.828125 106.621094 137.765625 106.242188 135.675781 101.976562 C 131.921875 94.308594 125.863281 90.359375 117.105469 89.871094 C 113.425781 89.664062 111.207031 89.914062 108.375 90.851562 M 255.261719 90.140625 C 251.027344 91.316406 244.890625 95.699219 242.851562 99.003906 C 240.316406 103.113281 239.492188 106.773438 239.484375 113.980469 C 239.472656 122.359375 240.484375 126.183594 244.023438 131.121094 C 246.121094 134.046875 247.570312 135.226562 251.542969 137.242188 C 256.371094 139.691406 256.578125 139.734375 262.277344 139.425781 C 269.148438 139.054688 273.664062 137.054688 277.410156 132.714844 C 282.453125 126.875 283.914062 120.910156 282.914062 110.242188 C 282.28125 103.476562 280.820312 99.910156 277.066406 95.964844 C 273.140625 91.832031 269.03125 90.117188 262.503906 89.882812 C 259.425781 89.773438 256.167969 89.890625 255.261719 90.140625 M 176.03125 138.933594 C 168.90625 140.929688 165.886719 142.210938 159.867188 145.78125 C 148.4375 152.5625 139.15625 164.324219 135.203125 177.042969 C 132.707031 185.066406 132.71875 200.457031 135.222656 208.757812 C 141.03125 227.988281 156.320312 242.617188 175.328125 247.136719 C 187.222656 249.960938 194.804688 249.546875 207.265625 245.394531 C 223.261719 240.0625 237.269531 225.121094 242.1875 208.144531 C 244.289062 200.882812 244.335938 185.675781 242.28125 178.257812 C 238.882812 166 230.921875 155.019531 219.914062 147.40625 C 210.285156 140.742188 201.945312 138.15625 189.144531 137.859375 C 182.234375 137.695312 179.714844 137.902344 176.03125 138.933594 M 177.960938 145.457031 C 172.78125 146.746094 165.839844 149.628906 162.535156 151.859375 C 156.644531 155.84375 149.335938 163.632812 146.316406 169.15625 C 142.867188 175.46875 141.707031 179.160156 140.722656 186.996094 C 138.921875 201.285156 143.164062 215.058594 152.453125 225.085938 C 159.832031 233.046875 167.3125 237.570312 177.601562 240.289062 C 186.984375 242.765625 201.03125 241.082031 210.195312 236.378906 C 220.742188 230.964844 229.4375 221.375 233.664062 210.488281 C 236.675781 202.726562 237.421875 190.308594 235.433594 180.988281 C 234.710938 177.597656 230.484375 168.550781 227.683594 164.410156 C 224.242188 159.308594 217.8125 153.835938 211.511719 150.636719 C 201.460938 145.527344 198.644531 144.824219 188.648438 144.898438 C 183.855469 144.9375 179.046875 145.1875 177.960938 145.457031 M 90.863281 153.753906 C 81.605469 156.253906 72.171875 163.847656 68.234375 171.960938 C 66.964844 174.578125 65.585938 178.203125 65.171875 180.019531 C 64.679688 182.167969 64.367188 193.058594 64.28125 211.246094 C 64.148438 238.769531 64.167969 239.207031 65.574219 241.835938 C 68.949219 248.136719 74.203125 250.917969 82.042969 250.554688 L 86.515625 250.347656 L 86.6875 275.175781 L 86.859375 300.007812 L 85.164062 300.652344 C 84.230469 301.003906 81.304688 301.296875 78.65625 301.296875 C 73.292969 301.296875 72.136719 301.992188 72.488281 305.019531 C 72.613281 306.125 73.285156 307.144531 74.175781 307.585938 C 75.246094 308.113281 107.070312 308.324219 188.976562 308.34375 C 313.335938 308.375 304.605469 308.660156 304.605469 304.5625 C 304.605469 301.953125 303.578125 301.453125 297.464844 301.089844 C 294.441406 300.910156 291.671875 300.46875 291.308594 300.105469 C 290.546875 299.347656 289.761719 255.804688 290.441406 252.175781 L 290.878906 249.851562 L 293.960938 250.351562 C 298.625 251.113281 300.585938 250.863281 304.3125 249.042969 C 307.945312 247.265625 310.648438 244.066406 312.207031 239.699219 C 312.898438 237.757812 313.105469 231.335938 313.128906 211.054688 C 313.15625 186.816406 313.058594 184.546875 311.824219 179.9375 C 308.917969 169.105469 302.695312 161.082031 293.898438 156.820312 C 286.273438 153.132812 283.300781 152.742188 262.664062 152.730469 C 244.949219 152.722656 244.015625 152.78125 242.761719 154.035156 C 241.082031 155.714844 241.101562 156.804688 242.832031 158.371094 C 244.117188 159.535156 245.53125 159.632812 262.402344 159.738281 C 272.40625 159.800781 281.867188 160.019531 283.429688 160.222656 C 287.949219 160.816406 294.507812 164.453125 298.058594 168.335938 C 302.410156 173.089844 303.273438 174.953125 305.277344 183.949219 C 305.597656 185.394531 305.875 197.589844 305.890625 211.054688 C 305.921875 238.125 305.699219 239.875 301.925781 241.824219 C 298.289062 243.703125 293.761719 242.710938 291.621094 239.5625 C 290.574219 238.027344 290.425781 235.296875 290.128906 212.296875 C 289.8125 187.648438 289.753906 186.707031 288.484375 185.878906 C 287.398438 185.171875 286.796875 185.179688 285.03125 185.933594 L 282.894531 186.84375 L 282.894531 243.375 C 282.894531 285.644531 282.703125 300.023438 282.128906 300.375 C 280.796875 301.199219 268.859375 301.46875 266.941406 300.71875 L 265.132812 300.011719 L 265.066406 274.851562 C 265.027344 261.011719 264.800781 248.976562 264.558594 248.109375 C 263.484375 244.28125 259.03125 244.574219 257.925781 248.542969 C 257.511719 250.042969 257.242188 260.585938 257.238281 275.511719 C 257.234375 298.238281 257.152344 300.054688 256.085938 300.484375 C 254.566406 301.089844 242.101562 301.101562 240.625 300.492188 C 239.550781 300.054688 239.472656 297.992188 239.472656 270.375 C 239.472656 251.195312 239.234375 240.277344 238.792969 239.457031 C 237.765625 237.539062 234.511719 237.769531 233.140625 239.859375 C 232.164062 241.351562 232.03125 244.6875 231.917969 270.523438 C 231.796875 297.90625 231.722656 299.5625 230.574219 300.40625 C 228.816406 301.6875 148.210938 301.726562 146.457031 300.445312 C 145.378906 299.65625 145.285156 297.492188 145.179688 270.667969 C 145.074219 244.199219 144.964844 241.589844 143.898438 239.964844 C 142.53125 237.875 140.1875 237.621094 138.589844 239.386719 C 137.609375 240.46875 137.5 243.574219 137.5 270.300781 L 137.5 300.011719 L 135.8125 300.652344 C 133.320312 301.601562 122.183594 301.46875 120.898438 300.472656 C 119.957031 299.75 119.796875 296.632812 119.535156 274.011719 C 119.371094 259.910156 119.027344 247.867188 118.769531 247.25 C 117.832031 245 113.714844 244.988281 112.855469 247.230469 C 112.621094 247.839844 112.445312 259.792969 112.46875 273.789062 L 112.511719 299.242188 L 111.042969 300.269531 C 109.367188 301.441406 97.121094 301.742188 95.394531 300.652344 C 94.53125 300.105469 94.386719 292.894531 94.222656 243.46875 L 94.039062 186.910156 L 92.382812 185.828125 C 90.996094 184.917969 90.480469 184.878906 89.171875 185.578125 C 88.3125 186.035156 87.441406 187.042969 87.234375 187.808594 C 87.03125 188.578125 86.855469 200.003906 86.847656 213.203125 C 86.839844 235.792969 86.761719 237.320312 85.558594 239.292969 C 84.09375 241.695312 82.894531 242.433594 79.46875 243.050781 C 77.292969 243.445312 76.746094 243.234375 74.371094 241.089844 L 71.710938 238.6875 L 71.710938 210.894531 C 71.710938 185.007812 71.800781 182.808594 73.019531 178.867188 C 75.207031 171.792969 80.507812 165.660156 87.5 162.117188 L 91.121094 160.28125 L 111.84375 159.921875 C 123.242188 159.726562 133.0625 159.335938 133.667969 159.050781 C 135.277344 158.296875 135.648438 156.769531 134.699219 154.792969 L 133.863281 153.050781 L 114.136719 152.921875 C 98.613281 152.824219 93.652344 153.003906 90.863281 153.753906 M 194.496094 165.128906 C 193.542969 167.253906 192.761719 169.328125 192.761719 169.742188 C 192.761719 170.152344 192.460938 171.003906 192.09375 171.632812 C 191.722656 172.257812 189.671875 178.097656 187.527344 184.605469 C 185.386719 191.113281 182.109375 200.726562 180.25 205.972656 C 177.121094 214.796875 176.078125 218.015625 175.246094 221.421875 C 174.675781 223.746094 176.605469 225.332031 179.738281 225.113281 C 181.03125 225.023438 183.296875 220.339844 184.300781 215.675781 C 184.671875 213.960938 185.515625 211.890625 186.179688 211.074219 C 187.359375 209.613281 187.660156 209.585938 202.257812 209.492188 C 217.65625 209.390625 219.078125 209.148438 219.078125 206.621094 C 219.078125 205.984375 218.558594 204.835938 217.925781 204.074219 C 216.835938 202.757812 216.097656 202.675781 203.617188 202.519531 L 190.460938 202.355469 L 190.246094 200.84375 C 190.128906 200.015625 190.621094 197.796875 191.339844 195.914062 C 192.058594 194.035156 193.183594 190.777344 193.839844 188.675781 C 194.496094 186.578125 195.222656 184.554688 195.453125 184.183594 C 195.6875 183.800781 200.601562 183.324219 206.964844 183.074219 L 218.0625 182.632812 L 218.722656 180.757812 C 219.289062 179.140625 219.167969 178.707031 217.839844 177.632812 C 216.53125 176.574219 215.183594 176.386719 208.863281 176.386719 C 204.769531 176.386719 200.957031 176.207031 200.382812 175.988281 C 199.292969 175.570312 198.910156 172.128906 199.890625 171.527344 C 200.1875 171.339844 200.800781 169.5625 201.246094 167.574219 C 202.285156 162.929688 201.542969 161.265625 198.421875 161.265625 C 196.386719 161.265625 196.109375 161.539062 194.496094 165.128906 M 161.511719 176.859375 C 159.863281 177.261719 157.894531 178.972656 157.894531 180.003906 C 157.894531 180.433594 158.519531 181.347656 159.28125 182.039062 C 160.523438 183.15625 161.667969 183.28125 169.894531 183.191406 C 179.640625 183.085938 180.230469 182.898438 180.253906 179.875 C 180.273438 177.140625 178.003906 176.378906 170.082031 176.464844 C 166.09375 176.507812 162.238281 176.683594 161.511719 176.859375 M 160.054688 203.355469 C 158.285156 204.066406 157.421875 206.910156 158.558594 208.28125 C 159.523438 209.441406 167.757812 209.660156 169.78125 208.578125 C 171.765625 207.515625 171.496094 204.136719 169.367188 203.324219 C 167.296875 202.539062 162.035156 202.558594 160.054688 203.355469 " fill-opacity="1" fill-rule="evenodd"/></svg>