<svg xmlns="http://www.w3.org/2000/svg" xmlns:xlink="http://www.w3.org/1999/xlink" width="500" zoomAndPan="magnify" viewBox="0 0 375 374.999991" height="500" preserveAspectRatio="xMidYMid meet" version="1.0"><metadata><ContainsAiGeneratedContent>Yes</ContainsAiGeneratedContent></metadata><rect x="-37.5" width="450" fill="#ffffff" y="-37.499999" height="449.999989" fill-opacity="1"/><rect x="-37.5" width="450" fill="#ffffff" y="-37.499999" height="449.999989" fill-opacity="1"/><path fill="#000000" d="M 249.253906 56.558594 C 246.925781 59.359375 248.464844 61.839844 255.292969 66.304688 C 276.273438 80.019531 296.910156 106.894531 304.28125 130.097656 C 306.121094 135.894531 308.746094 137.496094 311.648438 134.597656 C 313.578125 132.671875 313.636719 132.113281 312.367188 127.953125 C 305.078125 104.089844 287.96875 80.53125 265.589844 63.539062 C 255.175781 55.632812 251.375 54.007812 249.253906 56.558594 M 180.066406 60.578125 C 175.007812 61.921875 168.011719 67.96875 165.246094 73.382812 C 163.027344 77.734375 163.011719 78.1875 164.578125 94.648438 C 164.839844 97.410156 164.375 97.851562 159.09375 99.832031 C 151.816406 102.5625 144.226562 106.992188 142.710938 109.386719 C 141.023438 112.0625 143.226562 114.992188 146.734375 114.738281 C 148.261719 114.628906 150.90625 113.546875 152.609375 112.335938 C 156.949219 109.246094 167.703125 105.464844 176.890625 103.792969 C 183.308594 102.628906 186.371094 102.617188 194.3125 103.742188 C 206.023438 105.398438 210.519531 106.914062 219.46875 112.234375 C 233.894531 120.804688 246.074219 136.445312 251.15625 152.917969 C 253.164062 159.433594 253.398438 162.757812 253.410156 185.226562 C 253.421875 205.605469 253.796875 212.078125 255.421875 219.960938 C 257.941406 232.152344 264.15625 245.054688 272.128906 254.652344 C 276.929688 260.429688 277.925781 262.246094 277.054688 263.628906 C 276.058594 265.203125 267.996094 265.382812 187.128906 265.628906 C 97.503906 265.902344 95.414062 265.824219 95.414062 262.265625 C 95.414062 261.582031 98.003906 257.964844 101.167969 254.230469 C 108.722656 245.316406 111.835938 239.171875 110.277344 236.261719 C 108.753906 233.414062 105.464844 233.523438 103.394531 236.492188 C 102.476562 237.804688 99.472656 241.898438 96.714844 245.59375 C 93.960938 249.289062 90.589844 253.816406 89.226562 255.65625 C 85.855469 260.210938 86.59375 266.039062 91.113281 270.554688 L 94.390625 273.832031 L 124.648438 274.363281 L 154.902344 274.890625 L 157.453125 281.246094 C 162.128906 292.882812 174.753906 301.902344 186.363281 301.902344 C 188.429688 301.902344 192.789062 301.078125 196.046875 300.070312 C 204 297.613281 212.917969 288.957031 215.996094 280.707031 L 218.167969 274.890625 L 248.394531 274.363281 C 282.066406 273.773438 281.558594 273.886719 284.878906 266.042969 C 287.0625 260.882812 285.792969 257.164062 279.300781 249.726562 C 276.15625 246.125 271.953125 239.824219 269.960938 235.730469 C 263.074219 221.574219 262.71875 219.421875 261.898438 186.96875 C 261.324219 164.140625 260.738281 155.847656 259.359375 150.953125 C 252.664062 127.183594 235.203125 107.835938 212.941406 99.515625 C 209.53125 98.242188 206.742188 97.078125 206.742188 96.929688 C 206.742188 96.78125 207.460938 94.949219 208.335938 92.855469 C 210.492188 87.695312 210.304688 78.800781 207.925781 73.566406 C 204.425781 65.867188 194.15625 59.101562 186.476562 59.433594 C 185.085938 59.496094 182.199219 60.007812 180.066406 60.578125 M 180.640625 69.421875 C 174.960938 71.910156 171.753906 76.726562 171.753906 82.761719 C 171.753906 88.277344 174.070312 94.210938 176.289062 94.382812 C 177.640625 94.492188 194.792969 94.460938 196.707031 94.347656 C 198.792969 94.222656 201.441406 88.109375 201.441406 83.417969 C 201.441406 77.621094 198.105469 72.246094 192.921875 69.703125 C 188.53125 67.550781 185.097656 67.46875 180.640625 69.421875 M 244.558594 87.574219 C 242.460938 89.671875 244.683594 93.355469 253.660156 102.65625 C 260.210938 109.445312 265.226562 115.882812 268.769531 122.050781 C 274.15625 131.429688 276.660156 133.605469 279.421875 131.316406 C 281.828125 129.320312 281.273438 126.269531 277.128906 118.734375 C 267.363281 100.972656 248.863281 83.273438 244.558594 87.574219 M 87.421875 114.203125 C 71.527344 119.523438 60.414062 129.183594 53.382812 143.78125 C 44.121094 163.023438 46.585938 185.277344 60.007812 203.542969 C 69.039062 215.835938 87.660156 224.585938 104.742188 224.5625 C 116.8125 224.546875 124.308594 222.308594 135.332031 215.433594 C 143.144531 210.558594 144.898438 208.921875 149.9375 201.800781 C 160.421875 186.992188 163.226562 173.699219 159.554688 156.25 C 152.667969 123.535156 118.699219 103.738281 87.421875 114.203125 M 94.769531 121.28125 C 85.144531 123.375 75.269531 128.472656 75.269531 131.355469 C 75.269531 133.101562 139.820312 198.097656 141.542969 198.085938 C 143.121094 198.074219 147.195312 191.652344 149.703125 185.230469 C 152.703125 177.542969 152.871094 158.625 150.003906 151.484375 C 143.816406 136.089844 128.96875 123.808594 112.980469 120.863281 C 105.257812 119.441406 102.996094 119.492188 94.769531 121.28125 M 198.96875 132.0625 C 198.578125 132.453125 198.261719 133.875 198.261719 135.222656 C 198.261719 137.097656 199.484375 138.296875 203.429688 140.292969 C 210.054688 143.648438 216.535156 151.023438 219.074219 158.101562 C 220.710938 162.660156 221.566406 163.722656 223.804688 163.984375 C 228 164.472656 229.484375 161.972656 227.902344 157.085938 C 225.625 150.054688 222.867188 145.515625 217.792969 140.445312 C 210.675781 133.335938 201.695312 129.335938 198.96875 132.0625 M 63.582031 142.214844 C 58.539062 150.433594 56.875 156.871094 56.808594 168.433594 C 56.746094 178.867188 56.957031 180.011719 60.214844 186.910156 C 66.566406 200.359375 75.792969 208.949219 88.820312 213.542969 C 102.066406 218.214844 118.605469 216.441406 129.609375 209.167969 C 131.796875 207.722656 133.585938 205.769531 133.585938 204.832031 C 133.585938 202.855469 69.046875 138.800781 67.039062 138.78125 C 66.300781 138.777344 64.746094 140.324219 63.582031 142.214844 M 165.777344 275.945312 C 164.066406 280.402344 172.746094 290.308594 180.167969 292.367188 C 186.03125 293.996094 189.84375 293.625 195.8125 290.847656 C 201.882812 288.023438 208.109375 280.726562 207.582031 277.054688 C 207.285156 274.972656 206.496094 274.882812 186.839844 274.601562 C 169.242188 274.355469 166.316406 274.542969 165.777344 275.945312 M 133.320312 289.277344 C 130.75 290.773438 130.996094 293.621094 134.300781 300.644531 C 137.625 307.710938 149.777344 320.472656 154.25 321.59375 C 159.921875 323.015625 163.183594 318.335938 158.894531 314.925781 C 151.417969 308.988281 144.207031 301.269531 142.023438 296.867188 C 139.4375 291.664062 136.902344 288.109375 135.804688 288.164062 C 135.460938 288.183594 134.339844 288.683594 133.320312 289.277344 M 235.160156 289.988281 C 234.277344 291.003906 232.265625 294.261719 230.683594 297.222656 C 227.933594 302.367188 223.144531 307.714844 215.355469 314.339844 C 212.546875 316.730469 211.933594 317.890625 212.511719 319.710938 C 214.878906 327.160156 231.503906 314.816406 238.941406 300.085938 C 242.261719 293.507812 242.453125 290.710938 239.683594 289.230469 C 237.03125 287.8125 237.039062 287.808594 235.160156 289.988281 " fill-opacity="1" fill-rule="evenodd"/></svg>