<svg xmlns="http://www.w3.org/2000/svg" xmlns:xlink="http://www.w3.org/1999/xlink" width="500" zoomAndPan="magnify" viewBox="0 0 375 374.999991" height="500" preserveAspectRatio="xMidYMid meet" version="1.0"><metadata><ContainsAiGeneratedContent>Yes</ContainsAiGeneratedContent></metadata><rect x="-37.5" width="450" fill="#ffffff" y="-37.499999" height="449.999989" fill-opacity="1"/><rect x="-37.5" width="450" fill="#ffffff" y="-37.499999" height="449.999989" fill-opacity="1"/><path fill="#000000" d="M 164.4375 67.289062 C 150.816406 70.066406 135.503906 75.4375 125.335938 81.007812 C 101.3125 94.160156 80.171875 117.445312 69.652344 142.324219 C 63.917969 155.882812 59.160156 178.613281 59.160156 192.433594 C 59.160156 199.8125 61.730469 217.125 64.140625 226.011719 C 78.941406 280.507812 129.375 318.796875 186.234375 318.699219 C 207.847656 318.664062 227.941406 313.765625 246.707031 303.960938 C 261.386719 296.289062 279.429688 280.308594 289.691406 265.890625 C 321.832031 220.726562 320.6875 159.265625 286.875 114.832031 C 268.488281 90.664062 240.429688 73.570312 209.515625 67.710938 C 200.394531 65.980469 172.152344 65.71875 164.4375 67.289062 M 168.449219 75.652344 C 152.738281 78.3125 138.914062 83.390625 125.335938 91.496094 C 117.304688 96.285156 108.25 103.179688 107.535156 105.046875 C 107.199219 105.914062 113.765625 113.207031 124.929688 124.382812 L 142.859375 142.324219 L 203.03125 142.355469 C 262.835938 142.386719 263.234375 142.402344 268.667969 144.613281 C 275.65625 147.453125 280.125 153.054688 281.789062 161.050781 C 283.496094 169.269531 282.121094 223.574219 280.082031 228.515625 C 276.351562 237.554688 269.214844 241.460938 256.179688 241.59375 C 251.21875 241.644531 246.367188 242 245.402344 242.382812 C 243.988281 242.941406 246.472656 245.882812 258.257812 257.59375 L 272.871094 272.113281 L 277.058594 267.402344 C 288.125 254.945312 298.097656 234.472656 301.859375 216.484375 C 304.566406 203.535156 304.847656 183.058594 302.484375 170.890625 C 299.324219 154.605469 290.882812 135.140625 281.429688 122.347656 C 275.261719 113.996094 261.054688 100.375 252.671875 94.773438 C 227.433594 77.902344 196.566406 70.894531 168.449219 75.652344 M 91.921875 121.808594 C 81.039062 136.519531 73.578125 153.96875 70.074219 172.894531 C 67.253906 188.125 68.953125 212.753906 73.875 228.015625 C 84.785156 261.832031 113.582031 291.8125 146.003906 303.109375 C 162.15625 308.738281 164.769531 309.132812 185.996094 309.164062 C 203.988281 309.195312 206.976562 308.953125 215.074219 306.808594 C 232.539062 302.1875 255.179688 290.199219 263.839844 280.988281 L 266.125 278.554688 L 248.121094 260.570312 L 230.113281 242.585938 L 203.042969 242.519531 L 175.96875 242.453125 L 162.054688 256.03125 C 147.34375 270.386719 145.304688 271.527344 141.378906 267.605469 C 139.605469 265.832031 139.371094 264.265625 139.371094 254.074219 C 139.371094 245.578125 139.042969 242.519531 138.121094 242.441406 C 137.429688 242.382812 130.324219 242.269531 122.328125 242.191406 C 105.792969 242.027344 102.636719 241.011719 96.046875 233.71875 C 90.824219 227.9375 90.242188 223.660156 90.242188 190.894531 C 90.242188 164.992188 90.421875 161.917969 92.210938 157.210938 C 96.3125 146.425781 103.992188 142.324219 120.097656 142.324219 L 129.820312 142.324219 L 115.308594 127.792969 C 107.328125 119.800781 100.222656 113.261719 99.519531 113.261719 C 98.820312 113.261719 95.402344 117.105469 91.921875 121.808594 M 106.210938 153.617188 C 99.640625 158.035156 99.367188 159.527344 99.316406 191.535156 C 99.265625 221.238281 99.679688 224.945312 103.527344 229.199219 C 106.066406 232.011719 109.402344 232.492188 128.59375 232.824219 C 148.269531 233.160156 147.757812 232.816406 148.242188 246.089844 C 148.433594 251.308594 148.894531 255.578125 149.261719 255.578125 C 149.632812 255.578125 154.882812 250.617188 160.929688 244.554688 L 171.925781 233.527344 L 215.660156 233.527344 C 245.636719 233.527344 260.464844 233.171875 262.800781 232.390625 C 267.515625 230.8125 271.578125 226.777344 272.695312 222.550781 C 273.210938 220.597656 273.523438 206.140625 273.390625 190.433594 C 273.128906 159.390625 272.90625 158.023438 267.386719 153.941406 C 264.582031 151.863281 263.886719 151.84375 187.101562 151.578125 L 109.644531 151.308594 Z M 122.328125 170.082031 C 118.660156 171.390625 118.316406 173.402344 118.316406 193.4375 C 118.316406 215.238281 118.722656 216.914062 123.878906 216.324219 L 126.839844 215.988281 L 127.339844 206.46875 L 127.84375 196.945312 L 131.851562 196.679688 C 138.203125 196.257812 140.242188 195.5625 141.382812 193.425781 C 143.351562 189.753906 141.03125 187.425781 135.410156 187.425781 C 128.464844 187.425781 127.339844 186.78125 127.339844 182.808594 L 127.339844 179.40625 L 136.140625 179.40625 C 145.597656 179.40625 149.398438 177.972656 149.398438 174.398438 C 149.398438 170.601562 145.683594 169.378906 134.386719 169.464844 C 128.582031 169.507812 123.15625 169.785156 122.328125 170.082031 M 229.609375 170.074219 C 224.652344 171.074219 224.597656 171.320312 224.597656 193.359375 C 224.597656 208.144531 224.941406 214.429688 225.800781 215.289062 C 226.605469 216.089844 231.035156 216.492188 239.136719 216.492188 C 251.984375 216.492188 253.675781 215.945312 253.675781 211.816406 C 253.675781 208.503906 250.808594 207.46875 241.652344 207.46875 L 233.507812 207.46875 L 234.125 198.953125 L 240.105469 198.644531 C 246.777344 198.300781 248.660156 197.265625 248.660156 193.941406 C 248.660156 190.613281 246.777344 189.578125 240.105469 189.234375 L 234.125 188.929688 L 233.816406 184.167969 L 233.511719 179.40625 L 242.050781 179.40625 C 249.542969 179.40625 250.839844 179.140625 252.632812 177.214844 C 255.0625 174.605469 255.09375 174.347656 253.253906 171.832031 C 252.03125 170.15625 250.46875 169.863281 241.976562 169.730469 C 236.554688 169.644531 230.988281 169.796875 229.613281 170.074219 M 159.074219 172.582031 C 158.261719 173.855469 155.921875 179.859375 153.878906 185.921875 C 151.832031 191.984375 149.085938 199.820312 147.773438 203.332031 C 144.792969 211.3125 144.675781 215.128906 147.394531 215.988281 C 150.816406 217.074219 152.910156 215.660156 154.441406 211.230469 L 155.917969 206.96875 L 169.785156 206.96875 L 171.207031 211.230469 C 172.230469 214.296875 173.308594 215.664062 175.0625 216.105469 C 177.699219 216.765625 180.480469 215.097656 180.480469 212.859375 C 180.480469 211.214844 169.144531 177.625 167.246094 173.652344 C 165.472656 169.933594 161.128906 169.363281 159.074219 172.582031 M 187.699219 171.589844 C 186 173.292969 186 213.585938 187.699219 215.289062 C 189.246094 216.835938 192.769531 216.835938 194.316406 215.289062 C 195.035156 214.570312 195.519531 211.105469 195.519531 206.6875 C 195.519531 201.214844 195.847656 199.390625 196.773438 199.691406 C 197.464844 199.917969 201.128906 203.789062 204.914062 208.296875 C 209.933594 214.269531 212.4375 216.492188 214.152344 216.492188 C 216.339844 216.492188 218.582031 214 218.582031 211.578125 C 218.582031 211.007812 215.199219 206.605469 211.0625 201.792969 C 206.925781 196.980469 203.542969 192.601562 203.542969 192.0625 C 203.542969 191.519531 206.925781 187.601562 211.0625 183.355469 C 218.632812 175.578125 219.585938 173.796875 217.378906 171.589844 C 214.789062 169 211.796875 170.402344 204.976562 177.402344 C 201.214844 181.261719 197.550781 184.417969 196.832031 184.417969 C 195.902344 184.417969 195.519531 182.722656 195.519531 178.605469 C 195.519531 172.421875 194.40625 170.386719 191.007812 170.386719 C 189.851562 170.386719 188.363281 170.929688 187.699219 171.589844 M 161.507812 191.75 C 159.832031 196.136719 160.160156 197.449219 162.933594 197.449219 C 165.820312 197.449219 166.175781 195.386719 163.976562 191.433594 L 162.585938 188.929688 Z M 161.507812 191.75 " fill-opacity="1" fill-rule="evenodd"/></svg>