<svg xmlns="http://www.w3.org/2000/svg" xmlns:xlink="http://www.w3.org/1999/xlink" width="500" zoomAndPan="magnify" viewBox="0 0 375 374.999991" height="500" preserveAspectRatio="xMidYMid meet" version="1.0"><metadata><ContainsAiGeneratedContent>Yes</ContainsAiGeneratedContent></metadata><rect x="-37.5" width="450" fill="#ffffff" y="-37.499999" height="449.999989" fill-opacity="1"/><rect x="-37.5" width="450" fill="#ffffff" y="-37.499999" height="449.999989" fill-opacity="1"/><path fill="#000000" d="M 121.074219 56.320312 C 118.019531 57.046875 112.648438 60.203125 110.648438 62.453125 C 107.898438 65.539062 104.636719 71.546875 102.9375 76.660156 C 102.027344 79.386719 100.707031 82.109375 100.003906 82.703125 C 99.300781 83.296875 96.097656 84.664062 92.882812 85.738281 C 72.398438 92.597656 65.402344 103.761719 75.46875 113.535156 C 78.996094 116.960938 86.109375 121.054688 90.988281 122.464844 C 94.742188 123.550781 96.5625 125.925781 97.195312 130.566406 C 97.628906 133.746094 97.460938 134.296875 95.300781 136.753906 C 93.996094 138.238281 90.691406 140.710938 87.960938 142.25 C 82.769531 145.167969 72.386719 149.90625 71.179688 149.90625 C 69.242188 149.90625 65.425781 152.5 64.664062 154.335938 C 62.882812 158.632812 64.871094 161.496094 72.503906 165.621094 C 78.777344 169.015625 81.339844 170.550781 88.453125 175.183594 C 93.800781 178.667969 94.59375 179.453125 94.171875 180.847656 C 93.625 182.652344 89.9375 188.917969 85.082031 196.296875 C 80.71875 202.929688 80.902344 206.808594 85.578125 206.777344 C 87.207031 206.765625 88.53125 205.164062 94.605469 195.851562 C 106.171875 178.117188 106.28125 177.761719 101.347656 174.167969 C 99.492188 172.816406 97.75 171.6875 97.46875 171.660156 C 97.1875 171.632812 94.40625 169.921875 91.285156 167.855469 C 88.160156 165.789062 84.3125 163.425781 82.730469 162.601562 C 81.148438 161.777344 79.121094 160.324219 78.226562 159.375 C 76.679688 157.726562 76.664062 157.585938 77.925781 156.460938 C 78.652344 155.808594 81.175781 154.429688 83.535156 153.390625 C 85.890625 152.351562 89.261719 150.527344 91.023438 149.332031 C 95.199219 146.5 98.992188 144.667969 100.671875 144.667969 C 101.542969 144.667969 102.710938 146.046875 103.980469 148.574219 C 112.832031 166.179688 128.164062 175.933594 143.011719 173.402344 C 149.453125 172.304688 153.003906 170.574219 158.914062 165.660156 C 164.21875 161.25 169.351562 154.800781 172.242188 148.914062 C 173.390625 146.578125 174.929688 144.480469 175.664062 144.246094 C 176.515625 143.976562 179.746094 145.484375 184.535156 148.390625 C 192.683594 153.339844 203.710938 158.140625 206.921875 158.140625 C 212.65625 158.140625 211.773438 151.617188 205.855469 150.253906 C 201.339844 149.21875 185.59375 141.003906 182.367188 138.003906 L 179.109375 134.972656 L 179.640625 130.277344 C 180.253906 124.898438 180.65625 124.214844 183.964844 122.949219 C 190.523438 120.445312 197.734375 116.347656 200.988281 113.28125 C 204.929688 109.5625 206.050781 106.410156 205.144531 101.585938 C 204.09375 95.988281 195.582031 89.546875 184.878906 86.253906 C 176.261719 83.605469 176.242188 83.589844 174.003906 76.933594 C 170.398438 66.210938 165.789062 60.503906 157.917969 57.023438 C 153.851562 55.226562 150.546875 55.527344 144.992188 58.1875 C 138.335938 61.371094 139.128906 61.445312 128.578125 56.671875 C 126.019531 55.511719 124.722656 55.453125 121.074219 56.320312 M 120.394531 64.558594 C 113.929688 67.171875 108.765625 79.121094 107.613281 94.148438 C 107.140625 100.261719 106.425781 101.414062 103.296875 101.109375 C 100.949219 100.878906 100.523438 100.207031 99.488281 95.082031 C 99.125 93.300781 98.714844 93.023438 96.402344 93.023438 C 93.308594 93.023438 84.011719 97.417969 80.933594 100.335938 C 78.804688 102.351562 78.328125 104.832031 79.609375 107.222656 C 81.203125 110.199219 91.222656 114.96875 100.597656 117.21875 C 114.746094 120.617188 119.207031 121.054688 139.179688 121.003906 C 156.265625 120.964844 159.710938 120.75 167.226562 119.261719 C 178.515625 117.03125 185.683594 114.632812 191.417969 111.167969 C 200.761719 105.523438 199.800781 101.5 187.695312 95.578125 C 184.0625 93.800781 181.46875 93.003906 179.839844 93.164062 C 177.671875 93.371094 177.355469 93.703125 176.957031 96.164062 C 176.207031 100.824219 173.730469 102.492188 170.785156 100.320312 C 169.839844 99.625 169.324219 97.460938 168.777344 91.902344 C 167.042969 74.269531 160.976562 63.835938 152.46875 63.835938 C 151.25 63.835938 148.203125 64.890625 145.695312 66.179688 C 139.917969 69.160156 136.832031 69.15625 130.5625 66.160156 C 125.628906 63.804688 123.203125 63.421875 120.394531 64.558594 M 122.8125 98.882812 C 121.167969 100.703125 121.246094 101.4375 123.308594 103.371094 C 124.949219 104.914062 125.726562 105 137.953125 105 C 148.0625 105 151.347656 104.75 153.078125 103.855469 C 155.59375 102.558594 155.921875 100.566406 153.917969 98.753906 C 152.742188 97.691406 150.503906 97.515625 138.300781 97.515625 C 125.449219 97.515625 123.933594 97.648438 122.8125 98.882812 M 106.382812 127.160156 C 105.324219 128.21875 105.875 131.59375 108.199219 138.269531 C 111.097656 146.601562 113.910156 151.078125 120.257812 157.453125 C 125.558594 162.777344 130.996094 165.835938 136.65625 166.671875 C 144.253906 167.796875 155.253906 160.6875 163.125 149.566406 C 165.730469 145.890625 168.671875 139.171875 171.464844 130.527344 C 171.648438 129.957031 171.601562 128.863281 171.359375 128.097656 C 170.804688 126.351562 165.5 126.242188 158.28125 127.828125 C 152.625 129.070312 127.242188 129.359375 120.777344 128.253906 C 114.183594 127.128906 106.964844 126.578125 106.382812 127.160156 M 121.117188 134.921875 C 119.199219 135.695312 118.421875 138.179688 119.597656 139.785156 C 120.980469 141.675781 125.820312 142.128906 127.585938 140.535156 C 131.714844 136.800781 126.875 132.597656 121.117188 134.921875 M 149.105469 134.996094 C 147.445312 135.964844 147.414062 138.941406 149.050781 140.574219 C 151.300781 142.824219 157.535156 140.898438 157.535156 137.957031 C 157.535156 134.914062 152.367188 133.097656 149.105469 134.996094 M 219.714844 169.011719 C 204.089844 171.09375 192.03125 176.210938 178.609375 186.457031 C 164.289062 197.378906 153.105469 214.25 148.496094 231.863281 C 146.953125 237.761719 146.730469 240.363281 146.703125 252.820312 C 146.679688 262.304688 147.011719 268.535156 147.699219 271.53125 C 150.535156 283.914062 156.246094 296.105469 163.476562 305.210938 C 181.90625 328.414062 210.636719 340.773438 239.449219 337.894531 C 257.453125 336.097656 271.742188 330.015625 286.265625 317.976562 C 297.789062 308.421875 305 298.285156 311.707031 282.21875 C 314.527344 275.460938 315.800781 266.917969 315.875 254.316406 C 315.96875 237.496094 314.273438 229.515625 307.9375 216.894531 C 296.296875 193.71875 280.007812 179.792969 254.175781 170.933594 C 251.144531 169.894531 234.253906 167.84375 229.828125 167.972656 C 228.179688 168.023438 223.628906 168.492188 219.714844 169.011719 M 218.96875 176.476562 C 210.652344 178.363281 210.667969 178.320312 215.980469 185.328125 C 220.667969 191.519531 221.332031 193.195312 220.40625 196.542969 C 219.382812 200.25 216.25 201.550781 208.34375 201.550781 C 200.949219 201.550781 201.023438 201.511719 191.621094 210.496094 C 187.910156 214.039062 183.613281 217.535156 182.070312 218.261719 C 178.101562 220.128906 178.632812 223.375 183.171875 224.980469 C 183.925781 225.25 184.820312 226.847656 185.316406 228.816406 C 185.785156 230.671875 186.550781 232.492188 187.019531 232.859375 C 187.492188 233.230469 189.800781 233.71875 192.160156 233.949219 C 198.183594 234.539062 200.539062 236.222656 205.191406 243.269531 C 207.714844 247.085938 210.574219 250.363281 212.707031 251.875 C 223.289062 259.382812 227.105469 264.964844 226.125 271.5 C 225.511719 275.589844 222.492188 279.363281 214.6875 285.792969 C 209.597656 289.984375 207.929688 292.359375 206.546875 297.351562 C 205.652344 300.597656 200.894531 307.089844 198.515625 308.320312 C 193.164062 311.085938 186.789062 308.90625 183.882812 303.324219 C 182.207031 300.113281 182.148438 299.4375 182.453125 287.132812 C 182.636719 279.703125 182.464844 273.710938 182.050781 272.910156 C 181.652344 272.152344 179.179688 269.449219 176.546875 266.902344 C 170.769531 261.308594 170.027344 259.589844 170.695312 253.367188 C 171.285156 247.835938 170.921875 247.269531 162.878906 241.144531 C 159.144531 238.300781 157.824219 237.667969 156.785156 238.222656 C 154.757812 239.308594 154.367188 240.921875 153.976562 249.824219 C 152.78125 277.078125 165.335938 302.042969 187.984375 317.449219 C 192.949219 320.824219 202.023438 325.246094 207.621094 327.011719 C 223.417969 331.996094 245.757812 331.035156 261.292969 324.707031 C 268.253906 321.871094 280.664062 313.871094 282.015625 311.347656 C 283.128906 309.261719 282.136719 308.761719 276.257812 308.453125 C 270.320312 308.140625 266.992188 306.367188 264.957031 302.433594 C 263.242188 299.121094 264.644531 294.949219 269.585938 288.640625 C 274.710938 282.101562 277.851562 277.644531 279.273438 274.898438 C 280.839844 271.871094 280.734375 266.457031 279.085938 264.964844 C 277.089844 263.160156 270.785156 260.664062 266.957031 260.164062 C 260.046875 259.261719 255.34375 255.523438 252.730469 248.863281 C 250.625 243.496094 250.742188 239.183594 253.132812 234.140625 C 256.011719 228.0625 260.238281 223.683594 265.914062 220.890625 C 274.472656 216.683594 281.171875 217.171875 290.226562 222.664062 C 292.132812 223.816406 294.6875 225.113281 295.90625 225.535156 C 298.890625 226.574219 302.121094 225.363281 302.121094 223.199219 C 302.121094 221.132812 300.039062 216.609375 298.085938 214.425781 C 296.652344 212.820312 296.164062 212.738281 290.90625 213.195312 C 286.167969 213.605469 284.148438 213.378906 278.308594 211.78125 C 272.3125 210.136719 270.75 209.972656 266.957031 210.582031 C 256.28125 212.300781 251.835938 206.726562 255.378906 196.066406 C 256.324219 193.230469 256.507812 190.960938 256.140625 186.648438 C 255.601562 180.269531 254.445312 178.714844 249.679688 177.972656 C 248.238281 177.75 245.371094 177.214844 243.3125 176.789062 C 236.742188 175.421875 224.296875 175.261719 218.96875 176.476562 M 199.195312 182.625 C 196.117188 183.414062 185.285156 190.449219 179.675781 195.300781 C 172.621094 201.402344 166.8125 208.792969 163.113281 216.375 C 158.140625 226.558594 158.585938 227.914062 169.886719 237.097656 C 173.941406 240.394531 177.917969 243.980469 178.722656 245.070312 C 180.386719 247.324219 180.613281 252.171875 179.214844 255.546875 C 178.359375 257.605469 178.515625 257.863281 183.609375 262.835938 C 190.171875 269.238281 190.734375 270.992188 190.457031 284.253906 C 190.183594 297.480469 190.265625 298.320312 192.074219 300.261719 L 193.652344 301.953125 L 195.371094 300.34375 C 196.316406 299.457031 197.988281 296.652344 199.089844 294.113281 C 200.1875 291.574219 201.472656 288.710938 201.941406 287.757812 C 202.945312 285.710938 206.757812 281.992188 211.464844 278.472656 C 219.710938 272.304688 220 266.820312 212.371094 261.363281 C 206.96875 257.5 204.546875 255.046875 201.441406 250.28125 C 196.882812 243.289062 195.898438 242.601562 188.867188 241.484375 C 181.929688 240.382812 179.6875 238.851562 178.488281 234.410156 C 177.910156 232.257812 176.972656 231.171875 174.414062 229.671875 C 170.425781 227.335938 168.769531 225.164062 168.769531 222.269531 C 168.769531 218.574219 171.078125 215.800781 177.011719 212.367188 C 180.101562 210.582031 185.292969 206.539062 188.542969 203.382812 C 194.792969 197.316406 201.683594 193.320312 205.890625 193.316406 C 209.835938 193.316406 210.148438 192.0625 207.210938 187.976562 C 204.777344 184.597656 201.964844 181.96875 201.003906 182.175781 C 200.789062 182.226562 199.972656 182.425781 199.195312 182.625 M 265.503906 185.292969 C 265.042969 185.753906 264.660156 187.832031 264.65625 189.910156 C 264.648438 191.988281 264.179688 195.226562 263.609375 197.105469 C 262.054688 202.21875 262.785156 202.945312 268.640625 202.105469 C 272.9375 201.488281 273.933594 201.613281 278.226562 203.289062 C 286.820312 206.652344 290.132812 206.578125 290.132812 203.03125 C 290.132812 201.382812 281.875 194.046875 274.402344 189.058594 C 267.820312 184.664062 266.632812 184.164062 265.503906 185.292969 M 136.855469 187.152344 C 135.066406 188.347656 134.3125 191.230469 134.320312 196.824219 C 134.335938 204.007812 135.371094 206.414062 138.453125 206.414062 C 140.332031 206.414062 140.8125 206.007812 141.546875 203.796875 C 142.027344 202.355469 142.304688 198.488281 142.164062 195.203125 C 141.949219 190.140625 141.664062 189.027344 140.277344 187.90625 C 138.464844 186.4375 138.0625 186.351562 136.855469 187.152344 M 269.46875 227.589844 C 265.46875 229.800781 263.40625 231.824219 261.652344 235.257812 C 259.433594 239.605469 259.335938 245.726562 261.4375 248.566406 C 262.882812 250.515625 263.90625 250.9375 275.816406 254.5 C 283.085938 256.675781 288.636719 263.269531 288.636719 269.730469 C 288.636719 274.242188 284.992188 281.472656 278.855469 289.136719 C 274.25 294.886719 273.144531 297.191406 273.960938 299.316406 C 275.046875 302.148438 289.242188 297.5625 296.046875 292.175781 C 301.21875 288.082031 305.558594 277.507812 307.425781 264.449219 C 308.421875 257.484375 307.925781 239.046875 306.652344 235.703125 C 305.9375 233.820312 305.65625 233.734375 300.355469 233.734375 C 295.199219 233.734375 294.273438 233.46875 287.28125 229.992188 C 281.019531 226.875 279.089844 226.253906 275.769531 226.28125 C 273.464844 226.296875 270.804688 226.851562 269.46875 227.589844 " fill-opacity="1" fill-rule="evenodd"/></svg>